<svg xmlns="http://www.w3.org/2000/svg">
<defs>
<font id="VETC-Medium" horiz-adv-x="614">
<font-face underline-position="-80" font-weight="500" descent="-400" panose-1="2 0 5 3 2 0 0 2 0 4" units-per-em="2000" unicode-range="U+000D-FB04" bbox="-147 -463 3671 2203" x-height="1050" underline-thickness="120" font-family="VETC" ascent="1600" cap-height="1433"/>

<glyph glyph-name=".notdef" d="M3609 -2q6 2 10 2h52v-283h-52v207q-3 -5 -4 -14q-3 -4 -3 -8t-2 -6q-9 -23 -18 -45t-19 -44q-9 -23 -18 -45t-19 -45h-47l-74 179q-2 3 -3 6t-2 8q-1 2 -2 6t-2 6v-205h-52v283h51q4 0 12 -2q6 -2 9 -4q5 -3 8 -8q2 -2 6 -8l16 -44t18 -42q8 -22 17 -43t17 -43 q2 -2 2 -5v-3t1 -3t1 -6v-3q0 2 1 3q0 4 1 6q0 4 1 6t1 3v2l10 20l59 152q1 4 6 9q2 3 8 7q4 2 10 4zM3259 -178q3 9 5 18t2 18q0 17 -7 36q-9 17 -20 30q-15 14 -30 19q-18 8 -36 8t-36 -8q-15 -5 -30 -19q-6 -7 -11 -14t-9 -16q-7 -15 -7 -36q0 -19 7 -36t20 -29 q15 -13 30 -20t36 -7t36 7t30 20q7 5 11 13t9 16zM3298 -69q4 -9 8 -17t6 -18q3 -8 4 -18t1 -20t-1 -20t-4 -18q-4 -17 -14 -35q-9 -15 -23 -29l-14 -12t-16 -10l-16 -8t-18 -7q-20 -5 -38 -5q-29 0 -57 11q-12 5 -24 13t-21 18q-10 11 -18 22t-13 24q-12 27 -12 56 q0 20 5 38q5 17 15 35q4 8 10 15t13 15q5 5 13 11t16 11q17 9 34 15q17 4 39 4t38 -4q18 -6 34 -15q9 -5 16 -11t14 -11q7 -8 13 -15t10 -15zM2833 -76q-13 -13 -20 -30q-8 -18 -8 -36q0 -17 8 -36q5 -8 9 -16t11 -13q7 -6 14 -11t16 -9q15 -7 35 -7q8 0 15 1t13 3 q14 5 25 13q6 2 9 4q3 1 10 1q10 0 16 -3q8 -4 12 -8l11 -11q-12 -14 -23 -22q-8 -4 -14 -8t-13 -8q-13 -7 -30 -10q-12 -4 -31 -4q-28 0 -56 11q-27 12 -46 31q-19 20 -31 46q-11 28 -11 56q0 20 5 38q1 10 5 18t9 17q10 15 23 30q7 5 14 11t16 11q16 9 34 15q17 4 38 4h16 t15 -3q8 -3 15 -5t15 -5q7 -4 13 -8t14 -9q13 -10 23 -21l-11 -12q-4 -4 -12 -8q-8 -3 -16 -3q-10 0 -19 6q-13 8 -25 12q-13 5 -28 5q-17 0 -35 -8q-9 -3 -16 -8t-14 -11zM2726 -233q5 -5 6 -10q3 -5 3 -12q0 -8 -3 -12q-1 -5 -6 -10q-4 -4 -10 -6q-6 -3 -13 -3t-11 3 q-7 2 -11 6t-7 10q-2 6 -2 12t2 12q3 6 7 10t11 6q4 3 11 3t13 -3q6 -2 10 -6zM2639 -145q8 -8 13 -23q5 -13 5 -28q0 -18 -8 -36q-9 -17 -22 -29q-15 -12 -33 -18q-8 -3 -18 -5t-19 -2q-11 0 -21 2t-19 5q-9 5 -17 9t-15 12q-5 5 -8 9t-6 9q-3 4 -5 8t-3 8q1 1 3 2l4 2l4 2 t3 2q6 2 8 3q3 1 5 1h4q6 0 12 -3q8 -2 13 -4q9 -7 17 -10q8 -5 21 -5h7t9 2l8 4t7 3q9 6 12 13q6 7 6 17q0 7 -5 14q-4 5 -12 10q-6 4 -16 7q-5 2 -9 4t-9 4q-13 4 -29 11q-8 3 -14 7t-12 9q-12 10 -17 22q-7 13 -7 32q0 10 2 18t5 16q5 7 9 13t11 10q13 10 29 16 q13 4 32 4q13 0 24 -4l12 -4t10 -6q6 -3 10 -7t9 -8q10 -8 15 -16l-10 -8q-7 -5 -14 -8q-5 -2 -8 -2h-7h-3h-4q-6 2 -10 4q-6 2 -8 4q-2 0 -4 1t-4 1q-6 2 -8 2q-4 -1 -7 -1t-7 -1q-5 -1 -11 -5q-6 -3 -9 -8q-2 -3 -2 -11t2 -11t4 -5t5 -4q6 -4 16 -7q5 -2 11 -4t13 -4l9 -3 q18 -6 29 -14q14 -9 22 -18zM2242 0h218v-50h-83v-233h-52v233h-83v50zM2166 0h52v-283h-48l-135 189q-3 2 -4 7q-2 1 -3 3l-2 4l-2 4t-2 3l-3 6v-216h-52v283h46q10 0 16 -3q8 -3 11 -9q15 -20 30 -41t29 -42l30 -42t29 -41q4 -6 6 -12q2 -8 2 -9v199zM1871 -178q3 9 5 18 t2 18q0 17 -7 36q-4 9 -9 16t-11 14q-15 14 -30 19q-18 8 -36 8t-36 -8q-16 -6 -29 -19q-12 -12 -21 -30q-7 -19 -7 -36q0 -9 2 -18t5 -18q5 -8 9 -16t12 -13q12 -13 29 -20q15 -7 36 -7t36 7t30 20q12 12 20 29zM1910 -69q4 -9 8 -17t6 -18q3 -8 4 -18t1 -20t-1 -20t-4 -18 q-4 -17 -14 -35q-9 -15 -23 -29q-5 -6 -13 -12t-16 -10l-16 -8t-18 -7q-10 -1 -19 -3t-20 -2q-29 0 -56 11q-27 12 -46 31q-10 11 -18 22t-13 24q-11 25 -11 56q0 10 1 20t3 18q5 17 15 35q4 8 10 15t13 15q14 12 29 22q17 9 34 15q17 4 39 4t39 -4q17 -6 34 -15 q8 -5 16 -11t13 -11q7 -8 13 -15t10 -15zM1442 0h181v-50h-130v-71h109v-50h-109v-112h-51v283zM1325 -172l-37 86q-2 3 -2 6t-2 5q0 6 -1 8q0 -5 -1 -8q0 -2 -1 -5l-2 -6l-37 -86h83zM1307 0l123 -283h-32q-11 0 -20 6q-7 5 -14 15l-16 39h-129l-17 -39q-2 -5 -5 -8 q-2 -3 -8 -7t-10 -4q-3 -2 -10 -2h-33l124 283h47zM1179 -50h-83v-233h-52v233h-83v50h218v-50zM769 0h182v-50h-130v-65h105v-50h-105v-68h130v-50h-182v283zM524 0h210v-23q0 -10 -1 -14q-3 -8 -6 -12l-141 -189l4 2l4 2h2l2 1h135v-50h-217v16q0 5 2 13t4 13q2 3 3 5l3 6 q5 5 8 11l125 169h-137v50zM3645 251q4 3 9 3h17v-182h-20v151q0 -1 -1 -1q0 -2 -1 -3v-3q0 -1 -1 -2q-5 -10 -9 -20l-8 -20l-9 -18t-7 -18q-4 -10 -8 -18t-7 -16l-8 -16t-7 -16h-21q-8 17 -16 35t-15 35l-16 36l-16 36q-1 1 -1 4q-1 2 -1 4v-150h-20v182h16q4 0 9 -3 q6 -3 6 -8l63 -141q0 -3 1 -4t1 -4q0 3 2 11q3 3 3 5t2 5l57 128q1 5 6 8zM3346 90q11 0 20 3q5 1 9 3l8 4q5 2 8 5t7 6q7 7 11 15q5 7 8 18q2 6 2 10v9q0 13 -5 28q-7 15 -16 23q-9 9 -23 16q-15 5 -29 5q-13 0 -28 -5q-13 -6 -22 -16q-9 -8 -16 -23q-6 -14 -6 -28v-9 t2 -10q2 -5 4 -9t4 -9t5 -8l7 -7q6 -7 14 -11l8 -4t9 -3q9 -3 19 -3zM3413 97q-14 -14 -30 -20q-15 -7 -37 -7q-8 0 -18 2t-18 5q-17 6 -29 20q-7 5 -11 13t-9 16q-8 19 -8 37q0 6 1 12t3 12q3 14 10 23q4 9 14 19q7 7 19 14q4 3 10 5t12 5q12 3 24 3q14 0 26 -3q6 -3 11 -5 t10 -5q7 -3 11 -7t9 -7q5 -5 8 -9t6 -10q6 -10 9 -23q4 -11 4 -24q0 -21 -8 -37q-6 -16 -19 -29zM3176 173q4 1 6 3t4 3q5 5 6 10q3 6 3 13q0 6 -3 12q-1 5 -6 10q-4 4 -10 7q-8 2 -13 2h-44v-63h44q7 0 13 3zM3204 169q-2 -5 -5 -7t-7 -5q-8 -5 -16 -6l59 -79h-12 q-9 0 -13 2q-5 3 -8 8l-50 68h-33v-78h-20v182h64q12 0 21 -4t16 -11t12 -17q2 -5 3 -10t1 -10q0 -9 -3 -18q-4 -10 -9 -15zM2986 233v-63h76v-20h-76v-78h-20v182h111v-21h-91zM2704 72h-20v182h14q12 0 16 -7l94 -132q2 -2 2 -3t1 -3t1 -5v150h21v-182h-19l-107 150l-1 2 q-1 1 -1 3t-1 3v-158zM2490 191q-6 -14 -6 -28q0 -10 3 -19t7 -18q2 -5 5 -8t6 -7q3 -3 7 -6t8 -5q5 -2 9 -4t9 -3q7 -3 19 -3q10 0 19 3q5 1 9 3t9 4q7 4 14 11t11 15q5 7 8 18q2 6 2 10v9q0 14 -6 28q-5 14 -15 23q-8 9 -23 16q-13 5 -28 5q-9 1 -15 -1t-14 -4 q-14 -7 -23 -16t-15 -23zM2491 97q-13 12 -20 29q-8 19 -8 37q0 6 1 12t3 12q3 13 9 23q4 6 7 10t8 9q5 3 9 7t10 7q11 7 22 10q12 3 25 3t25 -3q6 -3 12 -5t10 -5q6 -3 10 -7t9 -7q5 -5 8 -9t6 -10q3 -5 5 -11t5 -12q3 -12 3 -24q0 -20 -7 -37q-8 -17 -20 -29 q-14 -14 -30 -20q-15 -7 -36 -7q-20 0 -37 7q-17 6 -29 20zM2421 254v-182h-21v182h21zM2326 98q6 4 9 11q4 5 4 14t-3 15t-9 9q-4 4 -12 7q-4 1 -14 5q-5 2 -9 4t-10 4q-11 3 -16 9q-6 4 -11 13q-3 7 -3 20q0 11 5 19q3 9 12 15q4 3 8 5t9 5q9 3 19 3q5 0 15 -2q5 -2 13 -6 q3 -2 5 -4t5 -4t5 -4l4 -4l-5 -4q-4 -4 -10 -4q-4 0 -10 2q-2 2 -3 2t-2 2l-2 2l-3 1q-2 1 -3 1h-3q-2 1 -6 1q-5 0 -13 -2q-4 -1 -10 -5q-6 -6 -7 -9q-3 -5 -3 -10q0 -8 2 -11q1 -4 6 -7q6 -4 11 -6q4 -2 8 -3t9 -3q3 -2 9 -4t9 -4q6 -2 9 -4q1 -1 3 -2l4 -2q8 -8 14 -17 q2 -4 3 -10t1 -13q0 -10 -5 -22q-4 -8 -13 -17q-8 -7 -20 -10q-9 -4 -23 -4q-26 0 -40 14q-3 2 -5 5t-5 5q-4 6 -4 8l4 2q2 2 4 2q1 1 4 1q8 0 13 -5q6 -7 14 -9q7 -3 15 -3h7t7 2q7 1 13 6zM2159 170q6 0 12 3q3 1 5 3t5 3q4 4 7 10l2 6t1 7q0 3 -1 6l-2 6q-3 6 -7 10 t-10 7q-8 2 -12 2h-44v-63h44zM2187 157q-8 -5 -16 -6l59 -79h-12q-9 0 -12 2q-6 3 -9 8l-51 68h-31v-78h-21v182h65q12 0 20 -4q9 -4 17 -11q7 -8 11 -17q4 -8 4 -20q0 -9 -3 -18q-4 -9 -8 -15q-3 -5 -6 -7t-7 -5zM1961 233v-59h73v-20h-73v-62h90v-20h-111v182h111v-21 h-90zM1826 72l-79 182h11q4 0 10 -3q2 -1 4 -3t2 -5l60 -136v-3t1 -3q1 -3 1 -6v6q2 4 2 6q8 17 15 34t15 34t15 34t15 34q2 4 6 8q6 3 10 3h11q-10 -24 -20 -46t-20 -45q-9 -23 -19 -45t-20 -46h-20zM1579 254v-162h81v-20h-101v182h20zM1455 254v-162h81v-20h-102v182h21z M1271 254v-112q0 -12 4 -20q2 -5 5 -9l6 -8l8 -6t9 -5q9 -4 20 -4q12 0 20 4q5 2 9 5l8 6q6 6 11 17q5 10 5 20v112h20v-112q0 -16 -6 -28q-2 -6 -6 -12t-9 -11q-9 -9 -23 -16q-15 -5 -29 -5q-13 0 -28 5q-15 7 -23 16q-9 8 -16 23q-3 6 -4 13t-1 15v112h20zM1126 233v-63 h76v-20h-76v-78h-21v182h111v-21h-90zM912 72v161h-58v21h137v-21h-58v-161h-21zM742 233v-59h72v-20h-72v-62h90v-20h-111v182h111v-21h-90zM530 116q-6 8 -10 22q-2 6 -3 12t-1 13q0 6 1 12t3 12q3 14 10 23q7 12 14 19t19 14q5 3 11 5t11 5q12 3 25 3q10 0 19 -2t18 -5 q7 -5 15 -9t14 -12l-4 -4q0 -1 -1 -1q-1 -1 -2 -1q-2 -2 -4 -2h-5q-6 0 -9 2q-5 4 -9 6t-10 4q-11 3 -22 3q-15 0 -28 -5q-15 -7 -23 -16q-9 -8 -16 -23q-6 -14 -6 -28q0 -10 3 -19t7 -18q3 -5 6 -8t6 -7q3 -3 7 -6t8 -5q5 -2 9 -4t9 -3q9 -3 19 -3q12 0 24 3q5 3 11 5t11 5 v38h-14q-1 1 -3 1h-4q-2 2 -6 4q-1 2 -2 3t-1 3q-2 4 -2 7v2h51v-71q-5 -7 -14 -11q-8 -4 -15 -5q-5 -2 -9 -2t-9 -2h-19q-13 0 -25 3q-11 3 -22 9q-12 7 -19 15q-7 7 -14 19zM2212 1378q55 -23 95 -60h-422q23 20 47 34t50 26q28 11 56 16t59 5q62 0 115 -21zM1861 871 q-19 22 -33 46t-25 51q-11 26 -15 55t-5 60q0 57 18 108q7 27 21 49t31 44h419zM1922 881l411 415q79 -103 79 -213q0 -57 -18 -108q-17 -49 -53 -94h-419zM1983 789q-53 21 -97 58h423q-43 -37 -97 -58q-51 -22 -115 -22q-63 0 -114 22zM3530 648h-19q-10 0 -14 -3 q-7 -3 -10 -10l-48 -64q1 0 -2 -3h-1q0 3 -2 3l-47 64q-6 8 -10 10q-8 3 -15 3h-19l72 -97q1 -1 1 -2t2 -2q2 -4 3 -5t1 -2v-2v-6v-84h28v84v3t1 3q1 1 1 2t1 2t1 2t2 3q0 1 3 4zM3371 475h-87v173h-27v-200h114v27zM3208 648h-28v-156q-2 9 -5 14l-97 134q-3 5 -8 6 q-6 2 -12 2h-20v-200h28v168l2 -4q0 -3 1 -4q0 -2 2 -4l114 -156h23v200zM2998 520q3 15 3 27q0 14 -3 28q-2 7 -4 13t-7 12q-7 12 -16 20l-10 8l-10 8q-6 4 -12 6t-13 5q-12 3 -27 3q-14 0 -27 -3q-7 -3 -13 -5t-12 -6q-5 -4 -11 -8t-10 -8l-8 -10l-8 -10q-5 -10 -10 -25 q-3 -14 -3 -28q-1 -10 1 -20t7 -19q4 -10 9 -18t12 -15q15 -14 33 -21q16 -8 40 -8h14t13 3q7 3 13 5t12 6q12 7 20 15q5 5 9 11t7 10q5 6 7 12zM2683 648h-124v-200h124v27h-97v60h78v28h-78v57h97v28zM2519 482q5 10 5 25q0 29 -21 44q-2 2 -4 3l-4 2l-10 5q-6 2 -10 4 q-3 0 -5 1t-5 2q-5 2 -9 4t-7 3q-5 3 -7 3t-4 2q-6 4 -7 8q-2 6 -2 10q0 5 3 10q4 6 7 8q3 1 5 2t5 3q8 2 13 2q2 0 4 -1t6 -2q2 0 5 -2l6 -4q6 -3 12 -3q8 0 13 5l8 5l-10 10q-3 3 -6 5t-7 4q-3 2 -7 4t-8 3q-9 3 -16 3q-13 0 -23 -3q-5 -3 -9 -5l-10 -5l-8 -8t-5 -9 q-6 -9 -6 -22q0 -12 5 -22t13 -15q8 -7 17 -11l21 -9q4 -3 7 -3t7 -2q3 -2 7 -3t6 -3q6 -5 9 -10q4 -4 4 -13t-4 -14q-2 -5 -10 -11q-5 -4 -13 -7q-10 -2 -14 -2q-7 0 -15 2q-9 3 -12 8l-2 1q-6 7 -16 7q-6 0 -10 -4l-8 -3q1 -1 1 -2t2 -2l3 -6q4 -4 5 -6q3 -5 7 -6 q17 -16 45 -16q14 0 26 4q12 5 22 13q8 7 15 19zM2365 648h-28v-122q0 -12 -4 -21q-3 -5 -5 -9t-7 -7q-3 -5 -7 -7t-9 -5q-9 -4 -21 -4t-20 4l-10 5t-7 7q-7 5 -12 16q-2 5 -3 10t-1 11v122h-27v-122v-12t2 -10q2 -6 4 -10t4 -9q3 -5 6 -9t8 -7q5 -6 15 -13q11 -5 20 -8 q10 -3 21 -3t22 3q6 2 10 4t9 4q9 6 16 13q4 3 7 7t6 9q2 5 4 9t4 10q3 10 3 22v122zM2090 475h-87v173h-27v-200h114v27zM1956 448l-87 200h-27l-88 -200h16q6 0 12 3l4 4t4 5l14 32h102l14 -32q3 -7 8 -9q3 -3 12 -3h16zM1735 648h-28v-156q0 5 -1 8t-3 6l-97 134 q-3 4 -8 6q-8 2 -12 2h-20v-200h28l2 160q0 -2 2 -4l114 -156h23v200zM1525 520q3 15 3 27q0 14 -3 28q-3 7 -5 13t-6 12q-3 5 -7 10l-8 10q-10 8 -22 16q-5 4 -11 6t-13 5q-14 3 -27 3q-15 0 -27 -3q-7 -3 -13 -5t-12 -6l-10 -8l-10 -8q-9 -8 -16 -20q-4 -6 -6 -12t-5 -13 q-2 -7 -3 -13t-1 -15q0 -21 9 -39q4 -10 10 -18t12 -15q13 -13 32 -21q17 -8 40 -8h14t13 3t13 5t11 6q11 5 22 15q4 5 8 11t7 10q4 6 6 12t5 12zM1296 482q5 13 5 25q0 27 -21 44q-6 4 -9 5q-3 2 -5 2t-4 3q-2 1 -5 1t-5 3q-2 0 -5 1t-5 2q-5 2 -9 4t-8 3q-9 3 -11 5 q-5 5 -6 8q-2 3 -2 10t2 10q4 6 7 8q3 1 11 5q4 1 6 1t6 1q2 0 5 -1t5 -2q3 0 6 -2t5 -4q6 -3 12 -3q9 0 14 5l7 5q-2 3 -4 5t-6 5q-3 3 -6 5t-7 4q-5 4 -15 7q-8 3 -16 3q-12 0 -22 -3l-10 -5l-10 -5q-8 -8 -13 -17q-5 -10 -5 -22q0 -15 5 -22q4 -9 12 -15q9 -7 18 -11 l10 -4t10 -5q3 -3 7 -3t7 -2q10 -4 13 -6q6 -4 10 -10q3 -5 3 -13q0 -9 -4 -14q-2 -6 -9 -11q-2 -2 -6 -4t-7 -3q-5 -1 -8 -1t-7 -1q-6 0 -14 2q-9 3 -12 8l-3 1q-6 7 -15 7q-6 0 -11 -4l-7 -3q1 -1 1 -2t2 -2q0 -2 1 -3t2 -3t5 -6q3 -5 6 -6q17 -16 45 -16q15 0 27 4 q13 5 21 13q10 8 16 19zM1161 448l-63 86q10 3 16 8q9 6 13 13q5 5 9 16q2 5 2 9v9q0 14 -4 23q-2 6 -6 10t-7 9q-8 7 -18 12q-9 5 -23 5h-72v-200h28v83h30l52 -71q3 -5 10 -9q4 -3 15 -3h18zM966 648h-124v-200h124v27h-96v60h78v28h-78v57h96v28zM817 561q5 12 5 24 t-5 25q-4 9 -14 19q-8 9 -20 14q-10 5 -24 5h-71v-200h27v74h44q11 0 24 5q11 4 20 13q10 10 14 21zM1774 1216q-26 -64 -26 -133q0 -71 27 -134q26 -62 74 -113q46 -47 111 -76q61 -29 137 -29q74 0 136 28q32 14 60 33t52 42t43 51t33 60q27 64 27 138q0 67 -20 120 q-19 53 -56 99q-35 42 -82 74q-24 14 -50 26t-51 19q-39 13 -92 13q-73 0 -139 -29q-64 -29 -111 -76q-45 -47 -73 -113zM3671 1084v-766h-3147v766h1193q0 80 30 151q17 35 37 65t46 56q54 52 121 80q70 30 146 30q85 0 152 -32q70 -31 121 -84q26 -26 46 -56t34 -66 q29 -70 29 -144h1192zM784 610q3 -3 7 -11q3 -8 3 -14q0 -8 -3 -14q-4 -8 -7 -11q-6 -6 -11 -7q-4 -2 -7 -3t-7 -1h-44v71h44q6 0 14 -3q5 -1 11 -7zM1855 616q0 -6 2 -12l37 -84h-78l36 84l1 2l1 3v3t1 4zM1479 600q10 -10 16 -23q6 -14 6 -30q0 -14 -6 -29q-3 -6 -7 -12 t-9 -11q-10 -10 -24 -16t-29 -6q-16 0 -29 6q-14 6 -24 16q-9 9 -16 23q-6 15 -6 29q0 16 6 30q7 15 16 23q9 10 24 17q13 6 29 6q15 0 29 -6q15 -7 24 -17zM1109 577q-4 -6 -7 -10q-6 -4 -10 -6t-12 -2h-44v61h44q6 0 12 -3q5 -1 10 -6q3 -3 7 -9q2 -8 2 -13q0 -4 -2 -12z M2952 600q9 -8 16 -23q6 -14 6 -30q0 -14 -6 -29q-7 -14 -16 -23q-10 -10 -24 -16t-29 -6q-16 0 -29 6q-14 6 -24 16q-5 5 -9 11t-7 12q-6 15 -6 29q0 16 6 30q6 13 16 23q9 10 24 17q13 6 29 6q15 0 29 -6q15 -7 24 -17z" horiz-adv-x="4097"/>
<glyph glyph-name=".null" horiz-adv-x="0"/>
<glyph glyph-name="nonmarkingreturn" horiz-adv-x="0" unicode=""/>
<glyph glyph-name="NULL" horiz-adv-x="0"/>
<glyph glyph-name="NULL" horiz-adv-x="0"/>
<glyph glyph-name="space" horiz-adv-x="617" unicode=" "/>
<glyph glyph-name="exclam" horiz-adv-x="686" unicode="!" d="M477 120q0 -28 -10.5 -52.5t-29 -43t-43 -29t-52.5 -10.5t-52.5 10.5t-43 29t-29 43t-10.5 52.5t10.5 52.5t29 43t43 29t52.5 10.5t52.5 -10.5t43 -29t29 -43t10.5 -52.5zM243 454v980h198v-980h-198z"/>
<glyph glyph-name="quotedbl" horiz-adv-x="794" unicode='&quot;' d="M132 1433h177v-386q0 -19 -7 -36t-19 -29.5t-28 -19.5t-35 -7t-35 7t-28 19.5t-18.5 29.5t-6.5 36v386zM463 1433h177v-386q0 -19 -7 -36t-19 -29.5t-28 -19.5t-35 -7t-35 7t-28 19.5t-18.5 29.5t-6.5 36v386z"/>
<glyph glyph-name="numbersign" horiz-adv-x="1160" unicode="#" d="M439 575h223l49 246h-224zM813 1341q4 22 17 39t31.5 29t40.5 18t45 6h61l-87 -442h202l-12 -58q-5 -22 -15 -42t-25 -35.5t-34.5 -25t-41.5 -9.5h-108l-48 -247h222l-12 -58q-5 -22 -15 -42t-25 -35.5t-34.5 -25t-41.5 -9.5h-128l-61 -312q-4 -22 -17 -39t-31 -29 t-40 -18t-45 -6h-61l79 404h-224l-61 -312q-4 -22 -17 -39t-31 -29t-40 -18t-45 -6h-61l79 404h-189l12 59q4 22 14 42t25 35.5t34 25t42 9.5h95l49 246h-210l12 59q4 22 14.5 42t25.5 35.5t34 25t42 9.5h115l69 349q4 22 17 39t31.5 29t40.5 18t45 6h61l-87 -441h223z"/>
<glyph glyph-name="dollar" horiz-adv-x="1065" unicode="$" d="M698 1189q-39 28 -79 44.5t-75 16.5q-47 0 -88.5 -13t-73 -36t-50 -54.5t-18.5 -68.5q0 -43 14 -73t45 -53.5t80.5 -44.5t120.5 -45q35 -14 70.5 -26.5t69.5 -27t67 -31.5t63 -40q151 -115 151 -310q0 -88 -33 -163t-89.5 -131.5t-132 -93t-160.5 -48.5v-168h-104v163 q-177 8 -295 114q-26 23 -46 46.5t-34.5 45.5t-24.5 40t-16 30l48 25q38 23 79 23q65 0 110 -47l16 -13q38 -32 84.5 -49.5t106.5 -17.5q49 0 101 16t94.5 46.5t70 76t27.5 105.5q0 58 -26 96t-67.5 65t-93 46t-101.5 39q-74 29 -144.5 60t-126 75.5t-89 109t-33.5 160.5 q0 79 29.5 142.5t79 110t114.5 75.5t137 38v137h104v-134q54 -6 106.5 -27.5t98 -51t83 -63.5t62.5 -65l-51 -38q-42 -36 -97 -36q-47 0 -84 23z"/>
<glyph glyph-name="percent" horiz-adv-x="1572" unicode="%" d="M976 352q0 -40 12 -75t34.5 -61.5t54.5 -41.5t72 -15t72 15t54.5 41.5t34.5 61.5t12 75t-12 75t-34.5 61.5t-54.5 41.5t-72 15t-72 -15t-54.5 -41.5t-34.5 -61.5t-12 -75zM803 352q0 76 25.5 143t71.5 116.5t109.5 78.5t139.5 29t140 -29t110 -78.5t71.5 -116.5 t25.5 -143t-25.5 -143t-71.5 -116.5t-110 -78t-140 -28.5t-139.5 28.5t-109.5 78t-71.5 116.5t-25.5 143zM247 1082q0 -40 12 -75t34.5 -61.5t54.5 -41.5t72 -15t72 15t54.5 41.5t34.5 61.5t12 75t-12 75t-34.5 61.5t-54.5 41.5t-72 15t-72 -15t-54.5 -41.5t-34.5 -61.5 t-12 -75zM74 1082q0 76 25.5 143t71.5 116.5t109.5 78.5t139.5 29t140 -29t110 -78.5t71.5 -116.5t25.5 -143t-25.5 -143t-71.5 -116.5t-110 -78t-140 -28.5t-139.5 28.5t-109.5 78t-71.5 116.5t-25.5 143zM434 90q-32 -43 -75 -66.5t-101 -23.5h-136l1006 1343 q32 43 75 66.5t101 23.5h136z"/>
<glyph glyph-name="ampersand" horiz-adv-x="1406" unicode="&amp;" d="M699 440l-237 235q-40 -14 -75 -38t-61 -55.5t-41 -70t-15 -82.5q0 -64 23.5 -111.5t62.5 -79t90 -47.5t105 -16q156 0 284 129zM856 552l96 -96l107 144q29 45 73.5 67.5t102.5 22.5h136l-278 -374l319 -316h-153q-40 0 -69 6t-52.5 17.5t-43.5 28t-42 38.5l-82 81 q-91 -92 -196.5 -139t-222.5 -47q-100 0 -186 34.5t-149.5 94.5t-99.5 141t-36 174q0 52 13.5 102.5t38 97.5t59.5 88t79 73q9 8 25 8t34.5 -9.5t40.5 -22.5q-57 57 -86.5 130t-29.5 155q0 88 31.5 161t84.5 125.5t122.5 82t145.5 29.5q63 0 124.5 -15.5t117.5 -45.5 t104.5 -74.5t86.5 -102.5l-66 -22q-28 -9 -50.5 -13t-42.5 -4q-25 0 -44 5t-33 12.5t-25 15t-19 13.5q-62 41 -153 41q-38 0 -73 -15t-61.5 -42.5t-42.5 -66t-16 -85.5q0 -38 14.5 -78t49.5 -75z"/>
<glyph glyph-name="quotesingle" horiz-adv-x="460" unicode="&apos;" d="M120 1433h217l-20 -386q-2 -38 -27 -65t-62 -27q-38 0 -62.5 27t-25.5 65z"/>
<glyph glyph-name="parenleft" horiz-adv-x="600" unicode="(" d="M307 629q0 -205 44.5 -372t115.5 -297q14 -26 23.5 -66t9.5 -79q0 -32 -7.5 -58t-24.5 -39l-37 -28q-57 75 -113 173t-100.5 216.5t-72.5 256t-28 292.5q0 154 28 292.5t72.5 257.5t100.5 217t113 173l37 -28q17 -14 24.5 -39.5t7.5 -57.5q0 -39 -9.5 -79t-23.5 -66 q-71 -130 -115.5 -297t-44.5 -372z"/>
<glyph glyph-name="parenright" horiz-adv-x="600" unicode=")" d="M281 629q0 102 -12 195t-33 177t-50.5 158t-64.5 139q-14 26 -23.5 66t-9.5 79q0 32 7.5 58t24.5 39l37 28q57 -75 113 -173t100.5 -217t72.5 -257.5t28 -292.5q0 -155 -28 -292.5t-72.5 -256t-100.5 -216.5t-113 -173l-37 28q-17 13 -24.5 39t-7.5 58q0 39 9.5 79 t23.5 66q35 65 64.5 139t50.5 158t33 177t12 195z"/>
<glyph glyph-name="asterisk" horiz-adv-x="800" unicode="*" d="M157 955l-78 137l110 64q23 14 51 19.5t57 8.5q-28 2 -56 8.5t-51 20.5l-111 65l79 136l111 -64q23 -14 42 -35.5t36 -44.5q-12 25 -20.5 53t-8.5 55v128h158v-128q0 -27 -8.5 -55t-21.5 -54q17 23 37 44.5t43 35.5l111 64l78 -137l-110 -64q-24 -14 -52 -20t-56 -8 q27 -2 55.5 -9t51.5 -20l111 -65l-79 -136l-111 64q-23 14 -42.5 35t-36.5 45q12 -26 21 -54t9 -54v-128h-158v128q0 27 8 54.5t20 52.5q-16 -23 -35.5 -44t-42.5 -34z"/>
<glyph glyph-name="plus" horiz-adv-x="1160" unicode="+" d="M485 190v383h-383v188h383v383h188v-383h383v-188h-383v-383h-188z"/>
<glyph glyph-name="comma" horiz-adv-x="424" unicode="," d="M83 120q0 28 10.5 52.5t29 43t43 29t52.5 10.5t52.5 -10.5t43 -29t29 -43t10.5 -52.5q0 -107 -40 -194.5t-130 -163.5l-15 16q-13 13 -13 36q0 28 10 46t21.5 34.5t21.5 37t10 53.5h-12q-26 2 -48.5 13.5t-39 29.5t-26 41.5t-9.5 50.5z"/>
<glyph glyph-name="hyphen" horiz-adv-x="694" unicode="-" d="M599 573h-506v188h506v-188z"/>
<glyph glyph-name="period" horiz-adv-x="436" unicode="." d="M83 120q0 28 10.5 52.5t29 43t43 29t52.5 10.5t52.5 -10.5t43 -29t29 -43t10.5 -52.5t-10.5 -52.5t-29 -43t-43 -29t-52.5 -10.5t-52.5 10.5t-43 29t-29 43t-10.5 52.5z"/>
<glyph glyph-name="slash" horiz-adv-x="852" unicode="/" d="M632 1380q18 42 57 67t85 25h84l-641 -1470q-18 -42 -57 -67t-85 -25h-84z"/>
<glyph glyph-name="zero" horiz-adv-x="1635" unicode="0" d="M1321 724q-1 70 -21 135t-55 121.5t-83 103.5t-105.5 81t-122.5 54t-133 22q-104 -6 -196.5 -49t-163 -112t-111.5 -159.5t-41 -192.5v-5q0 -110 40 -206t111 -167.5t167.5 -113t207.5 -44.5q99 7 189.5 50.5t160.5 114.5t112 165t44 202zM1512 724q0 -100 -25 -193 t-71 -173.5t-110 -146.5t-141 -113t-165.5 -72.5t-183.5 -25.5q-101 0 -194 25.5t-173.5 72t-146.5 112.5t-112.5 146.5t-72 174.5t-25.5 197q0 97 25.5 187t72.5 168.5t112.5 143t145.5 110.5t172 71.5t192 25.5q96 0 185 -26t166.5 -72.5t142 -112t110 -144.5t71 -169 t25.5 -186z"/>
<glyph glyph-name="one" horiz-adv-x="652" unicode="1" d="M467 -1q-43 0 -66 1.5t-33.5 12t-12.5 33.5t-2 65v1037q-29 -28 -59 -54q-30 -25 -55 -43q-14 -12 -33 -18t-38.5 -9t-36.5 -2.5t-26 2.5q-55 22 -55 65q0 34 33 61l47 45l55 52q38 35 76.5 71.5t78.5 75.5q18 18 50.5 28t64.5 10q37 0 65 -14q13 -8 21.5 -22t8.5 -24 v-1294q0 -30 -1.5 -46t-9 -23.5t-24.5 -8.5t-48 -1z"/>
<glyph glyph-name="two" horiz-adv-x="1139" unicode="2" d="M395 179h546q54 0 67.5 -17t13.5 -47q0 -9 -1 -20v-26q2 -11 2 -20q0 -20 -12.5 -34.5t-55.5 -14.5h-794q-40 0 -53 12.5t-13 50.5v9q0 47 20 86t53 75l100 106q76 80 151.5 160.5t146.5 166.5q61 66 113.5 133.5t95.5 142.5q30 48 30 100q0 57 -34.5 106t-94.5 72 q-38 17 -73.5 28.5t-69.5 11.5q-43 0 -86 -20q-31 -15 -56.5 -32.5t-54.5 -39.5q-26 -23 -59.5 -41.5t-68.5 -18.5q-12 0 -23 2t-24 7q-20 9 -32 22.5t-12 35.5q0 10 2.5 19t7.5 20q27 55 72.5 96.5t100.5 69.5t116 42.5t119 14.5t108 -15q54 -14 102.5 -32t91.5 -54 q83 -60 125 -139q42 -80 41 -168q0 -116 -73 -229q-39 -59 -85 -118.5t-96 -118.5t-100.5 -116t-98.5 -109l-28 -30l-78 -80z"/>
<glyph glyph-name="three" horiz-adv-x="980" unicode="3" d="M99 1267q48 51 104 86.5t113 53.5q32 11 66 16.5t68 5.5q48 0 100 -15t100 -43q41 -26 75.5 -58.5t60 -71.5t40 -84t14.5 -96v-17q0 -7 -1 -13q-2 -42 -15.5 -79.5t-34.5 -70t-48 -60.5t-56 -53l-4 -4q43 -34 79 -73t62.5 -84t40 -95.5t13.5 -104.5v-8 q-3 -63 -23.5 -117.5t-55 -100t-81 -81.5t-101.5 -62q-40 -18 -86 -27t-92 -9q-54 0 -108.5 12.5t-105 37t-94 60t-74.5 81.5l-2 9q-3 7 -6 18.5t-6 31.5q26 23 51.5 35t49.5 12q22 0 44 -8t46 -23l10 -6q35 -26 68.5 -47t71.5 -32q30 -8 53 -8q37 0 73 13t67.5 35.5 t56 52.5t38.5 64q10 30 10 68q0 45 -16 86.5t-41.5 75.5t-57.5 59t-64 36l1 -1q-11 3 -22.5 3.5t-25.5 0.5q-21 0 -33.5 3.5t-19 11.5t-9 22t-2.5 34v10q0 32 3 50t12 27.5t27 13t48 6.5q33 6 61 28q43 32 71.5 73t32.5 93q1 11 1 22q0 47 -23.5 89t-74.5 71q-53 32 -97 32 q-29 0 -60.5 -11.5t-62.5 -33.5l4 4l-10 -8q-11 -7 -23.5 -14t-26.5 -9q-29 -12 -54 -12q-63 0 -119 62v35z"/>
<glyph glyph-name="four" horiz-adv-x="1174" unicode="4" d="M533 868q-60 -89 -118.5 -177.5t-116.5 -178.5h30h33.5t31 0.5t23.5 0.5h66h65h62t64 -1h6q6 0 6 3v586l-123 -188zM884 521q0 -9 9 -9h112q11 0 22.5 -1.5t21.5 -7.5t16 -19.5t6 -37.5v-27q0 -27 -1.5 -43.5t-9 -25.5t-23 -12t-42.5 -3h-110q2 -1 2 -8v-260 q0 -22 -4 -35t-13 -20t-23.5 -9.5t-35.5 -2.5h-18q-40 0 -62 1t-32 7.5t-12 20.5t-2 40v261q0 5 -9 5h-549q-24 0 -39.5 3t-23.5 12t-11 24.5t-3 40.5q0 35 7.5 68.5t27.5 63.5v-1q111 169 215 334t211 335q18 30 38 63q20 32 39 60q30 53 75 73t104 20q42 -2 66 -4t35 -12 t13.5 -32.5t2.5 -64.5v-797z"/>
<glyph glyph-name="five" horiz-adv-x="1088" unicode="5" d="M373 1003q25 8 50 11t51 3q34 0 73.5 -7t74.5 -18q45 -15 89.5 -39t84.5 -55t73.5 -68t57.5 -79q58 -110 58 -222q0 -68 -23.5 -140t-63.5 -138q-38 -57 -90.5 -103.5t-113 -79.5t-128 -50.5t-135.5 -17.5q-59 0 -119 12q-58 17 -105 38t-91 53q-40 25 -40 56q0 17 11 31 t33 31q18 11 35 16.5t37 5.5q33 0 67 -17q42 -18 87 -31.5t86 -15.5q56 5 107 22.5t94.5 47t77.5 69.5t56 91l-1 -1q25 59 25 125q1 65 -25 125q-25 59 -75 99q-54 42 -111.5 60.5t-120.5 18.5q-24 0 -47.5 -2.5t-46.5 -7.5h3l-35 -12l-23 -10q-11 -3 -21 -4t-19 -1 q-26 0 -46.5 9t-34.5 25t-20 38.5t-2 49.5l13 73q8 48 16 99t15 99l5 38q5 32 9.5 62t7.5 63q4 21 9.5 36.5t15 25t23 12.5t29.5 3h10h511q40 0 58 -15t18 -61q0 -38 -1.5 -58t-10.5 -29.5t-29 -11t-56 -1.5h-401q-3 0 -4 -6q-3 -42 -9 -86q-6 -43 -12 -85z"/>
<glyph glyph-name="six" horiz-adv-x="1158" unicode="6" d="M862 487q0 61 -23.5 116t-63.5 95.5t-93 64.5t-113 24q-61 0 -115.5 -24t-95.5 -64.5t-65 -95.5t-24 -116q0 -63 24 -118t65 -95.5t95 -63.5t114 -23t113 23t93 63.5t64 95.5t25 118zM448 965l11 6q24 8 51 11t55 3q70 0 140 -25t130.5 -68t109 -101t75.5 -123 q16 -43 25 -87t9 -86q0 -75 -23.5 -145.5t-65 -131t-98.5 -108.5t-125 -76q-87 -33 -179 -33q-76 0 -148.5 21.5t-134.5 62t-109.5 99t-72.5 131.5q-14 42 -21.5 81.5t-7.5 78.5q-1 69 19 135q19 65 53 138q30 77 64 153.5t69 152.5l40 90q10 23 22.5 52.5t25.5 59.5t25 59 t22 52q8 18 25 31t40.5 20.5t51 11t55.5 3.5h59q-16 -41 -34.5 -86t-37 -91.5t-37.5 -92t-35 -86.5l-44 -102z"/>
<glyph glyph-name="seven" horiz-adv-x="1123" unicode="7" d="M509 681q59 142 120 287t124 282h-582q-10 0 -23.5 1.5t-26.5 7t-23 15t-13 25.5q-2 8 -2.5 19t-0.5 22q0 12 2 25t5 28q7 15 17 23t20.5 12t21.5 4.5t20 0.5h768h4q39 0 54.5 -16t15.5 -39q0 -11 -3 -25q-78 -185 -136.5 -324.5t-102 -242t-73.5 -172.5t-50.5 -118.5 t-33.5 -79t-23 -52.5l1 1l-19 -46q-7 -17 -15.5 -36.5t-19.5 -47t-26 -64t-36 -85.5q-21 -39 -59 -62.5t-86 -23.5q-14 0 -40 5.5t-61 14.5q31 69 64.5 145.5t67 155t66 156.5l62.5 150z"/>
<glyph glyph-name="eight" horiz-adv-x="1040" unicode="8" d="M648 1160q-24 38 -60 62q-38 26 -82 26q-43 0 -92 -31q-43 -26 -66 -71.5t-23 -96.5q0 -33 10 -65t28 -59q29 -38 67.5 -59.5t76.5 -21.5t69 19h-1q48 29 74 79t26 107t-27 111zM272 415q0 -49 19 -92.5t51 -75.5t74 -51t88 -19t86.5 19t71 52t48 77t17.5 93 q0 45 -18.5 86.5t-49.5 74t-71.5 52t-83.5 19.5q-45 0 -87 -20t-74 -52.5t-51.5 -74.5t-19.5 -88zM79 418q0 95 44 182.5t131 151.5q-61 55 -91.5 127.5t-30.5 153.5q0 31 3 57q8 71 43 134.5t88 110.5q52 45 115.5 70t126.5 25q64 0 124.5 -24t111.5 -71 q67 -63 96.5 -139.5t29.5 -152.5q0 -12 -1 -25q-4 -78 -34.5 -147t-91.5 -119q54 -41 95 -95t65 -118q8 -26 15.5 -60.5t7.5 -60.5q0 -80 -33 -155t-88.5 -133t-130 -93t-156.5 -35h-23t-20 2q-61 4 -118 24q-59 22 -108 59t-87 86.5t-59 109.5q-11 33 -17.5 68t-6.5 67z "/>
<glyph glyph-name="nine" horiz-adv-x="1139" unicode="9" d="M550 649h14q50 0 99.5 20.5t90 60.5t65 95t25.5 118v5q0 59 -22 114.5t-61 98t-92 67.5t-113 25t-113 -23t-92.5 -64t-62.5 -96.5t-24 -120.5v-5q0 -59 22.5 -113.5t61.5 -95.5t89 -63.5t102 -22.5h9h2zM672 465q-29 -4 -60 -6.5t-61 -2.5h-21q-8 0 -15 1 q-142 7 -242.5 81t-160.5 199q-24 50 -35.5 103t-11.5 104q0 70 20 137.5t58.5 126t93.5 106t125 78.5q47 20 94.5 29t95.5 9q64 0 125 -15.5t115 -46t99.5 -75.5t78.5 -103q38 -61 55 -124.5t17 -125.5q0 -57 -15 -116.5t-41 -116.5q-18 -40 -38 -85.5t-49.5 -114.5 t-72.5 -169.5t-107 -249.5q-23 -49 -62.5 -68.5t-92.5 -19.5h-11h-14.5h-29h-28.5h-13z"/>
<glyph glyph-name="colon" horiz-adv-x="504" unicode=":" d="M115 120q0 28 10.5 52.5t29 43t43 29t52.5 10.5t52.5 -10.5t43 -29t29 -43t10.5 -52.5t-10.5 -52.5t-29 -43t-43 -29t-52.5 -10.5t-52.5 10.5t-43 29t-29 43t-10.5 52.5zM115 870q0 28 10.5 52.5t29 43t43 29t52.5 10.5t52.5 -10.5t43 -29t29 -43t10.5 -52.5t-10.5 -52.5 t-29 -43t-43 -29t-52.5 -10.5t-52.5 10.5t-43 29t-29 43t-10.5 52.5z"/>
<glyph glyph-name="semicolon" horiz-adv-x="504" unicode=";" d="M115 870q0 28 10.5 52.5t29 43t43 29t52.5 10.5t52.5 -10.5t43 -29t29 -43t10.5 -52.5t-10.5 -52.5t-29 -43t-43 -29t-52.5 -10.5t-52.5 10.5t-43 29t-29 43t-10.5 52.5zM115 120q0 28 10.5 52.5t29 43t43 29t52.5 10.5t52.5 -10.5t43 -29t29 -43t10.5 -52.5 q0 -107 -40 -194.5t-130 -163.5l-15 16q-13 13 -13 36q0 28 10 46t21.5 34.5t21.5 37t10 53.5h-12q-26 2 -48.5 13.5t-39 29.5t-26 41.5t-9.5 50.5z"/>
<glyph glyph-name="less" horiz-adv-x="1160" unicode="&lt;" d="M119 607v120q0 46 25 75t67 47l721 311v-101q0 -46 -25 -85t-67 -57l-552 -240l-33 -10l33 -10l552 -240q42 -18 67 -57t25 -85v-101l-721 311q-42 18 -67 47t-25 75z"/>
<glyph glyph-name="equal" horiz-adv-x="1160" unicode="=" d="M1006 773h-854v188h854v-188zM1006 373h-854v188h854v-188z"/>
<glyph glyph-name="greater" horiz-adv-x="1160" unicode="&gt;" d="M1035 607q0 -46 -25 -75t-67 -47l-721 -311v101q0 46 25 85t67 57l552 240l33 10l-33 10l-552 240q-42 18 -67 57t-25 85v101l721 -311q42 -18 67 -47t25 -75v-120z"/>
<glyph glyph-name="question" horiz-adv-x="873" unicode="?" d="M540 120q0 -28 -10.5 -52.5t-29 -43t-43 -29t-52.5 -10.5t-52.5 10.5t-43 29t-29 43t-10.5 52.5t10.5 52.5t29 43t43 29t52.5 10.5t52.5 -10.5t43 -29t29 -43t10.5 -52.5zM60 1185l-50 22q20 41 52 83.5t80 77t114 56.5t155 22q99 0 177.5 -26.5t133 -77t84 -122 t29.5 -161.5q0 -105 -72 -204q-17 -24 -43.5 -51t-56 -55.5t-59 -58.5t-53 -59t-39 -56t-15.5 -51v-78h-189v78q0 64 25 118t62.5 100t81 86.5t81 78t62.5 75t25 77.5q0 35 -9.5 70.5t-35.5 63.5t-71.5 45.5t-117.5 17.5q-104 0 -166 -46q-14 -11 -41 -25.5t-68 -14.5 q-17 0 -35.5 3.5t-40.5 11.5z"/>
<glyph glyph-name="at" horiz-adv-x="1613" unicode="@" d="M840 646q12 46 22.5 91t22.5 93l6 28l6 25q-50 -6 -95.5 -23t-83 -43.5t-63.5 -61t-37 -74.5q-7 -23 -10 -43t-3 -37q0 -35 11 -59t28 -32q8 -2 18 -4t16 -2q44 0 85 29t65 81q4 6 7 14t5 16v2zM1084 336q-11 -1 -22 -1q-44 0 -91 15t-82 66q-18 -18 -29 -25 q-42 -28 -87 -43t-96 -15q-57 0 -124 24q-40 18 -66 44.5t-41 60t-20 70.5t-5 74v14q3 146 79 240q75 94 215 151q71 30 145 46t155 16q10 0 24.5 -0.5t26.5 -1.5h10t14.5 -0.5t13.5 -0.5h8l-38 -163q-16 -69 -32 -135q-15 -66 -28 -133q-2 -11 -3 -22.5t-1 -22.5 q0 -25 2.5 -46.5t7.5 -25.5q8 -6 22 -8.5t28 -2.5q17 0 34 2t29 7l-4 -1q41 19 74.5 53.5t56 78.5t32 88t9.5 81q0 14 -1 28q-5 88 -46.5 164.5t-107.5 133t-150.5 89t-175.5 32.5q-20 0 -42 -2t-45 -6q-104 -20 -190 -71t-148.5 -122.5t-97 -159t-34.5 -181.5 q0 -58 12 -116q21 -100 70 -180.5t120.5 -137t160.5 -87t190 -30.5q40 0 82 5t83 16q46 13 94.5 32.5t96.5 39.5l30 13l-1 -1q42 20 74 20q26 0 53.5 -18.5t60.5 -65.5q-109 -91 -225.5 -138t-231.5 -66q-26 -5 -55.5 -7t-58.5 -2q-102 0 -197.5 27t-178.5 75.5 t-151.5 117.5t-117 152.5t-73 175t-24.5 184.5q0 11 1.5 69t41 160t107.5 188t159.5 152t197.5 99q55 17 111 24.5t113 7.5q84 0 164 -17.5t152.5 -52t135.5 -84.5t111 -115q57 -76 86 -162.5t29 -174.5q0 -78 -24 -156q-24 -76 -72 -143q-54 -90 -132 -137.5t-173 -55.5z "/>
<glyph glyph-name="A" horiz-adv-x="1373" unicode="A" d="M665 1117l-261 -599h559l-261 599q-16 35 -19 85q-2 -25 -6.5 -46t-11.5 -39zM587 1433h193l625 -1433h-114q-47 0 -85 24.5t-57 67.5l-100 228h-732l-99 -228q-18 -42 -56.5 -67t-85.5 -25h-114z"/>
<glyph glyph-name="B" horiz-adv-x="1316" unicode="B" d="M371 1235v-409h365q42 0 79.5 16t65.5 44t44 65t16 79t-16 79.5t-44 65.5t-65.5 44t-79.5 16h-365zM794 199q45 0 84 17t68 46.5t46 68.5t17 83t-17 83t-46 68t-68 46t-83 17h-424v-429h423zM371 0h-198v1433h563q83 0 156.5 -31.5t128 -86t86 -128t31.5 -156.5 q0 -46 -14 -95.5t-37 -91t-52.5 -69t-61.5 -29.5q7 0 19 -1.5t25.5 -5.5t27 -10t24.5 -16q60 -57 99 -133.5t39 -166.5q0 -86 -32.5 -161t-88.5 -130.5t-131 -88t-161 -32.5z"/>
<glyph glyph-name="C" horiz-adv-x="1442" unicode="C" d="M288 717q0 -111 42 -208t114.5 -169.5t169.5 -114.5t208 -42q86 0 162 25t142 70q37 25 83 25q36 0 62.5 -12t49.5 -35l37 -37q-50 -54 -110.5 -97.5t-128.5 -73.5t-143 -46.5t-154 -16.5q-152 0 -285 57.5t-232.5 157t-157 232.5t-57.5 285q0 101 26 194.5t74 175 t114.5 148t148 114.5t175 74t194.5 26q79 0 154 -16.5t143 -46.5t128.5 -73.5t110.5 -97.5l-37 -37q-23 -23 -50 -35.5t-62 -12.5q-45 0 -83 26q-66 45 -142.5 70t-161.5 25q-111 0 -208 -42t-169.5 -114.5t-114.5 -169.5t-42 -208z"/>
<glyph glyph-name="D" horiz-adv-x="1519" unicode="D" d="M712 198q107 0 201.5 40.5t165 111t111.5 165t41 201.5t-41 201.5t-111.5 165t-165 111.5t-201.5 41h-340v-1037h340zM174 0v1433h538q99 0 190.5 -25.5t171 -72.5t145 -112.5t112.5 -145t72.5 -171t25.5 -190.5t-25.5 -190.5t-72.5 -171t-112.5 -145t-145 -112t-171 -72 t-190.5 -25.5h-538z"/>
<glyph glyph-name="E" horiz-adv-x="1165" unicode="E" d="M1060 0h-886v1433h886v-198h-688v-413h557v-198h-557v-426h688v-198z"/>
<glyph glyph-name="F" horiz-adv-x="1135" unicode="F" d="M952 794v-198h-580v-596h-198v1433h886v-198h-688v-441h580z"/>
<glyph glyph-name="G" horiz-adv-x="1492" unicode="G" d="M1354 730v-578q-50 -50 -110.5 -82.5t-128.5 -51.5t-141.5 -26t-149.5 -7q-152 0 -285 57.5t-232.5 157t-157 232.5t-57.5 285q0 101 26 194.5t74 175t114.5 148t148 114.5t175 74t194.5 26q79 0 154 -16.5t143 -46.5t128.5 -73.5t110.5 -97.5l-37 -37q-24 -24 -50.5 -36 t-61.5 -12q-45 0 -83 26q-66 45 -142.5 70t-161.5 25q-111 0 -208 -42t-169.5 -114.5t-114.5 -169.5t-42 -208t43.5 -208t118 -169.5t173 -114.5t209.5 -42q92 0 174 21.5t150 64.5v263h-80q-35 0 -63.5 12.5t-48.5 33.5t-31 49t-11 59v44h430z"/>
<glyph glyph-name="H" horiz-adv-x="1518" unicode="H" d="M1342 0h-198v622h-772v-622h-198v1433h198v-613h772v613h198v-1433z"/>
<glyph glyph-name="I" horiz-adv-x="617" unicode="I" d="M408 0h-198v1433h198v-1433z"/>
<glyph glyph-name="J" horiz-adv-x="827" unicode="J" d="M449 1433h198v-1223q0 -95 -36 -179t-98.5 -146t-146.5 -98t-179 -36q-94 0 -176 34.5t-145 95.5l56 56q45 45 109 45q20 -1 38.5 -6.5t37 -11.5t38 -10.5t42.5 -4.5q54 0 101.5 20.5t83.5 56t56.5 83t20.5 101.5v1223z"/>
<glyph glyph-name="K" horiz-adv-x="1320" unicode="K" d="M390 0h-198v1433h198v-1433zM556 799l401 544q29 45 73.5 67.5t102.5 22.5h136l-492 -668q-11 -14 -20 -20.5t-11 -7.5q2 -2 11 -8t20 -20l525 -709h-136q-58 0 -102.5 22.5t-73.5 67.5l-434 585q-13 17 -25.5 28.5t-23 18.5t-17.5 10.5t-8 4.5q1 0 8 3t17.5 10t23 19 t25.5 30z"/>
<glyph glyph-name="L" horiz-adv-x="1032" unicode="L" d="M174 0v1433h198v-1235h619v-198h-817z"/>
<glyph glyph-name="M" horiz-adv-x="1894" unicode="M" d="M1720 0h-198v1141q-1 -3 -3 -13.5t-4.5 -24t-6 -27t-7.5 -22.5l-460 -1054h-193l-459 1053q-4 7 -7 18t-5.5 22.5t-4 21t-1.5 14.5v-1129h-198v1433h164q47 0 85.5 -25.5t56.5 -66.5l447 -1025q8 -20 12.5 -41.5t5.5 -46.5q3 50 19 88l447 1025q19 43 58 67.5t84 24.5 h168v-1433z"/>
<glyph glyph-name="N" horiz-adv-x="1559" unicode="N" d="M1384 0h-161l-819 1119q-8 11 -13.5 24.5t-9.5 27.5q-4 15 -7 32v-1203h-198v1433h141q48 0 84 -14t57 -43l695 -957q27 -39 33 -99v1113h198v-1433z"/>
<glyph glyph-name="O" horiz-adv-x="1648" unicode="O" d="M290 717q0 -111 42 -208t114.5 -169.5t169.5 -114.5t208 -42t208 42t169.5 114.5t114.5 169.5t42 208t-42 208t-114.5 169.5t-169.5 114.5t-208 42t-208 -42t-169.5 -114.5t-114.5 -169.5t-42 -208zM92 717q0 101 26 194.5t74 175t114.5 148t148 114.5t175 74t194.5 26 t194.5 -26t175 -74t148 -114.5t114.5 -148t74 -175t26 -194.5t-26 -194.5t-74 -175t-114.5 -148t-148 -114.5t-175 -74t-194.5 -26q-152 0 -285 57.5t-232.5 157t-157 232.5t-57.5 285z"/>
<glyph glyph-name="P" horiz-adv-x="1233" unicode="P" d="M712 731q52 0 98 19.5t80.5 54t54 80t19.5 98.5q0 52 -19.5 98t-54 80.5t-80.5 54t-98 19.5h-314v-504h314zM398 0h-198v1433h512q93 0 175 -35.5t143 -96.5t96.5 -143t35.5 -175t-35.5 -175t-96.5 -143t-143 -96.5t-175 -35.5h-314v-533z"/>
<glyph glyph-name="Q" horiz-adv-x="1648" unicode="Q" d="M290 717q0 -111 42 -208t114.5 -169.5t169.5 -114.5t208 -42q42 0 83 6.5t79 18.5l123 -166q-66 -28 -137.5 -42.5t-147.5 -14.5q-152 0 -285 57.5t-232.5 157t-157 232.5t-57.5 285q0 101 26 194.5t74 175t114.5 148t148 114.5t175 74t194.5 26t194.5 -26t175 -74 t148 -114.5t114.5 -148t74 -175t26 -194.5q0 -149 -54.5 -278.5t-150.5 -229.5l381 -514h-136q-58 0 -102.5 22.5t-73.5 67.5l-342 462q63 34 114.5 83t88 110t57 131t20.5 146q0 111 -42 208t-114.5 169.5t-169.5 114.5t-208 42t-208 -42t-169.5 -114.5t-114.5 -169.5 t-42 -208z"/>
<glyph glyph-name="R" horiz-adv-x="1292" unicode="R" d="M391 1235v-441h316q46 0 86 17t70 47t47.5 70t17.5 86t-17.5 86t-47.5 70t-70 47.5t-86 17.5h-316zM391 0h-198v1433h514q87 0 163.5 -33t133 -89.5t89.5 -133t33 -163.5q0 -70 -21.5 -133.5t-60.5 -115.5t-92.5 -90.5t-116.5 -58.5l456 -616h-136q-58 0 -102.5 22.5 t-73.5 67.5l-375 506h-213v-596z"/>
<glyph glyph-name="S" horiz-adv-x="1065" unicode="S" d="M698 1189q-39 28 -79 44.5t-75 16.5q-47 0 -88.5 -13t-73 -36t-50 -54.5t-18.5 -68.5q0 -43 14 -73t45 -53.5t80.5 -44.5t120.5 -45q35 -14 70.5 -26.5t69.5 -27t67 -31.5t63 -40q151 -115 151 -310q0 -98 -40 -179t-108 -139.5t-157 -91t-186 -32.5q-193 0 -323 115 q-26 23 -46 46.5t-34.5 45.5t-24.5 40t-16 30l48 25q38 23 79 23q65 0 110 -47l16 -13q38 -32 84.5 -49.5t106.5 -17.5q49 0 101 16t94.5 46.5t70 76t27.5 105.5q0 58 -26 96t-67.5 65t-93 46t-101.5 39q-74 29 -144.5 60t-126 75.5t-89 109t-33.5 160.5q0 88 36.5 157 t96.5 116.5t137 72.5t158 25q59 0 117 -20t109 -51t92 -68t68 -70l-51 -38q-42 -36 -97 -36q-47 0 -84 23z"/>
<glyph glyph-name="T" horiz-adv-x="1145" unicode="T" d="M28 1235v199h1089v-199h-445v-1235h-198v1235h-446z"/>
<glyph glyph-name="U" horiz-adv-x="1454" unicode="U" d="M353 560q0 -78 29.5 -147t81 -120.5t120.5 -81t147 -29.5t147 29.5t120.5 81t81 120.5t29.5 147v873h199v-873q0 -80 -20.5 -153.5t-58 -137.5t-90.5 -116.5t-117 -90t-137.5 -58t-153.5 -20.5q-79 0 -152.5 20.5t-137.5 58t-117 90t-90.5 116.5t-58 138t-20.5 153v873 h198v-873z"/>
<glyph glyph-name="V" horiz-adv-x="1327" unicode="V" d="M-58 1433h114q46 0 86 -25t56 -67l447 -1025q8 -20 12.5 -41.5t5.5 -46.5q3 50 19 88l447 1025q18 42 57 67t85 25h114l-625 -1433h-193z"/>
<glyph glyph-name="W" horiz-adv-x="1993" unicode="W" d="M1028 612q-2 -2 -267 -612h-193l-625 1433h114q46 0 86 -25t56 -67l447 -1025q17 -39 18 -88q3 50 19 88l447 1025q18 42 57 67t85 25h114l-281 -645l206 -472q8 -19 12 -41.5t6 -48.5q3 54 19 90l447 1025q18 42 57 67t85 25h114l-625 -1433h-193l-185 425 q-31 71 -31 127q0 32 11 60z"/>
<glyph glyph-name="X" horiz-adv-x="1331" unicode="X" d="M810 727q0 -20 9 -32l514 -695h-136q-58 0 -102.5 22.5t-73.5 67.5l-339 458q-8 11 -11.5 26.5t-4.5 21.5l-1 -6q-1 -6 -3 -13t-5 -15.5t-7 -13.5l-339 -458q-29 -45 -73.5 -67.5t-102.5 -22.5h-136l509 689q0 2 7 13t7 25q0 16 -9 30l-499 676h136q58 0 102.5 -22.5 t73.5 -67.5l324 -437q5 -7 7.5 -15.5t4.5 -16.5l4 -20q0 13 4.5 27t11.5 25l323 437q29 45 73.5 67.5t102.5 22.5h136l-496 -672q-6 -6 -8.5 -16t-2.5 -18z"/>
<glyph glyph-name="Y" horiz-adv-x="1336" unicode="Y" d="M769 0h-198v606q0 22 -4 39t-11.5 32.5t-18.5 31.5t-25 35l-509 689h136q58 0 102.5 -22.5t73.5 -67.5l339 -458q7 -11 10.5 -25.5t5.5 -23.5q0 8 4 23t12 26l339 458q29 45 73.5 67.5t102.5 22.5h136l-509 -689q-14 -19 -25 -35t-18.5 -31.5t-11.5 -32.5t-4 -39v-606z "/>
<glyph glyph-name="Z" horiz-adv-x="1248" unicode="Z" d="M1159 199v-199h-1073v82q0 76 46 129l757 1024h-765v199h1048v-82q0 -69 -37 -118l-778 -1052q5 4 11 8q5 3 12 6t16 3h763z"/>
<glyph glyph-name="bracketleft" horiz-adv-x="600" unicode="[" d="M142 1533h362l-20 -178h-164v-1466h164l20 -178h-362v1822z"/>
<glyph glyph-name="backslash" horiz-adv-x="855" unicode="\" d="M849 -90h-84q-46 0 -85 25t-57 67l-641 1470h84q46 0 85 -25t57 -67z"/>
<glyph glyph-name="bracketright" horiz-adv-x="600" unicode="]" d="M458 -289h-362l20 178h164v1466h-164l-20 178h362v-1822z"/>
<glyph glyph-name="asciicircum" horiz-adv-x="1035" unicode="^" d="M496 1449h20q46 0 85 -25t57 -67l202 -470h-71q-46 0 -85 25t-57 67l-131 301l-10 33l-10 -33l-131 -301q-18 -42 -57 -67t-85 -25h-71l202 470q18 42 57 67t85 25z"/>
<glyph glyph-name="underscore" horiz-adv-x="788" unicode="_" d="M790 -345h-790v188h790v-188z"/>
<glyph glyph-name="grave" d="M87 1449h114q83 0 115 -44q11 -12 142 -244h-74q-83 0 -115 44z" unicode="`"/>
<glyph glyph-name="a" horiz-adv-x="1079" unicode="a" d="M449 175q35 0 75 7t81 19.5t81.5 30t77.5 39.5v176q-3 1 -20.5 1.5t-43 1.5t-57 1.5t-64.5 0.5q-62 0 -115.5 -8t-93 -26t-62 -46.5t-22.5 -69.5q0 -35 12.5 -59t34.5 -39t52 -22t64 -7zM169 896q10 15 24 30q12 13 30 28.5t42 31.5q60 38 129 58.5t154 20.5 q86 0 150 -21t109.5 -58.5t74 -88.5t45 -111.5t22.5 -127t6 -134.5v-524h-162q-13 16 -21.5 38.5t-8.5 45.5v27q-28 -28 -67.5 -51t-82 -39.5t-85.5 -26t-78 -9.5q-79 0 -144.5 22.5t-112 64t-72 100t-25.5 130.5q0 78 29 140.5t88.5 107t150 68.5t213.5 24q34 0 65.5 -2 t56.5 -4t41.5 -4t20.5 -3q-4 74 -22.5 122t-47.5 75.5t-66 38t-77 10.5q-49 0 -77 -8.5t-49.5 -19t-42.5 -19t-56 -8.5q-27 0 -50.5 9t-46.5 26z"/>
<glyph glyph-name="b" horiz-adv-x="1216" unicode="b" d="M624 177q72 0 132 27.5t103.5 74.5t67.5 110t24 135t-24 135t-67.5 110t-103.5 74.5t-132 27.5q-77 0 -149.5 -30.5t-124.5 -83.5v-466q52 -53 124.5 -83.5t149.5 -30.5zM152 0v1433h198v-475q30 31 64 51.5t69 32.5t70.5 17t70.5 5q111 0 206.5 -42.5t165 -116t109 -172 t39.5 -209.5t-39.5 -209.5t-109 -172t-165 -116t-206.5 -42.5q-70 0 -141.5 22.5t-132.5 84.5v-7q-1 -18 -5.5 -33.5t-9.5 -26.5q-6 -13 -15 -24h-168z"/>
<glyph glyph-name="c" horiz-adv-x="1027" unicode="c" d="M614 872q-72 0 -135 -27.5t-110 -74.5t-74.5 -110t-27.5 -135t27.5 -135t74.5 -110t110 -74.5t135 -27.5q45 0 88.5 11t81.5 33q37 21 80 21q32 0 58 -12t49 -35l38 -38q-75 -80 -176 -126.5t-219 -46.5q-111 0 -209.5 42.5t-172 116t-116 172t-42.5 209.5t42.5 209.5 t116 172t172 116t209.5 42.5q118 0 219 -46.5t176 -126.5l-38 -38q-24 -24 -51 -35.5t-62 -11.5q-40 0 -74 21q-38 22 -81.5 32t-88.5 12z"/>
<glyph glyph-name="d" horiz-adv-x="1218" unicode="d" d="M592 871q-72 0 -132 -27.5t-103.5 -74.5t-67.5 -110t-24 -135t24 -135t67.5 -110t103.5 -74.5t132 -27.5q77 0 149.5 30.5t124.5 83.5v466q-52 53 -124.5 83.5t-149.5 30.5zM896 0q-9 11 -15 24q-5 11 -10 26.5t-5 33.5v7q-31 -31 -64.5 -51.5t-68.5 -33t-71 -17.5 t-70 -5q-111 0 -206.5 42.5t-165 116t-109 172t-39.5 209.5t39.5 209.5t109 172t165 116t206.5 42.5q34 0 70 -5t71 -17t68.5 -32.5t64.5 -51.5v475h198v-1433h-168z"/>
<glyph glyph-name="e" horiz-adv-x="1211" unicode="e" d="M345 657h588q-20 47 -52 86.5t-73.5 68t-91.5 44.5t-104 16q-59 0 -112.5 -18.5t-97 -51.5t-75 -78.5t-47.5 -99.5q8 11 24 22t41 11zM1138 614q0 -35 -13.5 -62.5t-33.5 -47t-44.5 -30t-46.5 -10.5h-730q9 -61 40 -113t77 -90.5t104 -60.5t121 -22q46 0 88.5 11.5 t80.5 32.5q20 11 39 16t42 5q32 0 58 -12t49 -35l38 -38q-75 -80 -176 -126.5t-219 -46.5q-111 0 -209.5 42.5t-172 116t-116 172t-42.5 209.5t42.5 209.5t116 172t172 116t209.5 42.5q93 0 178 -31t154 -85t118.5 -128t71.5 -161q3 -11 3 -23t1 -23z"/>
<glyph glyph-name="f" horiz-adv-x="686" unicode="f" d="M186 0v861h-175v108q0 83 153 83h22v107q0 61 19 112.5t54 88.5t85 58t113 21q28 0 63 -8t69.5 -21t65 -30t48.5 -35l-23 -36q-20 -32 -52.5 -52.5t-71.5 -20.5q-32 0 -75 12q-3 0 -7 1q-8 2 -17 2q-18 0 -31.5 -8.5t-22.5 -22t-14 -29.5t-5 -32v-109h271v-189h-271v-861 h-198z"/>
<glyph glyph-name="g" horiz-adv-x="1044" unicode="g" d="M294 673q0 -42 16 -78.5t43.5 -64t64 -43.5t78.5 -16t78.5 16t64 43.5t43.5 64t16 78.5t-16 78.5t-43.5 64t-64 43.5t-78.5 16t-78.5 -16t-64 -43.5t-43.5 -64t-16 -78.5zM1001 918q-16 -41 -48.5 -63.5t-98.5 -22.5q16 -37 25 -77t9 -82q0 -81 -31 -152.5t-84 -124.5 t-124.5 -84t-152.5 -31q-92 0 -174 40q-38 -25 -47 -40.5t-9 -24.5q0 -7 3 -13l4 -4q8 -9 31 -15.5t53.5 -10.5t66.5 -5.5t69 -1.5q67 0 136 -6t127 -26q84 -29 128 -88.5t44 -144.5q0 -64 -25 -116t-73 -89.5t-117 -58t-157 -20.5q-71 0 -138.5 11t-130.5 28t-122 38.5 t-111 41.5l24 67q12 35 48.5 55.5t79.5 20.5q26 0 51 -6t46 -15q10 -4 33 -12.5t56.5 -17.5t75.5 -15.5t89 -6.5q22 0 53.5 5t59.5 16t48 29.5t20 44.5q0 20 -7 31.5t-36 21.5q-41 14 -93.5 18t-109 6t-114 5.5t-109 15.5t-93.5 36t-68 68q-18 30 -18 70q0 42 34.5 89 t105.5 83q-59 54 -92.5 128t-33.5 160q0 81 31 152.5t84 124.5t124.5 84t152.5 31q65 0 123.5 -20t107.5 -56q20 12 52.5 23t82.5 11q32 0 72.5 -6.5t89.5 -21.5z"/>
<glyph glyph-name="h" horiz-adv-x="1164" unicode="h" d="M314 1433q8 -11 15 -24q5 -11 10 -26.5t5 -33.5v-426q18 35 50 61.5t72 44.5t86.5 27t94.5 9q88 0 161 -33t124.5 -94t80 -147.5t28.5 -193.5v-597h-198v597q0 131 -48 205.5t-148 74.5q-60 0 -113.5 -14.5t-95 -39.5t-66.5 -58t-28 -69v-696h-198v1433h168z"/>
<glyph glyph-name="i" horiz-adv-x="532" unicode="i" d="M131 1314q0 28 10.5 52.5t29 43t43 29t52.5 10.5t52.5 -10.5t43 -29t29 -43t10.5 -52.5t-10.5 -52.5t-29 -43t-43 -29t-52.5 -10.5t-52.5 10.5t-43 29t-29 43t-10.5 52.5zM364 1050v-1050h-198v1050h198z"/>
<glyph glyph-name="j" horiz-adv-x="530" unicode="j" d="M131 1314q0 28 10.5 52.5t29 43t43 29t52.5 10.5t52.5 -10.5t43 -29t29 -43t10.5 -52.5t-10.5 -52.5t-29 -43t-43 -29t-52.5 -10.5t-52.5 10.5t-43 29t-29 43t-10.5 52.5zM364 37q-1 -73 -23 -138.5t-59.5 -120t-88.5 -96t-110 -65.5l-31 71q-5 12 -8 31.5t-3 30.5 q0 30 12 53t28.5 44t34 43t29.5 49q21 48 21 99v1012h198v-1013z"/>
<glyph glyph-name="k" horiz-adv-x="1087" unicode="k" d="M485 604l263 356q29 45 73.5 67.5t102.5 22.5h136l-354 -480q-11 -14 -20 -20.5t-11 -7.5q2 -2 11 -8t20 -20l381 -514h-136q-58 0 -102.5 22.5t-73.5 67.5l-290 390q-13 17 -25.5 28.5t-23 18.5t-17.5 10.5t-8 4.5q1 0 8 3t17.5 10t23 19t25.5 30zM350 0h-198v1433h198 v-1433z"/>
<glyph glyph-name="l" horiz-adv-x="532" unicode="l" d="M364 1433v-1433h-198v1433h198z"/>
<glyph glyph-name="m" horiz-adv-x="1719" unicode="m" d="M900 860q19 54 55.5 93t83 64t99 36.5t104.5 11.5q96 0 163.5 -40t109.5 -106t61.5 -150.5t19.5 -173.5v-595h-202v594q0 43 -6.5 92.5t-25 90.5t-51 68.5t-84.5 27.5q-51 0 -96.5 -14.5t-80.5 -39.5t-56.5 -57.5t-23.5 -68.5v-693h-202v594q0 43 -6.5 92.5t-25 90.5 t-51 68.5t-84.5 27.5q-51 0 -96.5 -14.5t-80.5 -39.5t-56.5 -57.5t-23.5 -68.5v-693h-198v1050h168l4 -6q4 -6 10 -17.5t11 -27t5 -33.5v-42q18 36 47 62.5t65 44t77 26t83 8.5q62 0 108.5 -14t80.5 -40.5t57 -64.5t38 -86z"/>
<glyph glyph-name="n" horiz-adv-x="1164" unicode="n" d="M314 1050l4 -6q4 -6 10 -17.5t11 -27t5 -33.5v-43q18 35 50 61.5t72 44.5t86.5 27t94.5 9q88 0 161 -31.5t124.5 -91.5t80 -147t28.5 -198v-597h-198v597q0 131 -48 205.5t-148 74.5q-60 0 -113.5 -13.5t-95 -36.5t-66.5 -55t-28 -68v-704h-198v1050h168z"/>
<glyph glyph-name="o" horiz-adv-x="1226" unicode="o" d="M265 525q0 -72 27.5 -135t74.5 -110t110 -74.5t135 -27.5t135 27.5t110 74.5t74.5 110t27.5 135t-27.5 135t-74.5 110t-110 74.5t-135 27.5t-135 -27.5t-110 -74.5t-74.5 -110t-27.5 -135zM72 525q0 111 42.5 209.5t116 172t172 116t209.5 42.5t209.5 -42.5t172 -116 t116 -172t42.5 -209.5t-42.5 -209.5t-116 -172t-172 -116t-209.5 -42.5t-209.5 42.5t-172 116t-116 172t-42.5 209.5z"/>
<glyph glyph-name="p" horiz-adv-x="1203" unicode="p" d="M618 178q72 0 132 27.5t103.5 74.5t67.5 110t24 135t-24 135t-67.5 110t-103.5 74.5t-132 27.5q-77 0 -149.5 -30.5t-124.5 -83.5v-466q52 -53 124.5 -83.5t149.5 -30.5zM314 1050l4 -6q4 -6 10 -17.5t11 -27t5 -33.5v-41q3 27 19 48t40 36.5t53.5 26t59 17t56.5 9.5 t46 3q111 0 206.5 -42.5t165 -116t109 -172t39.5 -209.5t-39.5 -209.5t-109 -172t-165 -116t-206.5 -42.5q-35 0 -70.5 5t-70.5 17t-69 32.5t-64 51.5v-430h-198v1389h168z"/>
<glyph glyph-name="q" horiz-adv-x="1218" unicode="q" d="M592 178q77 0 149.5 30.5t124.5 83.5v466q-52 53 -124.5 83.5t-149.5 30.5q-72 0 -132 -27.5t-103.5 -74.5t-67.5 -110t-24 -135t24 -135t67.5 -110t103.5 -74.5t132 -27.5zM1064 1049v-1389h-198v431q-31 -31 -64.5 -51.5t-68.5 -32.5t-71 -17t-70 -5 q-111 0 -206.5 42.5t-165 116t-109 172t-39.5 209.5t39.5 209.5t109 172t165 116t206.5 42.5q34 0 70 -5t71 -17.5t68.5 -33t64.5 -51.5v7q0 18 5 33.5t10 26.5q6 13 15 24h168z"/>
<glyph glyph-name="r" horiz-adv-x="780" unicode="r" d="M314 1050l4 -6q4 -6 10 -17.5t11 -27t5 -33.5v-73q18 36 50 67t72 54.5t86.5 37t94.5 13.5q81 0 153 -29l-15 -85q-8 -42 -36 -65.5t-69 -23.5q-5 0 -6 0.5t-3.5 0.5t-7.5 0.5t-18 0.5q-60 0 -113.5 -17.5t-94 -45.5t-65.5 -63.5t-28 -71.5v-666h-198v1050h168z"/>
<glyph glyph-name="s" horiz-adv-x="852" unicode="s" d="M116 225q20 10 39.5 16.5t39.5 6.5q26 0 49.5 -10t56.5 -33q23 -16 50 -23t56 -7q31 0 61.5 9.5t54.5 28t39 45.5t15 63q0 28 -8.5 48t-29.5 36.5t-56.5 32t-88.5 33.5q-55 19 -108.5 43.5t-95.5 59.5t-68 85t-26 120q0 61 28 113.5t73.5 90.5t103.5 60t118 22 q61 0 111.5 -22t87 -50t58 -53t26.5 -31l-47 -40q-42 -36 -98 -36q-20 0 -42.5 8.5t-52.5 23.5q-20 10 -43 10q-39 0 -64.5 -11t-41 -26.5t-21.5 -32t-6 -26.5q0 -29 15 -48.5t39 -34t54.5 -25.5t61.5 -21q60 -20 116 -46t99.5 -64t69.5 -91.5t26 -127.5q0 -68 -26.5 -128.5 t-74.5 -107t-114 -73.5t-145 -27q-54 0 -105.5 14.5t-96.5 42.5t-81.5 67t-61.5 89z"/>
<glyph glyph-name="t" horiz-adv-x="759" unicode="t" d="M401 265q0 -16 5 -32t14 -29.5t22.5 -22t31.5 -8.5l24 3q43 12 75 12q41 0 72 -21t52 -52l24 -35q-18 -18 -48.5 -35.5t-65 -30.5t-70 -21t-63.5 -8q-63 0 -113 21t-85 58t-54 88.5t-19 112.5v596h-175v108q0 83 153 83h22v216q0 32 7.5 60t16.5 48q11 24 24 43h150v-368 h291v-190h-291v-596z"/>
<glyph glyph-name="u" horiz-adv-x="1164" unicode="u" d="M849 0l-5 6q-4 6 -9.5 17.5t-10.5 27t-5 33.5v43q-18 -36 -50 -62.5t-72 -44t-86.5 -26.5t-94.5 -9q-89 0 -161.5 33t-124 94t-80 147.5t-28.5 193.5v597h198v-597q0 -131 48 -205.5t148 -74.5q60 0 113.5 14.5t95 39.5t66.5 58t28 69v696h198v-1050h-168z"/>
<glyph glyph-name="v" horiz-adv-x="1047" unicode="v" d="M-35 1050h114q46 0 86 -25t56 -67l280 -642q8 -20 12 -43t6 -49q1 51 19 92l280 643q18 42 57 67t85 25h114l-458 -1051h-193z"/>
<glyph glyph-name="w" horiz-adv-x="1721" unicode="w" d="M892 612q-2 -2 -267 -612h-193l-458 1050h114q46 0 86 -25t56 -67l280 -642q9 -20 12.5 -44.5t5.5 -52.5q2 58 19 97l280 643q18 42 57 67t85 25h114l-115 -263l207 -472q7 -19 11.5 -40.5t6.5 -47.5q3 52 19 88l280 643q18 42 57 67t85 25h114l-458 -1051h-193l-185 425 q-31 71 -31 127q0 32 11 60z"/>
<glyph glyph-name="x" horiz-adv-x="1143" unicode="x" d="M1102 1050l-350 -475q-7 -14 -7 -28q0 -19 10 -32l380 -515h-136q-58 0 -102.5 22.5t-73.5 67.5l-232 313q-8 10 -11.5 26t-4.5 23q-2 -6 -5.5 -22.5t-10.5 -26.5l-232 -313q-29 -45 -73.5 -67.5t-102.5 -22.5h-136l380 515q10 13 10 32q0 14 -7 28l-350 475h136 q58 0 102.5 -22.5t73.5 -67.5l199 -269q8 -12 11 -29t5 -22q1 5 4 22t12 29l199 269q29 45 73.5 67.5t102.5 22.5h136z"/>
<glyph glyph-name="y" horiz-adv-x="1133" unicode="y" d="M28 1050h114q23 0 45 -6.5t41 -18.5t33.5 -29t22.5 -38l232 -533q31 -71 31 -128q0 -14 -2 -26.5t-6 -24.5q14 34 86.5 198.5t201.5 460.5l23 53q18 42 56.5 67t85.5 25h114l-585 -1343q-17 -45 -57 -70.5t-87 -25.5h-114l196 450z"/>
<glyph glyph-name="z" horiz-adv-x="952" unicode="z" d="M862 198v-198h-792v81q0 76 46 129l485 642h-499v198h772v-81q0 -69 -37 -118l-506 -668q7 3 16 7q8 3 17.5 5.5t21.5 2.5h476z"/>
<glyph glyph-name="braceleft" horiz-adv-x="600" unicode="{" d="M86 695q10 0 29.5 5.5t39.5 20t35 38t15 59.5q0 63 -6 103.5t-13.5 76.5t-13.5 75t-6 98q0 103 35 187t117 138q25 16 49 27t43.5 17t32 9t15.5 3q4 -23 6 -37.5t3 -23.5t1.5 -14t0.5 -9q0 -33 -10 -57t-23.5 -41.5t-27 -29t-20.5 -20.5q-23 -27 -32.5 -67t-9.5 -81 q0 -49 6 -84.5t13.5 -72t13.5 -82.5t6 -117q0 -38 -9 -71.5t-27 -60.5t-43.5 -45t-58.5 -24q33 -6 59 -24t43.5 -44.5t26.5 -60.5t9 -71q0 -71 -6 -117t-13.5 -83t-13.5 -72t-6 -84q0 -41 9.5 -81.5t32.5 -66.5q7 -9 20.5 -20.5t27 -29t23.5 -41.5t10 -57q0 -4 -0.5 -9 t-1.5 -14t-3 -23.5t-6 -37.5q-3 0 -15.5 3t-32 9t-43.5 16.5t-49 27.5q-82 54 -117 138t-35 187q0 59 6 98t13.5 75t13.5 76.5t6 103.5q0 36 -15 59.5t-35 37.5t-39.5 20t-29.5 6v159z"/>
<glyph glyph-name="bar" horiz-adv-x="600" unicode="|" d="M210 1578h178v-1866h-178v1866z"/>
<glyph glyph-name="braceright" horiz-adv-x="600" unicode="}" d="M519 536q-10 0 -29.5 -6t-39.5 -20t-35 -37.5t-15 -59.5q0 -63 6 -103.5t13.5 -76.5t13.5 -75t6 -98q0 -103 -35 -187t-117 -138q-25 -17 -49 -27.5t-43.5 -16.5t-32 -9t-15.5 -3q-4 23 -6 37.5t-3 23.5t-1.5 14t-0.5 9q0 33 10 57t23.5 41.5t27 29t20.5 20.5 q23 26 32.5 66t9.5 82q0 49 -6 84t-13.5 72t-13.5 83t-6 117q0 37 9 71t26.5 60.5t43.5 44.5t59 24q-33 6 -58.5 24t-43.5 45t-27 60.5t-9 71.5q0 71 6 117t13.5 82.5t13.5 72t6 84.5q0 41 -9.5 81t-32.5 67q-7 9 -20.5 20.5t-27 29t-23.5 41.5t-10 57q0 4 0.5 9t1.5 14 t3 23.5t6 37.5q3 0 15.5 -3t32 -9t43.5 -17t49 -27q82 -54 117 -138t35 -187q0 -59 -6 -98t-13.5 -75t-13.5 -76.5t-6 -103.5q0 -36 15 -59.5t35 -38t39.5 -20t29.5 -5.5v-159z"/>
<glyph glyph-name="asciitilde" horiz-adv-x="1160" unicode="~" d="M95 503q2 6 10.5 28t24 50.5t39 60t56 58t74.5 43.5t95 17q67 0 118 -16t94.5 -35.5t85.5 -35.5t91 -16q29 0 45.5 17t31 37.5t33.5 37.5t53 17q13 -1 29.5 -2t36.5 -6l63 -17q0 -3 -3 -14t-9 -28.5t-16 -39t-24 -45.5q-43 -72 -104.5 -109.5t-135.5 -37.5 q-68 0 -118.5 16t-94.5 35.5t-85.5 35.5t-90.5 16q-29 0 -47 -16t-34 -34.5t-33.5 -34.5t-44.5 -16q-14 0 -34 2.5t-44 10.5z"/>
<glyph glyph-name="exclamdown" horiz-adv-x="686" unicode="" d="M207 975q0 28 10.5 52.5t29 43t43 29t52.5 10.5t52.5 -10.5t43 -29t29 -43t10.5 -52.5t-10.5 -52.5t-29 -43t-43 -29t-52.5 -10.5t-52.5 10.5t-43 29t-29 43t-10.5 52.5zM441 641v-980h-198v980h198z"/>
<glyph glyph-name="cent" horiz-adv-x="1027" unicode="" d="M267 525q0 -61 19.5 -115.5t54.5 -99t83 -76t104 -45.5v672q-56 -15 -104 -46.5t-83 -76t-54.5 -99t-19.5 -114.5zM528 1229h104v-165q112 -4 208.5 -49.5t168.5 -122.5l-38 -38q-24 -24 -51 -35.5t-62 -11.5q-40 0 -74 21q-35 20 -73 30t-79 13v-693q82 5 152 44 q17 10 35.5 15.5t39.5 5.5q36 0 62.5 -12t49.5 -35l38 -38q-72 -77 -168.5 -122.5t-208.5 -49.5v-165h-104v171q-96 15 -179 62.5t-144 118.5t-96 161t-35 191q0 100 35 190t96 161t144 118.5t179 63.5v171z"/>
<glyph glyph-name="sterling" horiz-adv-x="1160" unicode="" d="M801 724v-104h-366v-216q0 -44 -8 -75t-22 -54t-35 -41.5t-46 -36.5h772l20 -197h-1017v109q0 24 2.5 39.5t13.5 25.5q13 12 34 33t40.5 50t33.5 64.5t14 75.5v223h-147v104h147v278q0 93 35.5 174.5t96 142t142 96t174.5 35.5q65 0 124.5 -17.5t110.5 -49.5t92.5 -76 t69.5 -98l-41 -23q-28 -16 -52 -22t-44 -6q-23 0 -42 6t-35 15t-28 18.5t-22 15.5q-29 19 -62.5 29t-70.5 10q-51 0 -96.5 -20t-79.5 -54t-54 -79.5t-20 -96.5v-278h366z"/>
<glyph glyph-name="currency" horiz-adv-x="1160" unicode="" d="M359 667q0 -44 16.5 -83t45.5 -68t68 -45.5t83 -16.5t83 16.5t68 45.5t45.5 68t16.5 83t-16.5 83t-45.5 68t-68 45.5t-83 16.5t-83 -16.5t-68 -45.5t-45.5 -68t-16.5 -83zM191 667q0 65 20.5 123.5t56.5 106.5l-82 82l73 73l81 -81q48 37 107 57.5t125 20.5t124.5 -20.5 t107.5 -58.5l82 82l73 -73l-82 -82q36 -48 56.5 -106.5t20.5 -123.5q0 -66 -20.5 -124.5t-57.5 -106.5l84 -84l-73 -74l-85 85q-48 -36 -106.5 -56.5t-123.5 -20.5t-123 20t-106 56l-84 -84l-74 74l83 83q-37 48 -57 107t-20 125z"/>
<glyph glyph-name="yen" horiz-adv-x="1336" unicode="" d="M1013 604v-104h-244v-87h244v-104h-244v-309h-198v309h-246v104h246v87h-246v104h246v2q0 22 -4 39t-11.5 32.5t-18.5 31.5t-25 35l-509 689h136q58 0 102.5 -22.5t73.5 -67.5l339 -458q7 -11 10.5 -25.5t5.5 -23.5q0 8 4 23t12 26l339 458q29 45 73.5 67.5t102.5 22.5 h136l-509 -689q-14 -19 -25 -35t-18.5 -31.5t-11.5 -32.5t-4 -39v-2h244z"/>
<glyph glyph-name="brokenbar" horiz-adv-x="600" unicode="" d="M210 510h178v-798h-178v798zM210 1578h178v-798h-178v798z"/>
<glyph glyph-name="section" horiz-adv-x="1006" unicode="" d="M503 833q-36 0 -73.5 -11.5t-68.5 -34t-51 -55t-20 -75.5q0 -36 18 -65.5t46.5 -49.5t65 -31t73.5 -11q36 0 73.5 11.5t68.5 34t51 55.5t20 76q0 36 -18 64.5t-47.5 49t-65.5 31.5t-72 11zM675 376q33 -11 58.5 -31.5t42 -49t25 -63t8.5 -71.5q0 -69 -28.5 -123.5 t-75.5 -92t-107 -57t-124 -19.5q-47 0 -93 16.5t-87 41.5t-74.5 55.5t-55.5 57.5l49 35q17 14 36.5 22t42.5 8q18 0 35 -4t31 -13q32 -23 60.5 -35.5t55.5 -12.5q33 0 63 9t52.5 25.5t35.5 38.5t13 48q0 34 -12.5 56.5t-41 41t-74.5 36.5t-112 42q-68 25 -120 55t-87 68.5 t-53 86.5t-18 110q0 49 15.5 96t42.5 87.5t64 73t80 53.5q-35 5 -60.5 24t-42 47.5t-24.5 63.5t-8 71q0 69 28.5 123t75.5 91.5t107.5 57.5t123.5 20q47 0 93 -16.5t87 -42t74.5 -56t55.5 -57.5l-48 -35q-18 -14 -37.5 -21.5t-42.5 -7.5q-20 0 -36 3.5t-30 13.5 q-32 21 -61.5 34t-54.5 13q-33 0 -63 -9t-52.5 -25t-35.5 -38t-13 -48q0 -34 12.5 -57t41 -41.5t74.5 -36t113 -41.5q133 -47 205 -123t72 -197q0 -48 -15 -96t-42 -89t-64 -71.5t-80 -44.5z"/>
<glyph glyph-name="dieresis" d="M356 1290q0 25 9.5 46.5t25.5 38t37.5 26t46.5 9.5t46.5 -9.5t38 -26t26 -38t9.5 -46.5t-9.5 -46.5t-26 -37.5t-38 -25.5t-46.5 -9.5t-46.5 9.5t-37.5 25.5t-25.5 37.5t-9.5 46.5zM17 1290q0 25 9.5 46.5t25.5 38t37.5 26t46.5 9.5t46.5 -9.5t38 -26t26 -38t9.5 -46.5 t-9.5 -46.5t-26 -37.5t-38 -25.5t-46.5 -9.5t-46.5 9.5t-37.5 25.5t-25.5 37.5t-9.5 46.5z" unicode=""/>
<glyph glyph-name="copyright" horiz-adv-x="1596" unicode="" d="M451 717q0 -72 27 -135t74 -110t110 -74t135 -27q55 0 104 16.5t92 45.5q24 16 54 16q23 0 40.5 -8t31.5 -22l24 -24q-65 -71 -154 -111.5t-192 -40.5q-98 0 -184 37.5t-150.5 102t-102 150.5t-37.5 184t37.5 184t102 150.5t150.5 102t184 37.5q103 0 192 -40.5 t154 -111.5l-24 -24q-14 -14 -31.5 -22.5t-40.5 -8.5q-29 0 -54 17q-43 29 -92 45.5t-104 16.5q-72 0 -135 -27t-110 -74t-74 -110t-27 -135zM171 717q0 -130 49.5 -245t135 -200.5t200.5 -135t245 -49.5t245 49.5t200.5 135t135 200.5t49.5 245t-49.5 245t-135 200.5 t-200.5 135t-245 49.5t-245 -49.5t-200.5 -135t-135 -200.5t-49.5 -245zM69 717q0 101 26 194.5t74 175t114.5 148t148 114.5t175 74t194.5 26t194.5 -26t175 -74t148 -114.5t114.5 -148t74 -175t26 -194.5t-26 -194.5t-74 -175t-114.5 -148t-148 -114.5t-175 -74 t-194.5 -26q-152 0 -285 57.5t-232.5 157t-157 232.5t-57.5 285z"/>
<glyph glyph-name="ordfeminine" horiz-adv-x="726" unicode="" d="M295 975q51 0 111 18t113 49v118q-3 1 -15 2.5t-30 3.5t-40.5 3.5t-45.5 1.5q-44 0 -82 -5.5t-66 -18.5t-44 -33t-16 -49q0 -50 33.5 -70t81.5 -20zM97 1486q7 10 17 21q8 9 21 20.5t30 22.5q42 27 91 42t110 15q92 0 149 -33t88 -87t41.5 -123t10.5 -142v-372h-115 q-9 11 -15.5 27t-6.5 33v5q-20 -20 -47.5 -34t-58 -23.5t-61 -14t-55.5 -4.5q-56 0 -102.5 16t-79.5 46t-51 71.5t-18 92.5q0 55 20.5 99.5t63 76t107 48.5t151.5 17q24 0 46.5 -1t40 -2.5t29 -3t14.5 -2.5q0 52 -13.5 86t-35 53.5t-48.5 27t-54 7.5q-35 0 -55 -6t-35 -13.5 t-30 -13.5t-40 -6q-37 0 -69 26z"/>
<glyph glyph-name="guillemotleft" horiz-adv-x="926" unicode="" d="M586 865q18 42 57 67t85 25h61l-151 -352q-22 -51 -72 -76q24 -12 42.5 -31t29.5 -44l151 -352h-61q-46 0 -85 25t-57 67l-137 319q-4 8 -10.5 11.5t-7.5 4.5q2 1 8 5t10 12zM292 865q18 42 57 67t85 25h61l-151 -352q-22 -51 -72 -76q24 -12 42.5 -31t29.5 -44l151 -352 h-61q-46 0 -85 25t-57 67l-137 319q-4 8 -10.5 11.5t-7.5 4.5q2 1 8 5t10 12z"/>
<glyph glyph-name="logicalnot" horiz-adv-x="1160" unicode="" d="M819 316v219h-669v188h857v-407h-188z"/>
<glyph glyph-name="uni00AD" horiz-adv-x="694" unicode="" d="M599 505h-506v188h506v-188z"/>
<glyph glyph-name="registered" horiz-adv-x="1596" unicode="" d="M637 1049v-283h203q29 0 55 11t45 30t30 45t11 55t-11 55t-30 45.5t-45 30.5t-55 11h-203zM171 717q0 -130 49.5 -245t135 -200.5t200.5 -135t245 -49.5q90 0 171.5 23.5t153.5 67.5l-342 461h-137v-382h-127v918h330q55 0 104 -21t85.5 -57t57.5 -85t21 -105 q0 -45 -14 -85.5t-38.5 -74t-59 -58t-74.5 -37.5l295 -399q94 88 149 207t55 257q0 130 -49.5 245t-135 200.5t-200.5 135t-245 49.5t-245 -49.5t-200.5 -135t-135 -200.5t-49.5 -245zM69 717q0 101 26 194.5t74 175t114.5 148t148 114.5t175 74t194.5 26t194.5 -26t175 -74 t148 -114.5t114.5 -148t74 -175t26 -194.5t-26 -194.5t-74 -175t-114.5 -148t-148 -114.5t-175 -74t-194.5 -26q-152 0 -285 57.5t-232.5 157t-157 232.5t-57.5 285z"/>
<glyph glyph-name="macron" d="M30 1348h554v-148h-554v148z" unicode=""/>
<glyph glyph-name="degree" horiz-adv-x="794" unicode="" d="M206 1128q0 -39 15 -74t41 -61t61 -41t74 -15t74 15t61 41t41 61t15 74t-15 74t-41 61t-61 41t-74 15t-74 -15t-61 -41t-41 -61t-15 -74zM76 1128q0 66 25.5 124.5t69 102t102 69t124.5 25.5t124.5 -25.5t102 -69t69 -102t25.5 -124.5t-25.5 -124.5t-69 -102t-102 -69 t-124.5 -25.5t-124.5 25.5t-102 69t-69 102t-25.5 124.5z"/>
<glyph glyph-name="plusminus" horiz-adv-x="1160" unicode="" d="M1056 193h-954v188h954v-188zM485 420v333h-383v188h383v383h188v-383h383v-188h-383v-333h-188z"/>
<glyph glyph-name="twosuperior" horiz-adv-x="664" unicode="" d="M587 882h-496v61q0 15 6 38t22 40q77 75 141 143q27 29 54.5 59t51.5 58t42.5 52.5t27.5 42.5q5 8 7 14t2 20q0 23 -11 40.5t-28.5 29.5t-38.5 18.5t-41 6.5q-27 0 -47.5 -9.5t-38 -20.5t-34.5 -20.5t-37 -9.5q-11 0 -19.5 3.5t-16.5 7.5l-43 21q12 28 32.5 57t49.5 52 t67.5 38t86.5 15q50 0 96 -17t81 -47t55.5 -72t20.5 -93q0 -36 -9.5 -63.5t-26.5 -55.5q-13 -21 -33.5 -47t-43.5 -53t-48 -53.5t-47 -49.5t-39.5 -40.5t-27.5 -26.5h283v-139z"/>
<glyph glyph-name="threesuperior" horiz-adv-x="664" unicode="" d="M354 875q-118 0 -188 61q-13 11 -24 25.5t-20 29t-16 27.5t-11 22l41 20q13 7 22 11t26 4q16 0 34 -8t31 -20l9 -7q16 -14 36.5 -22t46.5 -8q42 0 70.5 28.5t28.5 69.5q0 21 -7.5 39.5t-21 32.5t-31.5 22t-39 8h-66v134h66q32 0 55.5 22.5t23.5 56.5q0 32 -23.5 55.5 t-55.5 23.5h-6q-11 0 -23.5 -7t-27.5 -15.5t-31.5 -15.5t-34.5 -7h-4q-17 0 -31 6.5t-26 15.5l-40 31q46 56 100.5 91.5t117.5 35.5q44 0 83.5 -16.5t69.5 -45t48 -67.5t18 -85q0 -18 -6 -37.5t-15.5 -39t-22 -37t-24.5 -29.5q18 -14 34 -33.5t28 -42t19 -47.5t7 -49 q0 -47 -17 -88.5t-46.5 -73t-70 -50.5t-86.5 -21z"/>
<glyph glyph-name="acute" d="M276 1205q-33 -44 -115 -44h-74q130 232 142 244q32 44 115 44h114z" unicode=""/>
<glyph glyph-name="mu" horiz-adv-x="1164" unicode="" d="M122 1050h198v-696q3 -36 21 -68t49.5 -56.5t76.5 -40t102 -16.5q57 1 102 16.5t77 40t50 56.5t21 68v696h198v-1050h-168l-5 6q-4 6 -9.5 17.5t-10.5 27t-5 33.5v43q-73 -142 -249 -142q-177 0 -250 142v-467h-198v1390z"/>
<glyph glyph-name="paragraph" horiz-adv-x="1338" unicode="" d="M40 977q0 94 35.5 177.5t97.5 145t144.5 97.5t177.5 36h807v-178h-209v-1453h-178v1453h-242v-1453h-178v720q-95 0 -177.5 35.5t-144.5 97.5t-97.5 144.5t-35.5 177.5z"/>
<glyph glyph-name="periodcentered" horiz-adv-x="546" unicode="" d="M139 595q0 28 10.5 52.5t29 43t43 29t52.5 10.5t52.5 -10.5t43 -29t29 -43t10.5 -52.5t-10.5 -52.5t-29 -43t-43 -29t-52.5 -10.5t-52.5 10.5t-43 29t-29 43t-10.5 52.5z"/>
<glyph glyph-name="cedilla" d="M201 10h106l-1 -76q41 -3 76 -16t61 -33t41 -45.5t15 -53.5q0 -31 -17.5 -58t-47.5 -47.5t-70 -32.5t-86 -12q-22 0 -44 6t-39 14q-20 9 -39 21v73q19 -7 40 -12q17 -5 39 -8t43 -3q36 0 62 17.5t26 41.5t-26 41.5t-62 17.5q-8 0 -16.5 -0.5t-16.5 -0.5q-19 0 -31.5 8.5 t-12.5 40.5v117z" unicode=""/>
<glyph glyph-name="onesuperior" horiz-adv-x="664" unicode="" d="M584 885h-421v139h149v404q-16 -13 -36 -20t-38 -7q-11 0 -23.5 3.5t-22.5 13.5l-43 41l182 175h119v-610h134v-139z"/>
<glyph glyph-name="ordmasculine" horiz-adv-x="876" unicode="" d="M227 1082q0 -40 15 -75t41.5 -61.5t61.5 -41.5t75 -15t75 15t61.5 41.5t41.5 61.5t15 75t-15 75t-41.5 61.5t-61.5 41.5t-75 15t-75 -15t-61.5 -41.5t-41.5 -61.5t-15 -75zM54 1082q0 76 28.5 143t78 116.5t116.5 78.5t143 29t143 -29t116.5 -78.5t78.5 -116.5t29 -143 t-29 -143t-78.5 -116.5t-116.5 -78t-143 -28.5t-143 28.5t-116.5 78t-78 116.5t-28.5 143z"/>
<glyph glyph-name="guillemotright" horiz-adv-x="926" unicode="" d="M467 546q4 -8 10 -12.5t7 -4.5q-2 -1 -8 -4.5t-9 -11.5l-137 -319q-18 -42 -57 -67t-85 -25h-61l151 352q11 25 29.5 44t42.5 31q-50 25 -72 76l-151 352h61q46 0 85 -25t57 -67zM761 546q4 -8 10 -12.5t7 -4.5q-2 -1 -8 -4.5t-9 -11.5l-137 -319q-18 -42 -57 -67 t-85 -25h-61l151 352q11 25 29.5 44t42.5 31q-50 25 -72 76l-151 352h61q46 0 85 -25t57 -67z"/>
<glyph glyph-name="onequarter" horiz-adv-x="1424" unicode="" d="M992 1341q18 42 57 67t85 25h61l-641 -1341q-20 -41 -58 -66.5t-84 -25.5h-61zM1151 302v214l-128 -210q0 -1 -1 -2t-1 -2h130zM1151 0v166h-312v72q0 14 4 27t9 24q5 12 13 24l233 387q14 23 34.5 35t43.5 12h113v-445h94v-136h-94v-166h-138zM572 685h-425v139h149v404 q-16 -13 -36 -20t-38 -7q-11 0 -23.5 3.5t-22.5 13.5l-43 41l182 175h119v-610h134z"/>
<glyph glyph-name="onehalf" horiz-adv-x="1424" unicode="" d="M1368 0h-496v61q0 15 6 38t22 40q77 75 141 143q27 29 54.5 59t51.5 58t42.5 52.5t27.5 42.5q5 8 7 14.5t2 19.5q0 23 -11 40.5t-28.5 29.5t-38.5 18.5t-41 6.5q-27 0 -47.5 -9.5t-38 -20.5t-34.5 -20.5t-37 -9.5q-11 0 -19.5 3.5t-16.5 7.5l-43 21q12 28 32.5 57 t49.5 52t67.5 38t86.5 15q50 0 96 -17t81 -47t55.5 -72t20.5 -93q0 -36 -9.5 -63.5t-26.5 -55.5q-13 -21 -33.5 -47t-43.5 -53t-48 -53.5t-47 -49.5t-40 -40.5t-27 -26.5h283v-139zM992 1341q18 42 57 67t85 25h61l-641 -1341q-20 -41 -58 -66.5t-84 -25.5h-61zM572 685 h-425v139h149v404q-16 -13 -36 -20t-38 -7q-11 0 -23.5 3.5t-22.5 13.5l-43 41l182 175h119v-610h134z"/>
<glyph glyph-name="threequarters" horiz-adv-x="1426" unicode="" d="M1151 302v214l-128 -210q0 -1 -1 -2t-1 -2h130zM1151 0v166h-312v72q0 14 4 27t9 24q5 12 13 24l233 387q14 23 34.5 35t43.5 12h113v-445h94v-136h-94v-166h-138zM992 1341q18 42 57 67t85 25h61l-641 -1341q-20 -41 -58 -66.5t-84 -25.5h-61zM354 678q-118 0 -188 61 q-13 11 -24 25.5t-20 29t-16 27.5t-11 22l41 20q13 7 23.5 11t24.5 4q16 0 34 -8t31 -20l9 -7q16 -14 36.5 -22t46.5 -8q42 0 70.5 28.5t28.5 69.5q0 21 -7.5 39.5t-21 32.5t-31.5 22t-39 8h-66v134h66q32 0 55.5 22.5t23.5 56.5q0 32 -23.5 55.5t-55.5 23.5h-6 q-11 0 -23.5 -7t-27.5 -15.5t-31.5 -15.5t-34.5 -7h-4q-17 0 -31 6.5t-26 15.5l-40 31q46 56 100.5 91.5t117.5 35.5q44 0 83.5 -16.5t69.5 -45t48 -67.5t18 -85q0 -18 -6 -37.5t-15.5 -39t-22 -37t-24.5 -29.5q18 -14 34 -33.5t28 -42t19 -47.5t7 -49q0 -47 -17 -88.5 t-46.5 -73t-70 -50.5t-86.5 -21z"/>
<glyph glyph-name="questiondown" horiz-adv-x="841" unicode="" d="M314 971q0 28 10.5 52.5t29 43t43 29t52.5 10.5t52.5 -10.5t43 -29t29 -43t10.5 -52.5t-10.5 -52.5t-29 -43t-43 -29t-52.5 -10.5t-52.5 10.5t-43 29t-29 43t-10.5 52.5zM844 -116q-20 -41 -52 -83.5t-80 -77t-114.5 -56.5t-154.5 -22q-99 0 -177.5 26.5t-133 77t-84 122 t-29.5 161.5q0 105 72 204q17 23 43.5 50.5t56 56t59 58.5t53 59t38.5 56t16 51v78h189v-78q0 -65 -25 -118.5t-62.5 -99.5t-81 -86.5t-81 -78t-62.5 -75t-25 -77.5q0 -35 9.5 -70.5t35.5 -63.5t71.5 -45.5t117.5 -17.5q104 0 166 46q13 10 40.5 25t68.5 15q17 0 35.5 -3.5 t40.5 -11.5z"/>
<glyph glyph-name="Agrave" horiz-adv-x="1373" unicode="" d="M665 1117l-261 -599h559l-261 599q-16 35 -19 85q-2 -25 -6.5 -46t-11.5 -39zM587 1433h193l625 -1433h-114q-47 0 -85 24.5t-57 67.5l-100 228h-732l-99 -228q-18 -42 -56.5 -67t-85.5 -25h-114zM406 1782h114q83 0 115 -44q11 -11 122 -194h-74q-83 0 -115 44z"/>
<glyph glyph-name="Aacute" horiz-adv-x="1373" unicode="" d="M665 1117l-261 -599h559l-261 599q-16 35 -19 85q-2 -25 -6.5 -46t-11.5 -39zM587 1433h193l625 -1433h-114q-47 0 -85 24.5t-57 67.5l-100 228h-732l-99 -228q-18 -42 -56.5 -67t-85.5 -25h-114zM795 1588q-32 -44 -115 -44h-74q111 183 122 194q32 44 115 44h114z"/>
<glyph glyph-name="Acircumflex" horiz-adv-x="1373" unicode="" d="M665 1117l-261 -599h559l-261 599q-16 35 -19 85q-2 -25 -6.5 -46t-11.5 -39zM587 1433h193l625 -1433h-114q-47 0 -85 24.5t-57 67.5l-100 228h-732l-99 -228q-18 -42 -56.5 -67t-85.5 -25h-114zM582 1583q-42 -44 -115 -44h-74l162 204q32 44 115 44h27q83 0 115 -44 l162 -204h-74h-6q-34 0 -60 11q-28 12 -49 33l-92 93q-5 5 -7.5 13t-2.5 10q-1 -3 -3 -10.5t-6 -12.5z"/>
<glyph glyph-name="Atilde" horiz-adv-x="1373" unicode="" d="M665 1117l-261 -599h559l-261 599q-16 35 -19 85q-2 -25 -6.5 -46t-11.5 -39zM587 1433h193l625 -1433h-114q-47 0 -85 24.5t-57 67.5l-100 228h-732l-99 -228q-18 -42 -56.5 -67t-85.5 -25h-114zM801 1544q-38 0 -73 14t-66.5 31t-57 31t-43.5 14q-16 0 -25.5 -9.5 t-15 -23.5t-6.5 -24t-2 -10q-44 -19 -73 -21.5t-57 -0.5v10q0 42 12 79.5t35 66.5t56 46t76 17q34 0 67 -14t63.5 -31t58.5 -31t51 -14q18 0 29 7t17 18t7.5 21t2.5 10q30 23 62 26q12 1 25 1q21 0 42 -3q-4 -48 -13 -87t-29.5 -66t-54.5 -42t-88 -15z"/>
<glyph glyph-name="Adieresis" horiz-adv-x="1373" unicode="" d="M665 1117l-261 -599h559l-261 599q-16 35 -19 85q-2 -25 -6.5 -46t-11.5 -39zM587 1433h193l625 -1433h-114q-47 0 -85 24.5t-57 67.5l-100 228h-732l-99 -228q-18 -42 -56.5 -67t-85.5 -25h-114zM731 1655q0 25 9.5 46.5t25.5 38t37.5 26t46.5 9.5t46.5 -9.5t38 -26 t26 -38t9.5 -46.5t-9.5 -46.5t-26 -37.5t-38 -25.5t-46.5 -9.5t-46.5 9.5t-37.5 25.5t-25.5 37.5t-9.5 46.5zM392 1655q0 25 9.5 46.5t25.5 38t37.5 26t46.5 9.5t46.5 -9.5t38 -26t26 -38t9.5 -46.5t-9.5 -46.5t-26 -37.5t-38 -25.5t-46.5 -9.5t-46.5 9.5t-37.5 25.5 t-25.5 37.5t-9.5 46.5z"/>
<glyph glyph-name="Aring" horiz-adv-x="1373" unicode="" d="M665 1117l-261 -599h559l-261 599q-16 35 -19 85q-2 -25 -6.5 -46t-11.5 -39zM587 1433h193l625 -1433h-114q-47 0 -85 24.5t-57 67.5l-100 228h-732l-99 -228q-18 -42 -56.5 -67t-85.5 -25h-114zM606 1700q0 -32 21.5 -53.5t53.5 -21.5t53.5 21.5t21.5 53.5t-21.5 53.5 t-53.5 21.5t-53.5 -21.5t-21.5 -53.5zM495 1700q0 39 14.5 72.5t40 59t59 40t72.5 14.5t72.5 -14.5t59 -40t40 -59t14.5 -72.5t-14.5 -72.5t-40 -59t-59 -40t-72.5 -14.5t-72.5 14.5t-59 40t-40 59t-14.5 72.5z"/>
<glyph glyph-name="AE" horiz-adv-x="2013" unicode="" d="M816 1117l-317 -599h559l-205 599q-11 33 -11 71q0 5 0.5 8.5t0.5 8.5q-7 -50 -27 -88zM1911 0h-574q-47 0 -82.5 24.5t-50.5 67.5l-79 228h-732l-120 -228q-23 -42 -63.5 -67t-87.5 -25h-116l759 1433h1146v-198h-883l142 -413h610v-198h-543l146 -426h528v-198z"/>
<glyph glyph-name="Ccedilla" horiz-adv-x="1442" unicode="" d="M288 717q0 -111 42 -208t114.5 -169.5t169.5 -114.5t208 -42q86 0 162 25t142 70q37 25 83 25q36 0 62.5 -12t49.5 -35l37 -37q-50 -54 -110.5 -97.5t-128.5 -73.5t-143 -46.5t-154 -16.5q-152 0 -285 57.5t-232.5 157t-157 232.5t-57.5 285q0 101 26 194.5t74 175 t114.5 148t148 114.5t175 74t194.5 26q79 0 154 -16.5t143 -46.5t128.5 -73.5t110.5 -97.5l-37 -37q-23 -23 -50 -35.5t-62 -12.5q-45 0 -83 26q-66 45 -142.5 70t-161.5 25q-111 0 -208 -42t-169.5 -114.5t-114.5 -169.5t-42 -208zM782 10h106l-1 -76q41 -3 76 -16t61 -33 t41 -45.5t15 -53.5q0 -31 -17.5 -58t-47.5 -47.5t-70 -32.5t-86 -12q-22 0 -44 6t-39 14q-20 9 -39 21v73q19 -7 40 -12q17 -5 39 -8t43 -3q36 0 62 17.5t26 41.5t-26 41.5t-62 17.5q-8 0 -16.5 -0.5t-16.5 -0.5q-19 0 -31.5 8.5t-12.5 40.5v117z"/>
<glyph glyph-name="Egrave" horiz-adv-x="1165" unicode="" d="M1060 0h-886v1433h886v-198h-688v-413h557v-198h-557v-426h688v-198zM353 1785h114q83 0 115 -44q11 -11 122 -194h-74q-83 0 -115 44z"/>
<glyph glyph-name="Eacute" horiz-adv-x="1165" unicode="" d="M1060 0h-886v1433h886v-198h-688v-413h557v-198h-557v-426h688v-198zM666 1588q-32 -44 -115 -44h-74q111 183 122 194q32 44 115 44h114z"/>
<glyph glyph-name="Ecircumflex" horiz-adv-x="1165" unicode="" d="M1060 0h-886v1433h886v-198h-688v-413h557v-198h-557v-426h688v-198zM520 1583q-42 -44 -115 -44h-74l162 204q32 44 115 44h27q83 0 115 -44l162 -204h-74h-6q-34 0 -60 11q-28 12 -49 33l-92 93q-5 5 -7.5 13t-2.5 10q-1 -3 -3 -10.5t-6 -12.5z"/>
<glyph glyph-name="Edieresis" horiz-adv-x="1165" unicode="" d="M1060 0h-886v1433h886v-198h-688v-413h557v-198h-557v-426h688v-198zM672 1655q0 25 9.5 46.5t25.5 38t37.5 26t46.5 9.5t46.5 -9.5t38 -26t26 -38t9.5 -46.5t-9.5 -46.5t-26 -37.5t-38 -25.5t-46.5 -9.5t-46.5 9.5t-37.5 25.5t-25.5 37.5t-9.5 46.5zM333 1655 q0 25 9.5 46.5t25.5 38t37.5 26t46.5 9.5t46.5 -9.5t38 -26t26 -38t9.5 -46.5t-9.5 -46.5t-26 -37.5t-38 -25.5t-46.5 -9.5t-46.5 9.5t-37.5 25.5t-25.5 37.5t-9.5 46.5z"/>
<glyph glyph-name="Igrave" horiz-adv-x="617" unicode="" d="M408 0h-198v1433h198v-1433zM43 1782h114q83 0 115 -44q11 -11 122 -194h-74q-83 0 -115 44z"/>
<glyph glyph-name="Iacute" horiz-adv-x="617" unicode="" d="M408 0h-198v1433h198v-1433zM412 1588q-32 -44 -115 -44h-74q111 183 122 194q32 44 115 44h114z"/>
<glyph glyph-name="Icircumflex" horiz-adv-x="617" unicode="" d="M408 0h-198v1433h198v-1433zM211 1583q-42 -44 -115 -44h-74l162 204q32 44 115 44h27q83 0 115 -44l162 -204h-74h-6q-34 0 -60 11q-28 12 -49 33l-92 93q-5 5 -7.5 13t-2.5 10q-1 -3 -3 -10.5t-6 -12.5z"/>
<glyph glyph-name="Idieresis" horiz-adv-x="617" unicode="" d="M408 0h-198v1433h198v-1433zM358 1655q0 25 9.5 46.5t25.5 38t37.5 26t46.5 9.5t46.5 -9.5t38 -26t26 -38t9.5 -46.5t-9.5 -46.5t-26 -37.5t-38 -25.5t-46.5 -9.5t-46.5 9.5t-37.5 25.5t-25.5 37.5t-9.5 46.5zM19 1655q0 25 9.5 46.5t25.5 38t37.5 26t46.5 9.5t46.5 -9.5 t38 -26t26 -38t9.5 -46.5t-9.5 -46.5t-26 -37.5t-38 -25.5t-46.5 -9.5t-46.5 9.5t-37.5 25.5t-25.5 37.5t-9.5 46.5z"/>
<glyph glyph-name="Eth" horiz-adv-x="1519" unicode="" d="M712 198q107 0 201.5 40.5t165 111t111.5 165t41 201.5t-41 201.5t-111.5 165t-165 111.5t-201.5 41h-340v-1037h340zM174 0v1433h538q99 0 190.5 -25.5t171 -72.5t145 -112.5t112.5 -145t72.5 -171t25.5 -190.5t-25.5 -190.5t-72.5 -171t-112.5 -145t-145 -112t-171 -72 t-190.5 -25.5h-538zM100 788h554v-148h-554v148z"/>
<glyph glyph-name="Ntilde" horiz-adv-x="1559" unicode="" d="M1384 0h-161l-819 1119q-8 11 -13.5 24.5t-9.5 27.5q-4 15 -7 32v-1203h-198v1433h141q48 0 84 -14t57 -43l695 -957q27 -39 33 -99v1113h198v-1433zM899 1544q-38 0 -73 14t-66.5 31t-57 31t-43.5 14q-16 0 -25.5 -9.5t-15 -23.5t-6.5 -24t-2 -10q-44 -19 -73 -21.5 t-57 -0.5v10q0 42 12 79.5t35 66.5t56 46t76 17q34 0 67 -14t63.5 -31t58.5 -31t51 -14q18 0 29 7t17 18t7.5 21t2.5 10q30 23 62 26q12 1 25 1q21 0 42 -3q-4 -48 -13 -87t-29.5 -66t-54.5 -42t-88 -15z"/>
<glyph glyph-name="Ograve" horiz-adv-x="1648" unicode="" d="M290 717q0 -111 42 -208t114.5 -169.5t169.5 -114.5t208 -42t208 42t169.5 114.5t114.5 169.5t42 208t-42 208t-114.5 169.5t-169.5 114.5t-208 42t-208 -42t-169.5 -114.5t-114.5 -169.5t-42 -208zM92 717q0 101 26 194.5t74 175t114.5 148t148 114.5t175 74t194.5 26 t194.5 -26t175 -74t148 -114.5t114.5 -148t74 -175t26 -194.5t-26 -194.5t-74 -175t-114.5 -148t-148 -114.5t-175 -74t-194.5 -26q-152 0 -285 57.5t-232.5 157t-157 232.5t-57.5 285zM548 1782h114q83 0 115 -44q11 -11 122 -194h-74q-83 0 -115 44z"/>
<glyph glyph-name="Oacute" horiz-adv-x="1648" unicode="" d="M290 717q0 -111 42 -208t114.5 -169.5t169.5 -114.5t208 -42t208 42t169.5 114.5t114.5 169.5t42 208t-42 208t-114.5 169.5t-169.5 114.5t-208 42t-208 -42t-169.5 -114.5t-114.5 -169.5t-42 -208zM92 717q0 101 26 194.5t74 175t114.5 148t148 114.5t175 74t194.5 26 t194.5 -26t175 -74t148 -114.5t114.5 -148t74 -175t26 -194.5t-26 -194.5t-74 -175t-114.5 -148t-148 -114.5t-175 -74t-194.5 -26q-152 0 -285 57.5t-232.5 157t-157 232.5t-57.5 285zM937 1588q-32 -44 -115 -44h-74q111 183 122 194q32 44 115 44h114z"/>
<glyph glyph-name="Ocircumflex" horiz-adv-x="1648" unicode="" d="M290 717q0 -111 42 -208t114.5 -169.5t169.5 -114.5t208 -42t208 42t169.5 114.5t114.5 169.5t42 208t-42 208t-114.5 169.5t-169.5 114.5t-208 42t-208 -42t-169.5 -114.5t-114.5 -169.5t-42 -208zM92 717q0 101 26 194.5t74 175t114.5 148t148 114.5t175 74t194.5 26 t194.5 -26t175 -74t148 -114.5t114.5 -148t74 -175t26 -194.5t-26 -194.5t-74 -175t-114.5 -148t-148 -114.5t-175 -74t-194.5 -26q-152 0 -285 57.5t-232.5 157t-157 232.5t-57.5 285zM724 1583q-42 -44 -115 -44h-74l162 204q32 44 115 44h27q83 0 115 -44l162 -204h-74 h-6q-34 0 -60 11q-28 12 -49 33l-92 93q-5 5 -7.5 13t-2.5 10q-1 -3 -3 -10.5t-6 -12.5z"/>
<glyph glyph-name="Otilde" horiz-adv-x="1648" unicode="" d="M290 717q0 -111 42 -208t114.5 -169.5t169.5 -114.5t208 -42t208 42t169.5 114.5t114.5 169.5t42 208t-42 208t-114.5 169.5t-169.5 114.5t-208 42t-208 -42t-169.5 -114.5t-114.5 -169.5t-42 -208zM92 717q0 101 26 194.5t74 175t114.5 148t148 114.5t175 74t194.5 26 t194.5 -26t175 -74t148 -114.5t114.5 -148t74 -175t26 -194.5t-26 -194.5t-74 -175t-114.5 -148t-148 -114.5t-175 -74t-194.5 -26q-152 0 -285 57.5t-232.5 157t-157 232.5t-57.5 285zM944 1544q-38 0 -73 14t-66.5 31t-57 31t-43.5 14q-16 0 -25.5 -9.5t-15 -23.5 t-6.5 -24t-2 -10q-44 -19 -73 -21.5t-57 -0.5v10q0 42 12 79.5t35 66.5t56 46t76 17q34 0 67 -14t63.5 -31t58.5 -31t51 -14q18 0 29 7t17 18t7.5 21t2.5 10q30 23 62 26q12 1 25 1q21 0 42 -3q-4 -48 -13 -87t-29.5 -66t-54.5 -42t-88 -15z"/>
<glyph glyph-name="Odieresis" horiz-adv-x="1648" unicode="" d="M290 717q0 -111 42 -208t114.5 -169.5t169.5 -114.5t208 -42t208 42t169.5 114.5t114.5 169.5t42 208t-42 208t-114.5 169.5t-169.5 114.5t-208 42t-208 -42t-169.5 -114.5t-114.5 -169.5t-42 -208zM92 717q0 101 26 194.5t74 175t114.5 148t148 114.5t175 74t194.5 26 t194.5 -26t175 -74t148 -114.5t114.5 -148t74 -175t26 -194.5t-26 -194.5t-74 -175t-114.5 -148t-148 -114.5t-175 -74t-194.5 -26q-152 0 -285 57.5t-232.5 157t-157 232.5t-57.5 285zM874 1655q0 25 9.5 46.5t25.5 38t37.5 26t46.5 9.5t46.5 -9.5t38 -26t26 -38t9.5 -46.5 t-9.5 -46.5t-26 -37.5t-38 -25.5t-46.5 -9.5t-46.5 9.5t-37.5 25.5t-25.5 37.5t-9.5 46.5zM535 1655q0 25 9.5 46.5t25.5 38t37.5 26t46.5 9.5t46.5 -9.5t38 -26t26 -38t9.5 -46.5t-9.5 -46.5t-26 -37.5t-38 -25.5t-46.5 -9.5t-46.5 9.5t-37.5 25.5t-25.5 37.5t-9.5 46.5z "/>
<glyph glyph-name="multiply" horiz-adv-x="1210" unicode="" d="M304 242l-33 -30q-16 -14 -36.5 -19.5t-42.5 -5.5q-32 0 -59 12.5t-48 33.5l-35 35l407 406q-96 95 -162 161t-110.5 110t-69.5 69l-38.5 38.5t-18 18.5t-7.5 9l35 35q21 21 48 33.5t59 12.5q22 0 42.5 -5.5t36.5 -19.5l33 -30l292 -292l293 292l33 30q16 14 36.5 19.5 t42.5 5.5q32 0 59 -12.5t48 -33.5l35 -35l-407 -406q95 -95 161.5 -161t111 -110t69.5 -69l38.5 -38.5t18 -18.5t7.5 -9l-35 -35q-21 -21 -48 -33.5t-59 -12.5q-22 0 -42.5 5.5t-36.5 19.5l-33 30l-292 292z"/>
<glyph glyph-name="Oslash" horiz-adv-x="1648" unicode="" d="M824 183q111 0 208 42t169.5 114.5t114.5 169.5t42 208q0 116 -45.5 216.5t-124.5 173.5l-628 -855q59 -33 125.5 -51t138.5 -18zM290 717q0 -118 47 -220t128 -176l628 857q-60 35 -127.5 54t-141.5 19q-111 0 -208 -42t-169.5 -114.5t-114.5 -169.5t-42 -208zM92 717 q0 101 26 194.5t74 175t114.5 148t148 114.5t175 74t194.5 26q107 0 204.5 -29t182.5 -82l80 110q19 27 35.5 38.5t48.5 11.5h100l-169 -231q57 -50 103.5 -111.5t79 -131.5t50 -147.5t17.5 -159.5q0 -101 -26 -194.5t-74 -175t-114.5 -148t-148 -114.5t-175 -74t-194.5 -26 q-106 0 -201.5 28t-179.5 79l-107 -146q-22 -29 -51 -42t-58 -13h-78l198 270q-59 51 -106 113t-80 132.5t-51 149t-18 161.5z"/>
<glyph glyph-name="Ugrave" horiz-adv-x="1454" unicode="" d="M353 560q0 -78 29.5 -147t81 -120.5t120.5 -81t147 -29.5t147 29.5t120.5 81t81 120.5t29.5 147v873h199v-873q0 -80 -20.5 -153.5t-58 -137.5t-90.5 -116.5t-117 -90t-137.5 -58t-153.5 -20.5q-79 0 -152.5 20.5t-137.5 58t-117 90t-90.5 116.5t-58 138t-20.5 153v873 h198v-873zM481 1782h114q83 0 115 -44q11 -11 122 -194h-74q-83 0 -115 44z"/>
<glyph glyph-name="Uacute" horiz-adv-x="1454" unicode="" d="M353 560q0 -78 29.5 -147t81 -120.5t120.5 -81t147 -29.5t147 29.5t120.5 81t81 120.5t29.5 147v873h199v-873q0 -80 -20.5 -153.5t-58 -137.5t-90.5 -116.5t-117 -90t-137.5 -58t-153.5 -20.5q-79 0 -152.5 20.5t-137.5 58t-117 90t-90.5 116.5t-58 138t-20.5 153v873 h198v-873zM840 1588q-32 -44 -115 -44h-74q111 183 122 194q32 44 115 44h114z"/>
<glyph glyph-name="Ucircumflex" horiz-adv-x="1454" unicode="" d="M353 560q0 -78 29.5 -147t81 -120.5t120.5 -81t147 -29.5t147 29.5t120.5 81t81 120.5t29.5 147v873h199v-873q0 -80 -20.5 -153.5t-58 -137.5t-90.5 -116.5t-117 -90t-137.5 -58t-153.5 -20.5q-79 0 -152.5 20.5t-137.5 58t-117 90t-90.5 116.5t-58 138t-20.5 153v873 h198v-873zM625 1583q-42 -44 -115 -44h-74l162 204q32 44 115 44h27q83 0 115 -44l162 -204h-74h-6q-34 0 -60 11q-28 12 -49 33l-92 93q-5 5 -7.5 13t-2.5 10q-1 -3 -3 -10.5t-6 -12.5z"/>
<glyph glyph-name="Udieresis" horiz-adv-x="1454" unicode="" d="M353 560q0 -78 29.5 -147t81 -120.5t120.5 -81t147 -29.5t147 29.5t120.5 81t81 120.5t29.5 147v873h199v-873q0 -80 -20.5 -153.5t-58 -137.5t-90.5 -116.5t-117 -90t-137.5 -58t-153.5 -20.5q-79 0 -152.5 20.5t-137.5 58t-117 90t-90.5 116.5t-58 138t-20.5 153v873 h198v-873zM777 1655q0 25 9.5 46.5t25.5 38t37.5 26t46.5 9.5t46.5 -9.5t38 -26t26 -38t9.5 -46.5t-9.5 -46.5t-26 -37.5t-38 -25.5t-46.5 -9.5t-46.5 9.5t-37.5 25.5t-25.5 37.5t-9.5 46.5zM438 1655q0 25 9.5 46.5t25.5 38t37.5 26t46.5 9.5t46.5 -9.5t38 -26t26 -38 t9.5 -46.5t-9.5 -46.5t-26 -37.5t-38 -25.5t-46.5 -9.5t-46.5 9.5t-37.5 25.5t-25.5 37.5t-9.5 46.5z"/>
<glyph glyph-name="Yacute" horiz-adv-x="1336" unicode="" d="M769 0h-198v606q0 22 -4 39t-11.5 32.5t-18.5 31.5t-25 35l-509 689h136q58 0 102.5 -22.5t73.5 -67.5l339 -458q7 -11 10.5 -25.5t5.5 -23.5q0 8 4 23t12 26l339 458q29 45 73.5 67.5t102.5 22.5h136l-509 -689q-14 -19 -25 -35t-18.5 -31.5t-11.5 -32.5t-4 -39v-606z M762 1588q-32 -44 -115 -44h-74q111 183 122 194q32 44 115 44h114z"/>
<glyph glyph-name="Thorn" horiz-adv-x="1225" unicode="" d="M706 481q52 0 98 19.5t80.5 54t54 80t19.5 98.5q0 52 -19.5 98t-54 80.5t-80.5 54t-98 19.5h-314v-504h314zM194 1433h198v-250h314q93 0 175 -35.5t143 -96.5t96.5 -143t35.5 -175t-35.5 -175t-96.5 -143t-143 -96.5t-175 -35.5h-314v-283h-198v1433z"/>
<glyph glyph-name="germandbls" horiz-adv-x="1210" unicode="" d="M376 0h-190v861q0 69 8 139.5t26.5 136t50 122t78.5 98.5t111 66t149 24q116 0 185.5 -28.5t102.5 -72.5t34 -72.5t1 -32.5q0 -49 -18 -94q-23 -62 -60 -123t-72 -112.5t-60.5 -88.5t-25.5 -52q0 -27 9.5 -45.5t27.5 -31.5t44 -23t59 -21q60 -20 116 -46t99.5 -64 t69.5 -91.5t26 -127.5q0 -68 -26.5 -128.5t-74.5 -107t-114 -73.5t-145 -27q-54 0 -105.5 14.5t-96.5 42.5t-81.5 67t-61.5 89l54 27q20 10 39.5 16.5t39.5 6.5q26 0 49.5 -10t56.5 -33q23 -16 50 -23t56 -7q31 0 61.5 9.5t54.5 28t39 45.5t15 63q0 28 -8.5 48t-29.5 36.5 t-56.5 32t-88.5 33.5q-55 19 -104 42t-85.5 57t-57.5 82.5t-21 118.5q0 38 19.5 79t48.5 82t62 81t59.5 76t42.5 66.5t10 53t-38 35.5t-101 13q-54 0 -97 -18t-73.5 -63t-46.5 -121.5t-16 -192.5v-862z"/>
<glyph glyph-name="agrave" horiz-adv-x="1079" unicode="" d="M449 175q35 0 75 7t81 19.5t81.5 30t77.5 39.5v176q-3 1 -20.5 1.5t-43 1.5t-57 1.5t-64.5 0.5q-62 0 -115.5 -8t-93 -26t-62 -46.5t-22.5 -69.5q0 -35 12.5 -59t34.5 -39t52 -22t64 -7zM169 896q10 15 24 30q12 13 30 28.5t42 31.5q60 38 129 58.5t154 20.5 q86 0 150 -21t109.5 -58.5t74 -88.5t45 -111.5t22.5 -127t6 -134.5v-524h-162q-13 16 -21.5 38.5t-8.5 45.5v27q-28 -28 -67.5 -51t-82 -39.5t-85.5 -26t-78 -9.5q-79 0 -144.5 22.5t-112 64t-72 100t-25.5 130.5q0 78 29 140.5t88.5 107t150 68.5t213.5 24q34 0 65.5 -2 t56.5 -4t41.5 -4t20.5 -3q-4 74 -22.5 122t-47.5 75.5t-66 38t-77 10.5q-49 0 -77 -8.5t-49.5 -19t-42.5 -19t-56 -8.5q-27 0 -50.5 9t-46.5 26zM241 1449h114q83 0 115 -44q11 -12 142 -244h-74q-83 0 -115 44z"/>
<glyph glyph-name="aacute" horiz-adv-x="1079" unicode="" d="M449 175q35 0 75 7t81 19.5t81.5 30t77.5 39.5v176q-3 1 -20.5 1.5t-43 1.5t-57 1.5t-64.5 0.5q-62 0 -115.5 -8t-93 -26t-62 -46.5t-22.5 -69.5q0 -35 12.5 -59t34.5 -39t52 -22t64 -7zM169 896q10 15 24 30q12 13 30 28.5t42 31.5q60 38 129 58.5t154 20.5 q86 0 150 -21t109.5 -58.5t74 -88.5t45 -111.5t22.5 -127t6 -134.5v-524h-162q-13 16 -21.5 38.5t-8.5 45.5v27q-28 -28 -67.5 -51t-82 -39.5t-85.5 -26t-78 -9.5q-79 0 -144.5 22.5t-112 64t-72 100t-25.5 130.5q0 78 29 140.5t88.5 107t150 68.5t213.5 24q34 0 65.5 -2 t56.5 -4t41.5 -4t20.5 -3q-4 74 -22.5 122t-47.5 75.5t-66 38t-77 10.5q-49 0 -77 -8.5t-49.5 -19t-42.5 -19t-56 -8.5q-27 0 -50.5 9t-46.5 26zM652 1205q-33 -44 -115 -44h-74q130 232 142 244q32 44 115 44h114z"/>
<glyph glyph-name="acircumflex" horiz-adv-x="1079" unicode="" d="M449 175q35 0 75 7t81 19.5t81.5 30t77.5 39.5v176q-3 1 -20.5 1.5t-43 1.5t-57 1.5t-64.5 0.5q-62 0 -115.5 -8t-93 -26t-62 -46.5t-22.5 -69.5q0 -35 12.5 -59t34.5 -39t52 -22t64 -7zM169 896q10 15 24 30q12 13 30 28.5t42 31.5q60 38 129 58.5t154 20.5 q86 0 150 -21t109.5 -58.5t74 -88.5t45 -111.5t22.5 -127t6 -134.5v-524h-162q-13 16 -21.5 38.5t-8.5 45.5v27q-28 -28 -67.5 -51t-82 -39.5t-85.5 -26t-78 -9.5q-79 0 -144.5 22.5t-112 64t-72 100t-25.5 130.5q0 78 29 140.5t88.5 107t150 68.5t213.5 24q34 0 65.5 -2 t56.5 -4t41.5 -4t20.5 -3q-4 74 -22.5 122t-47.5 75.5t-66 38t-77 10.5q-49 0 -77 -8.5t-49.5 -19t-42.5 -19t-56 -8.5q-27 0 -50.5 9t-46.5 26zM452 1205q-32 -44 -115 -44h-74q76 117 116.5 178t45.5 66q32 44 115 44h27q83 0 115 -44q5 -5 45.5 -66t116.5 -178h-74 q-83 0 -115 44l-92 113q-5 5 -7.5 13t-2.5 10q-1 -3 -3 -10.5t-6 -12.5z"/>
<glyph glyph-name="atilde" horiz-adv-x="1079" unicode="" d="M449 175q35 0 75 7t81 19.5t81.5 30t77.5 39.5v176q-3 1 -20.5 1.5t-43 1.5t-57 1.5t-64.5 0.5q-62 0 -115.5 -8t-93 -26t-62 -46.5t-22.5 -69.5q0 -35 12.5 -59t34.5 -39t52 -22t64 -7zM169 896q10 15 24 30q12 13 30 28.5t42 31.5q60 38 129 58.5t154 20.5 q86 0 150 -21t109.5 -58.5t74 -88.5t45 -111.5t22.5 -127t6 -134.5v-524h-162q-13 16 -21.5 38.5t-8.5 45.5v27q-28 -28 -67.5 -51t-82 -39.5t-85.5 -26t-78 -9.5q-79 0 -144.5 22.5t-112 64t-72 100t-25.5 130.5q0 78 29 140.5t88.5 107t150 68.5t213.5 24q34 0 65.5 -2 t56.5 -4t41.5 -4t20.5 -3q-4 74 -22.5 122t-47.5 75.5t-66 38t-77 10.5q-49 0 -77 -8.5t-49.5 -19t-42.5 -19t-56 -8.5q-27 0 -50.5 9t-46.5 26zM658 1201q-38 0 -73 14t-66.5 31t-57 31t-43.5 14q-16 0 -25.5 -9.5t-15 -23.5t-6.5 -24t-2 -10q-44 -19 -73 -21.5t-57 -0.5 v10q0 42 12 79.5t35 66.5t56 46t76 17q34 0 67 -14t63.5 -31t58.5 -31t51 -14q18 0 29 7t17 18t7.5 21t2.5 10q30 23 62 26q12 1 25 1q21 0 42 -3q-4 -48 -13 -87t-29.5 -66t-54.5 -42t-88 -15z"/>
<glyph glyph-name="adieresis" horiz-adv-x="1079" unicode="" d="M449 175q35 0 75 7t81 19.5t81.5 30t77.5 39.5v176q-3 1 -20.5 1.5t-43 1.5t-57 1.5t-64.5 0.5q-62 0 -115.5 -8t-93 -26t-62 -46.5t-22.5 -69.5q0 -35 12.5 -59t34.5 -39t52 -22t64 -7zM169 896q10 15 24 30q12 13 30 28.5t42 31.5q60 38 129 58.5t154 20.5 q86 0 150 -21t109.5 -58.5t74 -88.5t45 -111.5t22.5 -127t6 -134.5v-524h-162q-13 16 -21.5 38.5t-8.5 45.5v27q-28 -28 -67.5 -51t-82 -39.5t-85.5 -26t-78 -9.5q-79 0 -144.5 22.5t-112 64t-72 100t-25.5 130.5q0 78 29 140.5t88.5 107t150 68.5t213.5 24q34 0 65.5 -2 t56.5 -4t41.5 -4t20.5 -3q-4 74 -22.5 122t-47.5 75.5t-66 38t-77 10.5q-49 0 -77 -8.5t-49.5 -19t-42.5 -19t-56 -8.5q-27 0 -50.5 9t-46.5 26zM599 1290q0 25 9.5 46.5t25.5 38t37.5 26t46.5 9.5t46.5 -9.5t38 -26t26 -38t9.5 -46.5t-9.5 -46.5t-26 -37.5t-38 -25.5 t-46.5 -9.5t-46.5 9.5t-37.5 25.5t-25.5 37.5t-9.5 46.5zM260 1290q0 25 9.5 46.5t25.5 38t37.5 26t46.5 9.5t46.5 -9.5t38 -26t26 -38t9.5 -46.5t-9.5 -46.5t-26 -37.5t-38 -25.5t-46.5 -9.5t-46.5 9.5t-37.5 25.5t-25.5 37.5t-9.5 46.5z"/>
<glyph glyph-name="aring" horiz-adv-x="1079" unicode="" d="M449 175q35 0 75 7t81 19.5t81.5 30t77.5 39.5v176q-3 1 -20.5 1.5t-43 1.5t-57 1.5t-64.5 0.5q-62 0 -115.5 -8t-93 -26t-62 -46.5t-22.5 -69.5q0 -35 12.5 -59t34.5 -39t52 -22t64 -7zM169 896q10 15 24 30q12 13 30 28.5t42 31.5q60 38 129 58.5t154 20.5 q86 0 150 -21t109.5 -58.5t74 -88.5t45 -111.5t22.5 -127t6 -134.5v-524h-162q-13 16 -21.5 38.5t-8.5 45.5v27q-28 -28 -67.5 -51t-82 -39.5t-85.5 -26t-78 -9.5q-79 0 -144.5 22.5t-112 64t-72 100t-25.5 130.5q0 78 29 140.5t88.5 107t150 68.5t213.5 24q34 0 65.5 -2 t56.5 -4t41.5 -4t20.5 -3q-4 74 -22.5 122t-47.5 75.5t-66 38t-77 10.5q-49 0 -77 -8.5t-49.5 -19t-42.5 -19t-56 -8.5q-27 0 -50.5 9t-46.5 26zM464 1317q0 -32 21.5 -53.5t53.5 -21.5t53.5 21.5t21.5 53.5t-21.5 53.5t-53.5 21.5t-53.5 -21.5t-21.5 -53.5zM353 1317 q0 39 14.5 72.5t40 59t59 40t72.5 14.5t72.5 -14.5t59 -40t40 -59t14.5 -72.5t-14.5 -72.5t-40 -59t-59 -40t-72.5 -14.5t-72.5 14.5t-59 40t-40 59t-14.5 72.5z"/>
<glyph glyph-name="ae" horiz-adv-x="1875" unicode="" d="M1039 657h558q-20 47 -47.5 86.5t-63.5 68t-81 44.5t-99 16q-64 0 -117.5 -18.5t-96 -51.5t-72.5 -78.5t-46 -99.5q8 11 24 22t41 11zM457 175q43 0 91.5 10.5t96 27t92.5 37.5t82 42q-15 32 -25.5 65.5t-17.5 68.5l-4 11q-3 1 -20.5 3.5t-43 5t-57 4.5t-64.5 2 q-62 0 -117 -8t-96.5 -26t-65.5 -46.5t-24 -69.5q0 -35 14 -59t38 -39t55.5 -22t65.5 -7zM1802 614q0 -35 -13.5 -62.5t-33.5 -47t-44.5 -30t-46.5 -10.5h-622q-26 0 -48 -7.5t-22 -27.5l1 -6q15 -53 47.5 -98t76.5 -77.5t97.5 -51t111.5 -18.5q46 0 88.5 11.5t80.5 32.5 q20 11 39 16t42 5q32 0 58 -12t49 -35l38 -38q-75 -80 -176 -126.5t-219 -46.5q-107 0 -201.5 38.5t-166.5 106.5q-7 7 -14.5 18.5t-9.5 14.5q1 -3 3.5 -13t2.5 -20q0 -5 -1 -9.5t-5 -6.5l-9 -5q-40 -23 -90 -45t-107.5 -39.5t-120.5 -28.5t-129 -11q-79 0 -146 22.5 t-115.5 64t-75.5 100t-27 130.5q0 78 30.5 140.5t92 107t153.5 68.5t215 24q30 0 60.5 -1.5t57 -3.5t46.5 -4t29 -3q1 0 2 2q2 4 2 17q-6 67 -26.5 111t-50.5 69.5t-67 35.5t-77 10q-49 0 -77 -8.5t-49.5 -19t-42.5 -19t-56 -8.5q-54 0 -97 35l-57 41q10 15 24 30 q12 13 30 28.5t42 31.5q60 38 129 58.5t154 20.5q128 0 212.5 -44.5t128.5 -119.5v-2q0 -1 0.5 -1.5t0.5 -2.5q0 -4 -1 -7l-8 -20l26 33q73 79 173 121.5t213 42.5q93 0 173.5 -31t144 -85t108 -128t66.5 -161q3 -11 3.5 -23t0.5 -23z"/>
<glyph glyph-name="ccedilla" horiz-adv-x="1027" unicode="" d="M614 872q-72 0 -135 -27.5t-110 -74.5t-74.5 -110t-27.5 -135t27.5 -135t74.5 -110t110 -74.5t135 -27.5q45 0 88.5 11t81.5 33q37 21 80 21q32 0 58 -12t49 -35l38 -38q-75 -80 -176 -126.5t-219 -46.5q-111 0 -209.5 42.5t-172 116t-116 172t-42.5 209.5t42.5 209.5 t116 172t172 116t209.5 42.5q118 0 219 -46.5t176 -126.5l-38 -38q-24 -24 -51 -35.5t-62 -11.5q-40 0 -74 21q-38 22 -81.5 32t-88.5 12zM565 10h106l-1 -76q41 -3 76 -16t61 -33t41 -45.5t15 -53.5q0 -31 -17.5 -58t-47.5 -47.5t-70 -32.5t-86 -12q-22 0 -44 6t-39 14 q-20 9 -39 21v73q19 -7 40 -12q17 -5 39 -8t43 -3q36 0 62 17.5t26 41.5t-26 41.5t-62 17.5q-8 0 -16.5 -0.5t-16.5 -0.5q-19 0 -31.5 8.5t-12.5 40.5v117z"/>
<glyph glyph-name="egrave" horiz-adv-x="1211" unicode="" d="M345 657h588q-20 47 -52 86.5t-73.5 68t-91.5 44.5t-104 16q-59 0 -112.5 -18.5t-97 -51.5t-75 -78.5t-47.5 -99.5q8 11 24 22t41 11zM1138 614q0 -35 -13.5 -62.5t-33.5 -47t-44.5 -30t-46.5 -10.5h-730q9 -61 40 -113t77 -90.5t104 -60.5t121 -22q46 0 88.5 11.5 t80.5 32.5q20 11 39 16t42 5q32 0 58 -12t49 -35l38 -38q-75 -80 -176 -126.5t-219 -46.5q-111 0 -209.5 42.5t-172 116t-116 172t-42.5 209.5t42.5 209.5t116 172t172 116t209.5 42.5q93 0 178 -31t154 -85t118.5 -128t71.5 -161q3 -11 3 -23t1 -23zM329 1449h114 q83 0 115 -44q11 -12 142 -244h-74q-83 0 -115 44z"/>
<glyph glyph-name="eacute" horiz-adv-x="1211" unicode="" d="M345 657h588q-20 47 -52 86.5t-73.5 68t-91.5 44.5t-104 16q-59 0 -112.5 -18.5t-97 -51.5t-75 -78.5t-47.5 -99.5q8 11 24 22t41 11zM1138 614q0 -35 -13.5 -62.5t-33.5 -47t-44.5 -30t-46.5 -10.5h-730q9 -61 40 -113t77 -90.5t104 -60.5t121 -22q46 0 88.5 11.5 t80.5 32.5q20 11 39 16t42 5q32 0 58 -12t49 -35l38 -38q-75 -80 -176 -126.5t-219 -46.5q-111 0 -209.5 42.5t-172 116t-116 172t-42.5 209.5t42.5 209.5t116 172t172 116t209.5 42.5q93 0 178 -31t154 -85t118.5 -128t71.5 -161q3 -11 3 -23t1 -23zM715 1205 q-33 -44 -115 -44h-74q130 232 142 244q32 44 115 44h114z"/>
<glyph glyph-name="ecircumflex" horiz-adv-x="1211" unicode="" d="M345 657h588q-20 47 -52 86.5t-73.5 68t-91.5 44.5t-104 16q-59 0 -112.5 -18.5t-97 -51.5t-75 -78.5t-47.5 -99.5q8 11 24 22t41 11zM1138 614q0 -35 -13.5 -62.5t-33.5 -47t-44.5 -30t-46.5 -10.5h-730q9 -61 40 -113t77 -90.5t104 -60.5t121 -22q46 0 88.5 11.5 t80.5 32.5q20 11 39 16t42 5q32 0 58 -12t49 -35l38 -38q-75 -80 -176 -126.5t-219 -46.5q-111 0 -209.5 42.5t-172 116t-116 172t-42.5 209.5t42.5 209.5t116 172t172 116t209.5 42.5q93 0 178 -31t154 -85t118.5 -128t71.5 -161q3 -11 3 -23t1 -23zM514 1205 q-32 -44 -115 -44h-74q76 117 116.5 178t45.5 66q32 44 115 44h27q83 0 115 -44q5 -5 45.5 -66t116.5 -178h-74q-83 0 -115 44l-92 113q-5 5 -7.5 13t-2.5 10q-1 -3 -3 -10.5t-6 -12.5z"/>
<glyph glyph-name="edieresis" horiz-adv-x="1211" unicode="" d="M345 657h588q-20 47 -52 86.5t-73.5 68t-91.5 44.5t-104 16q-59 0 -112.5 -18.5t-97 -51.5t-75 -78.5t-47.5 -99.5q8 11 24 22t41 11zM1138 614q0 -35 -13.5 -62.5t-33.5 -47t-44.5 -30t-46.5 -10.5h-730q9 -61 40 -113t77 -90.5t104 -60.5t121 -22q46 0 88.5 11.5 t80.5 32.5q20 11 39 16t42 5q32 0 58 -12t49 -35l38 -38q-75 -80 -176 -126.5t-219 -46.5q-111 0 -209.5 42.5t-172 116t-116 172t-42.5 209.5t42.5 209.5t116 172t172 116t209.5 42.5q93 0 178 -31t154 -85t118.5 -128t71.5 -161q3 -11 3 -23t1 -23zM666 1290 q0 25 9.5 46.5t25.5 38t37.5 26t46.5 9.5t46.5 -9.5t38 -26t26 -38t9.5 -46.5t-9.5 -46.5t-26 -37.5t-38 -25.5t-46.5 -9.5t-46.5 9.5t-37.5 25.5t-25.5 37.5t-9.5 46.5zM327 1290q0 25 9.5 46.5t25.5 38t37.5 26t46.5 9.5t46.5 -9.5t38 -26t26 -38t9.5 -46.5t-9.5 -46.5 t-26 -37.5t-38 -25.5t-46.5 -9.5t-46.5 9.5t-37.5 25.5t-25.5 37.5t-9.5 46.5z"/>
<glyph glyph-name="igrave" horiz-adv-x="532" unicode="" d="M364 1032v-1032h-198v1032h198zM-24 1449h114q83 0 115 -44q11 -12 142 -244h-74q-83 0 -115 44z"/>
<glyph glyph-name="iacute" horiz-adv-x="532" unicode="" d="M364 1032v-1032h-198v1032h198zM358 1205q-33 -44 -115 -44h-74q130 232 142 244q32 44 115 44h114z"/>
<glyph glyph-name="icircumflex" horiz-adv-x="532" unicode="" d="M364 1032v-1032h-198v1032h198zM165 1205q-32 -44 -115 -44h-74q76 117 116.5 178t45.5 66q32 44 115 44h27q83 0 115 -44q5 -5 45.5 -66t116.5 -178h-74q-83 0 -115 44l-92 113q-5 5 -7.5 13t-2.5 10q-1 -3 -3 -10.5t-6 -12.5z"/>
<glyph glyph-name="idieresis" horiz-adv-x="532" unicode="" d="M364 1032v-1032h-198v1032h198zM316 1290q0 25 9.5 46.5t25.5 38t37.5 26t46.5 9.5t46.5 -9.5t38 -26t26 -38t9.5 -46.5t-9.5 -46.5t-26 -37.5t-38 -25.5t-46.5 -9.5t-46.5 9.5t-37.5 25.5t-25.5 37.5t-9.5 46.5zM-23 1290q0 25 9.5 46.5t25.5 38t37.5 26t46.5 9.5 t46.5 -9.5t38 -26t26 -38t9.5 -46.5t-9.5 -46.5t-26 -37.5t-38 -25.5t-46.5 -9.5t-46.5 9.5t-37.5 25.5t-25.5 37.5t-9.5 46.5z"/>
<glyph glyph-name="eth" horiz-adv-x="1133" unicode="" d="M265 525q0 -72 27.5 -135t74.5 -110t110 -74.5t135 -27.5t135 27.5t110 74.5t74.5 110t27.5 135t-27.5 135t-74.5 110t-110 74.5t-135 27.5t-135 -27.5t-110 -74.5t-74.5 -110t-27.5 -135zM873 1439l82 -66l-71 -89q64 -59 113.5 -134t84 -168t52.5 -205.5t18 -245.5v-5 q0 -112 -42.5 -210.5t-116 -172t-172 -116t-209.5 -42.5t-209.5 42.5t-172 116t-116 172t-42.5 209.5t42.5 209.5t116 172t172 116t209.5 42.5q49 0 101 -13.5t97 -37t78 -54.5t46 -66q-25 86 -65 147.5t-93 107.5l-66 -83l-80 65l62 79q-60 35 -124 61t-130 50l51 161 q88 -21 166.5 -54t146.5 -79z"/>
<glyph glyph-name="ntilde" horiz-adv-x="1164" unicode="" d="M314 1050l4 -6q4 -6 10 -17.5t11 -27t5 -33.5v-43q18 35 50 61.5t72 44.5t86.5 27t94.5 9q88 0 161 -31.5t124.5 -91.5t80 -147t28.5 -198v-597h-198v597q0 131 -48 205.5t-148 74.5q-60 0 -113.5 -13.5t-95 -36.5t-66.5 -55t-28 -68v-704h-198v1050h168zM701 1201 q-38 0 -73 14t-66.5 31t-57 31t-43.5 14q-16 0 -25.5 -9.5t-15 -23.5t-6.5 -24t-2 -10q-44 -19 -73 -21.5t-57 -0.5v10q0 42 12 79.5t35 66.5t56 46t76 17q34 0 67 -14t63.5 -31t58.5 -31t51 -14q18 0 29 7t17 18t7.5 21t2.5 10q30 23 62 26q12 1 25 1q21 0 42 -3 q-4 -48 -13 -87t-29.5 -66t-54.5 -42t-88 -15z"/>
<glyph glyph-name="ograve" horiz-adv-x="1226" unicode="" d="M265 525q0 -72 27.5 -135t74.5 -110t110 -74.5t135 -27.5t135 27.5t110 74.5t74.5 110t27.5 135t-27.5 135t-74.5 110t-110 74.5t-135 27.5t-135 -27.5t-110 -74.5t-74.5 -110t-27.5 -135zM72 525q0 111 42.5 209.5t116 172t172 116t209.5 42.5t209.5 -42.5t172 -116 t116 -172t42.5 -209.5t-42.5 -209.5t-116 -172t-172 -116t-209.5 -42.5t-209.5 42.5t-172 116t-116 172t-42.5 209.5zM318 1449h114q83 0 115 -44q11 -12 142 -244h-74q-83 0 -115 44z"/>
<glyph glyph-name="oacute" horiz-adv-x="1226" unicode="" d="M265 525q0 -72 27.5 -135t74.5 -110t110 -74.5t135 -27.5t135 27.5t110 74.5t74.5 110t27.5 135t-27.5 135t-74.5 110t-110 74.5t-135 27.5t-135 -27.5t-110 -74.5t-74.5 -110t-27.5 -135zM72 525q0 111 42.5 209.5t116 172t172 116t209.5 42.5t209.5 -42.5t172 -116 t116 -172t42.5 -209.5t-42.5 -209.5t-116 -172t-172 -116t-209.5 -42.5t-209.5 42.5t-172 116t-116 172t-42.5 209.5zM716 1205q-33 -44 -115 -44h-74q130 232 142 244q32 44 115 44h114z"/>
<glyph glyph-name="ocircumflex" horiz-adv-x="1226" unicode="" d="M265 525q0 -72 27.5 -135t74.5 -110t110 -74.5t135 -27.5t135 27.5t110 74.5t74.5 110t27.5 135t-27.5 135t-74.5 110t-110 74.5t-135 27.5t-135 -27.5t-110 -74.5t-74.5 -110t-27.5 -135zM72 525q0 111 42.5 209.5t116 172t172 116t209.5 42.5t209.5 -42.5t172 -116 t116 -172t42.5 -209.5t-42.5 -209.5t-116 -172t-172 -116t-209.5 -42.5t-209.5 42.5t-172 116t-116 172t-42.5 209.5zM511 1205q-32 -44 -115 -44h-74q76 117 116.5 178t45.5 66q32 44 115 44h27q83 0 115 -44q5 -5 45.5 -66t116.5 -178h-74q-83 0 -115 44l-92 113 q-5 5 -7.5 13t-2.5 10q-1 -3 -3 -10.5t-6 -12.5z"/>
<glyph glyph-name="otilde" horiz-adv-x="1226" unicode="" d="M265 525q0 -72 27.5 -135t74.5 -110t110 -74.5t135 -27.5t135 27.5t110 74.5t74.5 110t27.5 135t-27.5 135t-74.5 110t-110 74.5t-135 27.5t-135 -27.5t-110 -74.5t-74.5 -110t-27.5 -135zM72 525q0 111 42.5 209.5t116 172t172 116t209.5 42.5t209.5 -42.5t172 -116 t116 -172t42.5 -209.5t-42.5 -209.5t-116 -172t-172 -116t-209.5 -42.5t-209.5 42.5t-172 116t-116 172t-42.5 209.5zM732 1201q-38 0 -73 14t-66.5 31t-57 31t-43.5 14q-16 0 -25.5 -9.5t-15 -23.5t-6.5 -24t-2 -10q-44 -19 -73 -21.5t-57 -0.5v10q0 42 12 79.5t35 66.5 t56 46t76 17q34 0 67 -14t63.5 -31t58.5 -31t51 -14q18 0 29 7t17 18t7.5 21t2.5 10q30 23 62 26q12 1 25 1q21 0 42 -3q-4 -48 -13 -87t-29.5 -66t-54.5 -42t-88 -15z"/>
<glyph glyph-name="odieresis" horiz-adv-x="1226" unicode="" d="M265 525q0 -72 27.5 -135t74.5 -110t110 -74.5t135 -27.5t135 27.5t110 74.5t74.5 110t27.5 135t-27.5 135t-74.5 110t-110 74.5t-135 27.5t-135 -27.5t-110 -74.5t-74.5 -110t-27.5 -135zM72 525q0 111 42.5 209.5t116 172t172 116t209.5 42.5t209.5 -42.5t172 -116 t116 -172t42.5 -209.5t-42.5 -209.5t-116 -172t-172 -116t-209.5 -42.5t-209.5 42.5t-172 116t-116 172t-42.5 209.5zM663 1290q0 25 9.5 46.5t25.5 38t37.5 26t46.5 9.5t46.5 -9.5t38 -26t26 -38t9.5 -46.5t-9.5 -46.5t-26 -37.5t-38 -25.5t-46.5 -9.5t-46.5 9.5 t-37.5 25.5t-25.5 37.5t-9.5 46.5zM324 1290q0 25 9.5 46.5t25.5 38t37.5 26t46.5 9.5t46.5 -9.5t38 -26t26 -38t9.5 -46.5t-9.5 -46.5t-26 -37.5t-38 -25.5t-46.5 -9.5t-46.5 9.5t-37.5 25.5t-25.5 37.5t-9.5 46.5z"/>
<glyph glyph-name="divide" horiz-adv-x="1160" unicode="" d="M434 1010q0 29 11.5 55t31 45.5t45.5 31t55 11.5t55 -11.5t45.5 -31t31 -45.5t11.5 -55t-11.5 -55t-31 -45.5t-45.5 -31t-55 -11.5t-55 11.5t-45.5 31t-31 45.5t-11.5 55zM434 328q0 29 11.5 55t31 45.5t45.5 31t55 11.5t55 -11.5t45.5 -31t31 -45.5t11.5 -55t-11.5 -55 t-31 -45.5t-45.5 -31t-55 -11.5t-55 11.5t-45.5 31t-31 45.5t-11.5 55zM1057 575h-956v188h956v-188z"/>
<glyph glyph-name="oslash" horiz-adv-x="1226" unicode="" d="M265 525q0 -72 27.5 -135t74.5 -110l6 -6l406 555q-15 9 -32 15q-63 28 -135 28t-135 -27.5t-110 -74.5t-74.5 -110t-27.5 -135zM72 525q0 111 42.5 209.5t116 172t172 116t209.5 42.5q112 -1 210 -43q38 -16 72 -37l89 122q19 27 35.5 38.5t48.5 11.5h100l-179 -245 l6 -6q74 -74 116 -172t42 -209t-42.5 -209.5t-116 -172t-172 -116t-209.5 -42.5q-112 1 -210 43q-24 10 -47 22l-76 -104q-22 -29 -51 -42t-58 -13h-78l166 227q-14 12 -28 26q-74 74 -116 172t-42 209zM471 208q3 0 6 -2q63 -28 135 -28t135 27.5t110 74.5t74.5 110 t27.5 135q1 72 -27 135q-23 53 -60 94z"/>
<glyph glyph-name="ugrave" horiz-adv-x="1164" unicode="" d="M849 0l-5 6q-4 6 -9.5 17.5t-10.5 27t-5 33.5v43q-18 -36 -50 -62.5t-72 -44t-86.5 -26.5t-94.5 -9q-89 0 -161.5 33t-124 94t-80 147.5t-28.5 193.5v597h198v-597q0 -131 48 -205.5t148 -74.5q60 0 113.5 14.5t95 39.5t66.5 58t28 69v696h198v-1050h-168zM396 1449h114 q83 0 115 -44q11 -12 142 -244h-74q-83 0 -115 44z"/>
<glyph glyph-name="uacute" horiz-adv-x="1164" unicode="" d="M849 0l-5 6q-4 6 -9.5 17.5t-10.5 27t-5 33.5v43q-18 -36 -50 -62.5t-72 -44t-86.5 -26.5t-94.5 -9q-89 0 -161.5 33t-124 94t-80 147.5t-28.5 193.5v597h198v-597q0 -131 48 -205.5t148 -74.5q60 0 113.5 14.5t95 39.5t66.5 58t28 69v696h198v-1050h-168zM585 1205 q-33 -44 -115 -44h-74q130 232 142 244q32 44 115 44h114z"/>
<glyph glyph-name="ucircumflex" horiz-adv-x="1164" unicode="" d="M849 0l-5 6q-4 6 -9.5 17.5t-10.5 27t-5 33.5v43q-18 -36 -50 -62.5t-72 -44t-86.5 -26.5t-94.5 -9q-89 0 -161.5 33t-124 94t-80 147.5t-28.5 193.5v597h198v-597q0 -131 48 -205.5t148 -74.5q60 0 113.5 14.5t95 39.5t66.5 58t28 69v696h198v-1050h-168zM480 1205 q-32 -44 -115 -44h-74q76 117 116.5 178t45.5 66q32 44 115 44h27q83 0 115 -44q5 -5 45.5 -66t116.5 -178h-74q-83 0 -115 44l-92 113q-5 5 -7.5 13t-2.5 10q-1 -3 -3 -10.5t-6 -12.5z"/>
<glyph glyph-name="udieresis" horiz-adv-x="1164" unicode="" d="M849 0l-5 6q-4 6 -9.5 17.5t-10.5 27t-5 33.5v43q-18 -36 -50 -62.5t-72 -44t-86.5 -26.5t-94.5 -9q-89 0 -161.5 33t-124 94t-80 147.5t-28.5 193.5v597h198v-597q0 -131 48 -205.5t148 -74.5q60 0 113.5 14.5t95 39.5t66.5 58t28 69v696h198v-1050h-168zM632 1290 q0 25 9.5 46.5t25.5 38t37.5 26t46.5 9.5t46.5 -9.5t38 -26t26 -38t9.5 -46.5t-9.5 -46.5t-26 -37.5t-38 -25.5t-46.5 -9.5t-46.5 9.5t-37.5 25.5t-25.5 37.5t-9.5 46.5zM293 1290q0 25 9.5 46.5t25.5 38t37.5 26t46.5 9.5t46.5 -9.5t38 -26t26 -38t9.5 -46.5t-9.5 -46.5 t-26 -37.5t-38 -25.5t-46.5 -9.5t-46.5 9.5t-37.5 25.5t-25.5 37.5t-9.5 46.5z"/>
<glyph glyph-name="yacute" horiz-adv-x="1133" unicode="" d="M28 1050h114q23 0 45 -6.5t41 -18.5t33.5 -29t22.5 -38l232 -533q31 -71 31 -128q0 -14 -2 -26.5t-6 -24.5q14 34 86.5 198.5t201.5 460.5l23 53q18 42 56.5 67t85.5 25h114l-585 -1343q-17 -45 -57 -70.5t-87 -25.5h-114l196 450zM670 1205q-33 -44 -115 -44h-74 q130 232 142 244q32 44 115 44h114z"/>
<glyph glyph-name="thorn" horiz-adv-x="1203" unicode="" d="M618 178q72 0 132 27.5t103.5 74.5t67.5 110t24 135t-24 135t-67.5 110t-103.5 74.5t-132 27.5q-77 0 -149.5 -30.5t-124.5 -83.5v-466q52 -53 124.5 -83.5t149.5 -30.5zM344 1433v-508q3 27 19 48t40 36.5t53.5 26t59 17t56.5 9.5t46 3q111 0 206.5 -42.5t165 -116 t109 -172t39.5 -209.5t-39.5 -209.5t-109 -172t-165 -116t-206.5 -42.5q-35 0 -70.5 5t-70.5 17t-69 32.5t-64 51.5v-430h-198v1772h198z"/>
<glyph glyph-name="ydieresis" horiz-adv-x="1133" unicode="" d="M28 1050h114q23 0 45 -6.5t41 -18.5t33.5 -29t22.5 -38l232 -533q31 -71 31 -128q0 -14 -2 -26.5t-6 -24.5q14 34 86.5 198.5t201.5 460.5l23 53q18 42 56.5 67t85.5 25h114l-585 -1343q-17 -45 -57 -70.5t-87 -25.5h-114l196 450zM616 1290q0 25 9.5 46.5t25.5 38 t37.5 26t46.5 9.5t46.5 -9.5t38 -26t26 -38t9.5 -46.5t-9.5 -46.5t-26 -37.5t-38 -25.5t-46.5 -9.5t-46.5 9.5t-37.5 25.5t-25.5 37.5t-9.5 46.5zM277 1290q0 25 9.5 46.5t25.5 38t37.5 26t46.5 9.5t46.5 -9.5t38 -26t26 -38t9.5 -46.5t-9.5 -46.5t-26 -37.5t-38 -25.5 t-46.5 -9.5t-46.5 9.5t-37.5 25.5t-25.5 37.5t-9.5 46.5z"/>
<glyph glyph-name="Amacron" horiz-adv-x="1373" unicode="" d="M665 1117l-261 -599h559l-261 599q-16 35 -19 85q-2 -25 -6.5 -46t-11.5 -39zM587 1433h193l625 -1433h-114q-47 0 -85 24.5t-57 67.5l-100 228h-732l-99 -228q-18 -42 -56.5 -67t-85.5 -25h-114zM404 1708h554v-148h-554v148z"/>
<glyph glyph-name="amacron" horiz-adv-x="1079" unicode="" d="M449 175q35 0 75 7t81 19.5t81.5 30t77.5 39.5v176q-3 1 -20.5 1.5t-43 1.5t-57 1.5t-64.5 0.5q-62 0 -115.5 -8t-93 -26t-62 -46.5t-22.5 -69.5q0 -35 12.5 -59t34.5 -39t52 -22t64 -7zM169 896q10 15 24 30q12 13 30 28.5t42 31.5q60 38 129 58.5t154 20.5 q86 0 150 -21t109.5 -58.5t74 -88.5t45 -111.5t22.5 -127t6 -134.5v-524h-162q-13 16 -21.5 38.5t-8.5 45.5v27q-28 -28 -67.5 -51t-82 -39.5t-85.5 -26t-78 -9.5q-79 0 -144.5 22.5t-112 64t-72 100t-25.5 130.5q0 78 29 140.5t88.5 107t150 68.5t213.5 24q34 0 65.5 -2 t56.5 -4t41.5 -4t20.5 -3q-4 74 -22.5 122t-47.5 75.5t-66 38t-77 10.5q-49 0 -77 -8.5t-49.5 -19t-42.5 -19t-56 -8.5q-27 0 -50.5 9t-46.5 26zM273 1348h554v-148h-554v148z"/>
<glyph glyph-name="Abreve" horiz-adv-x="1373" unicode="" d="M665 1117l-261 -599h559l-261 599q-16 35 -19 85q-2 -25 -6.5 -46t-11.5 -39zM587 1433h193l625 -1433h-114q-47 0 -85 24.5t-57 67.5l-100 228h-732l-99 -228q-18 -42 -56.5 -67t-85.5 -25h-114zM958 1781q0 -57 -22 -104.5t-59.5 -81.5t-88 -52.5t-107.5 -18.5 t-107.5 18.5t-88 52.5t-59.5 81.5t-22 104.5h52q29 0 53.5 -16.5t33.5 -44.5q19 -37 55.5 -53.5t82.5 -16.5q45 0 82 16.5t55 53.5q11 29 35 45t53 16h52z"/>
<glyph glyph-name="abreve" horiz-adv-x="1079" unicode="" d="M449 175q35 0 75 7t81 19.5t81.5 30t77.5 39.5v176q-3 1 -20.5 1.5t-43 1.5t-57 1.5t-64.5 0.5q-62 0 -115.5 -8t-93 -26t-62 -46.5t-22.5 -69.5q0 -35 12.5 -59t34.5 -39t52 -22t64 -7zM169 896q10 15 24 30q12 13 30 28.5t42 31.5q60 38 129 58.5t154 20.5 q86 0 150 -21t109.5 -58.5t74 -88.5t45 -111.5t22.5 -127t6 -134.5v-524h-162q-13 16 -21.5 38.5t-8.5 45.5v27q-28 -28 -67.5 -51t-82 -39.5t-85.5 -26t-78 -9.5q-79 0 -144.5 22.5t-112 64t-72 100t-25.5 130.5q0 78 29 140.5t88.5 107t150 68.5t213.5 24q34 0 65.5 -2 t56.5 -4t41.5 -4t20.5 -3q-4 74 -22.5 122t-47.5 75.5t-66 38t-77 10.5q-49 0 -77 -8.5t-49.5 -19t-42.5 -19t-56 -8.5q-27 0 -50.5 9t-46.5 26zM816 1421q0 -57 -22 -106t-59.5 -85t-88 -56t-107.5 -20t-107.5 20t-88 56t-59.5 85t-22 106h52q29 0 53.5 -16.5t33.5 -44.5 q19 -37 55.5 -58.5t82.5 -21.5q45 0 82 21.5t55 58.5q11 29 35 45t53 16h52z"/>
<glyph glyph-name="Aogonek" horiz-adv-x="1373" unicode="" d="M665 1117l-261 -599h559l-261 599q-16 35 -19 85q-2 -25 -6.5 -46t-11.5 -39zM587 1433h193l625 -1433h-114q-47 0 -85 24.5t-57 67.5l-100 228h-732l-99 -228q-18 -42 -56.5 -67t-85.5 -25h-114zM1375 1q-21 -12 -42 -27.5t-37.5 -33.5t-27 -38.5t-10.5 -42.5 q0 -42 29.5 -64.5t79.5 -22.5q18 0 37.5 2.5t39.5 2.5q21 -1 40.5 -7.5t30.5 -27.5l14 -29q-35 -25 -90 -40.5t-115 -15.5q-105 0 -164.5 42.5t-59.5 112.5q0 28 12.5 55.5t34.5 52.5t51 48t62 43z"/>
<glyph glyph-name="aogonek" horiz-adv-x="1220" unicode="" d="M449 175q35 0 75 7t81 19.5t81.5 30t77.5 39.5v176q-3 1 -20.5 1.5t-43 1.5t-57 1.5t-64.5 0.5q-62 0 -115.5 -8t-93 -26t-62 -46.5t-22.5 -69.5q0 -35 12.5 -59t34.5 -39t52 -22t64 -7zM169 896q10 15 24 30q12 13 30 28.5t42 31.5q60 38 129 58.5t154 20.5 q86 0 150 -21t109.5 -58.5t74 -88.5t45 -111.5t22.5 -127t6 -134.5v-524h-162q-13 16 -21.5 38.5t-8.5 45.5v27q-28 -28 -67.5 -51t-82 -39.5t-85.5 -26t-78 -9.5q-79 0 -144.5 22.5t-112 64t-72 100t-25.5 130.5q0 78 29 140.5t88.5 107t150 68.5t213.5 24q34 0 65.5 -2 t56.5 -4t41.5 -4t20.5 -3q-4 74 -22.5 122t-47.5 75.5t-66 38t-77 10.5q-49 0 -77 -8.5t-49.5 -19t-42.5 -19t-56 -8.5q-27 0 -50.5 9t-46.5 26zM942 1q-21 -12 -42 -27.5t-37.5 -33.5t-27 -38.5t-10.5 -42.5q0 -42 29.5 -64.5t79.5 -22.5q18 0 37.5 2.5t39.5 2.5 q21 -1 40.5 -7.5t30.5 -27.5l14 -29q-35 -25 -90 -40.5t-115 -15.5q-105 0 -164.5 42.5t-59.5 112.5q0 28 12.5 55.5t34.5 52.5t51 48t62 43z"/>
<glyph glyph-name="Cacute" horiz-adv-x="1442" unicode="" d="M288 717q0 -111 42 -208t114.5 -169.5t169.5 -114.5t208 -42q86 0 162 25t142 70q37 25 83 25q36 0 62.5 -12t49.5 -35l37 -37q-50 -54 -110.5 -97.5t-128.5 -73.5t-143 -46.5t-154 -16.5q-152 0 -285 57.5t-232.5 157t-157 232.5t-57.5 285q0 101 26 194.5t74 175 t114.5 148t148 114.5t175 74t194.5 26q79 0 154 -16.5t143 -46.5t128.5 -73.5t110.5 -97.5l-37 -37q-23 -23 -50 -35.5t-62 -12.5q-45 0 -83 26q-66 45 -142.5 70t-161.5 25q-111 0 -208 -42t-169.5 -114.5t-114.5 -169.5t-42 -208zM934 1588q-32 -44 -115 -44h-74 q111 183 122 194q32 44 115 44h114z"/>
<glyph glyph-name="cacute" horiz-adv-x="1027" unicode="" d="M614 872q-72 0 -135 -27.5t-110 -74.5t-74.5 -110t-27.5 -135t27.5 -135t74.5 -110t110 -74.5t135 -27.5q45 0 88.5 11t81.5 33q37 21 80 21q32 0 58 -12t49 -35l38 -38q-75 -80 -176 -126.5t-219 -46.5q-111 0 -209.5 42.5t-172 116t-116 172t-42.5 209.5t42.5 209.5 t116 172t172 116t209.5 42.5q118 0 219 -46.5t176 -126.5l-38 -38q-24 -24 -51 -35.5t-62 -11.5q-40 0 -74 21q-38 22 -81.5 32t-88.5 12zM704 1205q-33 -44 -115 -44h-74q130 232 142 244q32 44 115 44h114z"/>
<glyph glyph-name="Ccircumflex" horiz-adv-x="1442" unicode="" d="M288 717q0 -111 42 -208t114.5 -169.5t169.5 -114.5t208 -42q86 0 162 25t142 70q37 25 83 25q36 0 62.5 -12t49.5 -35l37 -37q-50 -54 -110.5 -97.5t-128.5 -73.5t-143 -46.5t-154 -16.5q-152 0 -285 57.5t-232.5 157t-157 232.5t-57.5 285q0 101 26 194.5t74 175 t114.5 148t148 114.5t175 74t194.5 26q79 0 154 -16.5t143 -46.5t128.5 -73.5t110.5 -97.5l-37 -37q-23 -23 -50 -35.5t-62 -12.5q-45 0 -83 26q-66 45 -142.5 70t-161.5 25q-111 0 -208 -42t-169.5 -114.5t-114.5 -169.5t-42 -208zM729 1583q-42 -44 -115 -44h-74l162 204 q32 44 115 44h27q83 0 115 -44l162 -204h-74h-6q-34 0 -60 11q-28 12 -49 33l-92 93q-5 5 -7.5 13t-2.5 10q-1 -3 -3 -10.5t-6 -12.5z"/>
<glyph glyph-name="ccircumflex" horiz-adv-x="1027" unicode="" d="M614 872q-72 0 -135 -27.5t-110 -74.5t-74.5 -110t-27.5 -135t27.5 -135t74.5 -110t110 -74.5t135 -27.5q45 0 88.5 11t81.5 33q37 21 80 21q32 0 58 -12t49 -35l38 -38q-75 -80 -176 -126.5t-219 -46.5q-111 0 -209.5 42.5t-172 116t-116 172t-42.5 209.5t42.5 209.5 t116 172t172 116t209.5 42.5q118 0 219 -46.5t176 -126.5l-38 -38q-24 -24 -51 -35.5t-62 -11.5q-40 0 -74 21q-38 22 -81.5 32t-88.5 12zM523 1205q-32 -44 -115 -44h-74q76 117 116.5 178t45.5 66q32 44 115 44h27q83 0 115 -44q5 -5 45.5 -66t116.5 -178h-74 q-83 0 -115 44l-92 113q-5 5 -7.5 13t-2.5 10q-1 -3 -3 -10.5t-6 -12.5z"/>
<glyph glyph-name="Cdotaccent" horiz-adv-x="1442" unicode="" d="M288 717q0 -111 42 -208t114.5 -169.5t169.5 -114.5t208 -42q86 0 162 25t142 70q37 25 83 25q36 0 62.5 -12t49.5 -35l37 -37q-50 -54 -110.5 -97.5t-128.5 -73.5t-143 -46.5t-154 -16.5q-152 0 -285 57.5t-232.5 157t-157 232.5t-57.5 285q0 101 26 194.5t74 175 t114.5 148t148 114.5t175 74t194.5 26q79 0 154 -16.5t143 -46.5t128.5 -73.5t110.5 -97.5l-37 -37q-23 -23 -50 -35.5t-62 -12.5q-45 0 -83 26q-66 45 -142.5 70t-161.5 25q-111 0 -208 -42t-169.5 -114.5t-114.5 -169.5t-42 -208zM728 1668q0 28 10.5 52.5t28.5 42.5 t42.5 28.5t52.5 10.5t52.5 -10.5t42.5 -28.5t28.5 -42.5t10.5 -52.5t-10.5 -52.5t-28.5 -42.5t-42.5 -28.5t-52.5 -10.5t-52.5 10.5t-42.5 28.5t-28.5 42.5t-10.5 52.5z"/>
<glyph glyph-name="cdotaccent" horiz-adv-x="1027" unicode="" d="M614 872q-72 0 -135 -27.5t-110 -74.5t-74.5 -110t-27.5 -135t27.5 -135t74.5 -110t110 -74.5t135 -27.5q45 0 88.5 11t81.5 33q37 21 80 21q32 0 58 -12t49 -35l38 -38q-75 -80 -176 -126.5t-219 -46.5q-111 0 -209.5 42.5t-172 116t-116 172t-42.5 209.5t42.5 209.5 t116 172t172 116t209.5 42.5q118 0 219 -46.5t176 -126.5l-38 -38q-24 -24 -51 -35.5t-62 -11.5q-40 0 -74 21q-38 22 -81.5 32t-88.5 12zM485 1287q0 28 10.5 52.5t28.5 42.5t42.5 28.5t52.5 10.5t52.5 -10.5t42.5 -28.5t28.5 -42.5t10.5 -52.5t-10.5 -52.5t-28.5 -42.5 t-42.5 -28.5t-52.5 -10.5t-52.5 10.5t-42.5 28.5t-28.5 42.5t-10.5 52.5z"/>
<glyph glyph-name="Ccaron" horiz-adv-x="1442" unicode="" d="M288 717q0 -111 42 -208t114.5 -169.5t169.5 -114.5t208 -42q86 0 162 25t142 70q37 25 83 25q36 0 62.5 -12t49.5 -35l37 -37q-50 -54 -110.5 -97.5t-128.5 -73.5t-143 -46.5t-154 -16.5q-152 0 -285 57.5t-232.5 157t-157 232.5t-57.5 285q0 101 26 194.5t74 175 t114.5 148t148 114.5t175 74t194.5 26q79 0 154 -16.5t143 -46.5t128.5 -73.5t110.5 -97.5l-37 -37q-23 -23 -50 -35.5t-62 -12.5q-45 0 -83 26q-66 45 -142.5 70t-161.5 25q-111 0 -208 -42t-169.5 -114.5t-114.5 -169.5t-42 -208zM835 1675q4 -7 6 -14.5t3 -9.5 q0 2 2.5 10t7.5 14l92 113q32 44 115 44h74q-76 -117 -116.5 -178t-45.5 -66q-32 -44 -115 -44h-27q-83 0 -115 44q-5 5 -45.5 66t-116.5 178h74q83 0 115 -44z"/>
<glyph glyph-name="ccaron" horiz-adv-x="1027" unicode="" d="M614 872q-72 0 -135 -27.5t-110 -74.5t-74.5 -110t-27.5 -135t27.5 -135t74.5 -110t110 -74.5t135 -27.5q45 0 88.5 11t81.5 33q37 21 80 21q32 0 58 -12t49 -35l38 -38q-75 -80 -176 -126.5t-219 -46.5q-111 0 -209.5 42.5t-172 116t-116 172t-42.5 209.5t42.5 209.5 t116 172t172 116t209.5 42.5q118 0 219 -46.5t176 -126.5l-38 -38q-24 -24 -51 -35.5t-62 -11.5q-40 0 -74 21q-38 22 -81.5 32t-88.5 12zM612 1292q4 -7 6 -14.5t3 -9.5q0 2 2.5 10t7.5 14l92 113q32 44 115 44h74q-76 -117 -116.5 -178t-45.5 -66q-32 -44 -115 -44h-27 q-83 0 -115 44q-5 5 -45.5 66t-116.5 178h74q83 0 115 -44z"/>
<glyph glyph-name="Dcaron" horiz-adv-x="1519" unicode="" d="M712 198q107 0 201.5 40.5t165 111t111.5 165t41 201.5t-41 201.5t-111.5 165t-165 111.5t-201.5 41h-340v-1037h340zM174 0v1433h538q99 0 190.5 -25.5t171 -72.5t145 -112.5t112.5 -145t72.5 -171t25.5 -190.5t-25.5 -190.5t-72.5 -171t-112.5 -145t-145 -112t-171 -72 t-190.5 -25.5h-538zM646 1675q4 -7 6 -14.5t3 -9.5q0 2 2.5 10t7.5 14l92 113q32 44 115 44h74q-76 -117 -116.5 -178t-45.5 -66q-32 -44 -115 -44h-27q-83 0 -115 44q-5 5 -45.5 66t-116.5 178h74q83 0 115 -44z"/>
<glyph glyph-name="dcaron" horiz-adv-x="1218" unicode="" d="M592 871q-72 0 -132 -27.5t-103.5 -74.5t-67.5 -110t-24 -135t24 -135t67.5 -110t103.5 -74.5t132 -27.5q77 0 149.5 30.5t124.5 83.5v466q-52 53 -124.5 83.5t-149.5 30.5zM896 0q-9 11 -15 24q-5 11 -10 26.5t-5 33.5v7q-31 -31 -64.5 -51.5t-68.5 -33t-71 -17.5 t-70 -5q-111 0 -206.5 42.5t-165 116t-109 172t-39.5 209.5t39.5 209.5t109 172t165 116t206.5 42.5q34 0 70 -5t71 -17t68.5 -32.5t64.5 -51.5v475h198v-1433h-168zM1098 1432h78q32 0 51 -17.5t19 -49.5q0 -5 -0.5 -9.5t-1.5 -9.5l-20 -129q-5 -30 -27.5 -49.5 t-53.5 -19.5h-45v284z"/>
<glyph glyph-name="Dcroat" horiz-adv-x="1519" unicode="" d="M712 198q107 0 201.5 40.5t165 111t111.5 165t41 201.5t-41 201.5t-111.5 165t-165 111.5t-201.5 41h-340v-1037h340zM174 0v1433h538q99 0 190.5 -25.5t171 -72.5t145 -112.5t112.5 -145t72.5 -171t25.5 -190.5t-25.5 -190.5t-72.5 -171t-112.5 -145t-145 -112t-171 -72 t-190.5 -25.5h-538zM100 788h554v-148h-554v148z"/>
<glyph glyph-name="dcroat" horiz-adv-x="1218" unicode="" d="M592 871q-72 0 -132 -27.5t-103.5 -74.5t-67.5 -110t-24 -135t24 -135t67.5 -110t103.5 -74.5t132 -27.5q77 0 149.5 30.5t124.5 83.5v466q-52 53 -124.5 83.5t-149.5 30.5zM896 0q-9 11 -15 24q-5 11 -10 26.5t-5 33.5v7q-31 -31 -64.5 -51.5t-68.5 -33t-71 -17.5 t-70 -5q-111 0 -206.5 42.5t-165 116t-109 172t-39.5 209.5t39.5 209.5t109 172t165 116t206.5 42.5q34 0 70 -5t71 -17t68.5 -32.5t64.5 -51.5v475h198v-1433h-168zM1168 1157h-506v188h506v-188z"/>
<glyph glyph-name="Emacron" horiz-adv-x="1165" unicode="" d="M1060 0h-886v1433h886v-198h-688v-413h557v-198h-557v-426h688v-198zM305 1708h554v-148h-554v148z"/>
<glyph glyph-name="emacron" horiz-adv-x="1211" unicode="" d="M345 657h588q-20 47 -52 86.5t-73.5 68t-91.5 44.5t-104 16q-59 0 -112.5 -18.5t-97 -51.5t-75 -78.5t-47.5 -99.5q8 11 24 22t41 11zM1138 614q0 -35 -13.5 -62.5t-33.5 -47t-44.5 -30t-46.5 -10.5h-730q9 -61 40 -113t77 -90.5t104 -60.5t121 -22q46 0 88.5 11.5 t80.5 32.5q20 11 39 16t42 5q32 0 58 -12t49 -35l38 -38q-75 -80 -176 -126.5t-219 -46.5q-111 0 -209.5 42.5t-172 116t-116 172t-42.5 209.5t42.5 209.5t116 172t172 116t209.5 42.5q93 0 178 -31t154 -85t118.5 -128t71.5 -161q3 -11 3 -23t1 -23zM328 1348h554v-148 h-554v148z"/>
<glyph glyph-name="Ebreve" horiz-adv-x="1165" unicode="" d="M1060 0h-886v1433h886v-198h-688v-413h557v-198h-557v-426h688v-198zM886 1781q0 -57 -22 -104.5t-59.5 -81.5t-88 -52.5t-107.5 -18.5t-107.5 18.5t-88 52.5t-59.5 81.5t-22 104.5h52q29 0 53.5 -16.5t33.5 -44.5q19 -37 55.5 -53.5t82.5 -16.5q45 0 82 16.5t55 53.5 q11 29 35 45t53 16h52z"/>
<glyph glyph-name="ebreve" horiz-adv-x="1211" unicode="" d="M345 657h588q-20 47 -52 86.5t-73.5 68t-91.5 44.5t-104 16q-59 0 -112.5 -18.5t-97 -51.5t-75 -78.5t-47.5 -99.5q8 11 24 22t41 11zM1138 614q0 -35 -13.5 -62.5t-33.5 -47t-44.5 -30t-46.5 -10.5h-730q9 -61 40 -113t77 -90.5t104 -60.5t121 -22q46 0 88.5 11.5 t80.5 32.5q20 11 39 16t42 5q32 0 58 -12t49 -35l38 -38q-75 -80 -176 -126.5t-219 -46.5q-111 0 -209.5 42.5t-172 116t-116 172t-42.5 209.5t42.5 209.5t116 172t172 116t209.5 42.5q93 0 178 -31t154 -85t118.5 -128t71.5 -161q3 -11 3 -23t1 -23zM893 1421 q0 -57 -22 -106t-59.5 -85t-88 -56t-107.5 -20t-107.5 20t-88 56t-59.5 85t-22 106h52q29 0 53.5 -16.5t33.5 -44.5q19 -37 55.5 -58.5t82.5 -21.5q45 0 82 21.5t55 58.5q11 29 35 45t53 16h52z"/>
<glyph glyph-name="Edotaccent" horiz-adv-x="1165" unicode="" d="M1060 0h-886v1433h886v-198h-688v-413h557v-198h-557v-426h688v-198zM503 1668q0 28 10.5 52.5t28.5 42.5t42.5 28.5t52.5 10.5t52.5 -10.5t42.5 -28.5t28.5 -42.5t10.5 -52.5t-10.5 -52.5t-28.5 -42.5t-42.5 -28.5t-52.5 -10.5t-52.5 10.5t-42.5 28.5t-28.5 42.5 t-10.5 52.5z"/>
<glyph glyph-name="edotaccent" horiz-adv-x="1211" unicode="" d="M345 657h588q-20 47 -52 86.5t-73.5 68t-91.5 44.5t-104 16q-59 0 -112.5 -18.5t-97 -51.5t-75 -78.5t-47.5 -99.5q8 11 24 22t41 11zM1138 614q0 -35 -13.5 -62.5t-33.5 -47t-44.5 -30t-46.5 -10.5h-730q9 -61 40 -113t77 -90.5t104 -60.5t121 -22q46 0 88.5 11.5 t80.5 32.5q20 11 39 16t42 5q32 0 58 -12t49 -35l38 -38q-75 -80 -176 -126.5t-219 -46.5q-111 0 -209.5 42.5t-172 116t-116 172t-42.5 209.5t42.5 209.5t116 172t172 116t209.5 42.5q93 0 178 -31t154 -85t118.5 -128t71.5 -161q3 -11 3 -23t1 -23zM482 1287 q0 28 10.5 52.5t28.5 42.5t42.5 28.5t52.5 10.5t52.5 -10.5t42.5 -28.5t28.5 -42.5t10.5 -52.5t-10.5 -52.5t-28.5 -42.5t-42.5 -28.5t-52.5 -10.5t-52.5 10.5t-42.5 28.5t-28.5 42.5t-10.5 52.5z"/>
<glyph glyph-name="Eogonek" horiz-adv-x="1165" unicode="" d="M1060 0h-886v1433h886v-198h-688v-413h557v-198h-557v-426h688v-198zM906 1q-21 -12 -42 -27.5t-37.5 -33.5t-27 -38.5t-10.5 -42.5q0 -42 29.5 -64.5t79.5 -22.5q18 0 37.5 2.5t39.5 2.5q21 -1 40.5 -7.5t30.5 -27.5l14 -29q-35 -25 -90 -40.5t-115 -15.5 q-105 0 -164.5 42.5t-59.5 112.5q0 28 12.5 55.5t34.5 52.5t51 48t62 43z"/>
<glyph glyph-name="eogonek" horiz-adv-x="1211" unicode="" d="M345 657h588q-20 47 -52 86.5t-73.5 68t-91.5 44.5t-104 16q-59 0 -112.5 -18.5t-97 -51.5t-75 -78.5t-47.5 -99.5q8 11 24 22t41 11zM1138 614q0 -35 -13.5 -62.5t-33.5 -47t-44.5 -30t-46.5 -10.5h-730q9 -61 40 -113t77 -90.5t104 -60.5t121 -22q46 0 88.5 11.5 t80.5 32.5q20 11 39 16t42 5q32 0 58 -12t49 -35l38 -38q-75 -80 -176 -126.5t-219 -46.5q-111 0 -209.5 42.5t-172 116t-116 172t-42.5 209.5t42.5 209.5t116 172t172 116t209.5 42.5q93 0 178 -31t154 -85t118.5 -128t71.5 -161q3 -11 3 -23t1 -23zM700 1 q-21 -12 -42 -27.5t-37.5 -33.5t-27 -38.5t-10.5 -42.5q0 -42 29.5 -64.5t79.5 -22.5q18 0 37.5 2.5t39.5 2.5q21 -1 40.5 -7.5t30.5 -27.5l14 -29q-35 -25 -90 -40.5t-115 -15.5q-105 0 -164.5 42.5t-59.5 112.5q0 28 12.5 55.5t34.5 52.5t51 48t62 43z"/>
<glyph glyph-name="Ecaron" horiz-adv-x="1165" unicode="" d="M1060 0h-886v1433h886v-198h-688v-413h557v-198h-557v-426h688v-198zM616 1675q4 -7 6 -14.5t3 -9.5q0 2 2.5 10t7.5 14l92 113q32 44 115 44h74q-76 -117 -116.5 -178t-45.5 -66q-32 -44 -115 -44h-27q-83 0 -115 44q-5 5 -45.5 66t-116.5 178h74q83 0 115 -44z"/>
<glyph glyph-name="ecaron" horiz-adv-x="1211" unicode="" d="M345 657h588q-20 47 -52 86.5t-73.5 68t-91.5 44.5t-104 16q-59 0 -112.5 -18.5t-97 -51.5t-75 -78.5t-47.5 -99.5q8 11 24 22t41 11zM1138 614q0 -35 -13.5 -62.5t-33.5 -47t-44.5 -30t-46.5 -10.5h-730q9 -61 40 -113t77 -90.5t104 -60.5t121 -22q46 0 88.5 11.5 t80.5 32.5q20 11 39 16t42 5q32 0 58 -12t49 -35l38 -38q-75 -80 -176 -126.5t-219 -46.5q-111 0 -209.5 42.5t-172 116t-116 172t-42.5 209.5t42.5 209.5t116 172t172 116t209.5 42.5q93 0 178 -31t154 -85t118.5 -128t71.5 -161q3 -11 3 -23t1 -23zM596 1292q4 -7 6 -14.5 t3 -9.5q0 2 2.5 10t7.5 14l92 113q32 44 115 44h74q-76 -117 -116.5 -178t-45.5 -66q-32 -44 -115 -44h-27q-83 0 -115 44q-5 5 -45.5 66t-116.5 178h74q83 0 115 -44z"/>
<glyph glyph-name="Gcircumflex" horiz-adv-x="1492" unicode="" d="M1354 730v-578q-50 -50 -110.5 -82.5t-128.5 -51.5t-141.5 -26t-149.5 -7q-152 0 -285 57.5t-232.5 157t-157 232.5t-57.5 285q0 101 26 194.5t74 175t114.5 148t148 114.5t175 74t194.5 26q79 0 154 -16.5t143 -46.5t128.5 -73.5t110.5 -97.5l-37 -37q-24 -24 -50.5 -36 t-61.5 -12q-45 0 -83 26q-66 45 -142.5 70t-161.5 25q-111 0 -208 -42t-169.5 -114.5t-114.5 -169.5t-42 -208t43.5 -208t118 -169.5t173 -114.5t209.5 -42q92 0 174 21.5t150 64.5v263h-80q-35 0 -63.5 12.5t-48.5 33.5t-31 49t-11 59v44h430zM725 1583q-42 -44 -115 -44 h-74l162 204q32 44 115 44h27q83 0 115 -44l162 -204h-74h-6q-34 0 -60 11q-28 12 -49 33l-92 93q-5 5 -7.5 13t-2.5 10q-1 -3 -3 -10.5t-6 -12.5z"/>
<glyph glyph-name="gcircumflex" horiz-adv-x="1044" unicode="" d="M294 673q0 -42 16 -78.5t43.5 -64t64 -43.5t78.5 -16t78.5 16t64 43.5t43.5 64t16 78.5t-16 78.5t-43.5 64t-64 43.5t-78.5 16t-78.5 -16t-64 -43.5t-43.5 -64t-16 -78.5zM1001 918q-16 -41 -48.5 -63.5t-98.5 -22.5q16 -37 25 -77t9 -82q0 -81 -31 -152.5t-84 -124.5 t-124.5 -84t-152.5 -31q-92 0 -174 40q-38 -25 -47 -40.5t-9 -24.5q0 -7 3 -13l4 -4q8 -9 31 -15.5t53.5 -10.5t66.5 -5.5t69 -1.5q67 0 136 -6t127 -26q84 -29 128 -88.5t44 -144.5q0 -64 -25 -116t-73 -89.5t-117 -58t-157 -20.5q-71 0 -138.5 11t-130.5 28t-122 38.5 t-111 41.5l24 67q12 35 48.5 55.5t79.5 20.5q26 0 51 -6t46 -15q10 -4 33 -12.5t56.5 -17.5t75.5 -15.5t89 -6.5q22 0 53.5 5t59.5 16t48 29.5t20 44.5q0 20 -7 31.5t-36 21.5q-41 14 -93.5 18t-109 6t-114 5.5t-109 15.5t-93.5 36t-68 68q-18 30 -18 70q0 42 34.5 89 t105.5 83q-59 54 -92.5 128t-33.5 160q0 81 31 152.5t84 124.5t124.5 84t152.5 31q65 0 123.5 -20t107.5 -56q20 12 52.5 23t82.5 11q32 0 72.5 -6.5t89.5 -21.5zM398 1205q-32 -44 -115 -44h-74q76 117 116.5 178t45.5 66q32 44 115 44h27q83 0 115 -44q5 -5 45.5 -66 t116.5 -178h-74q-83 0 -115 44l-92 113q-5 5 -7.5 13t-2.5 10q-1 -3 -3 -10.5t-6 -12.5z"/>
<glyph glyph-name="Gbreve" horiz-adv-x="1492" unicode="" d="M1354 730v-578q-50 -50 -110.5 -82.5t-128.5 -51.5t-141.5 -26t-149.5 -7q-152 0 -285 57.5t-232.5 157t-157 232.5t-57.5 285q0 101 26 194.5t74 175t114.5 148t148 114.5t175 74t194.5 26q79 0 154 -16.5t143 -46.5t128.5 -73.5t110.5 -97.5l-37 -37q-24 -24 -50.5 -36 t-61.5 -12q-45 0 -83 26q-66 45 -142.5 70t-161.5 25q-111 0 -208 -42t-169.5 -114.5t-114.5 -169.5t-42 -208t43.5 -208t118 -169.5t173 -114.5t209.5 -42q92 0 174 21.5t150 64.5v263h-80q-35 0 -63.5 12.5t-48.5 33.5t-31 49t-11 59v44h430zM1104 1781q0 -57 -22 -104.5 t-59.5 -81.5t-88 -52.5t-107.5 -18.5t-107.5 18.5t-88 52.5t-59.5 81.5t-22 104.5h52q29 0 53.5 -16.5t33.5 -44.5q19 -37 55.5 -53.5t82.5 -16.5q45 0 82 16.5t55 53.5q11 29 35 45t53 16h52z"/>
<glyph glyph-name="gbreve" horiz-adv-x="1044" unicode="" d="M294 673q0 -42 16 -78.5t43.5 -64t64 -43.5t78.5 -16t78.5 16t64 43.5t43.5 64t16 78.5t-16 78.5t-43.5 64t-64 43.5t-78.5 16t-78.5 -16t-64 -43.5t-43.5 -64t-16 -78.5zM1001 918q-16 -41 -48.5 -63.5t-98.5 -22.5q16 -37 25 -77t9 -82q0 -81 -31 -152.5t-84 -124.5 t-124.5 -84t-152.5 -31q-92 0 -174 40q-38 -25 -47 -40.5t-9 -24.5q0 -7 3 -13l4 -4q8 -9 31 -15.5t53.5 -10.5t66.5 -5.5t69 -1.5q67 0 136 -6t127 -26q84 -29 128 -88.5t44 -144.5q0 -64 -25 -116t-73 -89.5t-117 -58t-157 -20.5q-71 0 -138.5 11t-130.5 28t-122 38.5 t-111 41.5l24 67q12 35 48.5 55.5t79.5 20.5q26 0 51 -6t46 -15q10 -4 33 -12.5t56.5 -17.5t75.5 -15.5t89 -6.5q22 0 53.5 5t59.5 16t48 29.5t20 44.5q0 20 -7 31.5t-36 21.5q-41 14 -93.5 18t-109 6t-114 5.5t-109 15.5t-93.5 36t-68 68q-18 30 -18 70q0 42 34.5 89 t105.5 83q-59 54 -92.5 128t-33.5 160q0 81 31 152.5t84 124.5t124.5 84t152.5 31q65 0 123.5 -20t107.5 -56q20 12 52.5 23t82.5 11q32 0 72.5 -6.5t89.5 -21.5zM775 1421q0 -57 -22 -106t-59.5 -85t-88 -56t-107.5 -20t-107.5 20t-88 56t-59.5 85t-22 106h52 q29 0 53.5 -16.5t33.5 -44.5q19 -37 55.5 -58.5t82.5 -21.5q45 0 82 21.5t55 58.5q11 29 35 45t53 16h52z"/>
<glyph glyph-name="Gdotaccent" horiz-adv-x="1492" unicode="" d="M1354 730v-578q-50 -50 -110.5 -82.5t-128.5 -51.5t-141.5 -26t-149.5 -7q-152 0 -285 57.5t-232.5 157t-157 232.5t-57.5 285q0 101 26 194.5t74 175t114.5 148t148 114.5t175 74t194.5 26q79 0 154 -16.5t143 -46.5t128.5 -73.5t110.5 -97.5l-37 -37q-24 -24 -50.5 -36 t-61.5 -12q-45 0 -83 26q-66 45 -142.5 70t-161.5 25q-111 0 -208 -42t-169.5 -114.5t-114.5 -169.5t-42 -208t43.5 -208t118 -169.5t173 -114.5t209.5 -42q92 0 174 21.5t150 64.5v263h-80q-35 0 -63.5 12.5t-48.5 33.5t-31 49t-11 59v44h430zM699 1668q0 28 10.5 52.5 t28.5 42.5t42.5 28.5t52.5 10.5t52.5 -10.5t42.5 -28.5t28.5 -42.5t10.5 -52.5t-10.5 -52.5t-28.5 -42.5t-42.5 -28.5t-52.5 -10.5t-52.5 10.5t-42.5 28.5t-28.5 42.5t-10.5 52.5z"/>
<glyph glyph-name="gdotaccent" horiz-adv-x="1044" unicode="" d="M294 673q0 -42 16 -78.5t43.5 -64t64 -43.5t78.5 -16t78.5 16t64 43.5t43.5 64t16 78.5t-16 78.5t-43.5 64t-64 43.5t-78.5 16t-78.5 -16t-64 -43.5t-43.5 -64t-16 -78.5zM1001 918q-16 -41 -48.5 -63.5t-98.5 -22.5q16 -37 25 -77t9 -82q0 -81 -31 -152.5t-84 -124.5 t-124.5 -84t-152.5 -31q-92 0 -174 40q-38 -25 -47 -40.5t-9 -24.5q0 -7 3 -13l4 -4q8 -9 31 -15.5t53.5 -10.5t66.5 -5.5t69 -1.5q67 0 136 -6t127 -26q84 -29 128 -88.5t44 -144.5q0 -64 -25 -116t-73 -89.5t-117 -58t-157 -20.5q-71 0 -138.5 11t-130.5 28t-122 38.5 t-111 41.5l24 67q12 35 48.5 55.5t79.5 20.5q26 0 51 -6t46 -15q10 -4 33 -12.5t56.5 -17.5t75.5 -15.5t89 -6.5q22 0 53.5 5t59.5 16t48 29.5t20 44.5q0 20 -7 31.5t-36 21.5q-41 14 -93.5 18t-109 6t-114 5.5t-109 15.5t-93.5 36t-68 68q-18 30 -18 70q0 42 34.5 89 t105.5 83q-59 54 -92.5 128t-33.5 160q0 81 31 152.5t84 124.5t124.5 84t152.5 31q65 0 123.5 -20t107.5 -56q20 12 52.5 23t82.5 11q32 0 72.5 -6.5t89.5 -21.5zM388 1287q0 28 10.5 52.5t28.5 42.5t42.5 28.5t52.5 10.5t52.5 -10.5t42.5 -28.5t28.5 -42.5t10.5 -52.5 t-10.5 -52.5t-28.5 -42.5t-42.5 -28.5t-52.5 -10.5t-52.5 10.5t-42.5 28.5t-28.5 42.5t-10.5 52.5z"/>
<glyph glyph-name="Gcommaaccent" horiz-adv-x="1492" unicode="" d="M1354 730v-578q-50 -50 -110.5 -82.5t-128.5 -51.5t-141.5 -26t-149.5 -7q-152 0 -285 57.5t-232.5 157t-157 232.5t-57.5 285q0 101 26 194.5t74 175t114.5 148t148 114.5t175 74t194.5 26q79 0 154 -16.5t143 -46.5t128.5 -73.5t110.5 -97.5l-37 -37q-24 -24 -50.5 -36 t-61.5 -12q-45 0 -83 26q-66 45 -142.5 70t-161.5 25q-111 0 -208 -42t-169.5 -114.5t-114.5 -169.5t-42 -208t43.5 -208t118 -169.5t173 -114.5t209.5 -42q92 0 174 21.5t150 64.5v263h-80q-35 0 -63.5 12.5t-48.5 33.5t-31 49t-11 59v44h430zM770 -78h78q32 0 51 -17.5 t19 -49.5q0 -5 -0.5 -9.5t-1.5 -9.5l-20 -129q-5 -30 -27.5 -49.5t-53.5 -19.5h-45v284z"/>
<glyph glyph-name="gcommaaccent" horiz-adv-x="1044" unicode="" d="M294 673q0 -42 16 -78.5t43.5 -64t64 -43.5t78.5 -16t78.5 16t64 43.5t43.5 64t16 78.5t-16 78.5t-43.5 64t-64 43.5t-78.5 16t-78.5 -16t-64 -43.5t-43.5 -64t-16 -78.5zM1001 918q-16 -41 -48.5 -63.5t-98.5 -22.5q16 -37 25 -77t9 -82q0 -81 -31 -152.5t-84 -124.5 t-124.5 -84t-152.5 -31q-92 0 -174 40q-38 -25 -47 -40.5t-9 -24.5q0 -7 3 -13l4 -4q8 -9 31 -15.5t53.5 -10.5t66.5 -5.5t69 -1.5q67 0 136 -6t127 -26q84 -29 128 -88.5t44 -144.5q0 -64 -25 -116t-73 -89.5t-117 -58t-157 -20.5q-71 0 -138.5 11t-130.5 28t-122 38.5 t-111 41.5l24 67q12 35 48.5 55.5t79.5 20.5q26 0 51 -6t46 -15q10 -4 33 -12.5t56.5 -17.5t75.5 -15.5t89 -6.5q22 0 53.5 5t59.5 16t48 29.5t20 44.5q0 20 -7 31.5t-36 21.5q-41 14 -93.5 18t-109 6t-114 5.5t-109 15.5t-93.5 36t-68 68q-18 30 -18 70q0 42 34.5 89 t105.5 83q-59 54 -92.5 128t-33.5 160q0 81 31 152.5t84 124.5t124.5 84t152.5 31q65 0 123.5 -20t107.5 -56q20 12 52.5 23t82.5 11q32 0 72.5 -6.5t89.5 -21.5z"/>
<glyph glyph-name="Hcircumflex" horiz-adv-x="1559" unicode="" d="M1344 0h-198v622h-772v-622h-198v1433h198v-613h772v613h198v-1433zM659 1583q-42 -44 -115 -44h-74l162 204q32 44 115 44h27q83 0 115 -44l162 -204h-74h-6q-34 0 -60 11q-28 12 -49 33l-92 93q-5 5 -7.5 13t-2.5 10q-1 -3 -3 -10.5t-6 -12.5z"/>
<glyph glyph-name="hcircumflex" horiz-adv-x="1164" unicode="" d="M490 1547q-32 -44 -115 -44h-74q76 117 116.5 178t45.5 66q32 44 115 44h27q83 0 115 -44q5 -5 45.5 -66t116.5 -178h-74q-83 0 -115 44l-92 113q-5 5 -7.5 13t-2.5 10q-1 -3 -3 -10.5t-6 -12.5zM314 1433q8 -11 15 -24q5 -11 10 -26.5t5 -33.5v-426q18 35 50 61.5 t72 44.5t86.5 27t94.5 9q88 0 161 -33t124.5 -94t80 -147.5t28.5 -193.5v-597h-198v597q0 131 -48 205.5t-148 74.5q-60 0 -113.5 -14.5t-95 -39.5t-66.5 -58t-28 -69v-696h-198v1433h168z"/>
<glyph glyph-name="Hbar" horiz-adv-x="1669" unicode="" d="M1217 820v197h-772v-197h772zM1415 0h-198v622h-772v-622h-198v1433h198v-269h772v269h198v-1433z"/>
<glyph glyph-name="hbar" horiz-adv-x="1164" unicode="" d="M38 1289h554v-148h-554v148zM314 1433q8 -11 15 -24q5 -11 10 -26.5t5 -33.5v-426q18 35 50 61.5t72 44.5t86.5 27t94.5 9q88 0 161 -33t124.5 -94t80 -147.5t28.5 -193.5v-597h-198v597q0 131 -48 205.5t-148 74.5q-60 0 -113.5 -14.5t-95 -39.5t-66.5 -58t-28 -69v-696 h-198v1433h168z"/>
<glyph glyph-name="Itilde" horiz-adv-x="617" unicode="" d="M408 0h-198v1433h198v-1433zM428 1544q-38 0 -73 14t-66.5 31t-57 31t-43.5 14q-16 0 -25.5 -9.5t-15 -23.5t-6.5 -24t-2 -10q-44 -19 -73 -21.5t-57 -0.5v10q0 42 12 79.5t35 66.5t56 46t76 17q34 0 67 -14t63.5 -31t58.5 -31t51 -14q18 0 29 7t17 18t7.5 21t2.5 10 q30 23 62 26q12 1 25 1q21 0 42 -3q-4 -48 -13 -87t-29.5 -66t-54.5 -42t-88 -15z"/>
<glyph glyph-name="itilde" horiz-adv-x="532" unicode="" d="M364 1032v-1032h-198v1032h198zM385 1201q-38 0 -73 14t-66.5 31t-57 31t-43.5 14q-16 0 -25.5 -9.5t-15 -23.5t-6.5 -24t-2 -10q-44 -19 -73 -21.5t-57 -0.5v10q0 42 12 79.5t35 66.5t56 46t76 17q34 0 67 -14t63.5 -31t58.5 -31t51 -14q18 0 29 7t17 18t7.5 21t2.5 10 q30 23 62 26q12 1 25 1q21 0 42 -3q-4 -48 -13 -87t-29.5 -66t-54.5 -42t-88 -15z"/>
<glyph glyph-name="Imacron" horiz-adv-x="617" unicode="" d="M408 0h-198v1433h198v-1433zM31 1731h554v-148h-554v148z"/>
<glyph glyph-name="imacron" horiz-adv-x="532" unicode="" d="M364 1032v-1032h-198v1032h198zM-13 1348h554v-148h-554v148z"/>
<glyph glyph-name="Ibreve" horiz-adv-x="617" unicode="" d="M408 0h-198v1433h198v-1433zM585 1781q0 -57 -22 -104.5t-59.5 -81.5t-88 -52.5t-107.5 -18.5t-107.5 18.5t-88 52.5t-59.5 81.5t-22 104.5h52q29 0 53.5 -16.5t33.5 -44.5q19 -37 55.5 -53.5t82.5 -16.5q45 0 82 16.5t55 53.5q11 29 35 45t53 16h52z"/>
<glyph glyph-name="ibreve" horiz-adv-x="532" unicode="" d="M364 1032v-1032h-198v1032h198zM543 1421q0 -57 -22 -106t-59.5 -85t-88 -56t-107.5 -20t-107.5 20t-88 56t-59.5 85t-22 106h52q29 0 53.5 -16.5t33.5 -44.5q19 -37 55.5 -58.5t82.5 -21.5q45 0 82 21.5t55 58.5q11 29 35 45t53 16h52z"/>
<glyph glyph-name="Iogonek" horiz-adv-x="617" unicode="" d="M408 0h-198v1433h198v-1433zM378 1q-21 -12 -42 -27.5t-37.5 -33.5t-27 -38.5t-10.5 -42.5q0 -42 29.5 -64.5t79.5 -22.5q18 0 37.5 2.5t39.5 2.5q21 -1 40.5 -7.5t30.5 -27.5l14 -29q-35 -25 -90 -40.5t-115 -15.5q-105 0 -164.5 42.5t-59.5 112.5q0 28 12.5 55.5 t34.5 52.5t51 48t62 43z"/>
<glyph glyph-name="iogonek" horiz-adv-x="532" unicode="" d="M131 1314q0 28 10.5 52.5t29 43t43 29t52.5 10.5t52.5 -10.5t43 -29t29 -43t10.5 -52.5t-10.5 -52.5t-29 -43t-43 -29t-52.5 -10.5t-52.5 10.5t-43 29t-29 43t-10.5 52.5zM364 1050v-1050h-198v1050h198zM327 1q-21 -12 -42 -27.5t-37.5 -33.5t-27 -38.5t-10.5 -42.5 q0 -42 29.5 -64.5t79.5 -22.5q18 0 37.5 2.5t39.5 2.5q21 -1 40.5 -7.5t30.5 -27.5l14 -29q-35 -25 -90 -40.5t-115 -15.5q-105 0 -164.5 42.5t-59.5 112.5q0 28 12.5 55.5t34.5 52.5t51 48t62 43z"/>
<glyph glyph-name="Idotaccent" horiz-adv-x="617" unicode="" d="M408 0h-198v1433h198v-1433zM174 1668q0 28 10.5 52.5t28.5 42.5t42.5 28.5t52.5 10.5t52.5 -10.5t42.5 -28.5t28.5 -42.5t10.5 -52.5t-10.5 -52.5t-28.5 -42.5t-42.5 -28.5t-52.5 -10.5t-52.5 10.5t-42.5 28.5t-28.5 42.5t-10.5 52.5z"/>
<glyph glyph-name="dotlessi" horiz-adv-x="532" unicode="" d="M364 1032v-1032h-198v1032h198z"/>
<glyph glyph-name="IJ" horiz-adv-x="1444" unicode="" d="M408 0h-198v1433h198v-1433zM1066 1433h198v-1223q0 -95 -36 -179t-98.5 -146t-146.5 -98t-179 -36q-94 0 -176 34.5t-145 95.5l56 56q45 45 109 45q20 -1 38.5 -6.5t37 -11.5t38 -10.5t42.5 -4.5q54 0 101.5 20.5t83.5 56t56.5 83t20.5 101.5v1223z"/>
<glyph glyph-name="ij" horiz-adv-x="1062" unicode="" d="M131 1314q0 28 10.5 52.5t29 43t43 29t52.5 10.5t52.5 -10.5t43 -29t29 -43t10.5 -52.5t-10.5 -52.5t-29 -43t-43 -29t-52.5 -10.5t-52.5 10.5t-43 29t-29 43t-10.5 52.5zM364 1050v-1050h-198v1050h198zM663 1314q0 28 10.5 52.5t29 43t43 29t52.5 10.5t52.5 -10.5 t43 -29t29 -43t10.5 -52.5t-10.5 -52.5t-29 -43t-43 -29t-52.5 -10.5t-52.5 10.5t-43 29t-29 43t-10.5 52.5zM896 37q-1 -73 -23 -138.5t-59.5 -120t-88.5 -96t-110 -65.5l-31 71q-5 12 -8 31.5t-3 30.5q0 30 12 53t28.5 44t34 43t29.5 49q21 48 21 99v1012h198v-1013z"/>
<glyph glyph-name="Jcircumflex" horiz-adv-x="827" unicode="" d="M449 1433h198v-1223q0 -95 -36 -179t-98.5 -146t-146.5 -98t-179 -36q-94 0 -176 34.5t-145 95.5l56 56q45 45 109 45q20 -1 38.5 -6.5t37 -11.5t38 -10.5t42.5 -4.5q54 0 101.5 20.5t83.5 56t56.5 83t20.5 101.5v1223zM450 1583q-42 -44 -115 -44h-74l162 204 q32 44 115 44h27q83 0 115 -44l162 -204h-74h-6q-34 0 -60 11q-28 12 -49 33l-92 93q-5 5 -7.5 13t-2.5 10q-1 -3 -3 -10.5t-6 -12.5z"/>
<glyph glyph-name="jcircumflex" horiz-adv-x="530" unicode="" d="M230 1205q-32 -44 -115 -44h-74q76 117 116.5 178t45.5 66q32 44 115 44h27q83 0 115 -44q5 -5 45.5 -66t116.5 -178h-74q-83 0 -115 44l-92 113q-5 5 -7.5 13t-2.5 10q-1 -3 -3 -10.5t-6 -12.5zM430 37q-1 -73 -23 -138.5t-59.5 -120t-88.5 -96t-110 -65.5l-31 71 q-5 12 -8 31.5t-3 30.5q0 30 12 53t28.5 44t34 43t29.5 49q21 48 21 99v1012h198v-1013z"/>
<glyph glyph-name="Kcommaaccent" horiz-adv-x="1320" unicode="" d="M390 0h-198v1433h198v-1433zM556 799l401 544q29 45 73.5 67.5t102.5 22.5h136l-492 -668q-11 -14 -20 -20.5t-11 -7.5q2 -2 11 -8t20 -20l525 -709h-136q-58 0 -102.5 22.5t-73.5 67.5l-434 585q-13 17 -25.5 28.5t-23 18.5t-17.5 10.5t-8 4.5q1 0 8 3t17.5 10t23 19 t25.5 30zM522 -78h78q32 0 51 -17.5t19 -49.5q0 -5 -0.5 -9.5t-1.5 -9.5l-20 -129q-5 -30 -27.5 -49.5t-53.5 -19.5h-45v284z"/>
<glyph glyph-name="kcommaaccent" horiz-adv-x="1087" unicode="" d="M485 604l263 356q29 45 73.5 67.5t102.5 22.5h136l-354 -480q-11 -14 -20 -20.5t-11 -7.5q2 -2 11 -8t20 -20l381 -514h-136q-58 0 -102.5 22.5t-73.5 67.5l-290 390q-13 17 -25.5 28.5t-23 18.5t-17.5 10.5t-8 4.5q1 0 8 3t17.5 10t23 19t25.5 30zM350 0h-198v1433h198 v-1433zM469 -161h78q32 0 51 -17.5t19 -49.5q0 -5 -0.5 -9.5t-1.5 -9.5l-20 -129q-5 -30 -27 -49.5t-54 -19.5h-45v284z"/>
<glyph glyph-name="kgreenlandic" horiz-adv-x="1087" unicode="" d="M485 604l263 356q29 45 73.5 67.5t102.5 22.5h136l-354 -480q-11 -14 -20 -20.5t-11 -7.5q2 -2 11 -8t20 -20l381 -514h-136q-58 0 -102.5 22.5t-73.5 67.5l-290 390q-13 17 -25.5 28.5t-23 18.5t-17.5 10.5t-8 4.5q1 0 8 3t17.5 10t23 19t25.5 30zM350 0h-198v1050h198 v-1050z"/>
<glyph glyph-name="Lacute" horiz-adv-x="1032" unicode="" d="M174 0v1433h198v-1235h619v-198h-817zM378 1588q-32 -44 -115 -44h-74q111 183 122 194q32 44 115 44h114z"/>
<glyph glyph-name="lacute" horiz-adv-x="532" unicode="" d="M364 1433v-1433h-198v1433h198zM365 1565q-33 -44 -115 -44h-74q130 232 142 244q32 44 115 44h114z"/>
<glyph glyph-name="Lcommaaccent" horiz-adv-x="1032" unicode="" d="M174 0v1433h198v-1235h619v-198h-817zM517 -139h78q32 0 51 -17.5t19 -49.5q0 -5 -0.5 -9.5t-1.5 -9.5l-20 -129q-5 -30 -27 -49.5t-54 -19.5h-45v284z"/>
<glyph glyph-name="lcommaaccent" horiz-adv-x="532" unicode="" d="M364 1433v-1433h-198v1433h198zM192 -119h78q32 0 51 -17.5t19 -49.5q0 -5 -0.5 -9.5t-1.5 -9.5l-20 -129q-5 -30 -27 -49.5t-54 -19.5h-45v284z"/>
<glyph glyph-name="Lcaron" horiz-adv-x="1032" unicode="" d="M174 0v1433h198v-1235h619v-198h-817zM490 1454h78q32 0 51 -17.5t19 -49.5q0 -5 -0.5 -9.5t-1.5 -9.5l-20 -129q-5 -30 -27 -49.5t-54 -19.5h-45v284z"/>
<glyph glyph-name="lcaron" horiz-adv-x="604" unicode="" d="M364 1433v-1433h-198v1433h198zM415 1431h78q32 0 51 -17.5t19 -49.5q0 -5 -0.5 -9.5t-1.5 -9.5l-20 -129q-5 -30 -27.5 -49.5t-53.5 -19.5h-45v284z"/>
<glyph glyph-name="Ldot" horiz-adv-x="1032" unicode="" d="M174 0v1433h198v-1235h619v-198h-817zM606 704q0 28 10.5 52.5t29 43t43 29t52.5 10.5t52.5 -10.5t43 -29t29 -43t10.5 -52.5t-10.5 -52.5t-29 -43t-43 -29t-52.5 -10.5t-52.5 10.5t-43 29t-29 43t-10.5 52.5z"/>
<glyph glyph-name="ldot" horiz-adv-x="743" unicode="" d="M364 1433v-1433h-198v1433h198zM393 556q0 28 10.5 52.5t29 43t43 29t52.5 10.5t52.5 -10.5t43 -29t29 -43t10.5 -52.5t-10.5 -52.5t-29 -43t-43 -29t-52.5 -10.5t-52.5 10.5t-43 29t-29 43t-10.5 52.5z"/>
<glyph glyph-name="Lslash" horiz-adv-x="1032" unicode="" d="M174 0v599l-204 -148v63q0 23 10 46.5t34 40.5l160 117v715h198v-571l227 166v-80q0 -26 -9 -39t-31 -29l-187 -136v-546h619v-198h-817z"/>
<glyph glyph-name="lslash" horiz-adv-x="532" unicode="" d="M147 402q-22 -29 -51 -42t-58 -13h-78l206 280v806h198v-537l22 30q20 27 36 38.5t48 11.5h100l-206 -280v-696h-198v428z"/>
<glyph glyph-name="Nacute" horiz-adv-x="1559" unicode="" d="M1384 0h-161l-819 1119q-8 11 -13.5 24.5t-9.5 27.5q-4 15 -7 32v-1203h-198v1433h141q48 0 84 -14t57 -43l695 -957q27 -39 33 -99v1113h198v-1433zM793 1588q-32 -44 -115 -44h-74q111 183 122 194q32 44 115 44h114z"/>
<glyph glyph-name="nacute" horiz-adv-x="1164" unicode="" d="M314 1050l4 -6q4 -6 10 -17.5t11 -27t5 -33.5v-43q18 35 50 61.5t72 44.5t86.5 27t94.5 9q88 0 161 -31.5t124.5 -91.5t80 -147t28.5 -198v-597h-198v597q0 131 -48 205.5t-148 74.5q-60 0 -113.5 -13.5t-95 -36.5t-66.5 -55t-28 -68v-704h-198v1050h168zM687 1205 q-33 -44 -115 -44h-74q130 232 142 244q32 44 115 44h114z"/>
<glyph glyph-name="Ncommaaccent" horiz-adv-x="1559" unicode="" d="M1384 0h-161l-819 1119q-8 11 -13.5 24.5t-9.5 27.5q-4 15 -7 32v-1203h-198v1433h141q48 0 84 -14t57 -43l695 -957q27 -39 33 -99v1113h198v-1433zM677 -78h78q32 0 51 -17.5t19 -49.5q0 -5 -0.5 -9.5t-1.5 -9.5l-20 -129q-5 -30 -27.5 -49.5t-53.5 -19.5h-45v284z"/>
<glyph glyph-name="ncommaaccent" horiz-adv-x="1164" unicode="" d="M314 1050l4 -6q4 -6 10 -17.5t11 -27t5 -33.5v-43q18 35 50 61.5t72 44.5t86.5 27t94.5 9q88 0 161 -31.5t124.5 -91.5t80 -147t28.5 -198v-597h-198v597q0 131 -48 205.5t-148 74.5q-60 0 -113.5 -13.5t-95 -36.5t-66.5 -55t-28 -68v-704h-198v1050h168zM508 -143h78 q32 0 51 -17.5t19 -49.5q0 -5 -0.5 -9.5t-1.5 -9.5l-20 -129q-5 -30 -27 -49.5t-54 -19.5h-45v284z"/>
<glyph glyph-name="Ncaron" horiz-adv-x="1559" unicode="" d="M1384 0h-161l-819 1119q-8 11 -13.5 24.5t-9.5 27.5q-4 15 -7 32v-1203h-198v1433h141q48 0 84 -14t57 -43l695 -957q27 -39 33 -99v1113h198v-1433zM770 1675q4 -7 6 -14.5t3 -9.5q0 2 2.5 10t7.5 14l92 113q32 44 115 44h74q-76 -117 -116.5 -178t-45.5 -66 q-32 -44 -115 -44h-27q-83 0 -115 44q-5 5 -45.5 66t-116.5 178h74q83 0 115 -44z"/>
<glyph glyph-name="ncaron" horiz-adv-x="1164" unicode="" d="M314 1050l4 -6q4 -6 10 -17.5t11 -27t5 -33.5v-43q18 35 50 61.5t72 44.5t86.5 27t94.5 9q88 0 161 -31.5t124.5 -91.5t80 -147t28.5 -198v-597h-198v597q0 131 -48 205.5t-148 74.5q-60 0 -113.5 -13.5t-95 -36.5t-66.5 -55t-28 -68v-704h-198v1050h168zM588 1292 q4 -7 6 -14.5t3 -9.5q0 2 2.5 10t7.5 14l92 113q32 44 115 44h74q-76 -117 -116.5 -178t-45.5 -66q-32 -44 -115 -44h-27q-83 0 -115 44q-5 5 -45.5 66t-116.5 178h74q83 0 115 -44z"/>
<glyph glyph-name="napostrophe" horiz-adv-x="1164" unicode="" d="M314 1050l4 -6q4 -6 10 -17.5t11 -27t5 -33.5v-43q18 35 50 61.5t72 44.5t86.5 27t94.5 9q88 0 161 -31.5t124.5 -91.5t80 -147t28.5 -198v-597h-198v597q0 131 -48 205.5t-148 74.5q-60 0 -113.5 -13.5t-95 -36.5t-66.5 -55t-28 -68v-704h-198v1050h168zM148 1435h78 q32 0 51 -17.5t19 -49.5q0 -5 -0.5 -9.5t-1.5 -9.5l-20 -129q-5 -30 -27 -49.5t-54 -19.5h-45v284z"/>
<glyph glyph-name="Eng" horiz-adv-x="1559" unicode="" d="M1384 145q0 -82 -41.5 -154t-107.5 -125t-148 -84t-163 -31q-94 0 -176 34.5t-145 95.5l56 56q45 45 109 45q20 -1 38.5 -6.5t37 -11.5t38 -10.5t42.5 -4.5q76 0 138 39t95 102l-753 1029q-7 10 -12.5 23.5t-9.5 26t-6 22t-2 11.5v-1202h-198v1433h141q48 0 84 -14 t57 -43l695 -957q14 -20 21 -44.5t12 -54.5v1113h198v-1288z"/>
<glyph glyph-name="eng" horiz-adv-x="1164" unicode="" d="M1095 37q-1 -73 -23 -138.5t-59.5 -120t-88.5 -96t-110 -65.5l-31 71q-5 12 -8 31.5t-3 30.5q0 30 12 53t28.5 44t34 43t29.5 49q21 48 21 99v559q0 131 -48 205.5t-148 74.5q-60 0 -113.5 -13.5t-95 -36.5t-66.5 -55t-28 -68v-704h-198v1050h168l4 -6q4 -6 10 -17.5 t11 -27t5 -33.5v-43q18 35 50 61.5t72 44.5t86.5 27t94.5 9q88 0 161 -31.5t124.5 -91.5t80 -147t28.5 -198v-560z"/>
<glyph glyph-name="Omacron" horiz-adv-x="1648" unicode="" d="M290 717q0 -111 42 -208t114.5 -169.5t169.5 -114.5t208 -42t208 42t169.5 114.5t114.5 169.5t42 208t-42 208t-114.5 169.5t-169.5 114.5t-208 42t-208 -42t-169.5 -114.5t-114.5 -169.5t-42 -208zM92 717q0 101 26 194.5t74 175t114.5 148t148 114.5t175 74t194.5 26 t194.5 -26t175 -74t148 -114.5t114.5 -148t74 -175t26 -194.5t-26 -194.5t-74 -175t-114.5 -148t-148 -114.5t-175 -74t-194.5 -26q-152 0 -285 57.5t-232.5 157t-157 232.5t-57.5 285zM547 1708h554v-148h-554v148z"/>
<glyph glyph-name="omacron" horiz-adv-x="1226" unicode="" d="M265 525q0 -72 27.5 -135t74.5 -110t110 -74.5t135 -27.5t135 27.5t110 74.5t74.5 110t27.5 135t-27.5 135t-74.5 110t-110 74.5t-135 27.5t-135 -27.5t-110 -74.5t-74.5 -110t-27.5 -135zM72 525q0 111 42.5 209.5t116 172t172 116t209.5 42.5t209.5 -42.5t172 -116 t116 -172t42.5 -209.5t-42.5 -209.5t-116 -172t-172 -116t-209.5 -42.5t-209.5 42.5t-172 116t-116 172t-42.5 209.5zM336 1348h554v-148h-554v148z"/>
<glyph glyph-name="Obreve" horiz-adv-x="1648" unicode="" d="M290 717q0 -111 42 -208t114.5 -169.5t169.5 -114.5t208 -42t208 42t169.5 114.5t114.5 169.5t42 208t-42 208t-114.5 169.5t-169.5 114.5t-208 42t-208 -42t-169.5 -114.5t-114.5 -169.5t-42 -208zM92 717q0 101 26 194.5t74 175t114.5 148t148 114.5t175 74t194.5 26 t194.5 -26t175 -74t148 -114.5t114.5 -148t74 -175t26 -194.5t-26 -194.5t-74 -175t-114.5 -148t-148 -114.5t-175 -74t-194.5 -26q-152 0 -285 57.5t-232.5 157t-157 232.5t-57.5 285zM1101 1781q0 -57 -22 -104.5t-59.5 -81.5t-88 -52.5t-107.5 -18.5t-107.5 18.5 t-88 52.5t-59.5 81.5t-22 104.5h52q29 0 53.5 -16.5t33.5 -44.5q19 -37 55.5 -53.5t82.5 -16.5q45 0 82 16.5t55 53.5q11 29 35 45t53 16h52z"/>
<glyph glyph-name="obreve" horiz-adv-x="1226" unicode="" d="M265 525q0 -72 27.5 -135t74.5 -110t110 -74.5t135 -27.5t135 27.5t110 74.5t74.5 110t27.5 135t-27.5 135t-74.5 110t-110 74.5t-135 27.5t-135 -27.5t-110 -74.5t-74.5 -110t-27.5 -135zM72 525q0 111 42.5 209.5t116 172t172 116t209.5 42.5t209.5 -42.5t172 -116 t116 -172t42.5 -209.5t-42.5 -209.5t-116 -172t-172 -116t-209.5 -42.5t-209.5 42.5t-172 116t-116 172t-42.5 209.5zM890 1421q0 -57 -22 -106t-59.5 -85t-88 -56t-107.5 -20t-107.5 20t-88 56t-59.5 85t-22 106h52q29 0 53.5 -16.5t33.5 -44.5q19 -37 55.5 -58.5 t82.5 -21.5q45 0 82 21.5t55 58.5q11 29 35 45t53 16h52z"/>
<glyph glyph-name="Ohungarumlaut" horiz-adv-x="1648" unicode="" d="M290 717q0 -111 42 -208t114.5 -169.5t169.5 -114.5t208 -42t208 42t169.5 114.5t114.5 169.5t42 208t-42 208t-114.5 169.5t-169.5 114.5t-208 42t-208 -42t-169.5 -114.5t-114.5 -169.5t-42 -208zM92 717q0 101 26 194.5t74 175t114.5 148t148 114.5t175 74t194.5 26 t194.5 -26t175 -74t148 -114.5t114.5 -148t74 -175t26 -194.5t-26 -194.5t-74 -175t-114.5 -148t-148 -114.5t-175 -74t-194.5 -26q-152 0 -285 57.5t-232.5 157t-157 232.5t-57.5 285zM1028 1588q-32 -44 -115 -44h-64l172 244q32 44 115 44h104zM783 1588 q-33 -44 -115 -44h-54q130 232 142 244q32 44 115 44h94z"/>
<glyph glyph-name="ohungarumlaut" horiz-adv-x="1226" unicode="" d="M265 525q0 -72 27.5 -135t74.5 -110t110 -74.5t135 -27.5t135 27.5t110 74.5t74.5 110t27.5 135t-27.5 135t-74.5 110t-110 74.5t-135 27.5t-135 -27.5t-110 -74.5t-74.5 -110t-27.5 -135zM72 525q0 111 42.5 209.5t116 172t172 116t209.5 42.5t209.5 -42.5t172 -116 t116 -172t42.5 -209.5t-42.5 -209.5t-116 -172t-172 -116t-209.5 -42.5t-209.5 42.5t-172 116t-116 172t-42.5 209.5zM811 1205q-32 -44 -115 -44h-64l172 244q32 44 115 44h104zM566 1205q-33 -44 -115 -44h-54q130 232 142 244q32 44 115 44h94z"/>
<glyph glyph-name="OE" horiz-adv-x="2192" unicode="" d="M290 717q0 -111 42 -208t114.5 -169.5t169.5 -114.5t208 -42t208 42t169.5 114.5t114.5 169.5t42 208t-42 208t-114.5 169.5t-169.5 114.5t-208 42t-208 -42t-169.5 -114.5t-114.5 -169.5t-42 -208zM92 717q0 101 26 194.5t74 175t114.5 148t148 114.5t175 74t194.5 26 q39 0 77 -4t75 -12h1113v-198h-748q82 -82 136 -187t71 -226h410v-198h-408q-16 -125 -70.5 -233t-139.5 -193h749v-198h-1118q-71 -15 -147 -15q-152 0 -285 57.5t-232.5 157t-157 232.5t-57.5 285z"/>
<glyph glyph-name="oe" horiz-adv-x="2098" unicode="" d="M1229 657h588q-20 47 -52 86.5t-73.5 68t-91.5 44.5t-104 16q-59 0 -112.5 -18.5t-97 -51.5t-75 -78.5t-47.5 -99.5q8 11 24 22t41 11zM265 525q0 -72 27.5 -135t74.5 -110t110 -74.5t135 -27.5q67 0 127 24t106.5 66t76 99t35.5 123q0 9 -0.5 17.5t-0.5 17.5q0 8 0.5 17 t0.5 17q-6 66 -35.5 123t-76 99t-106.5 66.5t-127 24.5q-72 0 -135 -27.5t-110 -74.5t-74.5 -110t-27.5 -135zM2022 614q0 -35 -13.5 -62.5t-33.5 -47t-44.5 -30t-46.5 -10.5h-730q9 -61 40 -113t77 -90.5t104 -60.5t121 -22q46 0 88.5 11.5t80.5 32.5q20 11 39 16t42 5 q32 0 58 -12t49 -35l38 -38q-75 -80 -176 -126.5t-219 -46.5q-128 0 -237 54.5t-184 147.5q-5 7 -9 16q-4 8 -7.5 18t-4.5 21q-1 -12 -4 -21.5t-7 -17.5q-4 -9 -10 -16q-37 -46 -83.5 -83.5t-100.5 -63.5t-113.5 -40.5t-123.5 -14.5q-111 0 -209.5 42.5t-172 116t-116 172 t-42.5 209.5t42.5 209.5t116 172t172 116t209.5 42.5q66 0 136.5 -18t132 -52t108 -82.5t65.5 -108.5q1 8 6 19.5t11 23.5t12.5 23t12.5 17q74 82 177.5 130t222.5 48q93 0 178 -31t154 -85t118.5 -128t71.5 -161q3 -11 3 -23t1 -23z"/>
<glyph glyph-name="Racute" horiz-adv-x="1292" unicode="" d="M391 1235v-441h316q46 0 86 17t70 47t47.5 70t17.5 86t-17.5 86t-47.5 70t-70 47.5t-86 17.5h-316zM391 0h-198v1433h514q87 0 163.5 -33t133 -89.5t89.5 -133t33 -163.5q0 -70 -21.5 -133.5t-60.5 -115.5t-92.5 -90.5t-116.5 -58.5l456 -616h-136q-58 0 -102.5 22.5 t-73.5 67.5l-375 506h-213v-596zM659 1588q-32 -44 -115 -44h-74q111 183 122 194q32 44 115 44h114z"/>
<glyph glyph-name="racute" horiz-adv-x="780" unicode="" d="M314 1050l4 -6q4 -6 10 -17.5t11 -27t5 -33.5v-73q18 36 50 67t72 54.5t86.5 37t94.5 13.5q81 0 153 -29l-15 -85q-8 -42 -36 -65.5t-69 -23.5q-5 0 -6 0.5t-3.5 0.5t-7.5 0.5t-18 0.5q-60 0 -113.5 -17.5t-94 -45.5t-65.5 -63.5t-28 -71.5v-666h-198v1050h168zM458 1205 q-33 -44 -115 -44h-74q130 232 142 244q32 44 115 44h114z"/>
<glyph glyph-name="Rcommaaccent" horiz-adv-x="1292" unicode="" d="M391 1235v-441h316q46 0 86 17t70 47t47.5 70t17.5 86t-17.5 86t-47.5 70t-70 47.5t-86 17.5h-316zM391 0h-198v1433h514q87 0 163.5 -33t133 -89.5t89.5 -133t33 -163.5q0 -70 -21.5 -133.5t-60.5 -115.5t-92.5 -90.5t-116.5 -58.5l456 -616h-136q-58 0 -102.5 22.5 t-73.5 67.5l-375 506h-213v-596zM539 -78h78q32 0 51 -17.5t19 -49.5q0 -5 -0.5 -9.5t-1.5 -9.5l-20 -129q-5 -30 -27.5 -49.5t-53.5 -19.5h-45v284z"/>
<glyph glyph-name="rcommaaccent" horiz-adv-x="780" unicode="" d="M314 1050l4 -6q4 -6 10 -17.5t11 -27t5 -33.5v-73q18 36 50 67t72 54.5t86.5 37t94.5 13.5q81 0 153 -29l-15 -85q-8 -42 -36 -65.5t-69 -23.5q-5 0 -6 0.5t-3.5 0.5t-7.5 0.5t-18 0.5q-60 0 -113.5 -17.5t-94 -45.5t-65.5 -63.5t-28 -71.5v-666h-198v1050h168zM181 -80 h78q32 0 51 -17.5t19 -49.5q0 -5 -0.5 -9.5t-1.5 -9.5l-20 -129q-5 -30 -27 -49.5t-54 -19.5h-45v284z"/>
<glyph glyph-name="Rcaron" horiz-adv-x="1292" unicode="" d="M391 1235v-441h316q46 0 86 17t70 47t47.5 70t17.5 86t-17.5 86t-47.5 70t-70 47.5t-86 17.5h-316zM391 0h-198v1433h514q87 0 163.5 -33t133 -89.5t89.5 -133t33 -163.5q0 -70 -21.5 -133.5t-60.5 -115.5t-92.5 -90.5t-116.5 -58.5l456 -616h-136q-58 0 -102.5 22.5 t-73.5 67.5l-375 506h-213v-596zM636 1675q4 -7 6 -14.5t3 -9.5q0 2 2.5 10t7.5 14l92 113q32 44 115 44h74q-76 -117 -116.5 -178t-45.5 -66q-32 -44 -115 -44h-27q-83 0 -115 44q-5 5 -45.5 66t-116.5 178h74q83 0 115 -44z"/>
<glyph glyph-name="rcaron" horiz-adv-x="780" unicode="" d="M342 1050l4 -6q4 -6 10 -17.5t11 -27t5 -33.5v-73q18 36 50 67t72 54.5t86.5 37t94.5 13.5q81 0 153 -29l-15 -85q-8 -42 -36 -65.5t-69 -23.5q-5 0 -6 0.5t-3.5 0.5t-7.5 0.5t-18 0.5q-60 0 -113.5 -17.5t-94 -45.5t-65.5 -63.5t-28 -71.5v-666h-198v1050h168zM427 1292 q4 -7 6 -14.5t3 -9.5q0 2 2.5 10t7.5 14l92 113q32 44 115 44h74q-76 -117 -116.5 -178t-45.5 -66q-32 -44 -115 -44h-27q-83 0 -115 44q-5 5 -45.5 66t-116.5 178h74q83 0 115 -44z"/>
<glyph glyph-name="Sacute" horiz-adv-x="1065" unicode="" d="M698 1189q-39 28 -79 44.5t-75 16.5q-47 0 -88.5 -13t-73 -36t-50 -54.5t-18.5 -68.5q0 -43 14 -73t45 -53.5t80.5 -44.5t120.5 -45q35 -14 70.5 -26.5t69.5 -27t67 -31.5t63 -40q151 -115 151 -310q0 -98 -40 -179t-108 -139.5t-157 -91t-186 -32.5q-193 0 -323 115 q-26 23 -46 46.5t-34.5 45.5t-24.5 40t-16 30l48 25q38 23 79 23q65 0 110 -47l16 -13q38 -32 84.5 -49.5t106.5 -17.5q49 0 101 16t94.5 46.5t70 76t27.5 105.5q0 58 -26 96t-67.5 65t-93 46t-101.5 39q-74 29 -144.5 60t-126 75.5t-89 109t-33.5 160.5q0 88 36.5 157 t96.5 116.5t137 72.5t158 25q59 0 117 -20t109 -51t92 -68t68 -70l-51 -38q-42 -36 -97 -36q-47 0 -84 23zM644 1588q-32 -44 -115 -44h-74q111 183 122 194q32 44 115 44h114z"/>
<glyph glyph-name="sacute" horiz-adv-x="852" unicode="" d="M116 225q20 10 39.5 16.5t39.5 6.5q26 0 49.5 -10t56.5 -33q23 -16 50 -23t56 -7q31 0 61.5 9.5t54.5 28t39 45.5t15 63q0 28 -8.5 48t-29.5 36.5t-56.5 32t-88.5 33.5q-55 19 -108.5 43.5t-95.5 59.5t-68 85t-26 120q0 61 28 113.5t73.5 90.5t103.5 60t118 22 q61 0 111.5 -22t87 -50t58 -53t26.5 -31l-47 -40q-42 -36 -98 -36q-20 0 -42.5 8.5t-52.5 23.5q-20 10 -43 10q-39 0 -64.5 -11t-41 -26.5t-21.5 -32t-6 -26.5q0 -29 15 -48.5t39 -34t54.5 -25.5t61.5 -21q60 -20 116 -46t99.5 -64t69.5 -91.5t26 -127.5q0 -68 -26.5 -128.5 t-74.5 -107t-114 -73.5t-145 -27q-54 0 -105.5 14.5t-96.5 42.5t-81.5 67t-61.5 89zM508 1205q-33 -44 -115 -44h-74q130 232 142 244q32 44 115 44h114z"/>
<glyph glyph-name="Scircumflex" horiz-adv-x="1065" unicode="" d="M698 1189q-39 28 -79 44.5t-75 16.5q-47 0 -88.5 -13t-73 -36t-50 -54.5t-18.5 -68.5q0 -43 14 -73t45 -53.5t80.5 -44.5t120.5 -45q35 -14 70.5 -26.5t69.5 -27t67 -31.5t63 -40q151 -115 151 -310q0 -98 -40 -179t-108 -139.5t-157 -91t-186 -32.5q-193 0 -323 115 q-26 23 -46 46.5t-34.5 45.5t-24.5 40t-16 30l48 25q38 23 79 23q65 0 110 -47l16 -13q38 -32 84.5 -49.5t106.5 -17.5q49 0 101 16t94.5 46.5t70 76t27.5 105.5q0 58 -26 96t-67.5 65t-93 46t-101.5 39q-74 29 -144.5 60t-126 75.5t-89 109t-33.5 160.5q0 88 36.5 157 t96.5 116.5t137 72.5t158 25q59 0 117 -20t109 -51t92 -68t68 -70l-51 -38q-42 -36 -97 -36q-47 0 -84 23zM444 1578q-42 -44 -115 -44h-74l162 204q32 44 115 44h27q83 0 115 -44l162 -204h-74h-6q-34 0 -60 11q-28 12 -49 33l-92 93q-5 5 -7.5 13t-2.5 10q-1 -3 -3 -10.5 t-6 -12.5z"/>
<glyph glyph-name="scircumflex" horiz-adv-x="852" unicode="" d="M116 225q20 10 39.5 16.5t39.5 6.5q26 0 49.5 -10t56.5 -33q23 -16 50 -23t56 -7q31 0 61.5 9.5t54.5 28t39 45.5t15 63q0 28 -8.5 48t-29.5 36.5t-56.5 32t-88.5 33.5q-55 19 -108.5 43.5t-95.5 59.5t-68 85t-26 120q0 61 28 113.5t73.5 90.5t103.5 60t118 22 q61 0 111.5 -22t87 -50t58 -53t26.5 -31l-47 -40q-42 -36 -98 -36q-20 0 -42.5 8.5t-52.5 23.5q-20 10 -43 10q-39 0 -64.5 -11t-41 -26.5t-21.5 -32t-6 -26.5q0 -29 15 -48.5t39 -34t54.5 -25.5t61.5 -21q60 -20 116 -46t99.5 -64t69.5 -91.5t26 -127.5q0 -68 -26.5 -128.5 t-74.5 -107t-114 -73.5t-145 -27q-54 0 -105.5 14.5t-96.5 42.5t-81.5 67t-61.5 89zM314 1205q-32 -44 -115 -44h-74q76 117 116.5 178t45.5 66q32 44 115 44h27q83 0 115 -44q5 -5 45.5 -66t116.5 -178h-74q-83 0 -115 44l-92 113q-5 5 -7.5 13t-2.5 10q-1 -3 -3 -10.5 t-6 -12.5z"/>
<glyph glyph-name="Scedilla" horiz-adv-x="1065" unicode="" d="M698 1189q-39 28 -79 44.5t-75 16.5q-47 0 -88.5 -13t-73 -36t-50 -54.5t-18.5 -68.5q0 -43 14 -73t45 -53.5t80.5 -44.5t120.5 -45q35 -14 70.5 -26.5t69.5 -27t67 -31.5t63 -40q151 -115 151 -310q0 -98 -40 -179t-108 -139.5t-157 -91t-186 -32.5q-193 0 -323 115 q-26 23 -46 46.5t-34.5 45.5t-24.5 40t-16 30l48 25q38 23 79 23q65 0 110 -47l16 -13q38 -32 84.5 -49.5t106.5 -17.5q49 0 101 16t94.5 46.5t70 76t27.5 105.5q0 58 -26 96t-67.5 65t-93 46t-101.5 39q-74 29 -144.5 60t-126 75.5t-89 109t-33.5 160.5q0 88 36.5 157 t96.5 116.5t137 72.5t158 25q59 0 117 -20t109 -51t92 -68t68 -70l-51 -38q-42 -36 -97 -36q-47 0 -84 23zM490 10h106l-1 -76q41 -3 76 -16t61 -33t41 -45.5t15 -53.5q0 -31 -17.5 -58t-47.5 -47.5t-70 -32.5t-86 -12q-22 0 -44 6t-39 14q-20 9 -39 21v73q19 -7 40 -12 q17 -5 39 -8t43 -3q36 0 62 17.5t26 41.5t-26 41.5t-62 17.5q-8 0 -16.5 -0.5t-16.5 -0.5q-19 0 -31.5 8.5t-12.5 40.5v117z"/>
<glyph glyph-name="scedilla" horiz-adv-x="852" unicode="" d="M116 225q20 10 39.5 16.5t39.5 6.5q26 0 49.5 -10t56.5 -33q23 -16 50 -23t56 -7q31 0 61.5 9.5t54.5 28t39 45.5t15 63q0 28 -8.5 48t-29.5 36.5t-56.5 32t-88.5 33.5q-55 19 -108.5 43.5t-95.5 59.5t-68 85t-26 120q0 61 28 113.5t73.5 90.5t103.5 60t118 22 q61 0 111.5 -22t87 -50t58 -53t26.5 -31l-47 -40q-42 -36 -98 -36q-20 0 -42.5 8.5t-52.5 23.5q-20 10 -43 10q-39 0 -64.5 -11t-41 -26.5t-21.5 -32t-6 -26.5q0 -29 15 -48.5t39 -34t54.5 -25.5t61.5 -21q60 -20 116 -46t99.5 -64t69.5 -91.5t26 -127.5q0 -68 -26.5 -128.5 t-74.5 -107t-114 -73.5t-145 -27q-54 0 -105.5 14.5t-96.5 42.5t-81.5 67t-61.5 89zM360 10h106l-1 -76q41 -3 76 -16t61 -33t41 -45.5t15 -53.5q0 -31 -17.5 -58t-47.5 -47.5t-70 -32.5t-86 -12q-22 0 -44 6t-39 14q-20 9 -39 21v73q19 -7 40 -12q17 -5 39 -8t43 -3 q36 0 62 17.5t26 41.5t-26 41.5t-62 17.5q-8 0 -16.5 -0.5t-16.5 -0.5q-19 0 -31.5 8.5t-12.5 40.5v117z"/>
<glyph glyph-name="Scaron" horiz-adv-x="1065" unicode="" d="M698 1189q-39 28 -79 44.5t-75 16.5q-47 0 -88.5 -13t-73 -36t-50 -54.5t-18.5 -68.5q0 -43 14 -73t45 -53.5t80.5 -44.5t120.5 -45q35 -14 70.5 -26.5t69.5 -27t67 -31.5t63 -40q151 -115 151 -310q0 -98 -40 -179t-108 -139.5t-157 -91t-186 -32.5q-193 0 -323 115 q-26 23 -46 46.5t-34.5 45.5t-24.5 40t-16 30l48 25q38 23 79 23q65 0 110 -47l16 -13q38 -32 84.5 -49.5t106.5 -17.5q49 0 101 16t94.5 46.5t70 76t27.5 105.5q0 58 -26 96t-67.5 65t-93 46t-101.5 39q-74 29 -144.5 60t-126 75.5t-89 109t-33.5 160.5q0 88 36.5 157 t96.5 116.5t137 72.5t158 25q59 0 117 -20t109 -51t92 -68t68 -70l-51 -38q-42 -36 -97 -36q-47 0 -84 23zM523 1674q4 -7 6 -14.5t3 -9.5q0 2 2.5 10t7.5 14l92 113q32 44 115 44h74q-76 -117 -116.5 -178t-45.5 -66q-32 -44 -115 -44h-27q-83 0 -115 44q-5 5 -45.5 66 t-116.5 178h74q83 0 115 -44z"/>
<glyph glyph-name="scaron" horiz-adv-x="852" unicode="" d="M116 225q20 10 39.5 16.5t39.5 6.5q26 0 49.5 -10t56.5 -33q23 -16 50 -23t56 -7q31 0 61.5 9.5t54.5 28t39 45.5t15 63q0 28 -8.5 48t-29.5 36.5t-56.5 32t-88.5 33.5q-55 19 -108.5 43.5t-95.5 59.5t-68 85t-26 120q0 61 28 113.5t73.5 90.5t103.5 60t118 22 q61 0 111.5 -22t87 -50t58 -53t26.5 -31l-47 -40q-42 -36 -98 -36q-20 0 -42.5 8.5t-52.5 23.5q-20 10 -43 10q-39 0 -64.5 -11t-41 -26.5t-21.5 -32t-6 -26.5q0 -29 15 -48.5t39 -34t54.5 -25.5t61.5 -21q60 -20 116 -46t99.5 -64t69.5 -91.5t26 -127.5q0 -68 -26.5 -128.5 t-74.5 -107t-114 -73.5t-145 -27q-54 0 -105.5 14.5t-96.5 42.5t-81.5 67t-61.5 89zM397 1292q4 -7 6 -14.5t3 -9.5q0 2 2.5 10t7.5 14l92 113q32 44 115 44h74q-76 -117 -116.5 -178t-45.5 -66q-32 -44 -115 -44h-27q-83 0 -115 44q-5 5 -45.5 66t-116.5 178h74 q83 0 115 -44z"/>
<glyph glyph-name="Tcommaaccent" horiz-adv-x="1145" unicode="" d="M28 1235v199h1089v-199h-445v-1235h-198v1235h-446zM498 -112h78q32 0 51 -17.5t19 -49.5q0 -5 -0.5 -9.5t-1.5 -9.5l-20 -129q-5 -30 -27 -49.5t-54 -19.5h-45v284z"/>
<glyph glyph-name="tcommaaccent" horiz-adv-x="759" unicode="" d="M401 265q0 -16 5 -32t14 -29.5t22.5 -22t31.5 -8.5l24 3q43 12 75 12q41 0 72 -21t52 -52l24 -35q-18 -18 -48.5 -35.5t-65 -30.5t-70 -21t-63.5 -8q-63 0 -113 21t-85 58t-54 88.5t-19 112.5v596h-175v108q0 83 153 83h22v216q0 32 7.5 60t16.5 48q11 24 24 43h150v-368 h291v-190h-291v-596zM305 -179h78q32 0 51 -17.5t19 -49.5q0 -5 -0.5 -9.5t-1.5 -9.5l-20 -129q-5 -30 -27 -49.5t-54 -19.5h-45v284z"/>
<glyph glyph-name="Tcaron" horiz-adv-x="1145" unicode="" d="M28 1235v199h1089v-199h-445v-1235h-198v1235h-446zM563 1675q4 -7 6 -14.5t3 -9.5q0 2 2.5 10t7.5 14l92 113q32 44 115 44h74q-76 -117 -116.5 -178t-45.5 -66q-32 -44 -115 -44h-27q-83 0 -115 44q-5 5 -45.5 66t-116.5 178h74q83 0 115 -44z"/>
<glyph glyph-name="tcaron" horiz-adv-x="857" unicode="" d="M401 265q0 -16 5 -32t14 -29.5t22.5 -22t31.5 -8.5l24 3q43 12 75 12q41 0 72 -21t52 -52l24 -35q-18 -18 -48.5 -35.5t-65 -30.5t-70 -21t-63.5 -8q-63 0 -113 21t-85 58t-54 88.5t-19 112.5v596h-175v108q0 83 153 83h22v216q0 32 7.5 60t16.5 48q11 24 24 43h150v-368 h291v-190h-291v-596zM711 1434h78q32 0 51 -17.5t19 -49.5q0 -5 -0.5 -9.5t-1.5 -9.5l-20 -129q-5 -30 -27 -49.5t-54 -19.5h-45v284z"/>
<glyph glyph-name="Tbar" horiz-adv-x="1145" unicode="" d="M28 1235v199h1089v-199h-445v-1235h-198v1235h-446zM295 800h554v-148h-554v148z"/>
<glyph glyph-name="tbar" horiz-adv-x="759" unicode="" d="M407 265q0 -16 5 -32t14 -29.5t22.5 -22t31.5 -8.5l24 3q43 12 75 12q41 0 72 -21t52 -52l24 -35q-18 -18 -48.5 -35.5t-65 -30.5t-70 -21t-63.5 -8q-63 0 -113 21t-85 58t-54 88.5t-19 112.5v596h-175v108q0 83 153 83h22v216q0 32 7.5 60t16.5 48q11 24 24 43h150v-368 h291v-190h-291v-596zM28.2822 719.867h670.015v-146.997h-670.015v146.997z"/>
<glyph glyph-name="Utilde" horiz-adv-x="1454" unicode="" d="M353 560q0 -78 29.5 -147t81 -120.5t120.5 -81t147 -29.5t147 29.5t120.5 81t81 120.5t29.5 147v873h199v-873q0 -80 -20.5 -153.5t-58 -137.5t-90.5 -116.5t-117 -90t-137.5 -58t-153.5 -20.5q-79 0 -152.5 20.5t-137.5 58t-117 90t-90.5 116.5t-58 138t-20.5 153v873 h198v-873zM847 1544q-38 0 -73 14t-66.5 31t-57 31t-43.5 14q-16 0 -25.5 -9.5t-15 -23.5t-6.5 -24t-2 -10q-44 -19 -73 -21.5t-57 -0.5v10q0 42 12 79.5t35 66.5t56 46t76 17q34 0 67 -14t63.5 -31t58.5 -31t51 -14q18 0 29 7t17 18t7.5 21t2.5 10q30 23 62 26q12 1 25 1 q21 0 42 -3q-4 -48 -13 -87t-29.5 -66t-54.5 -42t-88 -15z"/>
<glyph glyph-name="utilde" horiz-adv-x="1164" unicode="" d="M849 0l-5 6q-4 6 -9.5 17.5t-10.5 27t-5 33.5v43q-18 -36 -50 -62.5t-72 -44t-86.5 -26.5t-94.5 -9q-89 0 -161.5 33t-124 94t-80 147.5t-28.5 193.5v597h198v-597q0 -131 48 -205.5t148 -74.5q60 0 113.5 14.5t95 39.5t66.5 58t28 69v696h198v-1050h-168zM701 1201 q-38 0 -73 14t-66.5 31t-57 31t-43.5 14q-16 0 -25.5 -9.5t-15 -23.5t-6.5 -24t-2 -10q-44 -19 -73 -21.5t-57 -0.5v10q0 42 12 79.5t35 66.5t56 46t76 17q34 0 67 -14t63.5 -31t58.5 -31t51 -14q18 0 29 7t17 18t7.5 21t2.5 10q30 23 62 26q12 1 25 1q21 0 42 -3 q-4 -48 -13 -87t-29.5 -66t-54.5 -42t-88 -15z"/>
<glyph glyph-name="Umacron" horiz-adv-x="1454" unicode="" d="M353 560q0 -78 29.5 -147t81 -120.5t120.5 -81t147 -29.5t147 29.5t120.5 81t81 120.5t29.5 147v873h199v-873q0 -80 -20.5 -153.5t-58 -137.5t-90.5 -116.5t-117 -90t-137.5 -58t-153.5 -20.5q-79 0 -152.5 20.5t-137.5 58t-117 90t-90.5 116.5t-58 138t-20.5 153v873 h198v-873zM450 1708h554v-148h-554v148z"/>
<glyph glyph-name="umacron" horiz-adv-x="1164" unicode="" d="M849 0l-5 6q-4 6 -9.5 17.5t-10.5 27t-5 33.5v43q-18 -36 -50 -62.5t-72 -44t-86.5 -26.5t-94.5 -9q-89 0 -161.5 33t-124 94t-80 147.5t-28.5 193.5v597h198v-597q0 -131 48 -205.5t148 -74.5q60 0 113.5 14.5t95 39.5t66.5 58t28 69v696h198v-1050h-168zM305 1348h554 v-148h-554v148z"/>
<glyph glyph-name="Ubreve" horiz-adv-x="1454" unicode="" d="M353 560q0 -78 29.5 -147t81 -120.5t120.5 -81t147 -29.5t147 29.5t120.5 81t81 120.5t29.5 147v873h199v-873q0 -80 -20.5 -153.5t-58 -137.5t-90.5 -116.5t-117 -90t-137.5 -58t-153.5 -20.5q-79 0 -152.5 20.5t-137.5 58t-117 90t-90.5 116.5t-58 138t-20.5 153v873 h198v-873zM1021 1781q0 -57 -22 -104.5t-59.5 -81.5t-88 -52.5t-107.5 -18.5t-107.5 18.5t-88 52.5t-59.5 81.5t-22 104.5h52q29 0 53.5 -16.5t33.5 -44.5q19 -37 55.5 -53.5t82.5 -16.5q45 0 82 16.5t55 53.5q11 29 35 45t53 16h52z"/>
<glyph glyph-name="ubreve" horiz-adv-x="1164" unicode="" d="M849 0l-5 6q-4 6 -9.5 17.5t-10.5 27t-5 33.5v43q-18 -36 -50 -62.5t-72 -44t-86.5 -26.5t-94.5 -9q-89 0 -161.5 33t-124 94t-80 147.5t-28.5 193.5v597h198v-597q0 -131 48 -205.5t148 -74.5q60 0 113.5 14.5t95 39.5t66.5 58t28 69v696h198v-1050h-168zM859 1421 q0 -57 -22 -106t-59.5 -85t-88 -56t-107.5 -20t-107.5 20t-88 56t-59.5 85t-22 106h52q29 0 53.5 -16.5t33.5 -44.5q19 -37 55.5 -58.5t82.5 -21.5q45 0 82 21.5t55 58.5q11 29 35 45t53 16h52z"/>
<glyph glyph-name="Uring" horiz-adv-x="1454" unicode="" d="M353 560q0 -78 29.5 -147t81 -120.5t120.5 -81t147 -29.5t147 29.5t120.5 81t81 120.5t29.5 147v873h199v-873q0 -80 -20.5 -153.5t-58 -137.5t-90.5 -116.5t-117 -90t-137.5 -58t-153.5 -20.5q-79 0 -152.5 20.5t-137.5 58t-117 90t-90.5 116.5t-58 138t-20.5 153v873 h198v-873zM666 1700q0 -32 21.5 -53.5t53.5 -21.5t53.5 21.5t21.5 53.5t-21.5 53.5t-53.5 21.5t-53.5 -21.5t-21.5 -53.5zM555 1700q0 39 14.5 72.5t40 59t59 40t72.5 14.5t72.5 -14.5t59 -40t40 -59t14.5 -72.5t-14.5 -72.5t-40 -59t-59 -40t-72.5 -14.5t-72.5 14.5t-59 40 t-40 59t-14.5 72.5z"/>
<glyph glyph-name="uring" horiz-adv-x="1164" unicode="" d="M849 0l-5 6q-4 6 -9.5 17.5t-10.5 27t-5 33.5v43q-18 -36 -50 -62.5t-72 -44t-86.5 -26.5t-94.5 -9q-89 0 -161.5 33t-124 94t-80 147.5t-28.5 193.5v597h198v-597q0 -131 48 -205.5t148 -74.5q60 0 113.5 14.5t95 39.5t66.5 58t28 69v696h198v-1050h-168zM507 1317 q0 -32 21.5 -53.5t53.5 -21.5t53.5 21.5t21.5 53.5t-21.5 53.5t-53.5 21.5t-53.5 -21.5t-21.5 -53.5zM396 1317q0 39 14.5 72.5t40 59t59 40t72.5 14.5t72.5 -14.5t59 -40t40 -59t14.5 -72.5t-14.5 -72.5t-40 -59t-59 -40t-72.5 -14.5t-72.5 14.5t-59 40t-40 59t-14.5 72.5z "/>
<glyph glyph-name="Uhungarumlaut" horiz-adv-x="1454" unicode="" d="M353 560q0 -78 29.5 -147t81 -120.5t120.5 -81t147 -29.5t147 29.5t120.5 81t81 120.5t29.5 147v873h199v-873q0 -80 -20.5 -153.5t-58 -137.5t-90.5 -116.5t-117 -90t-137.5 -58t-153.5 -20.5q-79 0 -152.5 20.5t-137.5 58t-117 90t-90.5 116.5t-58 138t-20.5 153v873 h198v-873zM880 1588q-32 -44 -115 -44h-64l172 244q32 44 115 44h104zM635 1588q-33 -44 -115 -44h-54q130 232 142 244q32 44 115 44h94z"/>
<glyph glyph-name="uhungarumlaut" horiz-adv-x="1164" unicode="" d="M849 0l-5 6q-4 6 -9.5 17.5t-10.5 27t-5 33.5v43q-18 -36 -50 -62.5t-72 -44t-86.5 -26.5t-94.5 -9q-89 0 -161.5 33t-124 94t-80 147.5t-28.5 193.5v597h198v-597q0 -131 48 -205.5t148 -74.5q60 0 113.5 14.5t95 39.5t66.5 58t28 69v696h198v-1050h-168zM683 1205 q-32 -44 -115 -44h-64l172 244q32 44 115 44h104zM438 1205q-33 -44 -115 -44h-54q130 232 142 244q32 44 115 44h94z"/>
<glyph glyph-name="Uogonek" horiz-adv-x="1454" unicode="" d="M353 560q0 -78 29.5 -147t81 -120.5t120.5 -81t147 -29.5t147 29.5t120.5 81t81 120.5t29.5 147v873h199v-873q0 -80 -20.5 -153.5t-58 -137.5t-90.5 -116.5t-117 -90t-137.5 -58t-153.5 -20.5q-79 0 -152.5 20.5t-137.5 58t-117 90t-90.5 116.5t-58 138t-20.5 153v873 h198v-873zM809 1q-21 -12 -42 -27.5t-37.5 -33.5t-27 -38.5t-10.5 -42.5q0 -42 29.5 -64.5t79.5 -22.5q18 0 37.5 2.5t39.5 2.5q21 -1 40.5 -7.5t30.5 -27.5l14 -29q-35 -25 -90 -40.5t-115 -15.5q-105 0 -164.5 42.5t-59.5 112.5q0 28 12.5 55.5t34.5 52.5t51 48t62 43z "/>
<glyph glyph-name="uogonek" horiz-adv-x="1164" unicode="" d="M849 0l-5 6q-4 6 -9.5 17.5t-10.5 27t-5 33.5v43q-18 -36 -50 -62.5t-72 -44t-86.5 -26.5t-94.5 -9q-89 0 -161.5 33t-124 94t-80 147.5t-28.5 193.5v597h198v-597q0 -131 48 -205.5t148 -74.5q60 0 113.5 14.5t95 39.5t66.5 58t28 69v696h198v-1050h-168zM957 1 q-21 -12 -42 -27.5t-37.5 -33.5t-27 -38.5t-10.5 -42.5q0 -42 29.5 -64.5t79.5 -22.5q18 0 37.5 2.5t39.5 2.5q21 -1 40.5 -7.5t30.5 -27.5l14 -29q-35 -25 -90 -40.5t-115 -15.5q-105 0 -164.5 42.5t-59.5 112.5q0 28 12.5 55.5t34.5 52.5t51 48t62 43z"/>
<glyph glyph-name="Wcircumflex" horiz-adv-x="1993" unicode="" d="M1028 612q-2 -2 -267 -612h-193l-625 1433h114q46 0 86 -25t56 -67l447 -1025q17 -39 18 -88q3 50 19 88l447 1025q18 42 57 67t85 25h114l-281 -645l206 -472q8 -19 12 -41.5t6 -48.5q3 54 19 90l447 1025q18 42 57 67t85 25h114l-625 -1433h-193l-185 425 q-31 71 -31 127q0 32 11 60zM897 1583q-42 -44 -115 -44h-74l162 204q32 44 115 44h27q83 0 115 -44l162 -204h-74h-6q-34 0 -60 11q-28 12 -49 33l-92 93q-5 5 -7.5 13t-2.5 10q-1 -3 -3 -10.5t-6 -12.5z"/>
<glyph glyph-name="wcircumflex" horiz-adv-x="1721" unicode="" d="M892 612q-2 -2 -267 -612h-193l-458 1050h114q46 0 86 -25t56 -67l280 -642q9 -20 12.5 -44.5t5.5 -52.5q2 58 19 97l280 643q18 42 57 67t85 25h114l-115 -263l207 -472q7 -19 11.5 -40.5t6.5 -47.5q3 52 19 88l280 643q18 42 57 67t85 25h114l-458 -1051h-193l-185 425 q-31 71 -31 127q0 32 11 60zM759 1205q-32 -44 -115 -44h-74q76 117 116.5 178t45.5 66q32 44 115 44h27q83 0 115 -44q5 -5 45.5 -66t116.5 -178h-74q-83 0 -115 44l-92 113q-5 5 -7.5 13t-2.5 10q-1 -3 -3 -10.5t-6 -12.5z"/>
<glyph glyph-name="Ycircumflex" horiz-adv-x="1336" unicode="" d="M769 0h-198v606q0 22 -4 39t-11.5 32.5t-18.5 31.5t-25 35l-509 689h136q58 0 102.5 -22.5t73.5 -67.5l339 -458q7 -11 10.5 -25.5t5.5 -23.5q0 8 4 23t12 26l339 458q29 45 73.5 67.5t102.5 22.5h136l-509 -689q-14 -19 -25 -35t-18.5 -31.5t-11.5 -32.5t-4 -39v-606z M568 1583q-42 -44 -115 -44h-74l162 204q32 44 115 44h27q83 0 115 -44l162 -204h-74h-6q-34 0 -60 11q-28 12 -49 33l-92 93q-5 5 -7.5 13t-2.5 10q-1 -3 -3 -10.5t-6 -12.5z"/>
<glyph glyph-name="ycircumflex" horiz-adv-x="1133" unicode="" d="M28 1050h114q23 0 45 -6.5t41 -18.5t33.5 -29t22.5 -38l232 -533q31 -71 31 -128q0 -14 -2 -26.5t-6 -24.5q14 34 86.5 198.5t201.5 460.5l23 53q18 42 56.5 67t85.5 25h114l-585 -1343q-17 -45 -57 -70.5t-87 -25.5h-114l196 450zM465 1205q-32 -44 -115 -44h-74 q76 117 116.5 178t45.5 66q32 44 115 44h27q83 0 115 -44q5 -5 45.5 -66t116.5 -178h-74q-83 0 -115 44l-92 113q-5 5 -7.5 13t-2.5 10q-1 -3 -3 -10.5t-6 -12.5z"/>
<glyph glyph-name="Ydieresis" horiz-adv-x="1336" unicode="" d="M769 0h-198v606q0 22 -4 39t-11.5 32.5t-18.5 31.5t-25 35l-509 689h136q58 0 102.5 -22.5t73.5 -67.5l339 -458q7 -11 10.5 -25.5t5.5 -23.5q0 8 4 23t12 26l339 458q29 45 73.5 67.5t102.5 22.5h136l-509 -689q-14 -19 -25 -35t-18.5 -31.5t-11.5 -32.5t-4 -39v-606z M718 1655q0 25 9.5 46.5t25.5 38t37.5 26t46.5 9.5t46.5 -9.5t38 -26t26 -38t9.5 -46.5t-9.5 -46.5t-26 -37.5t-38 -25.5t-46.5 -9.5t-46.5 9.5t-37.5 25.5t-25.5 37.5t-9.5 46.5zM379 1655q0 25 9.5 46.5t25.5 38t37.5 26t46.5 9.5t46.5 -9.5t38 -26t26 -38t9.5 -46.5 t-9.5 -46.5t-26 -37.5t-38 -25.5t-46.5 -9.5t-46.5 9.5t-37.5 25.5t-25.5 37.5t-9.5 46.5z"/>
<glyph glyph-name="Zacute" horiz-adv-x="1248" unicode="" d="M1159 199v-199h-1073v82q0 76 46 129l757 1024h-765v199h1048v-82q0 -69 -37 -118l-778 -1052q5 4 11 8q5 3 12 6t16 3h763zM729 1588q-32 -44 -115 -44h-74q111 183 122 194q32 44 115 44h114z"/>
<glyph glyph-name="zacute" horiz-adv-x="952" unicode="" d="M862 198v-198h-792v81q0 76 46 129l485 642h-499v198h772v-81q0 -69 -37 -118l-506 -668q7 3 16 7q8 3 17.5 5.5t21.5 2.5h476zM541 1205q-33 -44 -115 -44h-74q130 232 142 244q32 44 115 44h114z"/>
<glyph glyph-name="Zdotaccent" horiz-adv-x="1248" unicode="" d="M1159 199v-199h-1073v82q0 76 46 129l757 1024h-765v199h1048v-82q0 -69 -37 -118l-778 -1052q5 4 11 8q5 3 12 6t16 3h763zM507 1668q0 28 10.5 52.5t28.5 42.5t42.5 28.5t52.5 10.5t52.5 -10.5t42.5 -28.5t28.5 -42.5t10.5 -52.5t-10.5 -52.5t-28.5 -42.5t-42.5 -28.5 t-52.5 -10.5t-52.5 10.5t-42.5 28.5t-28.5 42.5t-10.5 52.5z"/>
<glyph glyph-name="zdotaccent" horiz-adv-x="952" unicode="" d="M862 198v-198h-792v81q0 76 46 129l485 642h-499v198h772v-81q0 -69 -37 -118l-506 -668q7 3 16 7q8 3 17.5 5.5t21.5 2.5h476zM353 1287q0 28 10.5 52.5t28.5 42.5t42.5 28.5t52.5 10.5t52.5 -10.5t42.5 -28.5t28.5 -42.5t10.5 -52.5t-10.5 -52.5t-28.5 -42.5 t-42.5 -28.5t-52.5 -10.5t-52.5 10.5t-42.5 28.5t-28.5 42.5t-10.5 52.5z"/>
<glyph glyph-name="Zcaron" horiz-adv-x="1248" unicode="" d="M1159 199v-199h-1073v82q0 76 46 129l757 1024h-765v199h1048v-82q0 -69 -37 -118l-778 -1052q5 4 11 8q5 3 12 6t16 3h763zM639 1675q4 -7 6 -14.5t3 -9.5q0 2 2.5 10t7.5 14l92 113q32 44 115 44h74q-76 -117 -116.5 -178t-45.5 -66q-32 -44 -115 -44h-27 q-83 0 -115 44q-5 5 -45.5 66t-116.5 178h74q83 0 115 -44z"/>
<glyph glyph-name="zcaron" horiz-adv-x="952" unicode="" d="M862 198v-198h-792v81q0 76 46 129l485 642h-499v198h772v-81q0 -69 -37 -118l-506 -668q7 3 16 7q8 3 17.5 5.5t21.5 2.5h476zM466 1292q4 -7 6 -14.5t3 -9.5q0 2 2.5 10t7.5 14l92 113q32 44 115 44h74q-76 -117 -116.5 -178t-45.5 -66q-32 -44 -115 -44h-27 q-83 0 -115 44q-5 5 -45.5 66t-116.5 178h74q83 0 115 -44z"/>
<glyph glyph-name="longs" horiz-adv-x="655" unicode="" d="M186 0v794h-175v108q0 83 153 83h22v174q0 61 19 112.5t54 88.5t85 58t113 21q28 0 63 -8t69.5 -21t65 -30t48.5 -35l-23 -36q-20 -32 -52.5 -52.5t-71.5 -20.5q-32 0 -75 12q-3 0 -7 1q-8 2 -17 2q-18 0 -31.5 -8.5t-22.5 -22t-14 -29.5t-5 -32v-1159h-198z"/>
<glyph glyph-name="florin" horiz-adv-x="686" unicode="" d="M186 -61v922h-175v108q0 83 153 83h22v107q0 61 19 112.5t54 88.5t85 58t113 21q28 0 63 -8t69.5 -21t65 -30t48.5 -35l-23 -36q-20 -32 -52.5 -52.5t-71.5 -20.5q-32 0 -75 12q-3 0 -7 1q-8 2 -17 2q-18 0 -31.5 -8.5t-22.5 -22t-14 -29.5t-5 -32v-109h271v-189h-271 v-922q0 -61 -19 -112.5t-54 -88.5t-85 -58t-113 -21q-28 0 -63 8t-69.5 21t-65 30t-48.5 35l23 36q20 32 52.5 52.5t71.5 20.5q31 0 75 -12q3 -1 7 -2t17 -1q18 0 31.5 8.5t22.5 22t14 29.5t5 32z"/>
<glyph glyph-name="Ohorn" horiz-adv-x="1648" unicode="" d="M290 717q0 -111 42 -208t114.5 -169.5t169.5 -114.5t208 -42t208 42t169.5 114.5t114.5 169.5t42 208t-42 208t-114.5 169.5t-169.5 114.5t-208 42t-208 -42t-169.5 -114.5t-114.5 -169.5t-42 -208zM92 717q0 101 26 194.5t74 175t114.5 148t148 114.5t174.5 74 q94 26 195 26t194 -26q94 -26 175 -74q77 -46 141 -107q38 8 66 32.5t30 61.5l-4 26q-6 20 -9.5 39.5t-3.5 34.5q0 35 20.5 63.5t46.5 49.5l21 21q18 -26 34 -57.5t27 -63.5t17.5 -62.5t6.5 -53.5q0 -85 -37 -144t-101 -91l8 -12q48 -81 74 -175q26 -93 26 -194t-26 -194.5 t-74 -175t-114.5 -148t-148 -114.5t-175.5 -74q-93 -26 -194 -26q-152 0 -285 57.5t-232.5 157t-157 232.5t-57.5 285z"/>
<glyph glyph-name="ohorn" horiz-adv-x="1241" unicode="" d="M265 525q0 -72 27.5 -135t74.5 -110t110 -75q63 -27 135 -27t135 27.5t110 74.5t74 110q28 63 28 135t-27.5 135t-74.5 110t-110 74q-63 28 -135 28t-135 -27.5t-110 -74.5t-74.5 -110t-27.5 -135zM72 525q0 111 42.5 209.5t116 172t171.5 115.5q99 43 210 43t209 -43 q99 -42 172 -116q17 -16 32 -34q38 8 66 32.5t30 61.5l-4 26q-6 20 -9.5 39.5t-3.5 34.5q0 35 20.5 63.5t46.5 49.5l21 21q18 -26 34 -57.5t27 -63.5t17.5 -62.5t6.5 -53.5q0 -93 -43 -154.5t-118 -90.5q36 -91 36 -193q0 -111 -42.5 -209.5t-116 -172t-172.5 -116.5 q-98 -42 -209 -42t-209.5 42.5t-172 116t-116 172t-42.5 209.5z"/>
<glyph glyph-name="Uhorn" horiz-adv-x="1538" unicode="" d="M353 560q59 -216 110.5 -267.5t120.5 -81.5q69 -29 147 -29t147 29.5t120.5 81t80.5 120.5q30 69 30 147v873h199v-192q39 8 68.5 32.5t31.5 62.5l-4 26q-6 20 -9.5 39.5t-3.5 34.5q0 35 20.5 63.5t46.5 49.5l21 21q18 -26 34 -57.5t27 -63.5t17.5 -62.5t6.5 -53.5 q0 -94 -44 -155.5t-119 -90.5l-7 -1l-6 -2q-15 -5 -39 -10t-41 -9v-505q0 -80 -20.5 -153.5t-58 -137.5t-90.5 -116.5t-117 -90t-138 -58.5q-73 -20 -153 -20q-79 0 -152.5 20.5t-137.5 58t-117 90t-90.5 116.5t-58.5 138q-20 74 -20 153v873h198v-873z"/>
<glyph glyph-name="uhorn" horiz-adv-x="1244" unicode="" d="M1107 714q-15 -5 -38.5 -10t-40.5 -9v-678h-168l-5 6q-4 7 -9.5 18t-10.5 26q-5 16 -5 34v43q-18 -36 -50 -62.5t-72 -44t-87 -26.5q-46 -9 -94 -9q-89 0 -161.5 33t-124 94t-80.5 147q-28 87 -28 194v597h198v-597q0 -131 48 -206q48 -74 148 -74q60 0 113.5 14.5 t95 39.5t66.5 58t28 69v696h198v-196q19 4 36.5 12t31 20.5t22 28t9.5 34.5l-4 26q-6 20 -9.5 39.5t-3.5 34.5q0 35 20.5 63.5t46.5 49.5l21 21q18 -26 34 -57.5t27 -63.5t17.5 -62.5t6.5 -53.5q0 -94 -44 -155.5t-119 -90.5l-7 -1z"/>
<glyph glyph-name="AEacute" horiz-adv-x="2006" unicode="" d="M816 1117l-317 -599h559l-205 599q-11 33 -11 71q0 5 0.5 8.5t0.5 8.5q-7 -50 -27 -88zM1911 0h-574q-47 0 -82.5 24.5t-50.5 67.5l-79 228h-732l-120 -228q-23 -42 -63.5 -67t-87.5 -25h-116l759 1433h1146v-198h-883l142 -413h610v-198h-543l146 -426h528v-198z M965 1588q-32 -44 -115 -44h-74q111 183 122 194q32 44 115 44h114z"/>
<glyph glyph-name="aeacute" horiz-adv-x="1875" unicode="" d="M1039 657h558q-20 47 -47.5 86.5t-63.5 68t-81 44.5t-99 16q-64 0 -117.5 -18.5t-96 -51.5t-72.5 -78.5t-46 -99.5q8 11 24 22t41 11zM457 175q43 0 91.5 10.5t96 27t92.5 37.5t82 42q-15 32 -25.5 65.5t-17.5 68.5l-4 11q-3 1 -20.5 3.5t-43 5t-57 4.5t-64.5 2 q-62 0 -117 -8t-96.5 -26t-65.5 -46.5t-24 -69.5q0 -35 14 -59t38 -39t55.5 -22t65.5 -7zM1802 614q0 -35 -13.5 -62.5t-33.5 -47t-44.5 -30t-46.5 -10.5h-622q-26 0 -48 -7.5t-22 -27.5l1 -6q15 -53 47.5 -98t76.5 -77.5t97.5 -51t111.5 -18.5q46 0 88.5 11.5t80.5 32.5 q20 11 39 16t42 5q32 0 58 -12t49 -35l38 -38q-75 -80 -176 -126.5t-219 -46.5q-107 0 -201.5 38.5t-166.5 106.5q-7 7 -14.5 18.5t-9.5 14.5q1 -3 3.5 -13t2.5 -20q0 -5 -1 -9.5t-5 -6.5l-9 -5q-40 -23 -90 -45t-107.5 -39.5t-120.5 -28.5t-129 -11q-79 0 -146 22.5 t-115.5 64t-75.5 100t-27 130.5q0 78 30.5 140.5t92 107t153.5 68.5t215 24q30 0 60.5 -1.5t57 -3.5t46.5 -4t29 -3q1 0 2 2q2 4 2 17q-6 67 -26.5 111t-50.5 69.5t-67 35.5t-77 10q-49 0 -77 -8.5t-49.5 -19t-42.5 -19t-56 -8.5q-54 0 -97 35l-57 41q10 15 24 30 q12 13 30 28.5t42 31.5q60 38 129 58.5t154 20.5q128 0 212.5 -44.5t128.5 -119.5v-2q0 -1 0.5 -1.5t0.5 -2.5q0 -4 -1 -7l-8 -20l26 33q73 79 173 121.5t213 42.5q93 0 173.5 -31t144 -85t108 -128t66.5 -161q3 -11 3.5 -23t0.5 -23zM1027 1205q-33 -44 -115 -44h-74 q130 232 142 244q32 44 115 44h114z"/>
<glyph glyph-name="Oslashacute" horiz-adv-x="1648" unicode="" d="M824 183q111 0 208 42t169.5 114.5t114.5 169.5t42 208q0 116 -45.5 216.5t-124.5 173.5l-628 -855q59 -33 125.5 -51t138.5 -18zM290 717q0 -118 47 -220t128 -176l628 857q-60 35 -127.5 54t-141.5 19q-111 0 -208 -42t-169.5 -114.5t-114.5 -169.5t-42 -208zM92 717 q0 101 26 194.5t74 175t114.5 148t148 114.5t175 74t194.5 26q107 0 204.5 -29t182.5 -82l80 110q19 27 35.5 38.5t48.5 11.5h100l-169 -231q57 -50 103.5 -111.5t79 -131.5t50 -147.5t17.5 -159.5q0 -101 -26 -194.5t-74 -175t-114.5 -148t-148 -114.5t-175 -74t-194.5 -26 q-106 0 -201.5 28t-179.5 79l-107 -146q-22 -29 -51 -42t-58 -13h-78l198 270q-59 51 -106 113t-80 132.5t-51 149t-18 161.5zM837 1588q-32 -44 -115 -44h-74q111 183 122 194q32 44 115 44h114z"/>
<glyph glyph-name="oslashacute" horiz-adv-x="1226" unicode="" d="M616 1205q-33 -44 -115 -44h-74q130 232 142 244q32 44 115 44h114zM265 525q0 -72 27.5 -135t74.5 -110l6 -6l406 555q-15 9 -32 15q-63 28 -135 28t-135 -27.5t-110 -74.5t-74.5 -110t-27.5 -135zM72 525q0 111 42.5 209.5t116 172t172 116t209.5 42.5q112 -1 210 -43 q38 -16 72 -37l89 122q19 27 35.5 38.5t48.5 11.5h100l-179 -245l6 -6q74 -74 116 -172t42 -209t-42.5 -209.5t-116 -172t-172 -116t-209.5 -42.5q-112 1 -210 43q-24 10 -47 22l-76 -104q-22 -29 -51 -42t-58 -13h-78l166 227q-14 12 -28 26q-74 74 -116 172t-42 209z M471 208q3 0 6 -2q63 -28 135 -28t135 27.5t110 74.5t74.5 110t27.5 135q1 72 -27 135q-23 53 -60 94z"/>
<glyph glyph-name="Scommaaccent" horiz-adv-x="1065" unicode="" d="M698 1189q-39 28 -79 44.5t-75 16.5q-47 0 -88.5 -13t-73 -36t-50 -54.5t-18.5 -68.5q0 -43 14 -73t45 -53.5t80.5 -44.5t120.5 -45q35 -14 70.5 -26.5t69.5 -27t67 -31.5t63 -40q151 -115 151 -310q0 -98 -40 -179t-108 -139.5t-157 -91t-186 -32.5q-193 0 -323 115 q-26 23 -46 46.5t-34.5 45.5t-24.5 40t-16 30l48 25q38 23 79 23q65 0 110 -47l16 -13q38 -32 84.5 -49.5t106.5 -17.5q49 0 101 16t94.5 46.5t70 76t27.5 105.5q0 58 -26 96t-67.5 65t-93 46t-101.5 39q-74 29 -144.5 60t-126 75.5t-89 109t-33.5 160.5q0 88 36.5 157 t96.5 116.5t137 72.5t158 25q59 0 117 -20t109 -51t92 -68t68 -70l-51 -38q-42 -36 -97 -36q-47 0 -84 23zM435 -78h78q32 0 51 -17.5t19 -49.5q0 -5 -0.5 -9.5t-1.5 -9.5l-20 -129q-5 -30 -27.5 -49.5t-53.5 -19.5h-45v284z"/>
<glyph glyph-name="scommaaccent" horiz-adv-x="852" unicode="" d="M116 225q20 10 39.5 16.5t39.5 6.5q26 0 49.5 -10t56.5 -33q23 -16 50 -23t56 -7q31 0 61.5 9.5t54.5 28t39 45.5t15 63q0 28 -8.5 48t-29.5 36.5t-56.5 32t-88.5 33.5q-55 19 -108.5 43.5t-95.5 59.5t-68 85t-26 120q0 61 28 113.5t73.5 90.5t103.5 60t118 22 q61 0 111.5 -22t87 -50t58 -53t26.5 -31l-47 -40q-42 -36 -98 -36q-20 0 -42.5 8.5t-52.5 23.5q-20 10 -43 10q-39 0 -64.5 -11t-41 -26.5t-21.5 -32t-6 -26.5q0 -29 15 -48.5t39 -34t54.5 -25.5t61.5 -21q60 -20 116 -46t99.5 -64t69.5 -91.5t26 -127.5q0 -68 -26.5 -128.5 t-74.5 -107t-114 -73.5t-145 -27q-54 0 -105.5 14.5t-96.5 42.5t-81.5 67t-61.5 89zM352 -130h78q32 0 51 -17.5t19 -49.5q0 -5 -0.5 -9.5t-1.5 -9.5l-20 -129q-5 -30 -27 -49.5t-54 -19.5h-45v284z"/>
<glyph glyph-name="circumflex" d="M200 1205q-32 -44 -115 -44h-74q76 117 116.5 178t45.5 66q32 44 115 44h27q83 0 115 -44q5 -5 45.5 -66t116.5 -178h-74q-83 0 -115 44l-92 113q-5 5 -7.5 13t-2.5 10q-1 -3 -3 -10.5t-6 -12.5z" unicode=""/>
<glyph glyph-name="caron" d="M292 1292q4 -7 6 -14.5t3 -9.5q0 2 2.5 10t7.5 14l92 113q32 44 115 44h74q-76 -117 -116.5 -178t-45.5 -66q-32 -44 -115 -44h-27q-83 0 -115 44q-5 5 -45.5 66t-116.5 178h74q83 0 115 -44z" unicode=""/>
<glyph glyph-name="uni02C9" d="M30 1348h554v-148h-554v148z" unicode=""/>
<glyph glyph-name="breve" d="M583 1421q0 -57 -22 -106t-59.5 -85t-88 -56t-107.5 -20t-107.5 20t-88 56t-59.5 85t-22 106h52q29 0 53.5 -16.5t33.5 -44.5q19 -37 55.5 -58.5t82.5 -21.5q45 0 82 21.5t55 58.5q11 29 35 45t53 16h52z" unicode=""/>
<glyph glyph-name="dotaccent" d="M171 1287q0 28 10.5 52.5t28.5 42.5t42.5 28.5t52.5 10.5t52.5 -10.5t42.5 -28.5t28.5 -42.5t10.5 -52.5t-10.5 -52.5t-28.5 -42.5t-42.5 -28.5t-52.5 -10.5t-52.5 10.5t-42.5 28.5t-28.5 42.5t-10.5 52.5z" unicode=""/>
<glyph glyph-name="ring" d="M232 1317q0 -32 21.5 -53.5t53.5 -21.5t53.5 21.5t21.5 53.5t-21.5 53.5t-53.5 21.5t-53.5 -21.5t-21.5 -53.5zM121 1317q0 39 14.5 72.5t40 59t59 40t72.5 14.5t72.5 -14.5t59 -40t40 -59t14.5 -72.5t-14.5 -72.5t-40 -59t-59 -40t-72.5 -14.5t-72.5 14.5t-59 40t-40 59 t-14.5 72.5z" unicode=""/>
<glyph glyph-name="ogonek" d="M381 1q-21 -12 -42 -27.5t-37.5 -33.5t-27 -38.5t-10.5 -42.5q0 -42 29.5 -64.5t79.5 -22.5q18 0 37.5 2.5t39.5 2.5q21 -1 40.5 -7.5t30.5 -27.5l14 -29q-35 -25 -90 -40.5t-115 -15.5q-105 0 -164.5 42.5t-59.5 112.5q0 28 12.5 55.5t34.5 52.5t51 48t62 43z" unicode=""/>
<glyph glyph-name="tilde" d="M426 1201q-38 0 -73 14t-66.5 31t-57 31t-43.5 14q-16 0 -25.5 -9.5t-15 -23.5t-6.5 -24t-2 -10q-44 -19 -73 -21.5t-57 -0.5v10q0 42 12 79.5t35 66.5t56 46t76 17q34 0 67 -14t63.5 -31t58.5 -31t51 -14q18 0 29 7t17 18t7.5 21t2.5 10q30 23 62 26q12 1 25 1 q21 0 42 -3q-4 -48 -13 -87t-29.5 -66t-54.5 -42t-88 -15z" unicode=""/>
<glyph glyph-name="hungarumlaut" d="M508 1205q-32 -44 -115 -44h-64l172 244q32 44 115 44h104zM263 1205q-33 -44 -115 -44h-54q130 232 142 244q32 44 115 44h94z" unicode=""/>
<glyph glyph-name="gravecomb" d="M87 1449h114q83 0 115 -44q11 -12 142 -244h-74q-83 0 -115 44z" unicode=""/>
<glyph glyph-name="acutecomb" d="M276 1205q-33 -44 -115 -44h-74q130 232 142 244q32 44 115 44h114z" unicode=""/>
<glyph glyph-name="uni0302" d="M200 1205q-32 -44 -115 -44h-74q76 117 116.5 178t45.5 66q32 44 115 44h27q83 0 115 -44q5 -5 45.5 -66t116.5 -178h-74q-83 0 -115 44l-92 113q-5 5 -7.5 13t-2.5 10q-1 -3 -3 -10.5t-6 -12.5z" unicode=""/>
<glyph glyph-name="tildecomb" d="M426 1201q-38 0 -73 14t-66.5 31t-57 31t-43.5 14q-16 0 -25.5 -9.5t-15 -23.5t-6.5 -24t-2 -10q-44 -19 -73 -21.5t-57 -0.5v10q0 42 12 79.5t35 66.5t56 46t76 17q34 0 67 -14t63.5 -31t58.5 -31t51 -14q18 0 29 7t17 18t7.5 21t2.5 10q30 23 62 26q12 1 25 1 q21 0 42 -3q-4 -48 -13 -87t-29.5 -66t-54.5 -42t-88 -15z" unicode=""/>
<glyph glyph-name="uni0306" d="M583 1421q0 -57 -22 -106t-59.5 -85t-88 -56t-107.5 -20t-107.5 20t-88 56t-59.5 85t-22 106h52q29 0 53.5 -16.5t33.5 -44.5q19 -37 55.5 -58.5t82.5 -21.5q45 0 82 21.5t55 58.5q11 29 35 45t53 16h52z" unicode=""/>
<glyph glyph-name="hookabovecomb" horiz-adv-x="0" unicode="" d="M49 1414q0 95 50.5 141.5t156.5 46.5q82 0 135 -42.5t54 -128.5q0 -39 -10.5 -64.5t-26.5 -41.5t-35 -25t-36 -15q-19 -5 -25.5 -13t-7.5 -36q0 -5 -6 -12.5t-22 -14.5q-14 -7 -40 -11q-14 -2 -32 -1q-15 0 -33 1q0 48 5.5 80.5t19 54t36 34.5t55.5 22q11 3 20.5 13 t9.5 29q0 28 -21.5 39.5t-52.5 11.5q-19 0 -37.5 -7.5t-26.5 -30.5q-2 -4 -13.5 -12t-29.5 -15.5t-40.5 -12.5t-45.5 -3z"/>
<glyph glyph-name="dotbelowcomb" d="M167 -271q0 28 10.5 52.5t28.5 42.5t42.5 28.5t52.5 10.5t52.5 -10.5t42.5 -28.5t28.5 -42.5t10.5 -52.5t-10.5 -52.5t-28.5 -42.5t-42.5 -28.5t-52.5 -10.5t-52.5 10.5t-42.5 28.5t-28.5 42.5t-10.5 52.5z" unicode=""/>
<glyph glyph-name="pi" horiz-adv-x="1310" unicode="" d="M57 853v198h1086v-198h-186l-15 -120t-16.5 -153t-13 -163.5t-5.5 -151.5q0 -16 1.5 -32t7 -29.5t16 -22t28.5 -8.5l6 1q43 12 75 12q41 0 72 -21t52 -52l-6 -35q-37 -37 -89.5 -65t-109.5 -28q-63 0 -110 21t-78.5 58t-47 88.5t-15.5 112.5q0 43 2.5 94.5t7 106 t10 109.5t11 106t11 95.5t9.5 76.5h-341v-853h-198v853h-164z"/>
<glyph glyph-name="Wgrave" horiz-adv-x="1993" unicode="" d="M1028 612q-2 -2 -267 -612h-193l-625 1433h114q46 0 86 -25t56 -67l447 -1025q17 -39 18 -88q3 50 19 88l447 1025q18 42 57 67t85 25h114l-281 -645l206 -472q8 -19 12 -41.5t6 -48.5q3 54 19 90l447 1025q18 42 57 67t85 25h114l-625 -1433h-193l-185 425 q-31 71 -31 127q0 32 11 60zM693 1782h114q83 0 115 -44q11 -11 122 -194h-74q-83 0 -115 44z"/>
<glyph glyph-name="wgrave" horiz-adv-x="1721" unicode="" d="M892 612q-2 -2 -267 -612h-193l-458 1050h114q46 0 86 -25t56 -67l280 -642q9 -20 12.5 -44.5t5.5 -52.5q2 58 19 97l280 643q18 42 57 67t85 25h114l-115 -263l207 -472q7 -19 11.5 -40.5t6.5 -47.5q3 52 19 88l280 643q18 42 57 67t85 25h114l-458 -1051h-193l-185 425 q-31 71 -31 127q0 32 11 60zM568 1449h114q83 0 115 -44q11 -12 142 -244h-74q-83 0 -115 44z"/>
<glyph glyph-name="Wacute" horiz-adv-x="1993" unicode="" d="M1028 612q-2 -2 -267 -612h-193l-625 1433h114q46 0 86 -25t56 -67l447 -1025q17 -39 18 -88q3 50 19 88l447 1025q18 42 57 67t85 25h114l-281 -645l206 -472q8 -19 12 -41.5t6 -48.5q3 54 19 90l447 1025q18 42 57 67t85 25h114l-625 -1433h-193l-185 425 q-31 71 -31 127q0 32 11 60zM1062 1588q-32 -44 -115 -44h-74q111 183 122 194q32 44 115 44h114z"/>
<glyph glyph-name="wacute" horiz-adv-x="1721" unicode="" d="M892 612q-2 -2 -267 -612h-193l-458 1050h114q46 0 86 -25t56 -67l280 -642q9 -20 12.5 -44.5t5.5 -52.5q2 58 19 97l280 643q18 42 57 67t85 25h114l-115 -263l207 -472q7 -19 11.5 -40.5t6.5 -47.5q3 52 19 88l280 643q18 42 57 67t85 25h114l-458 -1051h-193l-185 425 q-31 71 -31 127q0 32 11 60zM930 1205q-33 -44 -115 -44h-74q130 232 142 244q32 44 115 44h114z"/>
<glyph glyph-name="Wdieresis" horiz-adv-x="1993" unicode="" d="M1028 612q-2 -2 -267 -612h-193l-625 1433h114q46 0 86 -25t56 -67l447 -1025q17 -39 18 -88q3 50 19 88l447 1025q18 42 57 67t85 25h114l-281 -645l206 -472q8 -19 12 -41.5t6 -48.5q3 54 19 90l447 1025q18 42 57 67t85 25h114l-625 -1433h-193l-185 425 q-31 71 -31 127q0 32 11 60zM1049 1655q0 25 9.5 46.5t25.5 38t37.5 26t46.5 9.5t46.5 -9.5t38 -26t26 -38t9.5 -46.5t-9.5 -46.5t-26 -37.5t-38 -25.5t-46.5 -9.5t-46.5 9.5t-37.5 25.5t-25.5 37.5t-9.5 46.5zM710 1655q0 25 9.5 46.5t25.5 38t37.5 26t46.5 9.5t46.5 -9.5 t38 -26t26 -38t9.5 -46.5t-9.5 -46.5t-26 -37.5t-38 -25.5t-46.5 -9.5t-46.5 9.5t-37.5 25.5t-25.5 37.5t-9.5 46.5z"/>
<glyph glyph-name="wdieresis" horiz-adv-x="1721" unicode="" d="M892 612q-2 -2 -267 -612h-193l-458 1050h114q46 0 86 -25t56 -67l280 -642q9 -20 12.5 -44.5t5.5 -52.5q2 58 19 97l280 643q18 42 57 67t85 25h114l-115 -263l207 -472q7 -19 11.5 -40.5t6.5 -47.5q3 52 19 88l280 643q18 42 57 67t85 25h114l-458 -1051h-193l-185 425 q-31 71 -31 127q0 32 11 60zM910 1290q0 25 9.5 46.5t25.5 38t37.5 26t46.5 9.5t46.5 -9.5t38 -26t26 -38t9.5 -46.5t-9.5 -46.5t-26 -37.5t-38 -25.5t-46.5 -9.5t-46.5 9.5t-37.5 25.5t-25.5 37.5t-9.5 46.5zM571 1290q0 25 9.5 46.5t25.5 38t37.5 26t46.5 9.5t46.5 -9.5 t38 -26t26 -38t9.5 -46.5t-9.5 -46.5t-26 -37.5t-38 -25.5t-46.5 -9.5t-46.5 9.5t-37.5 25.5t-25.5 37.5t-9.5 46.5z"/>
<glyph glyph-name="uni1EA0" horiz-adv-x="1373" unicode="" d="M665 1117l-261 -599h559l-261 599q-16 35 -19 85q-2 -25 -6.5 -46t-11.5 -39zM587 1433h193l625 -1433h-114q-47 0 -85 24.5t-57 67.5l-100 228h-732l-99 -228q-18 -42 -56.5 -67t-85.5 -25h-114zM554 -289q0 28 10.5 52.5t28.5 42.5t42.5 28.5t52.5 10.5t52.5 -10.5 t42.5 -28.5t28.5 -42.5t10.5 -52.5t-10.5 -52.5t-28.5 -42.5t-42.5 -28.5t-52.5 -10.5t-52.5 10.5t-42.5 28.5t-28.5 42.5t-10.5 52.5z"/>
<glyph glyph-name="uni1EA1" horiz-adv-x="1079" unicode="" d="M449 175q35 0 75 7t81 19.5t81.5 30t77.5 39.5v176q-3 1 -20.5 1.5t-43 1.5t-57 1.5t-64.5 0.5q-62 0 -115.5 -8t-93 -26t-62 -46.5t-22.5 -69.5q0 -35 12.5 -59t34.5 -39t52 -22t64 -7zM169 896q10 15 24 30q12 13 30 28.5t42 31.5q60 38 129 58.5t154 20.5 q86 0 150 -21t109.5 -58.5t74 -88.5t45 -111.5t22.5 -127t6 -134.5v-524h-162q-13 16 -21.5 38.5t-8.5 45.5v27q-28 -28 -67.5 -51t-82 -39.5t-85.5 -26t-78 -9.5q-79 0 -144.5 22.5t-112 64t-72 100t-25.5 130.5q0 78 29 140.5t88.5 107t150 68.5t213.5 24q34 0 65.5 -2 t56.5 -4t41.5 -4t20.5 -3q-4 74 -22.5 122t-47.5 75.5t-66 38t-77 10.5q-49 0 -77 -8.5t-49.5 -19t-42.5 -19t-56 -8.5q-27 0 -50.5 9t-46.5 26zM395 -271q0 28 10.5 52.5t28.5 42.5t42.5 28.5t52.5 10.5t52.5 -10.5t42.5 -28.5t28.5 -42.5t10.5 -52.5t-10.5 -52.5 t-28.5 -42.5t-42.5 -28.5t-52.5 -10.5t-52.5 10.5t-42.5 28.5t-28.5 42.5t-10.5 52.5z"/>
<glyph glyph-name="uni1EA2" horiz-adv-x="1373" unicode="" d="M665 1117l-261 -599h559l-261 599q-16 35 -19 85q-2 -25 -6.5 -46t-11.5 -39zM587 1433h193l625 -1433h-114q-47 0 -85 24.5t-57 67.5l-100 228h-732l-99 -228q-18 -42 -56.5 -67t-85.5 -25h-114zM492 1762q0 95 50.5 141.5t156.5 46.5q82 0 135 -42.5t54 -128.5 q0 -39 -10.5 -64.5t-26.5 -41.5t-35 -25t-36 -15q-19 -5 -25.5 -13t-7.5 -36q0 -5 -6 -12.5t-22 -14.5q-14 -7 -40 -11q-14 -2 -32 -1q-15 0 -33 1q0 48 5.5 80.5t19 54t36 34.5t55.5 22q11 3 20.5 13t9.5 29q0 28 -21.5 39.5t-52.5 11.5q-19 0 -37.5 -7.5t-26.5 -30.5 q-2 -4 -13.5 -12t-29.5 -15.5t-40.5 -12.5t-45.5 -3z"/>
<glyph glyph-name="uni1EA3" horiz-adv-x="1079" unicode="" d="M449 175q35 0 75 7t81 19.5t81.5 30t77.5 39.5v176q-3 1 -20.5 1.5t-43 1.5t-57 1.5t-64.5 0.5q-62 0 -115.5 -8t-93 -26t-62 -46.5t-22.5 -69.5q0 -35 12.5 -59t34.5 -39t52 -22t64 -7zM169 896q10 15 24 30q12 13 30 28.5t42 31.5q60 38 129 58.5t154 20.5 q86 0 150 -21t109.5 -58.5t74 -88.5t45 -111.5t22.5 -127t6 -134.5v-524h-162q-13 16 -21.5 38.5t-8.5 45.5v27q-28 -28 -67.5 -51t-82 -39.5t-85.5 -26t-78 -9.5q-79 0 -144.5 22.5t-112 64t-72 100t-25.5 130.5q0 78 29 140.5t88.5 107t150 68.5t213.5 24q34 0 65.5 -2 t56.5 -4t41.5 -4t20.5 -3q-4 74 -22.5 122t-47.5 75.5t-66 38t-77 10.5q-49 0 -77 -8.5t-49.5 -19t-42.5 -19t-56 -8.5q-27 0 -50.5 9t-46.5 26zM339 1382q0 95 50.5 141.5t156.5 46.5q82 0 135 -42.5t54 -128.5q0 -39 -10.5 -64.5t-26.5 -41.5t-35 -25t-36 -15 q-19 -5 -25.5 -13t-7.5 -36q0 -5 -6 -12.5t-22 -14.5q-14 -7 -40 -11q-14 -2 -32 -1q-15 0 -33 1q0 48 5.5 80.5t19 54t36 34.5t55.5 22q11 3 20.5 13t9.5 29q0 28 -21.5 39.5t-52.5 11.5q-19 0 -37.5 -7.5t-26.5 -30.5q-2 -4 -13.5 -12t-29.5 -15.5t-40.5 -12.5t-45.5 -3z "/>
<glyph glyph-name="uni1EA4" horiz-adv-x="1373" unicode="" d="M665 1117l-261 -599h559l-261 599q-16 35 -19 85q-2 -25 -6.5 -46t-11.5 -39zM587 1433h193l625 -1433h-114q-47 0 -85 24.5t-57 67.5l-100 228h-732l-99 -228q-18 -42 -56.5 -67t-85.5 -25h-114zM595 1589q-42 -44 -115 -44h-74l162 204q32 44 115 44h27q83 0 115 -44 l162 -204h-74h-6q-34 0 -60 11q-28 12 -49 33l-92 93q-5 5 -7.5 13t-2.5 10q-1 -3 -3 -10.5t-6 -12.5zM1020 1836q-32 -44 -115 -44h-74q111 183 122 194q32 44 115 44h114z"/>
<glyph glyph-name="uni1EA5" horiz-adv-x="1079" unicode="" d="M449 175q35 0 75 7t81 19.5t81.5 30t77.5 39.5v176q-3 1 -20.5 1.5t-43 1.5t-57 1.5t-64.5 0.5q-62 0 -115.5 -8t-93 -26t-62 -46.5t-22.5 -69.5q0 -35 12.5 -59t34.5 -39t52 -22t64 -7zM169 896q10 15 24 30q12 13 30 28.5t42 31.5q60 38 129 58.5t154 20.5 q86 0 150 -21t109.5 -58.5t74 -88.5t45 -111.5t22.5 -127t6 -134.5v-524h-162q-13 16 -21.5 38.5t-8.5 45.5v27q-28 -28 -67.5 -51t-82 -39.5t-85.5 -26t-78 -9.5q-79 0 -144.5 22.5t-112 64t-72 100t-25.5 130.5q0 78 29 140.5t88.5 107t150 68.5t213.5 24q34 0 65.5 -2 t56.5 -4t41.5 -4t20.5 -3q-4 74 -22.5 122t-47.5 75.5t-66 38t-77 10.5q-49 0 -77 -8.5t-49.5 -19t-42.5 -19t-56 -8.5q-27 0 -50.5 9t-46.5 26zM885 1477q-33 -44 -115 -44h-74q130 232 142 244q32 44 115 44h114zM437 1205q-32 -44 -115 -44h-74q76 117 116.5 178t45.5 66 q32 44 115 44h27q83 0 115 -44q5 -5 45.5 -66t116.5 -178h-74q-83 0 -115 44l-92 113q-5 5 -7.5 13t-2.5 10q-1 -3 -3 -10.5t-6 -12.5z"/>
<glyph glyph-name="uni1EA6" horiz-adv-x="1373" unicode="" d="M665 1117l-261 -599h559l-261 599q-16 35 -19 85q-2 -25 -6.5 -46t-11.5 -39zM587 1433h193l625 -1433h-114q-47 0 -85 24.5t-57 67.5l-100 228h-732l-99 -228q-18 -42 -56.5 -67t-85.5 -25h-114zM594 1589q-42 -44 -115 -44h-74l162 204q32 44 115 44h27q83 0 115 -44 l162 -204h-74h-6q-34 0 -60 11q-28 12 -49 33l-92 93q-5 5 -7.5 13t-2.5 10q-1 -3 -3 -10.5t-6 -12.5zM674 2033h114q83 0 115 -44q11 -11 122 -194h-74q-83 0 -115 44z"/>
<glyph glyph-name="uni1EA7" horiz-adv-x="1079" unicode="" d="M449 175q35 0 75 7t81 19.5t81.5 30t77.5 39.5v176q-3 1 -20.5 1.5t-43 1.5t-57 1.5t-64.5 0.5q-62 0 -115.5 -8t-93 -26t-62 -46.5t-22.5 -69.5q0 -35 12.5 -59t34.5 -39t52 -22t64 -7zM169 896q10 15 24 30q12 13 30 28.5t42 31.5q60 38 129 58.5t154 20.5 q86 0 150 -21t109.5 -58.5t74 -88.5t45 -111.5t22.5 -127t6 -134.5v-524h-162q-13 16 -21.5 38.5t-8.5 45.5v27q-28 -28 -67.5 -51t-82 -39.5t-85.5 -26t-78 -9.5q-79 0 -144.5 22.5t-112 64t-72 100t-25.5 130.5q0 78 29 140.5t88.5 107t150 68.5t213.5 24q34 0 65.5 -2 t56.5 -4t41.5 -4t20.5 -3q-4 74 -22.5 122t-47.5 75.5t-66 38t-77 10.5q-49 0 -77 -8.5t-49.5 -19t-42.5 -19t-56 -8.5q-27 0 -50.5 9t-46.5 26zM524 1719h114q83 0 115 -44q11 -12 142 -244h-74q-83 0 -115 44zM439 1205q-32 -44 -115 -44h-74q76 117 116.5 178t45.5 66 q32 44 115 44h27q83 0 115 -44q5 -5 45.5 -66t116.5 -178h-74q-83 0 -115 44l-92 113q-5 5 -7.5 13t-2.5 10q-1 -3 -3 -10.5t-6 -12.5z"/>
<glyph glyph-name="uni1EA8" horiz-adv-x="1373" unicode="" d="M665 1117l-261 -599h559l-261 599q-16 35 -19 85q-2 -25 -6.5 -46t-11.5 -39zM587 1433h193l625 -1433h-114q-47 0 -85 24.5t-57 67.5l-100 228h-732l-99 -228q-18 -42 -56.5 -67t-85.5 -25h-114zM591 1589q-42 -44 -115 -44h-74l162 204q32 44 115 44h27q83 0 115 -44 l162 -204h-74h-6q-34 0 -60 11q-28 12 -49 33l-92 93q-5 5 -7.5 13t-2.5 10q-1 -3 -3 -10.5t-6 -12.5zM762 1986q0 95 50.5 141.5t156.5 46.5q82 0 135 -42.5t54 -128.5q0 -39 -10.5 -64.5t-26.5 -41.5t-35 -25t-36 -15q-19 -5 -25.5 -13t-7.5 -36q0 -5 -6 -12.5t-22 -14.5 q-14 -7 -40 -11q-14 -2 -32 -1q-15 0 -33 1q0 48 5.5 80.5t19 54t36 34.5t55.5 22q11 3 20.5 13t9.5 29q0 28 -21.5 39.5t-52.5 11.5q-19 0 -37.5 -7.5t-26.5 -30.5q-2 -4 -13.5 -12t-29.5 -15.5t-40.5 -12.5t-45.5 -3z"/>
<glyph glyph-name="uni1EA9" horiz-adv-x="1079" unicode="" d="M449 175q35 0 75 7t81 19.5t81.5 30t77.5 39.5v176q-3 1 -20.5 1.5t-43 1.5t-57 1.5t-64.5 0.5q-62 0 -115.5 -8t-93 -26t-62 -46.5t-22.5 -69.5q0 -35 12.5 -59t34.5 -39t52 -22t64 -7zM169 896q10 15 24 30q12 13 30 28.5t42 31.5q60 38 129 58.5t154 20.5 q86 0 150 -21t109.5 -58.5t74 -88.5t45 -111.5t22.5 -127t6 -134.5v-524h-162q-13 16 -21.5 38.5t-8.5 45.5v27q-28 -28 -67.5 -51t-82 -39.5t-85.5 -26t-78 -9.5q-79 0 -144.5 22.5t-112 64t-72 100t-25.5 130.5q0 78 29 140.5t88.5 107t150 68.5t213.5 24q34 0 65.5 -2 t56.5 -4t41.5 -4t20.5 -3q-4 74 -22.5 122t-47.5 75.5t-66 38t-77 10.5q-49 0 -77 -8.5t-49.5 -19t-42.5 -19t-56 -8.5q-27 0 -50.5 9t-46.5 26zM616 1632q0 95 50.5 141.5t156.5 46.5q82 0 135 -42.5t54 -128.5q0 -39 -10.5 -64.5t-26.5 -41.5t-35 -25t-36 -15 q-19 -5 -25.5 -13t-7.5 -36q0 -5 -6 -12.5t-22 -14.5q-14 -7 -40 -11q-14 -2 -32 -1q-15 0 -33 1q0 48 5.5 80.5t19 54t36 34.5t55.5 22q11 3 20.5 13t9.5 29q0 28 -21.5 39.5t-52.5 11.5q-19 0 -37.5 -7.5t-26.5 -30.5q-2 -4 -13.5 -12t-29.5 -15.5t-40.5 -12.5t-45.5 -3z M440 1205q-32 -44 -115 -44h-74q76 117 116.5 178t45.5 66q32 44 115 44h27q83 0 115 -44q5 -5 45.5 -66t116.5 -178h-74q-83 0 -115 44l-92 113q-5 5 -7.5 13t-2.5 10q-1 -3 -3 -10.5t-6 -12.5z"/>
<glyph glyph-name="uni1EAA" horiz-adv-x="1373" unicode="" d="M665 1117l-261 -599h559l-261 599q-16 35 -19 85q-2 -25 -6.5 -46t-11.5 -39zM587 1433h193l625 -1433h-114q-47 0 -85 24.5t-57 67.5l-100 228h-732l-99 -228q-18 -42 -56.5 -67t-85.5 -25h-114zM597 1589q-42 -44 -115 -44h-74l162 204q32 44 115 44h27q83 0 115 -44 l162 -204h-74h-6q-34 0 -60 11q-28 12 -49 33l-92 93q-5 5 -7.5 13t-2.5 10q-1 -3 -3 -10.5t-6 -12.5zM825 1849q-38 0 -73 14t-66.5 31t-57 31t-43.5 14q-16 0 -25.5 -9.5t-15 -23.5t-6.5 -24t-2 -10q-44 -19 -73 -21.5t-57 -0.5v10q0 42 12 79.5t35 66.5t56 46t76 17 q34 0 67 -14t63.5 -31t58.5 -31t51 -14q18 0 29 7t17 18t7.5 21t2.5 10q30 23 62 26q12 1 25 1q21 0 42 -3q-4 -48 -13 -87t-29.5 -66t-54.5 -42t-88 -15z"/>
<glyph glyph-name="uni1EAB" horiz-adv-x="1079" unicode="" d="M449 175q35 0 75 7t81 19.5t81.5 30t77.5 39.5v176q-3 1 -20.5 1.5t-43 1.5t-57 1.5t-64.5 0.5q-62 0 -115.5 -8t-93 -26t-62 -46.5t-22.5 -69.5q0 -35 12.5 -59t34.5 -39t52 -22t64 -7zM169 896q10 15 24 30q12 13 30 28.5t42 31.5q60 38 129 58.5t154 20.5 q86 0 150 -21t109.5 -58.5t74 -88.5t45 -111.5t22.5 -127t6 -134.5v-524h-162q-13 16 -21.5 38.5t-8.5 45.5v27q-28 -28 -67.5 -51t-82 -39.5t-85.5 -26t-78 -9.5q-79 0 -144.5 22.5t-112 64t-72 100t-25.5 130.5q0 78 29 140.5t88.5 107t150 68.5t213.5 24q34 0 65.5 -2 t56.5 -4t41.5 -4t20.5 -3q-4 74 -22.5 122t-47.5 75.5t-66 38t-77 10.5q-49 0 -77 -8.5t-49.5 -19t-42.5 -19t-56 -8.5q-27 0 -50.5 9t-46.5 26zM440 1205q-32 -44 -115 -44h-74q76 117 116.5 178t45.5 66q32 44 115 44h27q83 0 115 -44q5 -5 45.5 -66t116.5 -178h-74 q-83 0 -115 44l-92 113q-5 5 -7.5 13t-2.5 10q-1 -3 -3 -10.5t-6 -12.5zM689 1498q-38 0 -73 14t-66.5 31t-57 31t-43.5 14q-16 0 -25.5 -9.5t-15 -23.5t-6.5 -24t-2 -10q-44 -19 -73 -21.5t-57 -0.5v10q0 42 12 79.5t35 66.5t56 46t76 17q34 0 67 -14t63.5 -31t58.5 -31 t51 -14q18 0 29 7t17 18t7.5 21t2.5 10q30 23 62 26q12 1 25 1q21 0 42 -3q-4 -48 -13 -87t-29.5 -66t-54.5 -42t-88 -15z"/>
<glyph glyph-name="uni1EAC" horiz-adv-x="1373" unicode="" d="M665 1117l-261 -599h559l-261 599q-16 35 -19 85q-2 -25 -6.5 -46t-11.5 -39zM587 1433h193l625 -1433h-114q-47 0 -85 24.5t-57 67.5l-100 228h-732l-99 -228q-18 -42 -56.5 -67t-85.5 -25h-114zM547 -271q0 28 10.5 52.5t28.5 42.5t42.5 28.5t52.5 10.5t52.5 -10.5 t42.5 -28.5t28.5 -42.5t10.5 -52.5t-10.5 -52.5t-28.5 -42.5t-42.5 -28.5t-52.5 -10.5t-52.5 10.5t-42.5 28.5t-28.5 42.5t-10.5 52.5zM588 1589q-42 -44 -115 -44h-74l162 204q32 44 115 44h27q83 0 115 -44l162 -204h-74h-6q-34 0 -60 11q-28 12 -49 33l-92 93 q-5 5 -7.5 13t-2.5 10q-1 -3 -3 -10.5t-6 -12.5z"/>
<glyph glyph-name="uni1EAD" horiz-adv-x="1079" unicode="" d="M449 175q35 0 75 7t81 19.5t81.5 30t77.5 39.5v176q-3 1 -20.5 1.5t-43 1.5t-57 1.5t-64.5 0.5q-62 0 -115.5 -8t-93 -26t-62 -46.5t-22.5 -69.5q0 -35 12.5 -59t34.5 -39t52 -22t64 -7zM169 896q10 15 24 30q12 13 30 28.5t42 31.5q60 38 129 58.5t154 20.5 q86 0 150 -21t109.5 -58.5t74 -88.5t45 -111.5t22.5 -127t6 -134.5v-524h-162q-13 16 -21.5 38.5t-8.5 45.5v27q-28 -28 -67.5 -51t-82 -39.5t-85.5 -26t-78 -9.5q-79 0 -144.5 22.5t-112 64t-72 100t-25.5 130.5q0 78 29 140.5t88.5 107t150 68.5t213.5 24q34 0 65.5 -2 t56.5 -4t41.5 -4t20.5 -3q-4 74 -22.5 122t-47.5 75.5t-66 38t-77 10.5q-49 0 -77 -8.5t-49.5 -19t-42.5 -19t-56 -8.5q-27 0 -50.5 9t-46.5 26zM422 1204q-32 -44 -115 -44h-74q76 117 116.5 178t45.5 66q32 44 115 44h27q83 0 115 -44q5 -5 45.5 -66t116.5 -178h-74 q-83 0 -115 44l-92 113q-5 5 -7.5 13t-2.5 10q-1 -3 -3 -10.5t-6 -12.5zM373 -271q0 28 10.5 52.5t28.5 42.5t42.5 28.5t52.5 10.5t52.5 -10.5t42.5 -28.5t28.5 -42.5t10.5 -52.5t-10.5 -52.5t-28.5 -42.5t-42.5 -28.5t-52.5 -10.5t-52.5 10.5t-42.5 28.5t-28.5 42.5 t-10.5 52.5z"/>
<glyph glyph-name="uni1EAE" horiz-adv-x="1373" unicode="" d="M665 1117l-261 -599h559l-261 599q-16 35 -19 85q-2 -25 -6.5 -46t-11.5 -39zM587 1433h193l625 -1433h-114q-47 0 -85 24.5t-57 67.5l-100 228h-732l-99 -228q-18 -42 -56.5 -67t-85.5 -25h-114zM956 1801q0 -57 -22 -104.5t-59.5 -81.5t-88 -52.5t-107.5 -18.5 t-107.5 18.5t-88 52.5t-59.5 81.5t-22 104.5h52q29 0 53.5 -16.5t33.5 -44.5q19 -37 55.5 -53.5t82.5 -16.5q45 0 82 16.5t55 53.5q11 29 35 45t53 16h52zM797 1914q-32 -44 -115 -44h-74q111 183 122 194q32 44 115 44h114z"/>
<glyph glyph-name="uni1EAF" horiz-adv-x="1079" unicode="" d="M449 175q35 0 75 7t81 19.5t81.5 30t77.5 39.5v176q-3 1 -20.5 1.5t-43 1.5t-57 1.5t-64.5 0.5q-62 0 -115.5 -8t-93 -26t-62 -46.5t-22.5 -69.5q0 -35 12.5 -59t34.5 -39t52 -22t64 -7zM169 896q10 15 24 30q12 13 30 28.5t42 31.5q60 38 129 58.5t154 20.5 q86 0 150 -21t109.5 -58.5t74 -88.5t45 -111.5t22.5 -127t6 -134.5v-524h-162q-13 16 -21.5 38.5t-8.5 45.5v27q-28 -28 -67.5 -51t-82 -39.5t-85.5 -26t-78 -9.5q-79 0 -144.5 22.5t-112 64t-72 100t-25.5 130.5q0 78 29 140.5t88.5 107t150 68.5t213.5 24q34 0 65.5 -2 t56.5 -4t41.5 -4t20.5 -3q-4 74 -22.5 122t-47.5 75.5t-66 38t-77 10.5q-49 0 -77 -8.5t-49.5 -19t-42.5 -19t-56 -8.5q-27 0 -50.5 9t-46.5 26zM814 1426q0 -57 -22 -106t-59.5 -85t-88 -56t-107.5 -20t-107.5 20t-88 56t-59.5 85t-22 106h52q29 0 53.5 -16.5t33.5 -44.5 q19 -37 55.5 -58.5t82.5 -21.5q45 0 82 21.5t55 58.5q11 29 35 45t53 16h52zM667 1539q-33 -44 -115 -44h-74q130 232 142 244q32 44 115 44h114z"/>
<glyph glyph-name="uni1EB0" horiz-adv-x="1373" unicode="" d="M665 1117l-261 -599h559l-261 599q-16 35 -19 85q-2 -25 -6.5 -46t-11.5 -39zM587 1433h193l625 -1433h-114q-47 0 -85 24.5t-57 67.5l-100 228h-732l-99 -228q-18 -42 -56.5 -67t-85.5 -25h-114zM969 1801q0 -57 -22 -104.5t-59.5 -81.5t-88 -52.5t-107.5 -18.5 t-107.5 18.5t-88 52.5t-59.5 81.5t-22 104.5h52q29 0 53.5 -16.5t33.5 -44.5q19 -37 55.5 -53.5t82.5 -16.5q45 0 82 16.5t55 53.5q11 29 35 45t53 16h52zM525 2078h114q83 0 115 -44q11 -11 122 -194h-74q-83 0 -115 44z"/>
<glyph glyph-name="uni1EB1" horiz-adv-x="1079" unicode="" d="M449 175q35 0 75 7t81 19.5t81.5 30t77.5 39.5v176q-3 1 -20.5 1.5t-43 1.5t-57 1.5t-64.5 0.5q-62 0 -115.5 -8t-93 -26t-62 -46.5t-22.5 -69.5q0 -35 12.5 -59t34.5 -39t52 -22t64 -7zM169 896q10 15 24 30q12 13 30 28.5t42 31.5q60 38 129 58.5t154 20.5 q86 0 150 -21t109.5 -58.5t74 -88.5t45 -111.5t22.5 -127t6 -134.5v-524h-162q-13 16 -21.5 38.5t-8.5 45.5v27q-28 -28 -67.5 -51t-82 -39.5t-85.5 -26t-78 -9.5q-79 0 -144.5 22.5t-112 64t-72 100t-25.5 130.5q0 78 29 140.5t88.5 107t150 68.5t213.5 24q34 0 65.5 -2 t56.5 -4t41.5 -4t20.5 -3q-4 74 -22.5 122t-47.5 75.5t-66 38t-77 10.5q-49 0 -77 -8.5t-49.5 -19t-42.5 -19t-56 -8.5q-27 0 -50.5 9t-46.5 26zM811 1426q0 -57 -22 -106t-59.5 -85t-88 -56t-107.5 -20t-107.5 20t-88 56t-59.5 85t-22 106h52q29 0 53.5 -16.5t33.5 -44.5 q19 -37 55.5 -58.5t82.5 -21.5q45 0 82 21.5t55 58.5q11 29 35 45t53 16h52zM331 1783h114q83 0 115 -44q11 -12 142 -244h-74q-83 0 -115 44z"/>
<glyph glyph-name="uni1EB2" horiz-adv-x="1373" unicode="" d="M665 1117l-261 -599h559l-261 599q-16 35 -19 85q-2 -25 -6.5 -46t-11.5 -39zM587 1433h193l625 -1433h-114q-47 0 -85 24.5t-57 67.5l-100 228h-732l-99 -228q-18 -42 -56.5 -67t-85.5 -25h-114zM961 1801q0 -57 -22 -104.5t-59.5 -81.5t-88 -52.5t-107.5 -18.5 t-107.5 18.5t-88 52.5t-59.5 81.5t-22 104.5h52q29 0 53.5 -16.5t33.5 -44.5q19 -37 55.5 -53.5t82.5 -16.5q45 0 82 16.5t55 53.5q11 29 35 45t53 16h52zM515 2015q0 95 50.5 141.5t156.5 46.5q82 0 135 -42.5t54 -128.5q0 -39 -10.5 -64.5t-26.5 -41.5t-35 -25t-36 -15 q-19 -5 -25.5 -13t-7.5 -36q0 -5 -6 -12.5t-22 -14.5q-14 -7 -40 -11q-14 -2 -32 -1q-15 0 -33 1q0 48 5.5 80.5t19 54t36 34.5t55.5 22q11 3 20.5 13t9.5 29q0 28 -21.5 39.5t-52.5 11.5q-19 0 -37.5 -7.5t-26.5 -30.5q-2 -4 -13.5 -12t-29.5 -15.5t-40.5 -12.5t-45.5 -3z "/>
<glyph glyph-name="uni1EB3" horiz-adv-x="1079" unicode="" d="M449 175q35 0 75 7t81 19.5t81.5 30t77.5 39.5v176q-3 1 -20.5 1.5t-43 1.5t-57 1.5t-64.5 0.5q-62 0 -115.5 -8t-93 -26t-62 -46.5t-22.5 -69.5q0 -35 12.5 -59t34.5 -39t52 -22t64 -7zM169 896q10 15 24 30q12 13 30 28.5t42 31.5q60 38 129 58.5t154 20.5 q86 0 150 -21t109.5 -58.5t74 -88.5t45 -111.5t22.5 -127t6 -134.5v-524h-162q-13 16 -21.5 38.5t-8.5 45.5v27q-28 -28 -67.5 -51t-82 -39.5t-85.5 -26t-78 -9.5q-79 0 -144.5 22.5t-112 64t-72 100t-25.5 130.5q0 78 29 140.5t88.5 107t150 68.5t213.5 24q34 0 65.5 -2 t56.5 -4t41.5 -4t20.5 -3q-4 74 -22.5 122t-47.5 75.5t-66 38t-77 10.5q-49 0 -77 -8.5t-49.5 -19t-42.5 -19t-56 -8.5q-27 0 -50.5 9t-46.5 26zM811 1417q0 -57 -22 -104.5t-59.5 -81.5t-88 -52.5t-107.5 -18.5t-107.5 18.5t-88 52.5t-59.5 81.5t-22 104.5h52 q29 0 53.5 -16.5t33.5 -44.5q19 -37 55.5 -53.5t82.5 -16.5q45 0 82 16.5t55 53.5q11 29 35 45t53 16h52zM365 1631q0 95 50.5 141.5t156.5 46.5q82 0 135 -42.5t54 -128.5q0 -39 -10.5 -64.5t-26.5 -41.5t-35 -25t-36 -15q-19 -5 -25.5 -13t-7.5 -36q0 -5 -6 -12.5 t-22 -14.5q-14 -7 -40 -11q-14 -2 -32 -1q-15 0 -33 1q0 48 5.5 80.5t19 54t36 34.5t55.5 22q11 3 20.5 13t9.5 29q0 28 -21.5 39.5t-52.5 11.5q-19 0 -37.5 -7.5t-26.5 -30.5q-2 -4 -13.5 -12t-29.5 -15.5t-40.5 -12.5t-45.5 -3z"/>
<glyph glyph-name="uni1EB4" horiz-adv-x="1373" unicode="" d="M665 1117l-261 -599h559l-261 599q-16 35 -19 85q-2 -25 -6.5 -46t-11.5 -39zM587 1433h193l625 -1433h-114q-47 0 -85 24.5t-57 67.5l-100 228h-732l-99 -228q-18 -42 -56.5 -67t-85.5 -25h-114zM956 1792q0 -57 -22 -104.5t-59.5 -81.5t-88 -52.5t-107.5 -18.5 t-107.5 18.5t-88 52.5t-59.5 81.5t-22 104.5h52q29 0 53.5 -16.5t33.5 -44.5q19 -37 55.5 -53.5t82.5 -16.5q45 0 82 16.5t55 53.5q11 29 35 45t53 16h52zM820 1865q-38 0 -73 14t-66.5 31t-57 31t-43.5 14q-16 0 -25.5 -9.5t-15 -23.5t-6.5 -24t-2 -10q-44 -19 -73 -21.5 t-57 -0.5v10q0 42 12 79.5t35 66.5t56 46t76 17q34 0 67 -14t63.5 -31t58.5 -31t51 -14q18 0 29 7t17 18t7.5 21t2.5 10q30 23 62 26q12 1 25 1q21 0 42 -3q-4 -48 -13 -87t-29.5 -66t-54.5 -42t-88 -15z"/>
<glyph glyph-name="uni1EB5" horiz-adv-x="1079" unicode="" d="M449 175q35 0 75 7t81 19.5t81.5 30t77.5 39.5v176q-3 1 -20.5 1.5t-43 1.5t-57 1.5t-64.5 0.5q-62 0 -115.5 -8t-93 -26t-62 -46.5t-22.5 -69.5q0 -35 12.5 -59t34.5 -39t52 -22t64 -7zM169 896q10 15 24 30q12 13 30 28.5t42 31.5q60 38 129 58.5t154 20.5 q86 0 150 -21t109.5 -58.5t74 -88.5t45 -111.5t22.5 -127t6 -134.5v-524h-162q-13 16 -21.5 38.5t-8.5 45.5v27q-28 -28 -67.5 -51t-82 -39.5t-85.5 -26t-78 -9.5q-79 0 -144.5 22.5t-112 64t-72 100t-25.5 130.5q0 78 29 140.5t88.5 107t150 68.5t213.5 24q34 0 65.5 -2 t56.5 -4t41.5 -4t20.5 -3q-4 74 -22.5 122t-47.5 75.5t-66 38t-77 10.5q-49 0 -77 -8.5t-49.5 -19t-42.5 -19t-56 -8.5q-27 0 -50.5 9t-46.5 26zM805 1426q0 -57 -22 -106t-59.5 -85t-88 -56t-107.5 -20t-107.5 20t-88 56t-59.5 85t-22 106h52q29 0 53.5 -16.5t33.5 -44.5 q19 -37 55.5 -58.5t82.5 -21.5q45 0 82 21.5t55 58.5q11 29 35 45t53 16h52zM672 1493q-38 0 -73 14t-66.5 31t-57 31t-43.5 14q-16 0 -25.5 -9.5t-15 -23.5t-6.5 -24t-2 -10q-44 -19 -73 -21.5t-57 -0.5v10q0 42 12 79.5t35 66.5t56 46t76 17q34 0 67 -14t63.5 -31 t58.5 -31t51 -14q18 0 29 7t17 18t7.5 21t2.5 10q30 23 62 26q12 1 25 1q21 0 42 -3q-4 -48 -13 -87t-29.5 -66t-54.5 -42t-88 -15z"/>
<glyph glyph-name="uni1EB6" horiz-adv-x="1373" unicode="" d="M665 1117l-261 -599h559l-261 599q-16 35 -19 85q-2 -25 -6.5 -46t-11.5 -39zM587 1433h193l625 -1433h-114q-47 0 -85 24.5t-57 67.5l-100 228h-732l-99 -228q-18 -42 -56.5 -67t-85.5 -25h-114zM551 -271q0 28 10.5 52.5t28.5 42.5t42.5 28.5t52.5 10.5t52.5 -10.5 t42.5 -28.5t28.5 -42.5t10.5 -52.5t-10.5 -52.5t-28.5 -42.5t-42.5 -28.5t-52.5 -10.5t-52.5 10.5t-42.5 28.5t-28.5 42.5t-10.5 52.5zM960 1797q0 -57 -22 -104.5t-59.5 -81.5t-88 -52.5t-107.5 -18.5t-107.5 18.5t-88 52.5t-59.5 81.5t-22 104.5h52q29 0 53.5 -16.5 t33.5 -44.5q19 -37 55.5 -53.5t82.5 -16.5q45 0 82 16.5t55 53.5q11 29 35 45t53 16h52z"/>
<glyph glyph-name="uni1EB7" horiz-adv-x="1079" unicode="" d="M449 175q35 0 75 7t81 19.5t81.5 30t77.5 39.5v176q-3 1 -20.5 1.5t-43 1.5t-57 1.5t-64.5 0.5q-62 0 -115.5 -8t-93 -26t-62 -46.5t-22.5 -69.5q0 -35 12.5 -59t34.5 -39t52 -22t64 -7zM169 896q10 15 24 30q12 13 30 28.5t42 31.5q60 38 129 58.5t154 20.5 q86 0 150 -21t109.5 -58.5t74 -88.5t45 -111.5t22.5 -127t6 -134.5v-524h-162q-13 16 -21.5 38.5t-8.5 45.5v27q-28 -28 -67.5 -51t-82 -39.5t-85.5 -26t-78 -9.5q-79 0 -144.5 22.5t-112 64t-72 100t-25.5 130.5q0 78 29 140.5t88.5 107t150 68.5t213.5 24q34 0 65.5 -2 t56.5 -4t41.5 -4t20.5 -3q-4 74 -22.5 122t-47.5 75.5t-66 38t-77 10.5q-49 0 -77 -8.5t-49.5 -19t-42.5 -19t-56 -8.5q-27 0 -50.5 9t-46.5 26zM407 -271q0 28 10.5 52.5t28.5 42.5t42.5 28.5t52.5 10.5t52.5 -10.5t42.5 -28.5t28.5 -42.5t10.5 -52.5t-10.5 -52.5 t-28.5 -42.5t-42.5 -28.5t-52.5 -10.5t-52.5 10.5t-42.5 28.5t-28.5 42.5t-10.5 52.5zM833 1428q0 -57 -22 -106t-59.5 -85t-88 -56t-107.5 -20t-107.5 20t-88 56t-59.5 85t-22 106h52q29 0 53.5 -16.5t33.5 -44.5q19 -37 55.5 -58.5t82.5 -21.5q45 0 82 21.5t55 58.5 q11 29 35 45t53 16h52z"/>
<glyph glyph-name="uni1EB8" horiz-adv-x="1165" unicode="" d="M1060 0h-886v1433h886v-198h-688v-413h557v-198h-557v-426h688v-198zM453 -271q0 28 10.5 52.5t28.5 42.5t42.5 28.5t52.5 10.5t52.5 -10.5t42.5 -28.5t28.5 -42.5t10.5 -52.5t-10.5 -52.5t-28.5 -42.5t-42.5 -28.5t-52.5 -10.5t-52.5 10.5t-42.5 28.5t-28.5 42.5 t-10.5 52.5z"/>
<glyph glyph-name="uni1EB9" horiz-adv-x="1211" unicode="" d="M345 657h588q-20 47 -52 86.5t-73.5 68t-91.5 44.5t-104 16q-59 0 -112.5 -18.5t-97 -51.5t-75 -78.5t-47.5 -99.5q8 11 24 22t41 11zM1138 614q0 -35 -13.5 -62.5t-33.5 -47t-44.5 -30t-46.5 -10.5h-730q9 -61 40 -113t77 -90.5t104 -60.5t121 -22q46 0 88.5 11.5 t80.5 32.5q20 11 39 16t42 5q32 0 58 -12t49 -35l38 -38q-75 -80 -176 -126.5t-219 -46.5q-111 0 -209.5 42.5t-172 116t-116 172t-42.5 209.5t42.5 209.5t116 172t172 116t209.5 42.5q93 0 178 -31t154 -85t118.5 -128t71.5 -161q3 -11 3 -23t1 -23zM467 -271 q0 28 10.5 52.5t28.5 42.5t42.5 28.5t52.5 10.5t52.5 -10.5t42.5 -28.5t28.5 -42.5t10.5 -52.5t-10.5 -52.5t-28.5 -42.5t-42.5 -28.5t-52.5 -10.5t-52.5 10.5t-42.5 28.5t-28.5 42.5t-10.5 52.5z"/>
<glyph glyph-name="uni1EBA" horiz-adv-x="1165" unicode="" d="M1060 0h-886v1433h886v-198h-688v-413h557v-198h-557v-426h688v-198zM442 1759q0 95 50.5 141.5t156.5 46.5q82 0 135 -42.5t54 -128.5q0 -39 -10.5 -64.5t-26.5 -41.5t-35 -25t-36 -15q-19 -5 -25.5 -13t-7.5 -36q0 -5 -6 -12.5t-22 -14.5q-14 -7 -40 -11q-14 -2 -32 -1 q-15 0 -33 1q0 48 5.5 80.5t19 54t36 34.5t55.5 22q11 3 20.5 13t9.5 29q0 28 -21.5 39.5t-52.5 11.5q-19 0 -37.5 -7.5t-26.5 -30.5q-2 -4 -13.5 -12t-29.5 -15.5t-40.5 -12.5t-45.5 -3z"/>
<glyph glyph-name="uni1EBB" horiz-adv-x="1211" unicode="" d="M345 657h588q-20 47 -52 86.5t-73.5 68t-91.5 44.5t-104 16q-59 0 -112.5 -18.5t-97 -51.5t-75 -78.5t-47.5 -99.5q8 11 24 22t41 11zM1138 614q0 -35 -13.5 -62.5t-33.5 -47t-44.5 -30t-46.5 -10.5h-730q9 -61 40 -113t77 -90.5t104 -60.5t121 -22q46 0 88.5 11.5 t80.5 32.5q20 11 39 16t42 5q32 0 58 -12t49 -35l38 -38q-75 -80 -176 -126.5t-219 -46.5q-111 0 -209.5 42.5t-172 116t-116 172t-42.5 209.5t42.5 209.5t116 172t172 116t209.5 42.5q93 0 178 -31t154 -85t118.5 -128t71.5 -161q3 -11 3 -23t1 -23zM435 1380 q0 95 50.5 141.5t156.5 46.5q82 0 135 -42.5t54 -128.5q0 -39 -10.5 -64.5t-26.5 -41.5t-35 -25t-36 -15q-19 -5 -25.5 -13t-7.5 -36q0 -5 -6 -12.5t-22 -14.5q-14 -7 -40 -11q-14 -2 -32 -1q-15 0 -33 1q0 48 5.5 80.5t19 54t36 34.5t55.5 22q11 3 20.5 13t9.5 29 q0 28 -21.5 39.5t-52.5 11.5q-19 0 -37.5 -7.5t-26.5 -30.5q-2 -4 -13.5 -12t-29.5 -15.5t-40.5 -12.5t-45.5 -3z"/>
<glyph glyph-name="uni1EBC" horiz-adv-x="1165" unicode="" d="M1060 0h-886v1433h886v-198h-688v-413h557v-198h-557v-426h688v-198zM722 1546q-38 0 -73 14t-66.5 31t-57 31t-43.5 14q-16 0 -25.5 -9.5t-15 -23.5t-6.5 -24t-2 -10q-44 -19 -73 -21.5t-57 -0.5v10q0 42 12 79.5t35 66.5t56 46t76 17q34 0 67 -14t63.5 -31t58.5 -31 t51 -14q18 0 29 7t17 18t7.5 21t2.5 10q30 23 62 26q12 1 25 1q21 0 42 -3q-4 -48 -13 -87t-29.5 -66t-54.5 -42t-88 -15z"/>
<glyph glyph-name="uni1EBD" horiz-adv-x="1211" unicode="" d="M345 657h588q-20 47 -52 86.5t-73.5 68t-91.5 44.5t-104 16q-59 0 -112.5 -18.5t-97 -51.5t-75 -78.5t-47.5 -99.5q8 11 24 22t41 11zM1138 614q0 -35 -13.5 -62.5t-33.5 -47t-44.5 -30t-46.5 -10.5h-730q9 -61 40 -113t77 -90.5t104 -60.5t121 -22q46 0 88.5 11.5 t80.5 32.5q20 11 39 16t42 5q32 0 58 -12t49 -35l38 -38q-75 -80 -176 -126.5t-219 -46.5q-111 0 -209.5 42.5t-172 116t-116 172t-42.5 209.5t42.5 209.5t116 172t172 116t209.5 42.5q93 0 178 -31t154 -85t118.5 -128t71.5 -161q3 -11 3 -23t1 -23zM739 1201q-38 0 -73 14 t-66.5 31t-57 31t-43.5 14q-16 0 -25.5 -9.5t-15 -23.5t-6.5 -24t-2 -10q-44 -19 -73 -21.5t-57 -0.5v10q0 42 12 79.5t35 66.5t56 46t76 17q34 0 67 -14t63.5 -31t58.5 -31t51 -14q18 0 29 7t17 18t7.5 21t2.5 10q30 23 62 26q12 1 25 1q21 0 42 -3q-4 -48 -13 -87 t-29.5 -66t-54.5 -42t-88 -15z"/>
<glyph glyph-name="uni1EBE" horiz-adv-x="1165" unicode="" d="M1060 0h-886v1433h886v-198h-688v-413h557v-198h-557v-426h688v-198zM514 1588q-42 -44 -115 -44h-74l162 204q32 44 115 44h27q83 0 115 -44l162 -204h-74h-6q-34 0 -60 11q-28 12 -49 33l-92 93q-5 5 -7.5 13t-2.5 10q-1 -3 -3 -10.5t-6 -12.5zM939 1835 q-32 -44 -115 -44h-74q111 183 122 194q32 44 115 44h114z"/>
<glyph glyph-name="uni1EBF" horiz-adv-x="1211" unicode="" d="M345 657h588q-20 47 -52 86.5t-73.5 68t-91.5 44.5t-104 16q-59 0 -112.5 -18.5t-97 -51.5t-75 -78.5t-47.5 -99.5q8 11 24 22t41 11zM1138 614q0 -35 -13.5 -62.5t-33.5 -47t-44.5 -30t-46.5 -10.5h-730q9 -61 40 -113t77 -90.5t104 -60.5t121 -22q46 0 88.5 11.5 t80.5 32.5q20 11 39 16t42 5q32 0 58 -12t49 -35l38 -38q-75 -80 -176 -126.5t-219 -46.5q-111 0 -209.5 42.5t-172 116t-116 172t-42.5 209.5t42.5 209.5t116 172t172 116t209.5 42.5q93 0 178 -31t154 -85t118.5 -128t71.5 -161q3 -11 3 -23t1 -23zM958 1477 q-33 -44 -115 -44h-74q130 232 142 244q32 44 115 44h114zM510 1205q-32 -44 -115 -44h-74q76 117 116.5 178t45.5 66q32 44 115 44h27q83 0 115 -44q5 -5 45.5 -66t116.5 -178h-74q-83 0 -115 44l-92 113q-5 5 -7.5 13t-2.5 10q-1 -3 -3 -10.5t-6 -12.5z"/>
<glyph glyph-name="uni1EC0" horiz-adv-x="1165" unicode="" d="M1060 0h-886v1433h886v-198h-688v-413h557v-198h-557v-426h688v-198zM513 1585q-42 -44 -115 -44h-74l162 204q32 44 115 44h27q83 0 115 -44l162 -204h-74h-6q-34 0 -60 11q-28 12 -49 33l-92 93q-5 5 -7.5 13t-2.5 10q-1 -3 -3 -10.5t-6 -12.5zM593 2029h114 q83 0 115 -44q11 -11 122 -194h-74q-83 0 -115 44z"/>
<glyph glyph-name="uni1EC1" horiz-adv-x="1211" unicode="" d="M345 657h588q-20 47 -52 86.5t-73.5 68t-91.5 44.5t-104 16q-59 0 -112.5 -18.5t-97 -51.5t-75 -78.5t-47.5 -99.5q8 11 24 22t41 11zM1138 614q0 -35 -13.5 -62.5t-33.5 -47t-44.5 -30t-46.5 -10.5h-730q9 -61 40 -113t77 -90.5t104 -60.5t121 -22q46 0 88.5 11.5 t80.5 32.5q20 11 39 16t42 5q32 0 58 -12t49 -35l38 -38q-75 -80 -176 -126.5t-219 -46.5q-111 0 -209.5 42.5t-172 116t-116 172t-42.5 209.5t42.5 209.5t116 172t172 116t209.5 42.5q93 0 178 -31t154 -85t118.5 -128t71.5 -161q3 -11 3 -23t1 -23zM591 1719h114 q83 0 115 -44q11 -12 142 -244h-74q-83 0 -115 44zM506 1205q-32 -44 -115 -44h-74q76 117 116.5 178t45.5 66q32 44 115 44h27q83 0 115 -44q5 -5 45.5 -66t116.5 -178h-74q-83 0 -115 44l-92 113q-5 5 -7.5 13t-2.5 10q-1 -3 -3 -10.5t-6 -12.5z"/>
<glyph glyph-name="uni1EC2" horiz-adv-x="1165" unicode="" d="M1060 0h-886v1433h886v-198h-688v-413h557v-198h-557v-426h688v-198zM518 1586q-42 -44 -115 -44h-74l162 204q32 44 115 44h27q83 0 115 -44l162 -204h-74h-6q-34 0 -60 11q-28 12 -49 33l-92 93q-5 5 -7.5 13t-2.5 10q-1 -3 -3 -10.5t-6 -12.5zM689 1983 q0 95 50.5 141.5t156.5 46.5q82 0 135 -42.5t54 -128.5q0 -39 -10.5 -64.5t-26.5 -41.5t-35 -25t-36 -15q-19 -5 -25.5 -13t-7.5 -36q0 -5 -6 -12.5t-22 -14.5q-14 -7 -40 -11q-14 -2 -32 -1q-15 0 -33 1q0 48 5.5 80.5t19 54t36 34.5t55.5 22q11 3 20.5 13t9.5 29 q0 28 -21.5 39.5t-52.5 11.5q-19 0 -37.5 -7.5t-26.5 -30.5q-2 -4 -13.5 -12t-29.5 -15.5t-40.5 -12.5t-45.5 -3z"/>
</font>
</defs>
</svg>
