<?xml version="1.0" encoding="UTF-8" standalone="no"?>
<!DOCTYPE svg  PUBLIC '-//W3C//DTD SVG 1.1//EN'  'http://www.w3.org/Graphics/SVG/1.1/DTD/svg11.dtd'>
<svg xmlns="http://www.w3.org/2000/svg">
<defs>
<font id="VETCLight-Regular" horiz-adv-x="1226">
<font-face underline-position="-80" font-weight="300" descent="-400" panose-1="2 0 5 3 2 0 0 2 0 4" units-per-em="2000" unicode-range="U+000D-FB06" bbox="-184 -455 2125 2191" x-height="1050" underline-thickness="120" font-family="VETCLight" ascent="1600" cap-height="1433"/>
<missing-glyph d="M213 75q12 -1 45 -1.5t72 -1.5t76.5 -1.5t60.5 -0.5q20 0 52.5 0.5t67.5 1t69 1t57 1.5l-500 1019v-1018zM750 1181q-11 1 -47.5 1.5t-81 1.5t-88 1.5t-68.5 1.5q-18 0 -44 -0.5t-54.5 -1l-57 -1t-50.5 -1.5l491 -1001v999zM841 1259v-1261h-404v1h-313v1261h369 q-1 0 -1 -1h349z" horiz-adv-x="967"/>
<glyph glyph-name=".notdef" d="M213 75q12 -1 45 -1.5t72 -1.5t76.5 -1.5t60.5 -0.5q20 0 52.5 0.5t67.5 1t69 1t57 1.5l-500 1019v-1018zM750 1181q-11 1 -47.5 1.5t-81 1.5t-88 1.5t-68.5 1.5q-18 0 -44 -0.5t-54.5 -1l-57 -1t-50.5 -1.5l491 -1001v999zM841 1259v-1261h-404v1h-313v1261h369 q-1 0 -1 -1h349z" horiz-adv-x="967"/>
<glyph glyph-name=".null" horiz-adv-x="0"/>
<glyph glyph-name="nonmarkingreturn" horiz-adv-x="0" unicode=""/>
<glyph glyph-name="NULL" horiz-adv-x="0"/>
<glyph glyph-name="NULL" horiz-adv-x="0"/>
<glyph glyph-name="space" horiz-adv-x="617" unicode=" "/>
<glyph glyph-name="exclam" horiz-adv-x="615" unicode="!" d="M395 80q0 -20 -7.5 -37t-20.5 -30t-30.5 -20.5t-36.5 -7.5q-20 0 -37.5 7.5t-30.5 20.5t-20.5 30t-7.5 37q0 40 28 67.5t68 27.5q19 0 36.5 -7.5t30.5 -20t20.5 -30t7.5 -37.5zM243 374v1060h115v-1060h-115z"/>
<glyph glyph-name="quotedbl" horiz-adv-x="689" unicode='&quot;' d="M419 1433h114v-422q0 -23 -17.5 -39.5t-39.5 -16.5t-39.5 16.5t-17.5 39.5v422zM132 1433h114v-422q0 -23 -17.5 -39.5t-39.5 -16.5t-39.5 16.5t-17.5 39.5v422z"/>
<glyph glyph-name="numbersign" horiz-adv-x="1117" unicode="#" d="M360 543h305l62 308h-306zM825 1369q3 15 15 27t29 20.5t36.5 12.5t37.5 4h13l-93 -467h217l-2 -11q-3 -16 -13.5 -34.5t-25 -34t-31 -25.5t-31.5 -10h-133l-60 -309h237l-2 -10q-4 -17 -12.5 -35t-20 -33.5t-26 -25.5t-29.5 -10h-174l-70 -366q-3 -15 -15 -26.5 t-29 -19.5t-36 -12t-37 -4h-14l84 428h-306l-71 -366q-3 -15 -15 -26.5t-29 -19.5t-36 -12t-37 -4h-13l83 428h-180l3 12q4 16 12 34t19.5 33.5t25.5 25.5t30 10h116l62 308h-203l3 11q3 16 13.5 34.5t25 34t31 25.5t31.5 10h118l80 403q3 15 15 27t28.5 20.5t36 12.5 t36.5 4h13l-91 -467h305z"/>
<glyph glyph-name="dollar" horiz-adv-x="1065" unicode="$" d="M243 1079q0 -50 13 -84.5t41.5 -60.5t74 -47.5t111.5 -45.5v475q-49 -8 -92.5 -30t-76.5 -54t-52 -71t-19 -82zM813 390q0 69 -18.5 114t-51 75.5t-76.5 50.5t-95 39v-547q46 10 89.5 32t77.5 55t54 78.5t20 102.5zM483 1581h89v-135q52 -6 96.5 -24t82.5 -42.5t70 -53 t58 -56.5l-31 -22q-12 -9 -27.5 -14.5t-37.5 -5.5q-37 0 -64 17q-19 13 -35.5 25t-33 21.5t-35.5 16.5t-43 10v-514q63 -23 126 -48t113 -63q70 -54 98.5 -132t28.5 -171q0 -81 -27.5 -147.5t-75.5 -117t-113.5 -84t-141.5 -47.5v-171h-97v162h-2q-95 0 -177 28t-145 83 q-35 32 -59.5 63.5t-39.5 57.5l15 9q33 19 63 19q24 0 46 -6.5t39 -23.5q41 -38 75.5 -58.5t65.5 -30t59.5 -11.5t57.5 -3h2v595l-8 4q-82 32 -148 61t-112.5 68t-71.5 95.5t-25 143.5q0 76 31.5 139t83.5 110.5t117 77.5t133 39v136z"/>
<glyph glyph-name="percent" horiz-adv-x="1572" unicode="%" d="M816 357q0 -47 13.5 -92.5t42 -81.5t72 -58.5t103.5 -22.5t103.5 23t71.5 60t41.5 82t13.5 90q0 42 -13.5 86t-41.5 79.5t-71.5 58t-103.5 22.5t-103.5 -22.5t-72 -58t-42 -79.5t-13.5 -86zM700 357q0 67 23.5 132t68 116t109 82.5t146.5 31.5t146.5 -31.5t109 -82.5 t67.5 -116t23 -132q0 -72 -23 -139t-67.5 -118t-109 -82t-146.5 -31t-146.5 30.5t-109 82t-68 118.5t-23.5 139zM190 1087q0 -47 13.5 -92.5t42 -81.5t72 -58.5t103.5 -22.5t103.5 23t71.5 60t41.5 82t13.5 90q0 42 -13.5 86t-41.5 79.5t-71.5 58t-103.5 22.5t-103.5 -22.5 t-72 -58t-42 -79.5t-13.5 -86zM74 1087q0 67 23.5 132t68 116t109 82.5t146.5 31.5t146.5 -31.5t109 -82.5t67.5 -116t23 -132q0 -72 -23 -139t-67.5 -118t-109 -82t-146.5 -31t-146.5 30.5t-109 82t-68 118.5t-23.5 139zM325 78q-29 -35 -61.5 -56.5t-81.5 -21.5h-59 l1014 1355q27 36 60.5 57t82.5 21h59z"/>
<glyph glyph-name="ampersand" horiz-adv-x="1360" unicode="&amp;" d="M730 453l-270 268q-53 -19 -100 -49.5t-81.5 -70t-54.5 -87t-20 -101.5q0 -57 27.5 -111.5t74 -97t108 -69t129.5 -26.5q90 0 175.5 43t174.5 136zM849 513l123 -127l142 183q25 39 64 58t90 19h60l-260 -349l298 -297h-73q-36 0 -63 5.5t-48 16t-39.5 26t-38.5 35.5 l-117 115q-105 -106 -217 -159.5t-227 -54.5h-4q-88 0 -170 33t-146 90.5t-103 135.5t-41 167v8q0 52 14.5 104t44 101.5t75.5 94.5t109 81q4 2 7 3l6 2t6 1q10 0 18.5 -2.5t15.5 -4.5l14 -7q-58 57 -96 129t-38 151q0 83 33.5 152.5t88.5 120t124 78.5t141 28 q109 0 202 -48t168 -136l-6 -3q-18 -8 -42 -17.5t-47 -9.5q-37 0 -61 9t-38 20q-23 16 -41.5 27.5t-39 18.5t-45 10.5t-59.5 3.5q-50 0 -95.5 -22t-80.5 -57.5t-56 -81.5t-21 -94t27 -97.5t72 -94.5z"/>
<glyph glyph-name="quotesingle" horiz-adv-x="460" unicode="&apos;" d="M120 1433h153q-5 -103 -9.5 -210.5t-9.5 -209.5q-2 -24 -19.5 -41t-38.5 -17q-22 0 -39 17t-18 40z"/>
<glyph glyph-name="parenleft" horiz-adv-x="565" unicode="(" d="M234 624q0 -108 15.5 -208t42 -190.5t61.5 -171.5t75 -153q14 -24 26 -58t12 -63q0 -12 -2.5 -25.5t-7 -25.5t-9.5 -21.5t-9 -12.5l-7 -5q-58 78 -114 177t-100.5 216.5t-72 253t-27.5 286.5t27 289t71.5 258t100.5 218.5t113 171.5q17 -14 27 -34t10 -41q0 -35 -9 -72.5 t-21 -60.5q-37 -71 -73 -148t-64.5 -165.5t-46.5 -191t-18 -223.5z"/>
<glyph glyph-name="parenright" horiz-adv-x="564" unicode=")" d="M319 624q0 121 -18 223.5t-46.5 191t-64.5 165.5t-73 148q-12 23 -21 60.5t-9 72.5q0 21 10 41t27 34q57 -73 113 -171.5t100.5 -218.5t71.5 -258t27 -289t-27.5 -286.5t-72 -253t-100.5 -216.5t-114 -177l-7 5q-5 3 -9.5 12.5t-9 21.5t-7 25.5t-2.5 25.5q0 29 12 63 t26 58q40 72 75 153t61.5 171.5t42 190.5t15.5 208z"/>
<glyph glyph-name="asterisk" horiz-adv-x="800" unicode="*" d="M145 976l-56 99l145 85q11 7 20.5 11t20 6.5t23 3.5t30.5 3q-29 2 -50 7.5t-44 19.5l-144 86l58 99l148 -88q24 -14 38 -26.5t30 -37.5q-18 33 -21.5 60t-3.5 54v148h114v-148q0 -27 -3 -53.5t-21 -60.5q16 23 34.5 39.5t42.5 30.5l141 82l56 -99l-134 -80 q-12 -8 -21.5 -12.5t-20.5 -8.5t-25 -6.5t-36 -5.5q21 -1 34.5 -3.5t23 -6t17.5 -8t19 -10.5l144 -85l-57 -98l-152 88q-12 7 -20.5 13t-16 13.5t-14.5 16.5t-16 22q19 -37 22 -62t3 -50v-152h-114v167q0 20 3.5 41.5t19.5 55.5q-10 -15 -17.5 -24.5t-15 -16t-16 -12 t-19.5 -11.5z"/>
<glyph glyph-name="plus" horiz-adv-x="1160" unicode="+" d="M1056 724v-114h-419v-420h-114v420h-421v114h421v420h114v-420h419z"/>
<glyph glyph-name="comma" horiz-adv-x="424" unicode="," d="M251 192q25 0 44.5 -10t32.5 -26.5t19.5 -37t6.5 -41.5t-3.5 -51.5t-18 -67.5t-43.5 -76.5t-80 -78.5l-10 15q-7 10 -7 22q0 17 7 34t15.5 34.5t15.5 36t7 39.5l-9 2q-36 8 -58.5 36t-22.5 65q0 22 9 41.5t23.5 33.5t33 22t38.5 8z"/>
<glyph glyph-name="hyphen" horiz-adv-x="694" unicode="-" d="M93 724h506v-115h-506v115z"/>
<glyph glyph-name="period" horiz-adv-x="402" unicode="." d="M118 85q0 21 7.5 39t21 31.5t32 21.5t39.5 8t39.5 -8t32 -21.5t21.5 -31.5t8 -39t-8 -39.5t-21.5 -32t-32 -21.5t-39.5 -8t-39.5 8t-32 21.5t-21 32t-7.5 39.5z"/>
<glyph glyph-name="slash" horiz-adv-x="852" unicode="/" d="M638 1393q17 38 53.5 58.5t87.5 20.5h28l-657 -1481q-7 -16 -18.5 -30.5t-26 -26t-31 -18t-34.5 -6.5h-49z"/>
<glyph glyph-name="zero" horiz-adv-x="1635" unicode="0" d="M1396 724q-1 82 -22.5 157t-60.5 140t-92.5 118.5t-118.5 91t-139.5 58t-154.5 20.5q-123 -3 -229 -50.5t-183.5 -127t-122 -184.5t-44.5 -224q0 -128 45.5 -237.5t125.5 -190t188.5 -126t235.5 -45.5q117 1 220.5 48t181 127.5t123 189.5t47.5 235zM1519 724 q0 -101 -25 -193.5t-71 -173t-109.5 -146.5t-141 -113t-165.5 -72.5t-183 -25.5q-152 0 -284 56t-230 154t-154 231t-56 288q0 97 25.5 187t72.5 168.5t112.5 142.5t145.5 110t172 71.5t192 25.5q96 0 185 -26t166.5 -72.5t141.5 -112t110 -144.5t71 -169t25 -186z"/>
<glyph glyph-name="one" horiz-adv-x="652" unicode="1" d="M397 1260q-18 -19 -40 -40.5t-46 -43t-47.5 -41.5t-44.5 -35q-17 -12 -40 -17t-43 -5q-28 0 -40 10.5t-12 22.5q0 14 22 34q68 63 134 126.5t138 132.5q14 13 40 20.5t53 7.5q22 0 42 -6t20 -18v-1365q0 -17 -1 -26t-6.5 -13t-16.5 -4.5t-31 -0.5q-28 0 -43 1.5t-22 9 t-8.5 23.5t-1.5 45v1151q0 9 -3 17.5t-3 13.5z"/>
<glyph glyph-name="two" horiz-adv-x="1139" unicode="2" d="M318 116q16 0 28 -3t22 -3h609q26 0 36 -6t10 -23v-6.5t-1 -8.5v-38q1 -3 1 -9q0 -19 -31 -19h-838q-21 0 -25.5 7t-4.5 30q0 45 18 78t49 65q106 112 213.5 224.5t207.5 233.5q66 72 121 143.5t103 153.5q19 30 28 61.5t9 63.5q0 36 -11 70.5t-31.5 64t-50.5 52.5 t-67 37q-42 20 -83 32.5t-83 12.5q-33 0 -64 -9.5t-61 -24.5t-58 -34.5t-53 -39.5q-22 -22 -49.5 -37t-57.5 -15q-19 0 -38.5 8t-19.5 22q0 11 8 26q26 52 69.5 91.5t97 66.5t112.5 40.5t115 13.5q96 0 179 -33t144 -87t96 -124.5t35 -145.5q0 -55 -17 -111t-52 -110 q-64 -97 -137.5 -187.5t-152 -177.5t-161 -172.5t-164.5 -172.5z"/>
<glyph glyph-name="three" horiz-adv-x="980" unicode="3" d="M129 1278q69 72 156.5 111t176.5 39q70 0 137 -27.5t119 -75.5t84 -111.5t32 -135.5q0 -47 -11.5 -86t-32 -72.5t-48 -63.5t-60.5 -58q-8 -8 -16.5 -14.5t-25.5 -14.5q9 -8 18 -14.5t14 -11.5q45 -35 81.5 -73.5t63 -83t41 -95t14.5 -108.5q-6 -126 -72 -211t-180 -136 q-38 -17 -81.5 -25.5t-88.5 -8.5q-54 0 -107.5 11.5t-101.5 33t-89 53.5t-69 74q-2 8 -5.5 18.5t-4.5 18.5q29 26 64 26q17 0 35.5 -6t38.5 -20q28 -20 55.5 -38.5t56 -33t59 -23.5t64.5 -9q57 0 110.5 22.5t95 61t67 90t25.5 109.5q0 53 -19.5 103t-50.5 91t-69.5 71.5 t-76.5 44.5q-14 4 -29 4.5t-33 0.5t-23 7.5t-5 27.5v10q0 21 1 33t6.5 18t17.5 8t34 4q44 9 82.5 35t67 63t45 81.5t16.5 90.5q0 47 -20.5 90.5t-55 76.5t-78.5 52.5t-92 19.5q-74 0 -148 -51q-28 -17 -51.5 -27t-46.5 -10q-48 0 -87 44z"/>
<glyph glyph-name="four" horiz-adv-x="1174" unicode="4" d="M228 461h53q73 0 141.5 1t137.5 1h70t71 -2q29 0 37.5 11.5t8.5 31.5v700q0 9 -1 19.5t-7 19.5q-129 -198 -256 -390.5t-255 -391.5zM874 941q0 -71 1.5 -142t1.5 -144t-3 -146q0 -27 11.5 -37.5t37.5 -10.5h121q24 0 27.5 -19t3.5 -56q0 -13 -1 -19.5t-5.5 -9.5 t-12.5 -3.5t-22 -0.5h-117q-26 0 -31.5 -11t-5.5 -36v-274q0 -14 -4.5 -20.5t-13.5 -9t-23 -2.5h-33q-22 0 -34 1t-17.5 4t-6.5 10t-1 19v275q0 26 -9 35t-41 9h-579q-26 0 -34 8.5t-8 36.5q0 32 6.5 62t25.5 56q137 209 267 416t264 422q25 45 63.5 61t90.5 16 q30 -2 46.5 -3.5t24 -8t9 -22.5t1.5 -46v-410z"/>
<glyph glyph-name="five" horiz-adv-x="1088" unicode="5" d="M336 966q4 0 6 -0.5t4 -0.5q1 0 1.5 0.5t1.5 0.5q34 16 68 23t68 7q37 0 72.5 -7.5t71.5 -18.5q100 -31 175.5 -87.5t123.5 -148.5q29 -54 43 -106.5t14 -107.5q0 -69 -22 -136.5t-64 -135.5q-37 -59 -87.5 -105.5t-110.5 -78.5t-126.5 -48.5t-134.5 -16.5 q-90 0 -169.5 28.5t-141.5 74.5q-11 8 -17.5 14t-6.5 13q0 8 8.5 16.5t21.5 15.5t27.5 11.5t25.5 4.5q13 0 25.5 -3.5t27.5 -10.5q51 -25 98.5 -38.5t103.5 -13.5q140 5 236.5 72.5t150.5 193.5q15 35 21.5 72.5t6.5 73.5q0 78 -30 148t-90 120q-62 48 -129 69.5t-139 21.5 q-27 0 -54 -3t-55 -8q-22 -8 -45 -18.5t-46 -10.5q-32 0 -51 19.5t-19 51.5v6.5t1 7.5l46 286q7 42 12.5 85.5t10.5 89.5q5 23 13 33.5t28 10.5h9h541q23 0 32.5 -8t9.5 -33t-1 -38.5t-7 -19.5t-18.5 -7t-36.5 -1h-423q-23 0 -31 -9.5t-13 -29.5q-6 -73 -17 -142t-19 -144 q-2 -11 -1.5 -17.5t0.5 -16.5z"/>
<glyph glyph-name="six" horiz-adv-x="1158" unicode="6" d="M933 474q0 73 -28 137.5t-75.5 113t-111 77t-133.5 28.5q-72 0 -137 -28.5t-114 -77t-77.5 -113t-28.5 -137.5q0 -75 28.5 -139.5t77.5 -112.5t113 -75.5t136 -27.5q71 0 134.5 27.5t111 75.5t75.5 112.5t29 139.5zM392 923q30 7 54 13.5t46 12t43 8.5t45 3 q95 0 181.5 -38.5t152 -104t104 -152t38.5 -183.5q0 -95 -36.5 -182t-100.5 -154t-151.5 -106.5t-188.5 -39.5q-94 0 -181 33.5t-154 94t-107 145.5t-40 189q0 67 19.5 132.5t52.5 140.5q63 159 135 311.5t135 309.5q18 38 50 58t70 20q43 0 43 -15q0 -5 -5 -13 q-54 -120 -103 -238.5t-102 -244.5z"/>
<glyph glyph-name="seven" horiz-adv-x="1123" unicode="7" d="M867 1315q-17 2 -27.5 2.5t-21.5 0.5q-111 0 -219 -0.5t-217 -0.5q-31 0 -68.5 -1t-66.5 -1q-14 0 -42 0.5t-58.5 5t-32.5 16.5q-2 11 -2.5 20.5t-0.5 18.5q0 35 12 46t39 11h811q17 0 27.5 -5t10.5 -18q0 -2 -2 -10q-84 -200 -146.5 -348.5t-108 -256.5t-76.5 -181.5 t-52.5 -123t-34.5 -80.5t-23 -55t-19.5 -45.5t-22.5 -51.5t-31.5 -75t-47.5 -115q-16 -32 -46 -50t-69 -18q-13 0 -26 1.5t-27 6.5q69 153 135 311t132 317t133 317.5t138 312.5q7 17 17 27t33 22z"/>
<glyph glyph-name="eight" horiz-adv-x="1040" unicode="8" d="M704 1202q-29 51 -78 82.5t-107 31.5q-49 0 -91 -21t-73 -56t-48.5 -79.5t-17.5 -92.5q0 -55 21 -102t54 -81t74.5 -53.5t82.5 -19.5q48 0 88 23t68.5 59.5t44.5 82t16 91.5q0 70 -34 135zM234 398q0 -60 23 -112.5t62 -92t90.5 -62.5t107.5 -23t106.5 23.5t88 63.5 t59.5 93t22 113q0 55 -23 106.5t-61.5 91t-88.5 63.5t-103 24q-55 -1 -106 -25t-90.5 -64t-63 -91.5t-23.5 -107.5zM323 751q-85 55 -121.5 131.5t-36.5 166.5q0 95 30 163.5t97 127.5q50 45 109 67.5t120 22.5q72 0 135 -31t109.5 -82t73 -117t26.5 -136 q0 -100 -39.5 -180.5t-126.5 -131.5q48 -28 88.5 -64.5t70.5 -81t47 -95.5t17 -109q0 -76 -31.5 -148t-84.5 -128.5t-124 -90.5t-150 -34q-81 0 -157.5 27t-135.5 78.5t-94.5 125.5t-35.5 168q0 52 13.5 102t40.5 95t67 84.5t93 69.5z"/>
<glyph glyph-name="nine" horiz-adv-x="1139" unicode="9" d="M563 606h13q68 0 129.5 27.5t108 75.5t74 112.5t27.5 138.5q0 73 -27 138.5t-73.5 115t-109.5 78.5t-134 29q-72 0 -135 -28t-110.5 -77t-75 -115.5t-27.5 -143.5q0 -74 28 -138.5t75 -111.5t108.5 -74t128.5 -27zM754 497q-48 -5 -95 -10.5t-95 -5.5q-156 0 -259.5 69.5 t-166.5 204.5q-23 50 -34.5 101t-11.5 102q0 87 33.5 171.5t96 151t150 108t195.5 41.5q62 0 121.5 -15.5t112 -46t97 -74.5t76.5 -101q71 -118 71 -242q0 -57 -14.5 -113.5t-41.5 -113.5q-49 -103 -89.5 -203.5t-82.5 -205.5q-28 -58 -55.5 -120t-54.5 -125 q-16 -35 -44.5 -52t-65.5 -18q-25 0 -35 4.5t-10 14.5q0 5 2.5 10.5t4.5 10.5q46 115 96 226t99 228v3z"/>
<glyph glyph-name="colon" horiz-adv-x="436" unicode=":" d="M115 155q0 21 7.5 39t21 31.5t32 21.5t39.5 8t39.5 -8t32 -21.5t21.5 -31.5t8 -39t-8 -39.5t-21.5 -32t-32 -21.5t-39.5 -8t-39.5 8t-32 21.5t-21 32t-7.5 39.5zM115 837q0 21 7.5 39.5t21 32t32 21.5t39.5 8t39.5 -8t32 -21.5t21.5 -32t8 -39.5t-8 -39.5t-21.5 -32 t-32 -21.5t-39.5 -8t-39.5 8t-32 21.5t-21 32t-7.5 39.5z"/>
<glyph glyph-name="semicolon" horiz-adv-x="504" unicode=";" d="M150 786q0 21 7.5 39.5t21 32t32 21.5t39.5 8t39.5 -8t32 -21.5t21.5 -32t8 -39.5t-8 -39.5t-21.5 -32t-32 -21.5t-39.5 -8t-39.5 8t-32 21.5t-21 32t-7.5 39.5zM264 192q25 0 45 -10t33.5 -26.5t20.5 -37t7 -41.5t-4 -52t-19 -67t-44.5 -76t-80.5 -79l-10 15 q-7 10 -7 22q0 16 8 34t17 37t17 38.5t8 39.5l-9 2q-36 8 -58.5 36t-22.5 65q0 22 8 40.5t21.5 32t31.5 20.5t38 7z"/>
<glyph glyph-name="less" horiz-adv-x="1160" unicode="&lt;" d="M119 677q0 23 1.5 36.5t10.5 24t27.5 20t52.5 24.5l721 364v-21q0 -23 -7 -46.5t-19 -45t-29 -39t-37 -27.5l-572 -287q-7 -3 -14 -5.5t-14 -4.5l-15 -3l16 -3q7 -2 14.5 -4t12.5 -4l572 -289q20 -10 37 -27t29 -37.5t19 -43.5t7 -46v-21l-721 363q-34 17 -52.5 29.5 t-27.5 24.5t-10.5 27t-1.5 37v4z"/>
<glyph glyph-name="equal" horiz-adv-x="1160" unicode="=" d="M1006 773h-854v115h854v-115zM1006 446h-854v115h854v-115z"/>
<glyph glyph-name="greater" horiz-adv-x="1160" unicode="&gt;" d="M1035 673q0 -22 -1.5 -37t-10.5 -27t-27.5 -24.5t-52.5 -29.5l-721 -363v21q0 23 7 46t19 43.5t29 37.5t37 27l572 289q5 2 12.5 4t14.5 4l16 3l-15 3l-14 4t-14 6l-572 287q-20 10 -37 27.5t-29 39t-19 45t-7 46.5v21l721 -364q34 -15 52.5 -24.5t27.5 -20t10.5 -24 t1.5 -36.5v-4z"/>
<glyph glyph-name="question" horiz-adv-x="820" unicode="?" d="M468 86q0 -21 -8 -39.5t-21.5 -32t-32 -21.5t-39.5 -8t-39.5 8t-32 21.5t-21.5 32t-8 39.5t8 39.5t21.5 32t32 21.5t39.5 8t39.5 -8t32 -21.5t21.5 -32t8 -39.5zM10 1187q21 36 52.5 80.5t80.5 84t119 66.5t167 27q98 0 173.5 -28t126.5 -79t77 -122t26 -156 q0 -47 -11 -83.5t-28.5 -66t-37.5 -53.5t-38 -46q-22 -22 -39.5 -39t-30.5 -29l-38 -36q-33 -32 -66.5 -65.5t-59.5 -67t-42.5 -66t-16.5 -63.5v-67h-115v66q0 55 20 101.5t51 87t67.5 76t68.5 69.5l11 10q30 27 64 61t62 69.5t46.5 71t18.5 66.5q0 45 -11.5 93.5 t-43.5 88.5t-88.5 66t-145.5 26q-62 0 -104 -12t-71.5 -29.5t-49.5 -38.5t-38 -38.5t-36.5 -29.5t-45.5 -12q-31 0 -66 13z"/>
<glyph glyph-name="at" horiz-adv-x="1613" unicode="@" d="M975 935q-86 0 -159 -27t-126 -73.5t-83.5 -108.5t-30.5 -132q0 -142 119 -142q57 0 108 35.5t81 98.5q5 11 10.5 22.5t7.5 23.5q19 75 36.5 149.5t36.5 153.5zM926 462q-20 -17 -33.5 -31t-29.5 -25q-39 -26 -81 -41t-88 -15q-64 0 -108 19t-71.5 52.5t-40 78.5 t-12.5 98q0 146 72 241t214 151q72 31 146 47t155 16q13 0 26 -0.5t27 -1.5q-25 -108 -50.5 -208t-42.5 -203q-2 -11 -3 -25.5t-1 -29.5q0 -39 6 -63t18 -38t31 -19t45 -5q63 0 115 33t90 85.5t59 119t21 133.5q0 106 -45.5 198t-121.5 160t-175 107.5t-207 39.5 q-24 0 -48.5 -1.5t-48.5 -6.5q-119 -21 -216 -77t-167 -137t-108 -180.5t-38 -207.5q0 -32 4 -64.5t11 -65.5q24 -113 79.5 -204t135.5 -155t180 -98t213 -34q56 0 109.5 9.5t106 25t104.5 36.5t104 44q17 7 31.5 12t28.5 5q17 0 34 -10t34 -33q-57 -48 -122.5 -84 t-136.5 -60t-144 -36t-145 -12q-101 0 -195 26t-177 73t-151.5 114t-117.5 148.5t-76 176.5t-27 198q0 90 26 177t74 164t115 142.5t148 112.5t174 73.5t194 26.5q87 0 171 -20.5t159.5 -58t139 -91.5t109.5 -120.5t72 -144.5t26 -165q0 -79 -24 -154t-72 -140 q-57 -92 -135.5 -139.5t-178.5 -47.5q-27 0 -52.5 5t-47.5 17.5t-40 33.5t-30 53z"/>
<glyph glyph-name="A" horiz-adv-x="1288" unicode="A" d="M304 464h680l-321 736q-8 19 -12.5 41t-6.5 42q-2 -18 -6.5 -41.5t-12.5 -41.5zM591 1433h106q79 -182 157 -361t156 -356.5t156 -356t157 -359.5h-56q-37 0 -67 19.5t-44 52.5l-117 267h-791l-115 -267q-14 -33 -44.5 -52.5t-67.5 -19.5h-56z"/>
<glyph glyph-name="B" horiz-adv-x="1285" unicode="B" d="M298 1308v-518h419q54 0 102.5 20.5t85.5 55.5t59 82.5t22 100.5q0 54 -22 101t-59 82t-85.5 55.5t-102.5 20.5h-419zM779 126q57 0 106.5 22t86 60t57.5 88.5t21 106.5q0 63 -18.5 111.5t-53.5 82t-85 51t-113 17.5h-482v-539h481zM341 0h-168v1433h544q79 0 151 -30 t126 -82t86 -122t32 -149q0 -42 -10 -84t-27.5 -79.5t-41 -68t-51.5 -49.5q-16 -11 -24 -15q-5 -2 -9 -3q17 -1 36 -8q22 -9 38 -20q43 -30 72.5 -68.5t47.5 -81.5t25.5 -88.5t7.5 -88.5q0 -77 -29 -148.5t-81.5 -126t-125.5 -87.5t-161 -33z"/>
<glyph glyph-name="C" horiz-adv-x="1415" unicode="C" d="M214 717q0 -84 22 -161.5t61.5 -145.5t95 -123t123 -95t145 -61.5t161.5 -21.5q97 0 184 28.5t162 79.5q28 19 64 19q29 0 50.5 -10t38.5 -27l10 -10q-100 -97 -229.5 -151t-279.5 -54q-152 0 -285 57.5t-232.5 157t-157 233t-57.5 285.5t57.5 285.5t157 233t232.5 157 t285 57.5t280.5 -54.5t228.5 -151.5l-10 -9q-20 -17 -40.5 -27.5t-48.5 -10.5q-35 0 -64 20q-75 51 -161 79.5t-185 28.5q-84 0 -161.5 -21.5t-145 -61.5t-123 -95t-95 -123t-61.5 -145.5t-22 -161.5z"/>
<glyph glyph-name="D" horiz-adv-x="1508" unicode="D" d="M701 125q123 0 230.5 46.5t188 126.5t127 188t46.5 230t-46.5 230t-127 188.5t-188 127t-230.5 46.5h-402v-1183h402zM174 0v1433h527q99 0 190.5 -25.5t171 -72.5t145 -112.5t112.5 -145t72.5 -171t25.5 -190.5t-25.5 -190.5t-72.5 -171t-112.5 -145t-145 -112t-171 -72 t-190.5 -25.5h-527z"/>
<glyph glyph-name="E" horiz-adv-x="1133" unicode="E" d="M1028 0h-854v1433h854v-125h-729v-522h590v-125h-590v-536h729v-125z"/>
<glyph glyph-name="F" horiz-adv-x="1103" unicode="F" d="M914 756v-125h-615v-631h-125v1433h854v-125h-729v-552h615z"/>
<glyph glyph-name="G" horiz-adv-x="1481" unicode="G" d="M1343 688v-552q-49 -45 -108.5 -74.5t-126 -46.5t-138.5 -24t-146 -7q-152 0 -285 57.5t-233 157t-157.5 233t-57.5 285.5t57.5 285.5t157.5 233t233 157t285 57.5q151 0 280 -54.5t229 -151.5l-10 -9q-20 -18 -40.5 -28t-48.5 -10q-35 0 -64 20q-75 51 -161 79.5 t-185 28.5q-84 0 -161.5 -21.5t-145 -61.5t-123 -95t-95 -123t-61.5 -145.5t-22 -161.5t22.5 -161.5t63.5 -145.5t97.5 -123t125.5 -95t147.5 -61.5t162.5 -21.5q210 0 385 110v344h-127q-28 0 -50 10t-37.5 26.5t-24 38.5t-8.5 46v4h370z"/>
<glyph glyph-name="H" horiz-adv-x="1444" unicode="H" d="M1267 1h-124v659h-844v-659h-125v1433h125v-649h844v649h124v-1433z"/>
<glyph glyph-name="I" horiz-adv-x="544" unicode="I" d="M335 0h-125v1433h125v-1433z"/>
<glyph glyph-name="J" horiz-adv-x="682" unicode="J" d="M349 1433h125v-1243q0 -111 -30 -191.5t-82 -133t-122.5 -77.5t-150.5 -25q-81 0 -148.5 31t-124.5 79l26 27q18 19 35 23.5t40 4.5q19 0 36 -6.5t36 -14t43 -13.5t57 -6q50 0 97 14t83 47.5t58 89.5t22 141v1253z"/>
<glyph glyph-name="K" horiz-adv-x="1265" unicode="K" d="M318 0h-125v1433h125v-1433zM972 1356q31 35 66 56t85 21h82l-585 -660q-11 -12 -19 -19t-13 -11q-6 -4 -10 -5q4 -2 10 -6q5 -4 13 -10.5t19 -18.5l627 -703h-89q-50 0 -85.5 20.5t-65.5 55.5l-556 632q-9 11 -16.5 16.5t-12.5 8.5q-6 4 -11 5q5 1 11 5q5 3 12.5 9.5 t17.5 17.5z"/>
<glyph glyph-name="L" horiz-adv-x="996" unicode="L" d="M174 0v1433h125v-1308h656v-125h-781z"/>
<glyph glyph-name="M" horiz-adv-x="1820" unicode="M" d="M1646 0h-125v1235l-1 -6q-1 -6 -3.5 -14.5t-5 -17.5t-5.5 -15l-524 -1182h-147l-521 1182q-7 13 -11 28.5t-5 24.5v-1235h-125v1433h89q36 0 67.5 -21t42.5 -51l526 -1195q4 -11 6.5 -21.5t3.5 -21.5q1 11 3.5 21.5t6.5 21.5l529 1195q14 32 44.5 52t65.5 20h89v-1433z "/>
<glyph glyph-name="N" horiz-adv-x="1487" unicode="N" d="M1310 0h-124l-865 1238q-5 6 -8 14l-6 16q-4 9 -6 18v-1286h-125v1433h87q40 0 63.5 -10t39.5 -32l792 -1134q7 -11 12 -22.5t9 -21.5q4 -11 7 -23v1243h124v-1433z"/>
<glyph glyph-name="O" horiz-adv-x="1650" unicode="O" d="M217 717q0 -84 22 -161.5t61.5 -145.5t95 -123t123 -95t145 -61.5t161.5 -21.5t161.5 21.5t145.5 61.5t123 95t95 123t61.5 145.5t21.5 161.5q0 126 -48 236.5t-130.5 193t-193 130.5t-236.5 48q-84 0 -161.5 -21.5t-145 -61.5t-123 -95t-95 -123t-61.5 -145.5 t-22 -161.5zM92 717q0 152 57.5 285.5t157.5 233t233 157t285 57.5t285.5 -57.5t233 -157t157 -233t57.5 -285.5t-57.5 -285.5t-157 -233t-233 -157t-285.5 -57.5t-285 57.5t-233 157t-157.5 233t-57.5 285.5z"/>
<glyph glyph-name="P" horiz-adv-x="1205" unicode="P" d="M700 689q64 0 120.5 24t98.5 66t66 98.5t24 121.5q0 64 -24 120.5t-66 98.5t-98.5 66t-120.5 24h-375v-619h375zM325 0h-125v1433h500q90 0 169 -34t138 -93t93 -138t34 -169t-34 -169.5t-93 -138t-138 -92.5t-169 -34h-375v-565z"/>
<glyph glyph-name="Q" horiz-adv-x="1650" unicode="Q" d="M1155 206q63 40 114.5 95t87.5 120.5t56 140t20 155.5q0 126 -48 236.5t-130.5 193t-193 130.5t-236.5 48q-84 0 -161.5 -21.5t-145 -61.5t-123 -95t-95 -123t-61.5 -145.5t-22 -161.5t22 -161.5t61.5 -145.5t95 -123t123 -95t145 -61.5t161.5 -21.5q65 0 126 13t117 37 l75 -103q-72 -35 -152 -53.5t-166 -18.5q-152 0 -285 57.5t-233 157t-157.5 233t-57.5 285.5t57.5 285.5t157.5 233t233 157t285 57.5t285.5 -57.5t233 -157t157 -233t57.5 -285.5q0 -79 -16 -153.5t-46 -142.5t-73 -128.5t-97 -110.5q90 -120 180 -241.5t181 -246.5h-59 q-103 0 -151 76z"/>
<glyph glyph-name="R" horiz-adv-x="1259" unicode="R" d="M318 1308v-552h377q57 0 107.5 21.5t88 59t59.5 88t22 107.5t-22 107t-59.5 87.5t-88 59.5t-107.5 22h-377zM318 0h-125v1433h502q84 0 157 -31.5t127.5 -86t86 -127.5t31.5 -156q0 -74 -25 -143t-69 -124t-106 -90.5t-135 -43.5l474 -631h-59q-103 0 -152 76l-417 555 h-290v-631z"/>
<glyph glyph-name="S" horiz-adv-x="998" unicode="S" d="M719 1245q-23 16 -40.5 30t-37.5 24t-45.5 16t-65.5 6q-58 0 -110 -19.5t-91.5 -52.5t-62.5 -77t-23 -93q0 -56 14.5 -92t49 -63.5t91 -51t139.5 -52.5q44 -16 82 -30t72 -28.5t63.5 -31t56.5 -37.5q70 -54 98.5 -132t28.5 -171q0 -94 -37 -169t-100 -127.5t-147.5 -80.5 t-179.5 -28q-187 0 -315 111q-35 32 -59.5 63.5t-39.5 57.5l15 9q33 19 63 19q24 0 46 -6.5t39 -23.5q41 -38 74.5 -58.5t63 -30t57 -11.5t56.5 -3h14q52 0 106 14q60 16 109 50t79.5 87t30.5 127q0 82 -24 131.5t-66.5 80.5t-100.5 51.5t-125 46.5q-85 34 -155 63 t-119.5 68.5t-77 97.5t-27.5 150q0 84 37 152t95.5 116.5t132 75t147.5 26.5q63 0 114.5 -16.5t94 -42t77 -57.5t63.5 -63l-31 -22q-12 -9 -27.5 -14.5t-37.5 -5.5q-37 0 -64 17z"/>
<glyph glyph-name="T" horiz-adv-x="1125" unicode="T" d="M28 1308v126h1069v-126h-472v-1308h-125v1308h-472z"/>
<glyph glyph-name="U" horiz-adv-x="1437" unicode="U" d="M280 551q0 -92 35 -172.5t95 -140.5t140.5 -95t172.5 -35q91 0 171.5 35t140.5 95t95 140.5t35 172.5v882h126v-882q0 -118 -44.5 -221.5t-121.5 -180.5t-180.5 -121.5t-221.5 -44.5q-117 0 -220.5 44.5t-181 121.5t-122 180.5t-44.5 221.5v882h125v-882z"/>
<glyph glyph-name="V" horiz-adv-x="1251" unicode="V" d="M602 233q5 -11 8.5 -25.5t5.5 -27.5q3 -15 5 -30q1 15 4 30q2 13 6 27t9 26l493 1128q14 33 44 52.5t67 19.5h56q-79 -182 -156.5 -360t-155.5 -356t-156.5 -356.5t-157.5 -360.5h-106l-626 1433h56q37 0 67.5 -20t44.5 -52z"/>
<glyph glyph-name="W" horiz-adv-x="1905" unicode="W" d="M632 233q5 -11 8.5 -25.5t5.5 -27.5q3 -15 5 -30q1 15 4 30q2 13 6 27t9 26l493 1128q14 33 44 52.5t67 19.5h56l-284 -650l250 -550q5 -11 8.5 -25.5t5.5 -27.5q3 -15 5 -30q1 15 4 30q2 13 6 27t9 26l493 1128q14 33 44 52.5t67 19.5h56l-626 -1433h-106l-250 549 q-11 26 -15 47t-4 38q0 14 1 23t3 15l-293 -672h-106l-656 1433h56q37 0 67.5 -20t44.5 -52z"/>
<glyph glyph-name="X" horiz-adv-x="1241" unicode="X" d="M719 728q0 -17 11 -32.5t20 -27.5l493 -668h-60q-103 0 -151 76l-390 527q-8 10 -12 19t-6 16q-3 8 -3 14q0 -6 -3 -14q-2 -7 -6 -16t-12 -19l-390 -527q-49 -76 -152 -76h-60l495 670q2 4 7 10t10 13.5t9 16t4 18.5q0 15 -11 28.5t-19 27.5l-479 649h60q103 0 152 -77 l374 -504q8 -11 12 -20t6 -15t3 -10q0 4 2 9q3 12 18 36l374 504q49 77 151 77h61l-476 -644q-12 -14 -22 -30.5t-10 -30.5z"/>
<glyph glyph-name="Y" horiz-adv-x="1249" unicode="Y" d="M688 0h-125v599q0 28 -5 49.5t-14 41t-22 38.5t-30 42l-489 663h60q103 0 152 -77l390 -525q15 -26 18 -38l2 -10q0 4 2 10q3 12 18 38l392 525q49 77 151 77h61l-490 -662q-29 -39 -50 -79.5t-21 -92.5v-599z"/>
<glyph glyph-name="Z" d="M1136 126v-126h-1052v44q0 64 39 111l823 1153h-842v126h1015v-44q0 -60 -30 -100l-842 -1177q4 3 10 6q5 2 14 4.5t21 2.5h844z" unicode="Z"/>
<glyph glyph-name="bracketleft" horiz-adv-x="529" unicode="[" d="M142 1533h292q-5 -36 -9 -62t-7 -53h-161v-1592h161q3 -33 7.5 -61.5t8.5 -53.5h-292v1822z"/>
<glyph glyph-name="backslash" horiz-adv-x="855" unicode="\" d="M788 -90h-49q-18 0 -34.5 6.5t-31 18t-26 26t-18.5 30.5l-648 1481h25q45 0 85.5 -18.5t58.5 -60.5z"/>
<glyph glyph-name="bracketright" horiz-adv-x="483" unicode="]" d="M388 -289h-292q4 25 8.5 53.5t7.5 61.5h161v1592h-161q-3 27 -7 53t-9 62h292v-1822z"/>
<glyph glyph-name="asciicircum" horiz-adv-x="1035" unicode="^" d="M496 1449h20q23 0 39.5 -6.5t29.5 -18.5t23.5 -29t20.5 -38l231 -470h-34q-46 0 -83.5 25.5t-57.5 66.5l-169 348l-10 33l-10 -33l-170 -348q-20 -41 -57 -66.5t-83 -25.5h-34l229 468q10 21 20.5 38t24 29.5t30.5 19.5t40 7z"/>
<glyph glyph-name="underscore" horiz-adv-x="788" unicode="_" d="M790 -345h-790v114h790v-114z"/>
<glyph glyph-name="grave" horiz-adv-x="614" unicode="`" d="M86 1449h75q33 0 62.5 -13t40.5 -29q1 -1 14.5 -22t34 -55t46 -78t51.5 -91l-49 1q-32 1 -54 12t-36 26z"/>
<glyph glyph-name="a" horiz-adv-x="1025" unicode="a" d="M398 113q41 0 88.5 9t97.5 25t100.5 38.5t98.5 49.5v229q-6 1 -31 4t-60 5t-75.5 4t-77.5 2q-76 0 -140.5 -9.5t-111 -32t-73 -60t-26.5 -93.5q0 -36 15.5 -67t43.5 -54.5t66.5 -36.5t84.5 -13zM132 897q14 17 30 34q14 14 31 29t35 26q61 36 128 58t155 22 q82 0 143.5 -23t106 -62t73.5 -92t46 -113.5t24 -125t7 -126.5v-524h-108q-6 8 -13.5 24.5t-7.5 43.5v50q-45 -38 -93 -63.5t-96 -41.5t-94 -22.5t-86 -6.5h-14q-68 2 -129 23.5t-108 60.5t-74.5 93.5t-27.5 122.5q0 74 29 134t88 102t148.5 65t211.5 23q36 0 76.5 -3 t75.5 -7t61 -8t33 -5q-9 108 -34 177t-61.5 108.5t-83 54.5t-98.5 15q-57 0 -101.5 -15t-89.5 -44q-16 -10 -33 -20.5t-46 -10.5q-41 0 -80 30z"/>
<glyph glyph-name="b" horiz-adv-x="1216" unicode="b" d="M620 111q87 0 158.5 34.5t123.5 91.5t80.5 131.5t28.5 155.5q0 83 -28.5 158t-80.5 132t-123.5 90.5t-158.5 33.5q-45 0 -91 -10.5t-90 -30t-84.5 -47.5t-74.5 -62v-528q34 -35 74.5 -62.5t84.5 -46.5t90 -29.5t91 -10.5zM152 0v1432h128v-513q50 51 97 80t89.5 44 t81 18.5t72.5 3.5q111 0 206 -42.5t164.5 -116t109 -172t39.5 -210.5t-39.5 -210.5t-109 -172t-164.5 -116t-206 -42.5q-34 0 -72 3.5t-80.5 17.5t-89.5 42t-98 76v-63q0 -26 -5 -38t-10 -21h-113z"/>
<glyph glyph-name="c" horiz-adv-x="1001" unicode="c" d="M616 938q-87 0 -162.5 -32t-131.5 -88t-88 -131t-32 -162t32 -162t88 -131t131.5 -88t162.5 -32q53 0 106.5 15.5t98.5 39.5q15 8 32 13.5t33 5.5q26 0 47.5 -13t38.5 -30l11 -11q-29 -29 -68.5 -55.5t-87 -47t-101 -33t-110.5 -12.5q-75 0 -144 19.5t-129 54.5 t-109.5 84.5t-85 109.5t-55 129.5t-19.5 143.5t19.5 143.5t55 129.5t85 109.5t109.5 84.5t129 54.5t144 19.5q56 0 108.5 -11.5t99 -31.5t87 -47t72.5 -58l-11 -11q-20 -20 -41.5 -31.5t-50.5 -11.5q-17 0 -31 5t-28 13q-47 27 -99 40.5t-106 15.5z"/>
<glyph glyph-name="d" horiz-adv-x="1214" unicode="d" d="M591 937q-87 0 -158.5 -34.5t-123.5 -92t-80.5 -132t-28.5 -154.5q0 -83 28.5 -157.5t80.5 -131.5t123.5 -90.5t158.5 -33.5q92 0 181.5 40t158.5 109v527q-69 69 -158.5 109.5t-181.5 40.5zM954 0q-7 7 -12 18q-5 10 -8 24.5t-3 35.5v42q-53 -48 -100 -75t-89 -41 t-79.5 -17.5t-71.5 -3.5q-111 0 -206 42.5t-164.5 116t-109 172t-39.5 210.5t39.5 210.5t109 172t164.5 116t206 42.5q34 0 71.5 -3.5t79.5 -17.5t89 -41t100 -73v503h128v-1433h-105z"/>
<glyph glyph-name="e" horiz-adv-x="1204" unicode="e" d="M615 938q-80 0 -150 -27t-124.5 -74.5t-90 -112.5t-45.5 -141q5 13 17.5 29t35.5 16h752q-18 74 -56.5 131.5t-91.5 97.5t-116.5 60.5t-130.5 20.5zM614 1066q94 0 178.5 -30.5t152.5 -84.5t116.5 -128.5t72.5 -162.5q5 -20 5 -35q0 -26 -9.5 -48.5t-25.5 -40t-38 -27.5 t-47 -10h-817q4 -83 38 -154t89 -122.5t128 -81t157 -29.5q26 0 56.5 6t61 16.5t60 24.5t54.5 30q14 9 31.5 13t33.5 4t28.5 -3.5t23.5 -10t21.5 -15.5t23.5 -19q-37 -37 -82 -68.5t-96 -55t-105.5 -37t-110.5 -13.5q-75 0 -144 19.5t-129 54.5t-109.5 84.5t-85 109.5 t-55 129.5t-19.5 143.5q0 112 43 210.5t117 172t172.5 116t209.5 42.5z"/>
<glyph glyph-name="f" horiz-adv-x="638" unicode="f" d="M200 0v932h-189v74q0 46 122 46h67v128q0 57 17.5 104.5t50 82t79 54t103.5 19.5q23 0 51 -5t56 -14t54.5 -21.5t47.5 -26.5l-21 -30q-17 -22 -34 -29t-47 -7q-26 0 -69 12q-5 1 -11 2q-5 1 -12 1.5t-15 0.5q-30 0 -52.5 -13t-38 -34t-23.5 -46.5t-8 -49.5v-130h293v-118 h-293v-932h-128z"/>
<glyph glyph-name="g" horiz-adv-x="987" unicode="g" d="M232 685q0 -54 19.5 -100.5t53 -80t80 -53t100.5 -19.5t100.5 19.5t80 53t53 80t19.5 100.5t-19.5 100.5t-53 80t-80 53t-100.5 19.5t-100.5 -19.5t-80 -53t-53 -80t-19.5 -100.5zM990 955q-12 -29 -55 -45t-132 -16q15 -21 27 -49t20 -56.5t12 -56t4 -47.5 q0 -79 -30 -148.5t-82 -121t-121 -81.5t-148 -30q-91 0 -171 40l-7 -4q-41 -23 -70.5 -45t-29.5 -53q0 -12 5 -21q15 -18 42.5 -29.5t63 -18t75.5 -9.5t80 -3q69 0 140 -6t131 -26q77 -26 117 -80.5t40 -130.5q0 -59 -24 -106t-70 -80t-113 -50.5t-152 -17.5q-68 0 -133 9.5 t-126.5 25.5t-119.5 35.5t-110 39.5l12 33q8 25 36 45t62 20q23 0 45 -6t42 -14q11 -5 38 -15t65 -19.5t86.5 -17t103.5 -7.5q30 0 69.5 3t75 15.5t60.5 37.5t25 68v4q0 7 -1.5 18.5t-8 23.5t-20 23.5t-37.5 19.5q-60 19 -123.5 23t-122.5 4q-63 0 -127 10.5t-116.5 34 t-87 60t-39.5 89.5v8q0 10 4 24.5t19 34t45.5 43.5t83.5 54q-50 40 -77.5 86t-41 87.5t-16.5 73t-3 42.5v5q0 79 30 148t81.5 121t121 82t148.5 30q63 0 126 -23.5t122 -67.5q26 17 63.5 31.5t84.5 14.5q25 0 57 -6.5t64 -16.5z"/>
<glyph glyph-name="h" horiz-adv-x="1162" unicode="h" d="M250 1435q7 -5 12 -13q5 -7 8.5 -18t3.5 -27v-488q9 24 35.5 54.5t70.5 58t105.5 46.5t140.5 19q99 0 171 -33.5t119 -94.5t70 -146.5t23 -189.5v-603h-128v603q0 81 -14 143t-44.5 104.5t-79 65t-117.5 24.5h-11q-80 0 -143 -25t-107 -62t-67.5 -78t-23.5 -74v-701h-128 v1435h104z"/>
<glyph glyph-name="i" horiz-adv-x="462" unicode="i" d="M128 1346q0 21 8 40t22 33t33 22t40 8t40 -8t33 -22t22 -33t8 -40t-8 -40t-22 -33t-33 -22t-40 -8t-40 8t-33 22t-22 33t-8 40zM294 1050v-1050h-128v1050h128z"/>
<glyph glyph-name="j" horiz-adv-x="462" unicode="j" d="M127 1346q0 21 8 40t22 33t32.5 22t40.5 8q21 0 40 -8t33 -22t22 -33t8 -40t-8 -40t-22 -33t-33 -22t-40 -8q-22 0 -40.5 8t-32.5 22t-22 33t-8 40zM294 14q-6 -81 -33 -146.5t-66.5 -115t-87 -83.5t-92.5 -52l-11 25q-5 10 -8.5 25.5t-3.5 24.5q0 28 15 43.5t35 36.5 q43 45 68 85.5t37.5 75t15.5 61.5t3 45v1011h128v-1036z"/>
<glyph glyph-name="k" horiz-adv-x="986" unicode="k" d="M756 971q31 36 67 57.5t88 21.5h85q-91 -102 -174 -194q-35 -39 -72 -79.5t-70.5 -77.5t-62.5 -69t-48 -53q-11 -12 -20 -19t-14 -11q-7 -4 -11 -5q8 -4 16 -9q7 -5 14.5 -11t15.5 -15q44 -56 103 -119.5t120.5 -130t120 -132.5t102.5 -125h-78q-51 0 -87 21.5t-68 56.5 l-394 434q-8 8 -16 13.5t-15 9.5q-8 4 -16 7q8 2 16 6q7 3 15 9t16 14zM280 0h-128v1433h128v-1433z"/>
<glyph glyph-name="l" horiz-adv-x="462" unicode="l" d="M294 1433v-1433h-128v1433h128z"/>
<glyph glyph-name="m" horiz-adv-x="1682" unicode="m" d="M1208 1067q105 0 173.5 -36.5t108.5 -99.5t56 -148t16 -182v-601h-129v600q0 60 -10 120.5t-36 108.5t-70.5 78t-114.5 30q-63 0 -113.5 -16.5t-87 -44t-57.5 -63.5t-24 -76v-737h-129v616q0 17 -2.5 47.5t-11 66.5t-23.5 72.5t-39.5 66.5t-60 49t-84.5 19 q-83 0 -138.5 -22.5t-90 -54.5t-49 -66t-14.5 -57v-737h-128v1050h111q8 -8 12.5 -20.5t4.5 -27.5v-92q7 19 31.5 46t62.5 51.5t89.5 41.5t113.5 17q64 0 113 -19t84.5 -49t58 -67.5t33.5 -75.5q29 59 65.5 99.5t79 65.5t92 36t103.5 11h4z"/>
<glyph glyph-name="n" horiz-adv-x="1162" unicode="n" d="M261 1050q5 -10 9 -23.5t4 -44.5v-91q37 45 81 78t91 54.5t96 32.5t96 11q86 0 154.5 -32.5t116.5 -93t74 -146.5t26 -192v-603h-128v603q0 161 -62.5 248.5t-192.5 87.5q-73 0 -136 -19t-110 -52t-75 -76.5t-31 -91.5v-700h-128v1050h115z"/>
<glyph glyph-name="o" d="M200 525q0 -87 32 -162t88 -131t131.5 -88t161.5 -32q87 0 162 32t131 88t88 131t32 162t-32 162t-88 131t-131 88t-162 32q-86 0 -161.5 -32t-131.5 -88t-88 -131t-32 -162zM72 525q0 74 19.5 143.5t55 129.5t85 109.5t109.5 84.5t129 54.5t143 19.5q112 0 210.5 -42.5 t172 -116t116 -172t42.5 -210.5t-42.5 -210.5t-116 -172t-172 -116t-210.5 -42.5q-74 0 -143 19.5t-129 54.5t-109.5 84.5t-85 109.5t-55 129.5t-19.5 143.5z" unicode="o"/>
<glyph glyph-name="p" horiz-adv-x="1203" unicode="p" d="M618 112q87 0 159 32t124 88t80.5 131t28.5 162t-28.5 162t-80.5 131t-124 88t-159 32q-91 0 -178 -37t-156 -106v-487q27 -48 66 -84.5t83 -61.5t92 -37.5t93 -12.5zM271 1050q5 -10 9 -21.5t4 -26.5v-78q24 37 69 64t95 44.5t96.5 25.5t73.5 8q111 0 206.5 -42.5 t165 -116t109 -172t39.5 -210.5t-39.5 -210.5t-109 -172t-165 -116t-206.5 -42.5q-33 0 -73 6t-83 24.5t-88 53.5t-90 92v-527h-128v1417h115z"/>
<glyph glyph-name="q" horiz-adv-x="1218" unicode="q" d="M592 112q45 0 94.5 12.5t95.5 37.5t86.5 61.5t67.5 84.5v487q-34 34 -75 61t-85.5 45t-91.5 27.5t-92 9.5q-87 0 -159 -32t-124 -88t-80.5 -131t-28.5 -162t28.5 -162t80.5 -131t124 -88t159 -32zM1064 1050v-1417h-128v527q-45 -57 -91.5 -92t-91.5 -53.5t-86.5 -24.5 t-74.5 -6q-111 0 -206.5 42.5t-165 116t-109 172t-39.5 210.5t39.5 210.5t109 172t165 116t206.5 42.5q18 0 46 -3.5t60.5 -11t68 -19t67.5 -27.5t59 -36t43 -45v78q0 15 4 26.5t9 21.5h115z"/>
<glyph glyph-name="r" horiz-adv-x="731" unicode="r" d="M213 1050q5 -10 9 -21.5t4 -26.5v-118q19 39 58 72.5t89 58t108 38t116 13.5q61 0 117 -17l-10 -55q-4 -22 -13 -34t-21.5 -17.5t-28 -6.5t-31.5 -1h-15q-73 0 -138.5 -24t-116 -62t-81 -85.5t-33.5 -94.5v-669h-128v1050h115z"/>
<glyph glyph-name="s" horiz-adv-x="745" unicode="s" d="M12 148q32 16 50.5 25.5t41.5 9.5q17 0 35 -4t45 -22q30 -21 65.5 -32t73.5 -11q41 0 82 11.5t75 35t55.5 59t23.5 84.5q-2 31 -11.5 57t-33 48.5t-63.5 43.5t-102 43l-21 7q-52 18 -103 38.5t-92 53t-66.5 81.5t-25.5 124q0 61 26.5 108.5t69 80t95.5 49.5t105 19h9 q52 -2 96 -19t78.5 -40t60 -47.5t41.5 -41.5l-19 -16q-16 -14 -34.5 -24.5t-39.5 -10.5q-13 1 -25 6t-24.5 12t-25.5 15t-27 15q-26 14 -50 18t-39 4q-46 -1 -78 -15.5t-52.5 -34.5t-29.5 -41.5t-9 -36.5q0 -41 17.5 -69.5t46.5 -48.5t65.5 -34t74.5 -27l10 -3 q57 -19 112 -45t97.5 -62.5t68.5 -87t26 -119.5q0 -65 -28 -122.5t-77.5 -101.5t-116 -69.5t-142.5 -25.5q-93 0 -175.5 42.5t-135.5 120.5z"/>
<glyph glyph-name="t" horiz-adv-x="715" unicode="t" d="M346 244q0 -24 8.5 -49.5t24.5 -46.5t39.5 -34t54.5 -13l31 4q43 12 71 12q31 0 55.5 -18t43.5 -44l3 -4q-21 -14 -48 -26t-55.5 -21t-56 -14.5t-49.5 -5.5q-58 0 -104 19t-78.5 53.5t-50 82.5t-17.5 105v688h-190v74q0 46 123 46h67v237q0 45 11.5 75t20.5 45h96v-358 h315v-119h-315v-688z"/>
<glyph glyph-name="u" horiz-adv-x="1122" unicode="u" d="M871 0q-5 10 -9 23.5t-4 44.5v71q-37 -45 -81 -75t-91.5 -48t-96 -25.5t-95.5 -7.5q-86 0 -154.5 32.5t-116.5 93t-74 146t-26 192.5v603h128v-603q0 -161 62.5 -248.5t192.5 -87.5q73 0 136 19t110 52t75 76.5t31 91.5v700h128v-1050h-115z"/>
<glyph glyph-name="v" horiz-adv-x="1005" unicode="v" d="M-35 1050h56q38 0 70.5 -20t46.5 -53l342 -786q11 -26 14 -47q2 -11 3 -21q2 23 5.5 37t11.5 31l347 786q15 34 46 54t68 20h57q-60 -139 -117 -269t-113 -258t-112.5 -257t-116.5 -267h-150z"/>
<glyph glyph-name="w" horiz-adv-x="1679" unicode="w" d="M-26 1050h56q38 0 70.5 -20t46.5 -53l342 -786q10 -23 13 -42t4 -24q2 21 5.5 35t11.5 31l347 786q15 34 46 54t68 20h57q-34 -78 -66.5 -152.5t-64.5 -147.5l244 -560q10 -23 13 -42t4 -24q2 21 5.5 35t11.5 31l347 786q15 34 46 54t68 20h57q-60 -139 -117 -269 t-113 -258t-112.5 -257t-116.5 -267h-150l-237 545q-5 11 -7 22t-2 22q0 10 1 18.5t3 14.5q2 7 4 13q-32 -72 -66.5 -151.5t-70.5 -161t-71.5 -163t-68.5 -159.5h-150z"/>
<glyph glyph-name="x" horiz-adv-x="1050" unicode="x" d="M627 546q0 -17 10.5 -33t20.5 -27l408 -486h-81q-51 0 -86.5 20.5t-64.5 55.5l-288 345q-8 10 -12 19t-6 16q-3 8 -3 14q0 -6 -3 -14q-2 -7 -6 -16t-12 -19l-288 -345q-29 -35 -65 -55.5t-87 -20.5h-81l411 488q6 8 18 23t12 35q0 14 -9 28t-19 26l-356 450h60 q51 0 94 -20.5t72 -56.5l238 -303q8 -11 12.5 -20t6.5 -15q1 -5 2 -9q0 4 2 8q3 12 18 36l239 303q29 36 71.5 56.5t93.5 20.5h61l-351 -443q-12 -14 -22 -30.5t-10 -30.5z"/>
<glyph glyph-name="y" horiz-adv-x="1106" unicode="y" d="M27 1058h56q37 0 70 -19.5t45 -53.5l314 -720q8 -20 12 -38t5 -32q1 -16 0 -30l359 819q15 34 46.5 54t68.5 20h57l-596 -1362q-13 -36 -44.5 -56.5t-69.5 -20.5h-58l182 412z"/>
<glyph glyph-name="z" horiz-adv-x="932" unicode="z" d="M842 126v-128h-772v46q0 64 39 111l555 767h-552v128h731v-44q0 -60 -30 -100l-572 -793q4 3 10 6q5 2 14 4.5t21 2.5h556z"/>
<glyph glyph-name="braceleft" horiz-adv-x="600" unicode="{" d="M86 665q20 6 41 18t38.5 32t28.5 48t11 67q0 34 -3 62t-7 52t-8.5 45.5t-7.5 41.5q-5 30 -9 62.5t-4 75.5q0 8 0.5 17t0.5 18q1 45 13 90.5t35 87t57 76t80 58.5q13 7 30 14q14 6 33.5 11.5t42.5 10.5q2 -17 5 -32.5t3 -21.5q0 -21 -13 -38.5t-30.5 -32t-35 -25 t-25.5 -18.5l-24 -24q-24 -32 -39.5 -68.5t-15.5 -86.5t1.5 -88t12.5 -84q4 -18 8.5 -42t8 -51t5.5 -54t2 -51v-7q-1 -66 -18.5 -107t-39.5 -64.5t-42 -32t-26 -9.5q5 -1 25.5 -8.5t42.5 -30t39.5 -63.5t17.5 -110v-9q0 -69 -7.5 -114.5t-15.5 -80.5l-3 -13q-4 -19 -6.5 -37 t-3.5 -37t-1 -40v-46q0 -50 17.5 -91t48.5 -75q15 -17 35 -30t38 -27.5t30.5 -32.5t12.5 -43q0 -14 -2.5 -26t-4.5 -24q-25 4 -45.5 10.5t-35.5 13.5q-18 8 -33 16q-38 19 -70 52t-56 74t-37.5 88t-13.5 96q0 58 2 97.5t10 75.5q4 20 8.5 40.5t8.5 44.5t6.5 52.5t2.5 63.5 q0 38 -11.5 66.5t-28.5 48t-38.5 32t-40.5 18.5v99z"/>
<glyph glyph-name="bar" horiz-adv-x="502" unicode="|" d="M210 1577h114v-1865h-114v1865z"/>
<glyph glyph-name="braceright" horiz-adv-x="600" unicode="}" d="M519 566q-20 -6 -41 -18.5t-38 -32t-28.5 -48t-11.5 -66.5q0 -35 2.5 -63.5t6.5 -52.5t8.5 -44.5t8.5 -40.5q8 -36 10 -75.5t2 -97.5q0 -49 -13.5 -96t-37.5 -88t-56.5 -74t-69.5 -52q-15 -8 -33 -16q-15 -7 -36 -13.5t-45 -10.5q-2 12 -4.5 24t-2.5 26q0 25 12.5 43 t30.5 32.5t38 27.5t35 30q31 34 48.5 75t17.5 91v46t-1 40t-3.5 37t-6.5 37l-3 13q-8 35 -15.5 80.5t-7.5 114.5v9q0 69 17.5 110t39.5 63.5t42.5 30t25.5 8.5q-6 1 -26.5 9.5t-42 32t-39 64.5t-18.5 107v7q0 24 2 51t5.5 54t8 51t8.5 42q10 46 12 84t2 88t-15.5 86.5 t-39.5 68.5l-24 24q-8 8 -25.5 18.5t-35 25t-30.5 32t-13 38.5q0 6 3 21.5t5 32.5q45 -9 76 -22q17 -7 30 -14q46 -24 80 -58.5t57 -76t34.5 -87t13.5 -90.5q0 -9 0.5 -18t0.5 -17q0 -43 -4 -75.5t-9 -62.5q-3 -20 -7.5 -41.5t-8.5 -45.5t-7 -52t-3 -62q0 -39 11 -67 t28.5 -48t38.5 -32t41 -18v-99z"/>
<glyph glyph-name="asciitilde" horiz-adv-x="1109" unicode="~" d="M102 511q11 26 33.5 65t56.5 75t80 62t104 26q72 0 126 -18.5t100.5 -40.5t89.5 -40.5t91 -18.5q31 0 53 9.5t37 23.5t26 29t22 26q7 9 17 16q8 6 18.5 11t22.5 5q10 0 34 -3.5t59 -13.5q-28 -64 -69 -115q-18 -22 -40.5 -42.5t-50 -37t-60 -27t-70.5 -10.5 q-68 5 -121 24t-100 40t-91 37.5t-94 16.5q-23 0 -39.5 -8t-29.5 -21t-24.5 -28.5t-23.5 -30.5q-11 -12 -26.5 -21.5t-27.5 -9.5t-38.5 3.5t-64.5 16.5z"/>
<glyph glyph-name="exclamdown" horiz-adv-x="615" unicode="¡" d="M205 935q0 19 7.5 36.5t20.5 30.5t30 20.5t37 7.5t37.5 -7.5t30.5 -20.5t20.5 -30.5t7.5 -36.5q0 -40 -28 -67.5t-68 -27.5q-20 0 -37 7.5t-30 20t-20.5 30t-7.5 37.5zM358 641v-980h-115v980h115z"/>
<glyph glyph-name="cent" horiz-adv-x="981" unicode="¢" d="M202 525q0 -75 25.5 -142t70.5 -120.5t106 -90t132 -51.5v807q-71 -15 -132 -51.5t-106 -89.5t-70.5 -120t-25.5 -142zM536 1229h89v-163q53 -2 104 -14t97.5 -32t86 -46t70.5 -56l-11 -11q-20 -20 -41.5 -31.5t-50.5 -11.5q-17 0 -31 5t-28 13q-44 25 -95 38.5 t-101 16.5v-825q49 2 101.5 17t94.5 38q15 8 32 13.5t33 5.5q26 0 47.5 -13t38.5 -30l11 -11q-28 -28 -67 -54t-85.5 -46.5t-99 -33t-106.5 -14.5v-163h-89v170q-96 16 -180.5 63.5t-147 118.5t-98.5 161t-36 191q0 100 36 190.5t98.5 161.5t147 118.5t180.5 63.5v170z"/>
<glyph glyph-name="sterling" horiz-adv-x="1119" unicode="£" d="M758 720v-89h-384v-245q0 -59 -9.5 -103t-25.5 -75.5t-37 -51t-44 -28.5h816q3 -38 6.5 -68.5t7.5 -59.5h-989v73q0 17 2 28.5t9 19.5q10 13 33 32.5t45.5 49.5t40 72.5t17.5 102.5v253h-156v89h156v299q0 89 34 168t92.5 137.5t137 92.5t168.5 34q57 0 110 -14t99.5 -40 t85.5 -62.5t68 -80.5l-7 -3q-25 -14 -45 -21.5t-36 -7.5q-29 0 -52.5 14t-40.5 26l-23 16q-33 23 -73.5 33.5t-85.5 10.5q-63 0 -118.5 -23.5t-97 -65t-65 -96.5t-23.5 -118v-299h384z"/>
<glyph glyph-name="currency" horiz-adv-x="1120" unicode="¤" d="M254 1047l79 -79q60 43 118 62t120 19q63 0 121 -19t119 -63l80 80l64 -64l-81 -80q43 -60 61.5 -117t18.5 -118q0 -64 -18.5 -121.5t-62.5 -117.5l81 -83l-62 -63l-83 83q-60 -42 -118 -61t-120 -19t-119 18.5t-117 61.5l-82 -82l-63 63l81 81q-44 60 -62 118t-18 122 q0 61 18.5 118.5t60.5 117.5l-79 80zM319 668q0 -58 21 -105t56.5 -80t81 -51t93.5 -18q56 0 103 20.5t80.5 55.5t52 81t18.5 97q0 56 -21 102.5t-56 79.5t-81 51.5t-96 18.5t-95.5 -17.5t-80 -50t-55.5 -79.5t-21 -105z"/>
<glyph glyph-name="yen" horiz-adv-x="1250" unicode="¥" d="M688 0h-125v324h-283v89h283v87h-283v89h283v10q0 28 -5 49.5t-14 41t-22 38.5t-30 42l-489 663h60q103 0 152 -77l390 -525q11 -19 15 -31t5 -17q1 5 5 17.5t15 30.5l392 525q49 77 151 77h61l-490 -662q-29 -39 -50 -79.5t-21 -92.5v-10h280v-89h-280v-87h280v-89h-280 v-324z"/>
<glyph glyph-name="brokenbar" horiz-adv-x="536" unicode="¦" d="M324 1578v-798h-114v798h114zM324 510v-798h-114v798h114z"/>
<glyph glyph-name="section" horiz-adv-x="919" unicode="§" d="M484 871q-41 0 -85 -13.5t-80 -40.5t-59 -66.5t-23 -90.5q0 -45 20.5 -80.5t54.5 -60t76 -38t86 -13.5q48 0 93 13.5t79 40.5t54.5 66.5t20.5 91.5q0 43 -21 78.5t-55 60.5t-76.5 38.5t-84.5 13.5zM598 374q61 -4 99.5 -30t60 -62t29 -76t7.5 -73q0 -62 -27.5 -111 t-71.5 -83t-101 -52t-115 -18h-9q-53 1 -98.5 19.5t-84 44t-69 54.5t-54.5 53l15 11q15 11 30 18.5t32 7.5q14 0 28 -2t22 -7q19 -14 41 -28.5t46 -27t49.5 -20.5t51.5 -8q44 0 81 13t63.5 34t41 47.5t14.5 53.5q0 46 -19 77t-55.5 56t-91 46.5t-125.5 47.5 q-62 23 -111.5 52t-84 65t-53 80.5t-18.5 99.5q0 46 12.5 90.5t40.5 85t73.5 76t110.5 63.5q-60 4 -94 28.5t-50.5 58.5t-20.5 71.5t-4 68.5q0 63 29.5 112.5t76.5 84t106.5 52.5t118.5 18q39 0 79.5 -14t78.5 -36t70.5 -49t55.5 -53l-22 -19q-28 -22 -69 -22q-12 0 -26 6 t-20 11q-39 26 -76.5 43.5t-69.5 17.5q-46 0 -85.5 -12.5t-69 -33.5t-46 -48.5t-16.5 -57.5q0 -47 9.5 -76.5t38 -51.5t81 -41.5t138.5 -47.5q130 -42 198 -116.5t68 -186.5q0 -45 -14.5 -93.5t-44 -91t-74.5 -75t-106 -44.5z"/>
<glyph glyph-name="dieresis" horiz-adv-x="564" unicode="¨" d="M286 1284q0 35 24.5 60t59.5 25t60 -25t25 -60t-25 -59.5t-60 -24.5t-59.5 24.5t-24.5 59.5zM17 1284q0 35 24.5 60t59.5 25t60 -25t25 -60t-25 -59.5t-60 -24.5t-59.5 24.5t-24.5 59.5z"/>
<glyph glyph-name="copyright" horiz-adv-x="1596" unicode="©" d="M808 1080q-76 0 -142 -28t-115 -77t-77.5 -115.5t-28.5 -142.5t28.5 -142t77.5 -115t115 -77t142 -28q46 0 93 14t87 35q14 6 28.5 11t28.5 5q23 0 41.5 -11t34.5 -26l9 -10q-25 -26 -60 -49.5t-76.5 -41.5t-88.5 -28.5t-97 -10.5q-98 0 -184.5 37.5t-151 102t-102 150.5 t-37.5 184t37.5 184.5t102 151t151 102t184.5 37.5q49 0 95 -10t87.5 -28t76.5 -41.5t63 -50.5l-9 -9q-17 -17 -36.5 -27.5t-44.5 -10.5q-15 0 -27 4t-25 12q-41 23 -86.5 35t-93.5 14zM161 717q0 -130 49.5 -246.5t136 -204t203 -138.5t251.5 -51q91 0 173.5 23.5 t153.5 65.5t129 101t99 130t63 152t22 168t-22 168t-62.5 152t-98 130t-128.5 101t-154 65.5t-175 23.5q-137 0 -254 -51t-203 -138.5t-134.5 -204t-48.5 -246.5zM69 717q0 101 26 194.5t74 175t114.5 148t148 114.5t175 74t194.5 26t194.5 -26t175 -74t148 -114.5 t114.5 -148t74 -175t26 -194.5t-26 -194.5t-74 -175t-114.5 -148t-148 -114.5t-175 -74t-194.5 -26q-152 0 -285 57.5t-232.5 157t-157 232.5t-57.5 285z"/>
<glyph glyph-name="ordfeminine" horiz-adv-x="726" unicode="ª" d="M298 957q53 0 114 21t129 60v137q-4 1 -18.5 4t-35 6t-46 5t-51.5 2q-108 0 -169 -26t-61 -94q0 -34 9.5 -56t27 -35t43 -18.5t58.5 -5.5zM96 1469q14 16 29 31q12 13 26.5 26t25.5 21q44 33 87.5 46.5t105.5 13.5q87 0 142.5 -32t87 -85.5t43.5 -123t12 -144.5v-372 h-100q-5 5 -10 16.5t-5 30.5v36q-64 -54 -123 -74.5t-116 -20.5h-11q-47 1 -91.5 16t-78.5 43.5t-54.5 70.5t-20.5 98q0 45 16 87.5t54.5 76t102 54t159.5 22.5h6q25 0 51.5 -2.5t48.5 -5.5t37.5 -6t20.5 -4q-5 68 -22.5 108.5t-42 62t-53.5 28t-57 6.5t-48.5 -4.5 t-36.5 -11.5t-29 -14.5t-27 -13.5q-11 -5 -22.5 -10t-32.5 -5q-15 0 -31.5 7.5t-42.5 27.5z"/>
<glyph glyph-name="guillemotleft" horiz-adv-x="862" unicode="«" d="M290 853q18 42 58.5 63t86.5 21h17l-157 -364q-5 -11 -12.5 -19.5t-15.5 -13.5q-9 -7 -18 -11q10 -6 19 -13q8 -6 15.5 -14.5t12.5 -19.5l156 -350h-17q-23 0 -46 6.5t-43 18.5t-36 28.5t-25 37.5l-123 278q-9 17 -16 23q-4 4 -8 5q5 2 9 6q4 3 7.5 8t7.5 13zM563 853 q18 42 58.5 63t86.5 21h17l-157 -364q-5 -11 -12.5 -19.5t-15.5 -13.5q-9 -7 -18 -11q10 -6 19 -13q8 -6 15.5 -14.5t12.5 -19.5l156 -350h-17q-23 0 -46 6.5t-43 18.5t-36 28.5t-25 37.5l-123 278q-9 17 -16 23q-4 4 -8 5q5 2 9 6q4 3 7.5 8t7.5 13z"/>
<glyph glyph-name="logicalnot" horiz-adv-x="1160" unicode="¬" d="M892 316v251h-742v115h857v-366h-115z"/>
<glyph glyph-name="uni00AD" horiz-adv-x="694" unicode="­" d="M599 541h-506v114h506v-114z"/>
<glyph glyph-name="registered" horiz-adv-x="1596" unicode="®" d="M632 1063v-311h228q29 0 55.5 12.5t46.5 34t31.5 49.5t11.5 59q0 34 -13.5 62.5t-35.5 49.5t-49 32.5t-54 11.5h-221zM161 717q0 -130 51 -246.5t138.5 -204t204 -138.5t246.5 -51q90 0 180 26t163 73l-342 463h-170v-382h-112v918h330q55 0 104 -21t85.5 -57t57.5 -85 t21 -105q0 -45 -14 -85.5t-38.5 -74t-59 -58t-74.5 -37.5l302 -408q47 43 85 97t65 114.5t42 126.5t15 135q0 130 -51 246.5t-138.5 204t-204 138.5t-246.5 51t-246.5 -51t-204 -138.5t-138.5 -204t-51 -246.5zM69 717q0 101 26 194.5t74 175t114.5 148t148 114.5t175 74 t194.5 26t194.5 -26t175 -74t148 -114.5t114.5 -148t74 -175t26 -194.5t-26 -194.5t-74 -175t-114.5 -148t-148 -114.5t-175 -74t-194.5 -26q-152 0 -285 57.5t-232.5 157t-157 232.5t-57.5 285z"/>
<glyph glyph-name="macron" horiz-adv-x="614" unicode="¯" d="M584 1331v-114h-554v114h554z"/>
<glyph glyph-name="degree" horiz-adv-x="794" unicode="°" d="M189 1128q0 -42 16.5 -80t44.5 -66t66 -44.5t80 -16.5q43 0 80.5 16.5t66 44.5t45 66t16.5 80q0 43 -16.5 80.5t-45 66t-66 45t-80.5 16.5q-42 0 -80 -16.5t-66 -45t-44.5 -66t-16.5 -80.5zM76 1128q0 66 25.5 124.5t69 102t102 69t124.5 25.5t124.5 -25.5t102 -69 t69 -102t25.5 -124.5t-25.5 -124.5t-69 -102t-102 -69t-124.5 -25.5t-124.5 25.5t-102 69t-69 102t-25.5 124.5z"/>
<glyph glyph-name="plusminus" horiz-adv-x="1160" unicode="±" d="M1056 267h-954v114h954v-114zM523 420v378h-421v114h421v412h114v-412h419v-114h-419v-378h-114z"/>
<glyph glyph-name="twosuperior" horiz-adv-x="647" unicode="²" d="M570 882h-479v22q0 13 2.5 32t18.5 35q79 75 148 145q29 30 58.5 62t56 62.5t47.5 58.5t33 51q16 29 16 60q0 40 -13.5 65.5t-35 40.5t-48.5 20.5t-53 5.5q-37 0 -61 -12.5t-47 -33.5q-21 -20 -34.5 -30t-33.5 -10q-7 0 -23 6.5t-24 10.5l-8 5q8 14 20 36.5t29 39.5 q21 22 48 39q23 14 57 26t79 13q119 -5 178.5 -63.5t59.5 -158.5q0 -35 -12.5 -74.5t-35.5 -68.5q-47 -59 -94 -111.5t-86 -94.5q-46 -48 -88 -90h325v-89z"/>
<glyph glyph-name="threesuperior" horiz-adv-x="618" unicode="³" d="M310 877q-100 0 -165 58q-18 17 -30 33.5t-20 30.5l6 3q4 3 12 7t16.5 7.5t16.5 6.5t12 3q26 0 44 -18l11 -10q12 -9 21.5 -15.5t20 -10t24 -5t31.5 -1.5q55 0 90.5 36.5t35.5 102.5q0 29 -10.5 53t-28 41.5t-41.5 27t-51 9.5h-30v89h30q18 0 37.5 10t35 26.5t26 37.5 t10.5 42q0 30 -11 50t-27.5 33t-35 18.5t-33.5 5.5h-12q-18 0 -31 -6.5t-23.5 -14t-21.5 -13.5t-26 -6q-17 0 -31.5 11.5t-37.5 29.5q37 40 81.5 64.5t97.5 24.5q42 0 78.5 -15t63.5 -41.5t42.5 -62.5t15.5 -77q0 -21 -7.5 -45t-21 -46.5t-31.5 -41t-39 -29.5 q60 -25 91.5 -73t31.5 -101q0 -54 -17.5 -97t-47 -72t-69 -44.5t-83.5 -15.5z"/>
<glyph glyph-name="acute" horiz-adv-x="552" unicode="´" d="M220 1200q-14 -15 -36 -26t-54 -12l-44 -1q25 47 51 91t46.5 78t34 55t14.5 22q11 16 38 29t60 13h75z"/>
<glyph glyph-name="mu" horiz-adv-x="1164" unicode="µ" d="M122 1050h114v-712q3 -47 32 -90t74.5 -76t102.5 -53t117 -20t119.5 20t107.5 53t79.5 76t34.5 90v712h114v-1050h-95q-6 6 -10 17q-4 8 -6.5 21t-2.5 30v95q-35 -48 -77 -81.5t-86.5 -55t-90 -31.5t-85.5 -10q-14 0 -38 3t-53.5 10t-62.5 20t-64.5 32.5t-60 47.5 t-49.5 66v-504h-114v1390z"/>
<glyph glyph-name="paragraph" horiz-adv-x="1263" unicode="¶" d="M40 992q0 61 18 117.5t49.5 105.5t74 89t91.5 69t102.5 44.5t106.5 15.5h745v-114h-209v-1517h-113v1517h-307v-1517h-115v751q-100 0 -182 34.5t-140 94t-89.5 139.5t-31.5 171z"/>
<glyph glyph-name="periodcentered" horiz-adv-x="546" unicode="·" d="M139 595q0 21 8 39t21.5 31.5t32 21.5t39.5 8t39.5 -8t32 -21.5t21.5 -31.5t8 -39t-8 -39.5t-21.5 -32t-32 -21.5t-39.5 -8t-39.5 8t-32 21.5t-21.5 32t-8 39.5z"/>
<glyph glyph-name="cedilla" horiz-adv-x="585" unicode="¸" d="M201 10h76v-76q40 -3 78 -16t66.5 -33t46 -45.5t17.5 -53.5q-3 -38 -23.5 -65t-50 -44.5t-63.5 -25.5t-64 -8q-22 0 -44 5t-41 12q-22 8 -43 18v53q13 -7 30 -12q14 -5 32.5 -8t39.5 -3q18 0 38 3t36.5 11.5t27.5 23.5t11 40q0 21 -10.5 37.5t-27 28t-36.5 17.5t-39 6 q-8 0 -21.5 -0.5t-21.5 -0.5l-7 4q-8 4 -7 15v117z"/>
<glyph glyph-name="onesuperior" horiz-adv-x="626" unicode="¹" d="M546 885h-383v89h154v544l-51 -57q-8 -9 -26 -20t-35 -11q-11 0 -21.5 7.5t-16.5 13.5l-19 19q43 42 84 83t86 81h88v-660h140v-89z"/>
<glyph glyph-name="ordmasculine" horiz-adv-x="876" unicode="º" d="M167 1082q0 -53 20 -99t54 -80t80 -54t99 -20q52 0 98.5 20t80.5 54t54 80t20 99q0 52 -20 98.5t-54 80.5t-80.5 54t-98.5 20q-53 0 -99 -20t-80 -54t-54 -80.5t-20 -98.5zM54 1082q0 76 28.5 143t78 116.5t116.5 78.5t143 29t143 -29t116.5 -78.5t78.5 -116.5t29 -143 t-29 -143t-78.5 -116.5t-116.5 -78t-143 -28.5t-143 28.5t-116.5 78t-78 116.5t-28.5 143z"/>
<glyph glyph-name="guillemotright" horiz-adv-x="871" unicode="»" d="M699 556q3 -8 7 -13t8 -8q4 -4 9 -6q-4 -1 -8 -5q-4 -3 -8 -8.5t-8 -14.5l-123 -278q-9 -21 -25 -37.5t-36 -28.5t-43 -18.5t-46 -6.5h-17l156 350q5 11 12.5 19.5t15.5 14.5q9 7 19 13q-10 4 -19 11q-8 5 -15 13.5t-12 19.5l-157 364h17q46 0 86.5 -21t58.5 -63z M426 556q3 -8 7 -13t8 -8q4 -4 9 -6q-4 -1 -8 -5q-4 -3 -8 -8.5t-8 -14.5l-123 -278q-9 -21 -25 -37.5t-36 -28.5t-43 -18.5t-46 -6.5h-17l156 350q5 11 12.5 19.5t15.5 14.5q9 7 19 13q-10 4 -19 11q-8 5 -15 13.5t-12 19.5l-157 364h17q46 0 86.5 -21t58.5 -63z"/>
<glyph glyph-name="onequarter" horiz-adv-x="1378" unicode="¼" d="M1151 271v367l-222 -367h222zM1151 0v182h-339v37q0 11 2.5 22.5t6.5 20.5q4 11 10 20q60 101 124 206.5t127 207.5q18 29 33 40t29 11h96v-476h97v-89h-97v-182h-89zM572 685h-383v89h154v544l-51 -57q-8 -9 -26 -20t-35 -11q-11 0 -21.5 7.5t-16.5 13.5l-19 19 q43 42 84 83t86 81h88v-660h140v-89zM1002 1360q7 16 22 29.5t33.5 23t38.5 15t38 5.5h30q-161 -340 -326 -682t-325 -678q-15 -32 -46 -52.5t-66 -20.5h-50z"/>
<glyph glyph-name="onehalf" horiz-adv-x="1373" unicode="½" d="M1002 1360q7 16 22 29.5t33.5 23t38.5 15t38 5.5h30q-161 -340 -326 -682t-325 -678q-15 -32 -46 -52.5t-66 -20.5h-50zM1319 0h-479v22q0 13 2.5 32t18.5 35q79 75 148 145q29 30 58.5 62t56 62.5t47.5 58.5t33 51q16 29 16 60q0 40 -13.5 65.5t-35 40.5t-48.5 20.5 t-53 5.5q-37 0 -61 -12.5t-47 -33.5q-21 -20 -34.5 -30t-33.5 -10q-7 0 -23 6.5t-24 10.5l-8 5q8 14 20 36.5t29 39.5q21 22 48 39q23 14 57 26t79 13q119 -5 178.5 -63.5t59.5 -158.5q0 -35 -12.5 -74.5t-35.5 -68.5q-47 -59 -94 -111.5t-86 -94.5q-46 -48 -88 -90h325v-89 zM572 685h-383v89h154v544l-51 -57q-8 -9 -26 -20t-35 -11q-11 0 -21.5 7.5t-16.5 13.5l-19 19q43 42 84 83t86 81h88v-660h140v-89z"/>
<glyph glyph-name="threequarters" horiz-adv-x="1426" unicode="¾" d="M1151 271v367l-222 -367h222zM1151 0v182h-339v37q0 11 2.5 22.5t6.5 20.5q4 11 10 20q60 101 124 206.5t127 207.5q18 29 33 40t29 11h96v-476h97v-89h-97v-182h-89zM357 677q-100 0 -165 58q-18 17 -30 33.5t-20 30.5l6 3q4 3 12 7t16.5 7.5t16.5 6.5t12 3q26 0 44 -18 l11 -10q12 -9 21.5 -15.5t20 -10t24 -5t31.5 -1.5q55 0 90.5 36.5t35.5 102.5q0 29 -10.5 53t-28 41.5t-41.5 27t-51 9.5h-30v89h30q18 0 37.5 10t35 26.5t26 37.5t10.5 42q0 30 -11 50t-27.5 33t-35 18.5t-33.5 5.5h-12q-18 0 -31 -6.5t-23.5 -14t-21.5 -13.5t-26 -6 q-17 0 -31.5 11.5t-37.5 29.5q37 40 81.5 64.5t97.5 24.5q42 0 78.5 -15t63.5 -41.5t42.5 -62.5t15.5 -77q0 -21 -7.5 -45t-21 -46.5t-31.5 -41t-39 -29.5q60 -25 91.5 -73t31.5 -101q0 -54 -17.5 -97t-47 -72t-69 -44.5t-83.5 -15.5zM1002 1360q7 16 22 29.5t33.5 23 t38.5 15t38 5.5h30q-161 -340 -326 -682t-325 -678q-15 -32 -46 -52.5t-66 -20.5h-50z"/>
<glyph glyph-name="questiondown" horiz-adv-x="789" unicode="¿" d="M384 1004q0 21 8 39.5t21.5 32t32 21.5t39.5 8t39.5 -8t32 -21.5t21.5 -32t8 -39.5t-8 -39.5t-21.5 -32t-32 -21.5t-39.5 -8t-39.5 8t-32 21.5t-21.5 32t-8 39.5zM842 -97q-21 -36 -53 -80.5t-80.5 -84t-118.5 -66.5t-167 -27q-98 0 -173.5 28t-126.5 79t-77 121.5 t-26 156.5q0 47 11.5 83.5t28.5 65.5t37 53t38 47q22 22 39.5 39t30.5 29q15 14 27 25l11 11q33 32 66 65.5t59.5 66.5t43 66t16.5 64v67h115v-66q0 -55 -20.5 -101.5t-51 -87t-67 -76t-68.5 -69.5l-11 -10q-30 -29 -63.5 -62.5t-62 -68.5t-47 -70.5t-18.5 -66.5 q0 -45 11.5 -93.5t43.5 -88.5t88.5 -66t145.5 -26q66 0 110.5 14t75.5 34.5t52 42.5t40 39q10 9 22.5 19.5t44.5 10.5q30 0 66 -13z"/>
<glyph glyph-name="Agrave" horiz-adv-x="1288" unicode="À" d="M304 464h680l-321 736q-8 19 -12.5 41t-6.5 42q-2 -18 -6.5 -41.5t-12.5 -41.5zM591 1433h106q79 -182 157 -361t156 -356.5t156 -356t157 -359.5h-56q-37 0 -67 19.5t-44 52.5l-117 267h-791l-115 -267q-14 -33 -44.5 -52.5t-67.5 -19.5h-56zM342 1782h75q33 0 60 -13 t38 -29q1 -1 11.5 -14.5t27.5 -38t39 -60.5t48 -83h-44q-32 0 -54 12t-36 27z"/>
<glyph glyph-name="Aacute" horiz-adv-x="1288" unicode="Á" d="M304 464h680l-321 736q-8 19 -12.5 41t-6.5 42q-2 -18 -6.5 -41.5t-12.5 -41.5zM591 1433h106q79 -182 157 -361t156 -356.5t156 -356t157 -359.5h-56q-37 0 -67 19.5t-44 52.5l-117 267h-791l-115 -267q-14 -33 -44.5 -52.5t-67.5 -19.5h-56zM750 1583q-14 -15 -36 -27 t-54 -12h-44q25 47 47.5 83t39.5 60.5t27.5 38t11.5 14.5q11 16 38 29t60 13h75z"/>
<glyph glyph-name="Acircumflex" horiz-adv-x="1288" unicode="Â" d="M304 464h680l-321 736q-8 19 -12.5 41t-6.5 42q-2 -18 -6.5 -41.5t-12.5 -41.5zM591 1433h106q79 -182 157 -361t156 -356.5t156 -356t157 -359.5h-56q-37 0 -67 19.5t-44 52.5l-117 267h-791l-115 -267q-14 -33 -44.5 -52.5t-67.5 -19.5h-56zM654 1688q-5 6 -6.5 14 t-2.5 10q-1 -2 -2 -9t-8 -15l-89 -105q-32 -44 -113 -44h-44q38 58 64.5 96t43.5 61t25.5 33.5t10.5 13.5q17 20 37 32t61 12h27q41 0 61 -12t37 -32q2 -3 11 -13.5t26.5 -33.5t44 -61t64.5 -96h-44q-83 0 -115 44z"/>
<glyph glyph-name="Atilde" horiz-adv-x="1288" unicode="Ã" d="M304 464h680l-321 736q-8 19 -12.5 41t-6.5 42q-2 -18 -6.5 -41.5t-12.5 -41.5zM591 1433h106q79 -182 157 -361t156 -356.5t156 -356t157 -359.5h-56q-37 0 -67 19.5t-44 52.5l-117 267h-791l-115 -267q-14 -33 -44.5 -52.5t-67.5 -19.5h-56zM786 1543q-42 2 -81 18 t-72.5 34.5t-61 33.5t-48.5 17h-7q-23 0 -37 -10t-22 -25t-10 -25.5t-2 -14.5q-17 -28 -93 -28q0 6 -0.5 11.5t-0.5 11.5q0 30 10.5 60t31.5 55t53 40.5t76 15.5q39 0 75 -16t69 -35.5t63 -35.5t57 -16q21 0 33.5 8t19 21t8 23t1.5 15q22 25 79 25h13v-5q0 -11 -3 -40 t-17.5 -60t-43.5 -54.5t-80 -23.5h-10z"/>
<glyph glyph-name="Adieresis" horiz-adv-x="1288" unicode="Ä" d="M304 464h680l-321 736q-8 19 -12.5 41t-6.5 42q-2 -18 -6.5 -41.5t-12.5 -41.5zM591 1433h106q79 -182 157 -361t156 -356.5t156 -356t157 -359.5h-56q-37 0 -67 19.5t-44 52.5l-117 267h-791l-115 -267q-14 -33 -44.5 -52.5t-67.5 -19.5h-56zM696 1655q0 36 25 61.5 t61 25.5q18 0 33.5 -7t27 -18.5t18.5 -27.5t7 -34t-7 -33.5t-18.5 -27t-27 -18t-33.5 -6.5q-36 0 -61 25t-25 60zM424 1655q0 36 25 61.5t61 25.5q18 0 33.5 -7t27 -18.5t18.5 -27.5t7 -34t-7 -33.5t-18.5 -27t-27 -18t-33.5 -6.5q-36 0 -61 25t-25 60z"/>
<glyph glyph-name="Aring" horiz-adv-x="1288" unicode="Å" d="M304 464h680l-321 736q-8 19 -12.5 41t-6.5 42q-2 -18 -6.5 -41.5t-12.5 -41.5zM591 1433h106q79 -182 157 -361t156 -356.5t156 -356t157 -359.5h-56q-37 0 -67 19.5t-44 52.5l-117 267h-791l-115 -267q-14 -33 -44.5 -52.5t-67.5 -19.5h-56zM552 1699q0 -17 7 -34 t19 -30t29 -21t38 -8t38 8t30 21t20 30t7 34q0 18 -7 35t-19.5 30.5t-30 21.5t-38.5 8q-20 0 -37 -8t-29.5 -21.5t-19.5 -30.5t-7 -35zM460 1700q0 39 14.5 72.5t40 59t59 40t72.5 14.5t72.5 -14.5t59 -40t40 -59t14.5 -72.5t-14.5 -72.5t-40 -59t-59 -40t-72.5 -14.5 t-72.5 14.5t-59 40t-40 59t-14.5 72.5z"/>
<glyph glyph-name="AE" horiz-adv-x="1879" unicode="Æ" d="M389 464h701l-263 767q-4 9 -5.5 20.5t-2.5 21.5q-1 11 -2 24q-2 -12 -6 -24q-3 -11 -8 -22.5t-10 -22.5zM1775 0h-449q-35 0 -62.5 18.5t-38.5 50.5l-93 270h-811l-139 -264q-9 -15 -23 -28.5t-30.5 -24t-34.5 -16.5t-35 -6h-53l760 1433h1009v-125h-836l179 -522h518 v-125h-475l183 -536h431v-125z"/>
<glyph glyph-name="Ccedilla" horiz-adv-x="1415" unicode="Ç" d="M214 717q0 -84 22 -161.5t61.5 -145.5t95 -123t123 -95t145 -61.5t161.5 -21.5q97 0 184 28.5t162 79.5q28 19 64 19q29 0 50.5 -10t38.5 -27l10 -10q-100 -97 -229.5 -151t-279.5 -54q-152 0 -285 57.5t-232.5 157t-157 233t-57.5 285.5t57.5 285.5t157 233t232.5 157 t285 57.5t280.5 -54.5t228.5 -151.5l-10 -9q-20 -17 -40.5 -27.5t-48.5 -10.5q-35 0 -64 20q-75 51 -161 79.5t-185 28.5q-84 0 -161.5 -21.5t-145 -61.5t-123 -95t-95 -123t-61.5 -145.5t-22 -161.5zM776 10h76v-76q40 -3 78 -16t66.5 -33t46 -45.5t17.5 -53.5 q-3 -38 -23.5 -65t-50 -44.5t-63.5 -25.5t-64 -8q-22 0 -44 5t-41 12q-22 8 -43 18v53q13 -7 30 -12q14 -5 32.5 -8t39.5 -3q18 0 38 3t36.5 11.5t27.5 23.5t11 40q0 21 -10.5 37.5t-27 28t-36.5 17.5t-39 6q-8 0 -21.5 -0.5t-21.5 -0.5l-7 4q-8 4 -7 15v117z"/>
<glyph glyph-name="Egrave" horiz-adv-x="1133" unicode="È" d="M1028 0h-854v1433h854v-125h-729v-522h590v-125h-590v-536h729v-125zM378 1782h75q33 0 60 -13t38 -29q1 -1 11.5 -14.5t27.5 -38t39 -60.5t48 -83h-44q-32 0 -54 12t-36 27z"/>
<glyph glyph-name="Eacute" horiz-adv-x="1133" unicode="É" d="M1028 0h-854v1433h854v-125h-729v-522h590v-125h-590v-536h729v-125zM676 1583q-14 -15 -36 -27t-54 -12h-44q25 47 47.5 83t39.5 60.5t27.5 38t11.5 14.5q11 16 38 29t60 13h75z"/>
<glyph glyph-name="Ecircumflex" horiz-adv-x="1133" unicode="Ê" d="M1028 0h-854v1433h854v-125h-729v-522h590v-125h-590v-536h729v-125zM628 1688q-5 6 -6.5 14t-2.5 10q-1 -2 -2 -9t-8 -15l-89 -105q-32 -44 -113 -44h-44q38 58 64.5 96t43.5 61t25.5 33.5t10.5 13.5q17 20 37 32t61 12h27q41 0 61 -12t37 -32q2 -3 11 -13.5t26.5 -33.5 t44 -61t64.5 -96h-44q-83 0 -115 44z"/>
<glyph glyph-name="Edieresis" horiz-adv-x="1133" unicode="Ë" d="M1028 0h-854v1433h854v-125h-729v-522h590v-125h-590v-536h729v-125zM662 1655q0 36 25 61.5t61 25.5q18 0 33.5 -7t27 -18.5t18.5 -27.5t7 -34t-7 -33.5t-18.5 -27t-27 -18t-33.5 -6.5q-36 0 -61 25t-25 60zM390 1655q0 36 25 61.5t61 25.5q18 0 33.5 -7t27 -18.5 t18.5 -27.5t7 -34t-7 -33.5t-18.5 -27t-27 -18t-33.5 -6.5q-36 0 -61 25t-25 60z"/>
<glyph glyph-name="Igrave" horiz-adv-x="544" unicode="Ì" d="M335 0h-125v1433h125v-1433zM31 1782h75q33 0 60 -13t38 -29q1 -1 11.5 -14.5t27.5 -38t39 -60.5t48 -83h-44q-32 0 -54 12t-36 27z"/>
<glyph glyph-name="Iacute" horiz-adv-x="544" unicode="Í" d="M335 0h-125v1433h125v-1433zM356 1583q-14 -15 -36 -27t-54 -12h-44q25 47 47.5 83t39.5 60.5t27.5 38t11.5 14.5q11 16 38 29t60 13h75z"/>
<glyph glyph-name="Icircumflex" horiz-adv-x="544" unicode="Î" d="M335 0h-125v1433h125v-1433zM281 1688q-5 6 -6.5 14t-2.5 10q-1 -2 -2 -9t-8 -15l-89 -105q-32 -44 -113 -44h-44q38 58 64.5 96t43.5 61t25.5 33.5t10.5 13.5q17 20 37 32t61 12h27q41 0 61 -12t37 -32q2 -3 11 -13.5t26.5 -33.5t44 -61t64.5 -96h-44q-83 0 -115 44z "/>
<glyph glyph-name="Idieresis" horiz-adv-x="544" unicode="Ï" d="M335 0h-125v1433h125v-1433zM322 1655q0 36 25 61.5t61 25.5q18 0 33.5 -7t27 -18.5t18.5 -27.5t7 -34t-7 -33.5t-18.5 -27t-27 -18t-33.5 -6.5q-36 0 -61 25t-25 60zM50 1655q0 36 25 61.5t61 25.5q18 0 33.5 -7t27 -18.5t18.5 -27.5t7 -34t-7 -33.5t-18.5 -27t-27 -18 t-33.5 -6.5q-36 0 -61 25t-25 60z"/>
<glyph glyph-name="Eth" horiz-adv-x="1519" unicode="Ð" d="M701 125q123 0 230.5 46.5t188 126.5t127 188t46.5 230t-46.5 230t-127 188.5t-188 127t-230.5 46.5h-402v-1183h402zM174 0v1433h527q99 0 190.5 -25.5t171 -72.5t145 -112.5t112.5 -145t72.5 -171t25.5 -190.5t-25.5 -190.5t-72.5 -171t-112.5 -145t-145 -112t-171 -72 t-190.5 -25.5h-527zM654 771v-114h-554v114h554z"/>
<glyph glyph-name="Ntilde" horiz-adv-x="1487" unicode="Ñ" d="M1310 0h-124l-865 1238q-5 6 -8 14l-6 16q-4 9 -6 18v-1286h-125v1433h87q40 0 63.5 -10t39.5 -32l792 -1134q7 -11 12 -22.5t9 -21.5q4 -11 7 -23v1243h124v-1433zM884 1543q-42 2 -81 18t-72.5 34.5t-61 33.5t-48.5 17h-7q-23 0 -37 -10t-22 -25t-10 -25.5t-2 -14.5 q-17 -28 -93 -28q0 6 -0.5 11.5t-0.5 11.5q0 30 10.5 60t31.5 55t53 40.5t76 15.5q39 0 75 -16t69 -35.5t63 -35.5t57 -16q21 0 33.5 8t19 21t8 23t1.5 15q22 25 79 25h13v-5q0 -11 -3 -40t-17.5 -60t-43.5 -54.5t-80 -23.5h-10z"/>
<glyph glyph-name="Ograve" horiz-adv-x="1650" unicode="Ò" d="M217 717q0 -84 22 -161.5t61.5 -145.5t95 -123t123 -95t145 -61.5t161.5 -21.5t161.5 21.5t145.5 61.5t123 95t95 123t61.5 145.5t21.5 161.5q0 126 -48 236.5t-130.5 193t-193 130.5t-236.5 48q-84 0 -161.5 -21.5t-145 -61.5t-123 -95t-95 -123t-61.5 -145.5 t-22 -161.5zM92 717q0 152 57.5 285.5t157.5 233t233 157t285 57.5t285.5 -57.5t233 -157t157 -233t57.5 -285.5t-57.5 -285.5t-157 -233t-233 -157t-285.5 -57.5t-285 57.5t-233 157t-157.5 233t-57.5 285.5zM556 1782h75q33 0 60 -13t38 -29q1 -1 11.5 -14.5t27.5 -38 t39 -60.5t48 -83h-44q-32 0 -54 12t-36 27z"/>
<glyph glyph-name="Oacute" horiz-adv-x="1650" unicode="Ó" d="M217 717q0 -84 22 -161.5t61.5 -145.5t95 -123t123 -95t145 -61.5t161.5 -21.5t161.5 21.5t145.5 61.5t123 95t95 123t61.5 145.5t21.5 161.5q0 126 -48 236.5t-130.5 193t-193 130.5t-236.5 48q-84 0 -161.5 -21.5t-145 -61.5t-123 -95t-95 -123t-61.5 -145.5 t-22 -161.5zM92 717q0 152 57.5 285.5t157.5 233t233 157t285 57.5t285.5 -57.5t233 -157t157 -233t57.5 -285.5t-57.5 -285.5t-157 -233t-233 -157t-285.5 -57.5t-285 57.5t-233 157t-157.5 233t-57.5 285.5zM946 1583q-14 -15 -36 -27t-54 -12h-44q25 47 47.5 83 t39.5 60.5t27.5 38t11.5 14.5q11 16 38 29t60 13h75z"/>
<glyph glyph-name="Ocircumflex" horiz-adv-x="1650" unicode="Ô" d="M217 717q0 -84 22 -161.5t61.5 -145.5t95 -123t123 -95t145 -61.5t161.5 -21.5t161.5 21.5t145.5 61.5t123 95t95 123t61.5 145.5t21.5 161.5q0 126 -48 236.5t-130.5 193t-193 130.5t-236.5 48q-84 0 -161.5 -21.5t-145 -61.5t-123 -95t-95 -123t-61.5 -145.5 t-22 -161.5zM92 717q0 152 57.5 285.5t157.5 233t233 157t285 57.5t285.5 -57.5t233 -157t157 -233t57.5 -285.5t-57.5 -285.5t-157 -233t-233 -157t-285.5 -57.5t-285 57.5t-233 157t-157.5 233t-57.5 285.5zM833 1688q-5 6 -6.5 14t-2.5 10q-1 -2 -2 -9t-8 -15l-89 -105 q-32 -44 -113 -44h-44q38 58 64.5 96t43.5 61t25.5 33.5t10.5 13.5q17 20 37 32t61 12h27q41 0 61 -12t37 -32q2 -3 11 -13.5t26.5 -33.5t44 -61t64.5 -96h-44q-83 0 -115 44z"/>
<glyph glyph-name="Otilde" horiz-adv-x="1650" unicode="Õ" d="M217 717q0 -84 22 -161.5t61.5 -145.5t95 -123t123 -95t145 -61.5t161.5 -21.5t161.5 21.5t145.5 61.5t123 95t95 123t61.5 145.5t21.5 161.5q0 126 -48 236.5t-130.5 193t-193 130.5t-236.5 48q-84 0 -161.5 -21.5t-145 -61.5t-123 -95t-95 -123t-61.5 -145.5 t-22 -161.5zM92 717q0 152 57.5 285.5t157.5 233t233 157t285 57.5t285.5 -57.5t233 -157t157 -233t57.5 -285.5t-57.5 -285.5t-157 -233t-233 -157t-285.5 -57.5t-285 57.5t-233 157t-157.5 233t-57.5 285.5zM965 1543q-42 2 -81 18t-72.5 34.5t-61 33.5t-48.5 17h-7 q-23 0 -37 -10t-22 -25t-10 -25.5t-2 -14.5q-17 -28 -93 -28q0 6 -0.5 11.5t-0.5 11.5q0 30 10.5 60t31.5 55t53 40.5t76 15.5q39 0 75 -16t69 -35.5t63 -35.5t57 -16q21 0 33.5 8t19 21t8 23t1.5 15q22 25 79 25h13v-5q0 -11 -3 -40t-17.5 -60t-43.5 -54.5t-80 -23.5h-10z "/>
<glyph glyph-name="Odieresis" horiz-adv-x="1650" unicode="Ö" d="M217 717q0 -84 22 -161.5t61.5 -145.5t95 -123t123 -95t145 -61.5t161.5 -21.5t161.5 21.5t145.5 61.5t123 95t95 123t61.5 145.5t21.5 161.5q0 126 -48 236.5t-130.5 193t-193 130.5t-236.5 48q-84 0 -161.5 -21.5t-145 -61.5t-123 -95t-95 -123t-61.5 -145.5 t-22 -161.5zM92 717q0 152 57.5 285.5t157.5 233t233 157t285 57.5t285.5 -57.5t233 -157t157 -233t57.5 -285.5t-57.5 -285.5t-157 -233t-233 -157t-285.5 -57.5t-285 57.5t-233 157t-157.5 233t-57.5 285.5zM875 1655q0 36 25 61.5t61 25.5q18 0 33.5 -7t27 -18.5 t18.5 -27.5t7 -34t-7 -33.5t-18.5 -27t-27 -18t-33.5 -6.5q-36 0 -61 25t-25 60zM603 1655q0 36 25 61.5t61 25.5q18 0 33.5 -7t27 -18.5t18.5 -27.5t7 -34t-7 -33.5t-18.5 -27t-27 -18t-33.5 -6.5q-36 0 -61 25t-25 60z"/>
<glyph glyph-name="multiply" horiz-adv-x="1141" unicode="×" d="M190 212q-11 -9 -25.5 -11t-30.5 -2q-25 0 -41.5 5.5t-33.5 22.5l-7 7l439 439l-440 437l8 9q17 17 33.5 22t42.5 5q16 0 31.5 -3.5t26.5 -12.5l370 -369l340 339l34 30q10 9 24 12.5t31 3.5q24 0 41 -5.5t34 -22.5l8 -8l-439 -437l439 -436l-9 -9q-17 -17 -33.5 -23 t-41.5 -6q-17 0 -32.5 3.5t-26.5 12.5l-369 369z"/>
<glyph glyph-name="Oslash" horiz-adv-x="1650" unicode="Ø" d="M217 717q0 -84 22 -161.5t61.5 -145.5t95 -123t123 -95t145 -61.5t161.5 -21.5t161.5 21.5t145.5 61.5t123 95t95 123t61.5 145.5t21.5 161.5q0 126 -48 236.5t-130.5 193t-193 130.5t-236.5 48q-84 0 -161.5 -21.5t-145 -61.5t-123 -95t-95 -123t-61.5 -145.5 t-22 -161.5zM92 717q0 152 57.5 285.5t157.5 233t233 157t285 57.5t285.5 -57.5t233 -157t157 -233t57.5 -285.5t-57.5 -285.5t-157 -233t-233 -157t-285.5 -57.5t-285 57.5t-233 157t-157.5 233t-57.5 285.5zM1064 1393q17 38 53.5 58.5t87.5 20.5h28l-657 -1481 q-7 -16 -18.5 -30.5t-26 -26t-31 -18t-34.5 -6.5h-49z"/>
<glyph glyph-name="Ugrave" horiz-adv-x="1437" unicode="Ù" d="M280 551q0 -92 35 -172.5t95 -140.5t140.5 -95t172.5 -35q91 0 171.5 35t140.5 95t95 140.5t35 172.5v882h126v-882q0 -118 -44.5 -221.5t-121.5 -180.5t-180.5 -121.5t-221.5 -44.5q-117 0 -220.5 44.5t-181 121.5t-122 180.5t-44.5 221.5v882h125v-882zM493 1782h75 q33 0 60 -13t38 -29q1 -1 11.5 -14.5t27.5 -38t39 -60.5t48 -83h-44q-32 0 -54 12t-36 27z"/>
<glyph glyph-name="Uacute" horiz-adv-x="1437" unicode="Ú" d="M280 551q0 -92 35 -172.5t95 -140.5t140.5 -95t172.5 -35q91 0 171.5 35t140.5 95t95 140.5t35 172.5v882h126v-882q0 -118 -44.5 -221.5t-121.5 -180.5t-180.5 -121.5t-221.5 -44.5q-117 0 -220.5 44.5t-181 121.5t-122 180.5t-44.5 221.5v882h125v-882zM703 1583 q-14 -15 -36 -27t-54 -12h-44q25 47 47.5 83t39.5 60.5t27.5 38t11.5 14.5q11 16 38 29t60 13h75z"/>
<glyph glyph-name="Ucircumflex" horiz-adv-x="1437" unicode="Û" d="M280 551q0 -92 35 -172.5t95 -140.5t140.5 -95t172.5 -35q91 0 171.5 35t140.5 95t95 140.5t35 172.5v882h126v-882q0 -118 -44.5 -221.5t-121.5 -180.5t-180.5 -121.5t-221.5 -44.5q-117 0 -220.5 44.5t-181 121.5t-122 180.5t-44.5 221.5v882h125v-882zM727 1688 q-5 6 -6.5 14t-2.5 10q-1 -2 -2 -9t-8 -15l-89 -105q-32 -44 -113 -44h-44q38 58 64.5 96t43.5 61t25.5 33.5t10.5 13.5q17 20 37 32t61 12h27q41 0 61 -12t37 -32q2 -3 11 -13.5t26.5 -33.5t44 -61t64.5 -96h-44q-83 0 -115 44z"/>
<glyph glyph-name="Udieresis" horiz-adv-x="1437" unicode="Ü" d="M280 551q0 -92 35 -172.5t95 -140.5t140.5 -95t172.5 -35q91 0 171.5 35t140.5 95t95 140.5t35 172.5v882h126v-882q0 -118 -44.5 -221.5t-121.5 -180.5t-180.5 -121.5t-221.5 -44.5q-117 0 -220.5 44.5t-181 121.5t-122 180.5t-44.5 221.5v882h125v-882zM768 1655 q0 36 25 61.5t61 25.5q18 0 33.5 -7t27 -18.5t18.5 -27.5t7 -34t-7 -33.5t-18.5 -27t-27 -18t-33.5 -6.5q-36 0 -61 25t-25 60zM496 1655q0 36 25 61.5t61 25.5q18 0 33.5 -7t27 -18.5t18.5 -27.5t7 -34t-7 -33.5t-18.5 -27t-27 -18t-33.5 -6.5q-36 0 -61 25t-25 60z"/>
<glyph glyph-name="Yacute" horiz-adv-x="1249" unicode="Ý" d="M688 0h-125v599q0 28 -5 49.5t-14 41t-22 38.5t-30 42l-489 663h60q103 0 152 -77l390 -525q15 -26 18 -38l2 -10q0 4 2 10q3 12 18 38l392 525q49 77 151 77h61l-490 -662q-29 -39 -50 -79.5t-21 -92.5v-599zM712 1583q-14 -15 -36 -27t-54 -12h-44q25 47 47.5 83 t39.5 60.5t27.5 38t11.5 14.5q11 16 38 29t60 13h75z"/>
<glyph glyph-name="Thorn" horiz-adv-x="1201" unicode="Þ" d="M697 428q64 0 120 23.5t97 65t65 97t24 120.5q0 64 -24 120t-65 97.5t-97 65t-120 23.5h-375v-612h375zM194 1433h128v-265h375q90 0 169 -34t138 -93t93 -138t34 -169t-34 -169t-93 -138t-138 -93t-169 -34h-375v-300h-128v1433z"/>
<glyph glyph-name="germandbls" horiz-adv-x="1099" unicode="ß" d="M314 0h-128v862q0 159 23 270.5t73.5 181.5t130.5 101.5t194 31.5q69 0 133 -18.5t113.5 -56.5t79 -96t29.5 -138q0 -53 -20 -92.5t-51 -67.5t-69 -46.5t-75 -28.5q-35 -10 -67 -18.5t-56 -22.5t-38 -36.5t-14 -61.5q0 -41 12.5 -64t36.5 -37t58 -23.5t76 -23.5 q67 -22 119.5 -53.5t89.5 -71t56.5 -86t19.5 -97.5q0 -68 -24 -127t-68 -102.5t-106.5 -68.5t-138.5 -25q-46 0 -91 12.5t-85.5 35.5t-75.5 55t-61 71l18 13q17 9 33.5 15t32.5 6q19 0 36 -4.5t47 -25.5q19 -14 35.5 -23t34 -14t37 -7.5t43.5 -2.5q41 0 78.5 11.5t66 35 t45 59.5t16.5 86q0 34 -16.5 62.5t-42.5 51.5t-58.5 39.5t-63.5 26.5q-82 26 -137 49.5t-88.5 53.5t-48 71t-14.5 102q0 48 13.5 84.5t34.5 63.5t47 45.5t52 30.5t49 18.5t37 10.5q27 7 54.5 16.5t50 24.5t37 36.5t14.5 51.5q0 50 -21.5 83.5t-54.5 53.5t-73 28t-77 8 q-84 0 -140 -20t-90 -71t-48.5 -139.5t-14.5 -226.5v-862z"/>
<glyph glyph-name="agrave" horiz-adv-x="1025" unicode="à" d="M398 113q41 0 88.5 9t97.5 25t100.5 38.5t98.5 49.5v229q-6 1 -31 4t-60 5t-75.5 4t-77.5 2q-76 0 -140.5 -9.5t-111 -32t-73 -60t-26.5 -93.5q0 -36 15.5 -67t43.5 -54.5t66.5 -36.5t84.5 -13zM132 897q14 17 30 34q14 14 31 29t35 26q61 36 128 58t155 22 q82 0 143.5 -23t106 -62t73.5 -92t46 -113.5t24 -125t7 -126.5v-524h-108q-6 8 -13.5 24.5t-7.5 43.5v50q-45 -38 -93 -63.5t-96 -41.5t-94 -22.5t-86 -6.5h-14q-68 2 -129 23.5t-108 60.5t-74.5 93.5t-27.5 122.5q0 74 29 134t88 102t148.5 65t211.5 23q36 0 76.5 -3 t75.5 -7t61 -8t33 -5q-9 108 -34 177t-61.5 108.5t-83 54.5t-98.5 15q-57 0 -101.5 -15t-89.5 -44q-16 -10 -33 -20.5t-46 -10.5q-41 0 -80 30zM258 1449h75q33 0 62.5 -13t40.5 -29q1 -1 14.5 -22t34 -55t46 -78t51.5 -91l-49 1q-32 1 -54 12t-36 26z"/>
<glyph glyph-name="aacute" horiz-adv-x="1025" unicode="á" d="M398 113q41 0 88.5 9t97.5 25t100.5 38.5t98.5 49.5v229q-6 1 -31 4t-60 5t-75.5 4t-77.5 2q-76 0 -140.5 -9.5t-111 -32t-73 -60t-26.5 -93.5q0 -36 15.5 -67t43.5 -54.5t66.5 -36.5t84.5 -13zM132 897q14 17 30 34q14 14 31 29t35 26q61 36 128 58t155 22 q82 0 143.5 -23t106 -62t73.5 -92t46 -113.5t24 -125t7 -126.5v-524h-108q-6 8 -13.5 24.5t-7.5 43.5v50q-45 -38 -93 -63.5t-96 -41.5t-94 -22.5t-86 -6.5h-14q-68 2 -129 23.5t-108 60.5t-74.5 93.5t-27.5 122.5q0 74 29 134t88 102t148.5 65t211.5 23q36 0 76.5 -3 t75.5 -7t61 -8t33 -5q-9 108 -34 177t-61.5 108.5t-83 54.5t-98.5 15q-57 0 -101.5 -15t-89.5 -44q-16 -10 -33 -20.5t-46 -10.5q-41 0 -80 30zM612 1200q-14 -15 -36 -26t-54 -12l-44 -1q25 47 51 91t46.5 78t34 55t14.5 22q11 16 38 29t60 13h75z"/>
<glyph glyph-name="acircumflex" horiz-adv-x="1025" unicode="â" d="M398 113q41 0 88.5 9t97.5 25t100.5 38.5t98.5 49.5v229q-6 1 -31 4t-60 5t-75.5 4t-77.5 2q-76 0 -140.5 -9.5t-111 -32t-73 -60t-26.5 -93.5q0 -36 15.5 -67t43.5 -54.5t66.5 -36.5t84.5 -13zM132 897q14 17 30 34q14 14 31 29t35 26q61 36 128 58t155 22 q82 0 143.5 -23t106 -62t73.5 -92t46 -113.5t24 -125t7 -126.5v-524h-108q-6 8 -13.5 24.5t-7.5 43.5v50q-45 -38 -93 -63.5t-96 -41.5t-94 -22.5t-86 -6.5h-14q-68 2 -129 23.5t-108 60.5t-74.5 93.5t-27.5 122.5q0 74 29 134t88 102t148.5 65t211.5 23q36 0 76.5 -3 t75.5 -7t61 -8t33 -5q-9 108 -34 177t-61.5 108.5t-83 54.5t-98.5 15q-57 0 -101.5 -15t-89.5 -44q-16 -10 -33 -20.5t-46 -10.5q-41 0 -80 30zM525 1350q-5 6 -6.5 14t-2.5 10q0 -2 -1.5 -9t-8.5 -15l-124 -145q-32 -44 -113 -44h-44q76 117 125 177.5t54 66.5q17 20 37 32 t61 12h27q41 0 61 -12t37 -32q5 -6 54 -66.5t125 -177.5h-44q-83 0 -115 44z"/>
<glyph glyph-name="atilde" horiz-adv-x="1025" unicode="ã" d="M398 113q41 0 88.5 9t97.5 25t100.5 38.5t98.5 49.5v229q-6 1 -31 4t-60 5t-75.5 4t-77.5 2q-76 0 -140.5 -9.5t-111 -32t-73 -60t-26.5 -93.5q0 -36 15.5 -67t43.5 -54.5t66.5 -36.5t84.5 -13zM132 897q14 17 30 34q14 14 31 29t35 26q61 36 128 58t155 22 q82 0 143.5 -23t106 -62t73.5 -92t46 -113.5t24 -125t7 -126.5v-524h-108q-6 8 -13.5 24.5t-7.5 43.5v50q-45 -38 -93 -63.5t-96 -41.5t-94 -22.5t-86 -6.5h-14q-68 2 -129 23.5t-108 60.5t-74.5 93.5t-27.5 122.5q0 74 29 134t88 102t148.5 65t211.5 23q36 0 76.5 -3 t75.5 -7t61 -8t33 -5q-9 108 -34 177t-61.5 108.5t-83 54.5t-98.5 15q-57 0 -101.5 -15t-89.5 -44q-16 -10 -33 -20.5t-46 -10.5q-41 0 -80 30zM634 1227q-42 2 -81 18t-72.5 34.5t-61 33.5t-48.5 17h-7q-23 0 -37 -10t-22 -25t-10 -25.5t-2 -14.5q-17 -28 -93 -28 q0 6 -0.5 11.5t-0.5 11.5q0 30 10.5 60t31.5 55t53 40.5t76 15.5q39 0 75 -16t69 -35.5t63 -35.5t57 -16q21 0 33.5 8t19 21t8 23t1.5 15q22 25 79 25h13v-5q0 -11 -3 -40t-17.5 -60t-43.5 -54.5t-80 -23.5h-10z"/>
<glyph glyph-name="adieresis" horiz-adv-x="1025" unicode="ä" d="M398 113q41 0 88.5 9t97.5 25t100.5 38.5t98.5 49.5v229q-6 1 -31 4t-60 5t-75.5 4t-77.5 2q-76 0 -140.5 -9.5t-111 -32t-73 -60t-26.5 -93.5q0 -36 15.5 -67t43.5 -54.5t66.5 -36.5t84.5 -13zM132 897q14 17 30 34q14 14 31 29t35 26q61 36 128 58t155 22 q82 0 143.5 -23t106 -62t73.5 -92t46 -113.5t24 -125t7 -126.5v-524h-108q-6 8 -13.5 24.5t-7.5 43.5v50q-45 -38 -93 -63.5t-96 -41.5t-94 -22.5t-86 -6.5h-14q-68 2 -129 23.5t-108 60.5t-74.5 93.5t-27.5 122.5q0 74 29 134t88 102t148.5 65t211.5 23q36 0 76.5 -3 t75.5 -7t61 -8t33 -5q-9 108 -34 177t-61.5 108.5t-83 54.5t-98.5 15q-57 0 -101.5 -15t-89.5 -44q-16 -10 -33 -20.5t-46 -10.5q-41 0 -80 30zM586 1284q0 35 24.5 60t59.5 25t60 -25t25 -60t-25 -59.5t-60 -24.5t-59.5 24.5t-24.5 59.5zM317 1284q0 35 24.5 60t59.5 25 t60 -25t25 -60t-25 -59.5t-60 -24.5t-59.5 24.5t-24.5 59.5z"/>
<glyph glyph-name="aring" horiz-adv-x="1025" unicode="å" d="M398 113q41 0 88.5 9t97.5 25t100.5 38.5t98.5 49.5v229q-6 1 -31 4t-60 5t-75.5 4t-77.5 2q-76 0 -140.5 -9.5t-111 -32t-73 -60t-26.5 -93.5q0 -36 15.5 -67t43.5 -54.5t66.5 -36.5t84.5 -13zM132 897q14 17 30 34q14 14 31 29t35 26q61 36 128 58t155 22 q82 0 143.5 -23t106 -62t73.5 -92t46 -113.5t24 -125t7 -126.5v-524h-108q-6 8 -13.5 24.5t-7.5 43.5v50q-45 -38 -93 -63.5t-96 -41.5t-94 -22.5t-86 -6.5h-14q-68 2 -129 23.5t-108 60.5t-74.5 93.5t-27.5 122.5q0 74 29 134t88 102t148.5 65t211.5 23q36 0 76.5 -3 t75.5 -7t61 -8t33 -5q-9 108 -34 177t-61.5 108.5t-83 54.5t-98.5 15q-57 0 -101.5 -15t-89.5 -44q-16 -10 -33 -20.5t-46 -10.5q-41 0 -80 30zM436 1316q0 -17 7 -34t19 -30t29 -21t38 -8t38 8t30 21t20 30t7 34q0 18 -7 35t-19.5 30.5t-30 21.5t-38.5 8q-20 0 -37 -8 t-29.5 -21.5t-19.5 -30.5t-7 -35zM344 1317q0 39 14.5 72.5t40 59t59 40t72.5 14.5t72.5 -14.5t59 -40t40 -59t14.5 -72.5t-14.5 -72.5t-40 -59t-59 -40t-72.5 -14.5t-72.5 14.5t-59 40t-40 59t-14.5 72.5z"/>
<glyph glyph-name="ae" horiz-adv-x="1875" unicode="æ" d="M1320 938q-80 0 -144 -27t-110.5 -74.5t-76 -112.5t-39.5 -141q5 13 17.5 29t35.5 16h672q-36 149 -127.5 229.5t-227.5 80.5zM435 117q76 0 135.5 9t110.5 25t97.5 38.5t98.5 49.5q-19 42 -30 81.5t-17 70.5q-7 36 -10 67q-1 2 -1 6q-6 1 -31 4t-60 5t-75.5 4t-76.5 2 q-76 0 -140.5 -9.5t-111 -32t-73 -60t-26.5 -93.5q0 -35 15 -65.5t41.5 -53t63 -35.5t80.5 -13h10zM1319 1066q94 0 172 -30.5t138.5 -84.5t103 -128.5t66.5 -162.5q5 -20 5 -35q0 -26 -9.5 -48.5t-25.5 -40t-38 -27.5t-47 -10h-696q-27 0 -33.5 -10t-6.5 -14 q7 -85 34 -152.5t71.5 -114t106.5 -71.5t139 -25q72 0 134 20t112 52q14 9 31.5 13t33.5 4t27.5 -3t21.5 -8t19.5 -13.5t22.5 -18.5q-37 -37 -75 -68.5t-85 -55t-105.5 -37t-136.5 -13.5q-53 0 -107 10.5t-104.5 33t-95 58.5t-79.5 87l2 -10t1.5 -10t0.5 -10q0 -6 -1 -8 q-7 -16 -31 -33t-60 -34t-81 -32t-94.5 -26.5t-101 -18.5t-98.5 -7h-14q-68 2 -129 23.5t-108 60.5t-74.5 93.5t-27.5 122.5q0 74 29 134t88 102t148.5 65t211.5 23q36 0 76.5 -3t75.5 -7t61 -8t33 -5q1 9 1 17.5v16.5q0 94 -22 155.5t-58.5 97.5t-83.5 50.5t-97 14.5 q-57 0 -110 -13.5t-98 -42.5q-16 -10 -33 -20.5t-46 -10.5q-41 0 -80 30l-24 17q14 17 30 34q14 14 31 29t35 26q61 36 128 58t155 22q66 0 121 -14.5t98.5 -40.5t76 -62t53.5 -80q2 -3 2 -11q0 -7 -2 -15q-1 -4 -1 -7q30 52 74.5 94.5t99 72.5t118 46.5t131.5 16.5z"/>
<glyph glyph-name="ccedilla" horiz-adv-x="1001" unicode="ç" d="M616 938q-87 0 -162.5 -32t-131.5 -88t-88 -131t-32 -162t32 -162t88 -131t131.5 -88t162.5 -32q53 0 106.5 15.5t98.5 39.5q15 8 32 13.5t33 5.5q26 0 47.5 -13t38.5 -30l11 -11q-29 -29 -68.5 -55.5t-87 -47t-101 -33t-110.5 -12.5q-75 0 -144 19.5t-129 54.5 t-109.5 84.5t-85 109.5t-55 129.5t-19.5 143.5t19.5 143.5t55 129.5t85 109.5t109.5 84.5t129 54.5t144 19.5q56 0 108.5 -11.5t99 -31.5t87 -47t72.5 -58l-11 -11q-20 -20 -41.5 -31.5t-50.5 -11.5q-17 0 -31 5t-28 13q-47 27 -99 40.5t-106 15.5zM530 10h76v-76 q40 -3 78 -16t66.5 -33t46 -45.5t17.5 -53.5q-3 -38 -23.5 -65t-50 -44.5t-63.5 -25.5t-64 -8q-22 0 -44 5t-41 12q-22 8 -43 18v53q13 -7 30 -12q14 -5 32.5 -8t39.5 -3q18 0 38 3t36.5 11.5t27.5 23.5t11 40q0 21 -10.5 37.5t-27 28t-36.5 17.5t-39 6q-8 0 -21.5 -0.5 t-21.5 -0.5l-7 4q-8 4 -7 15v117z"/>
<glyph glyph-name="egrave" horiz-adv-x="1204" unicode="è" d="M615 938q-80 0 -150 -27t-124.5 -74.5t-90 -112.5t-45.5 -141q5 13 17.5 29t35.5 16h752q-18 74 -56.5 131.5t-91.5 97.5t-116.5 60.5t-130.5 20.5zM614 1066q94 0 178.5 -30.5t152.5 -84.5t116.5 -128.5t72.5 -162.5q5 -20 5 -35q0 -26 -9.5 -48.5t-25.5 -40t-38 -27.5 t-47 -10h-817q4 -83 38 -154t89 -122.5t128 -81t157 -29.5q26 0 56.5 6t61 16.5t60 24.5t54.5 30q14 9 31.5 13t33.5 4t28.5 -3.5t23.5 -10t21.5 -15.5t23.5 -19q-37 -37 -82 -68.5t-96 -55t-105.5 -37t-110.5 -13.5q-75 0 -144 19.5t-129 54.5t-109.5 84.5t-85 109.5 t-55 129.5t-19.5 143.5q0 112 43 210.5t117 172t172.5 116t209.5 42.5zM347 1449h75q33 0 62.5 -13t40.5 -29q1 -1 14.5 -22t34 -55t46 -78t51.5 -91l-49 1q-32 1 -54 12t-36 26z"/>
<glyph glyph-name="eacute" horiz-adv-x="1204" unicode="é" d="M615 938q-80 0 -150 -27t-124.5 -74.5t-90 -112.5t-45.5 -141q5 13 17.5 29t35.5 16h752q-18 74 -56.5 131.5t-91.5 97.5t-116.5 60.5t-130.5 20.5zM614 1066q94 0 178.5 -30.5t152.5 -84.5t116.5 -128.5t72.5 -162.5q5 -20 5 -35q0 -26 -9.5 -48.5t-25.5 -40t-38 -27.5 t-47 -10h-817q4 -83 38 -154t89 -122.5t128 -81t157 -29.5q26 0 56.5 6t61 16.5t60 24.5t54.5 30q14 9 31.5 13t33.5 4t28.5 -3.5t23.5 -10t21.5 -15.5t23.5 -19q-37 -37 -82 -68.5t-96 -55t-105.5 -37t-110.5 -13.5q-75 0 -144 19.5t-129 54.5t-109.5 84.5t-85 109.5 t-55 129.5t-19.5 143.5q0 112 43 210.5t117 172t172.5 116t209.5 42.5zM724 1200q-14 -15 -36 -26t-54 -12l-44 -1q25 47 51 91t46.5 78t34 55t14.5 22q11 16 38 29t60 13h75z"/>
<glyph glyph-name="ecircumflex" horiz-adv-x="1204" unicode="ê" d="M615 938q-80 0 -150 -27t-124.5 -74.5t-90 -112.5t-45.5 -141q5 13 17.5 29t35.5 16h752q-18 74 -56.5 131.5t-91.5 97.5t-116.5 60.5t-130.5 20.5zM614 1066q94 0 178.5 -30.5t152.5 -84.5t116.5 -128.5t72.5 -162.5q5 -20 5 -35q0 -26 -9.5 -48.5t-25.5 -40t-38 -27.5 t-47 -10h-817q4 -83 38 -154t89 -122.5t128 -81t157 -29.5q26 0 56.5 6t61 16.5t60 24.5t54.5 30q14 9 31.5 13t33.5 4t28.5 -3.5t23.5 -10t21.5 -15.5t23.5 -19q-37 -37 -82 -68.5t-96 -55t-105.5 -37t-110.5 -13.5q-75 0 -144 19.5t-129 54.5t-109.5 84.5t-85 109.5 t-55 129.5t-19.5 143.5q0 112 43 210.5t117 172t172.5 116t209.5 42.5zM642 1350q-5 6 -6.5 14t-2.5 10q0 -2 -1.5 -9t-8.5 -15l-124 -145q-32 -44 -113 -44h-44q76 117 125 177.5t54 66.5q17 20 37 32t61 12h27q41 0 61 -12t37 -32q5 -6 54 -66.5t125 -177.5h-44 q-83 0 -115 44z"/>
<glyph glyph-name="edieresis" horiz-adv-x="1204" unicode="ë" d="M615 938q-80 0 -150 -27t-124.5 -74.5t-90 -112.5t-45.5 -141q5 13 17.5 29t35.5 16h752q-18 74 -56.5 131.5t-91.5 97.5t-116.5 60.5t-130.5 20.5zM614 1066q94 0 178.5 -30.5t152.5 -84.5t116.5 -128.5t72.5 -162.5q5 -20 5 -35q0 -26 -9.5 -48.5t-25.5 -40t-38 -27.5 t-47 -10h-817q4 -83 38 -154t89 -122.5t128 -81t157 -29.5q26 0 56.5 6t61 16.5t60 24.5t54.5 30q14 9 31.5 13t33.5 4t28.5 -3.5t23.5 -10t21.5 -15.5t23.5 -19q-37 -37 -82 -68.5t-96 -55t-105.5 -37t-110.5 -13.5q-75 0 -144 19.5t-129 54.5t-109.5 84.5t-85 109.5 t-55 129.5t-19.5 143.5q0 112 43 210.5t117 172t172.5 116t209.5 42.5zM681 1284q0 35 24.5 60t59.5 25t60 -25t25 -60t-25 -59.5t-60 -24.5t-59.5 24.5t-24.5 59.5zM412 1284q0 35 24.5 60t59.5 25t60 -25t25 -60t-25 -59.5t-60 -24.5t-59.5 24.5t-24.5 59.5z"/>
<glyph glyph-name="igrave" horiz-adv-x="462" unicode="ì" d="M294 1013v-1013h-128v1013h128zM-20 1449h75q33 0 62.5 -13t40.5 -29q1 -1 14.5 -22t34 -55t46 -78t51.5 -91l-49 1q-32 1 -54 12t-36 26z"/>
<glyph glyph-name="iacute" horiz-adv-x="462" unicode="í" d="M294 1013v-1013h-128v1013h128zM302 1200q-14 -15 -36 -26t-54 -12l-44 -1q25 47 51 91t46.5 78t34 55t14.5 22q11 16 38 29t60 13h75z"/>
<glyph glyph-name="icircumflex" horiz-adv-x="462" unicode="î" d="M294 1013v-1013h-128v1013h128zM241 1350q-5 6 -6.5 14t-2.5 10q0 -2 -1.5 -9t-8.5 -15l-124 -145q-32 -44 -113 -44h-44q76 117 125 177.5t54 66.5q17 20 37 32t61 12h27q41 0 61 -12t37 -32q5 -6 54 -66.5t125 -177.5h-44q-83 0 -115 44z"/>
<glyph glyph-name="idieresis" horiz-adv-x="462" unicode="ï" d="M294 1013v-1013h-128v1013h128zM281 1284q0 35 24.5 60t59.5 25t60 -25t25 -60t-25 -59.5t-60 -24.5t-59.5 24.5t-24.5 59.5zM12 1284q0 35 24.5 60t59.5 25t60 -25t25 -60t-25 -59.5t-60 -24.5t-59.5 24.5t-24.5 59.5z"/>
<glyph glyph-name="eth" horiz-adv-x="1220" unicode="ð" d="M198 514q0 -85 35.5 -160.5t95 -132t137 -89.5t161.5 -33q87 0 163.5 35t133 92.5t89.5 132.5t33 155q0 89 -30.5 168t-85.5 138.5t-132 94t-170 34.5q-96 0 -175.5 -36t-136 -96.5t-87.5 -139t-31 -163.5zM512 1483q156 -49 272 -123l79 100q17 -14 28 -22.5t25 -19.5 l-77 -97q90 -69 151.5 -155t99.5 -187.5t54.5 -218t16.5 -245.5q0 -71 -19.5 -137.5t-54 -125.5t-83.5 -108.5t-108.5 -85t-127 -55t-140.5 -19.5t-141.5 19t-129.5 53.5t-111.5 83t-87 107.5t-56.5 126.5t-20 140.5q0 109 40 209t112 176t172.5 121t221.5 45 q99 0 168.5 -24t115.5 -58t73 -70t42 -61q-44 131 -110 222.5t-151 155.5l-79 -98q-16 12 -27 22t-24 20l75 95q-54 33 -111.5 58.5t-120.5 45.5z"/>
<glyph glyph-name="ntilde" horiz-adv-x="1162" unicode="ñ" d="M261 1050q5 -10 9 -23.5t4 -44.5v-91q37 45 81 78t91 54.5t96 32.5t96 11q86 0 154.5 -32.5t116.5 -93t74 -146.5t26 -192v-603h-128v603q0 161 -62.5 248.5t-192.5 87.5q-73 0 -136 -19t-110 -52t-75 -76.5t-31 -91.5v-700h-128v1050h115zM769 1227q-42 2 -81 18 t-72.5 34.5t-61 33.5t-48.5 17h-7q-23 0 -37 -10t-22 -25t-10 -25.5t-2 -14.5q-17 -28 -93 -28q0 6 -0.5 11.5t-0.5 11.5q0 30 10.5 60t31.5 55t53 40.5t76 15.5q39 0 75 -16t69 -35.5t63 -35.5t57 -16q21 0 33.5 8t19 21t8 23t1.5 15q22 25 79 25h13v-5q0 -11 -3 -40 t-17.5 -60t-43.5 -54.5t-80 -23.5h-10z"/>
<glyph glyph-name="ograve" d="M200 525q0 -87 32 -162t88 -131t131.5 -88t161.5 -32q87 0 162 32t131 88t88 131t32 162t-32 162t-88 131t-131 88t-162 32q-86 0 -161.5 -32t-131.5 -88t-88 -131t-32 -162zM72 525q0 74 19.5 143.5t55 129.5t85 109.5t109.5 84.5t129 54.5t143 19.5q112 0 210.5 -42.5 t172 -116t116 -172t42.5 -210.5t-42.5 -210.5t-116 -172t-172 -116t-210.5 -42.5q-74 0 -143 19.5t-129 54.5t-109.5 84.5t-85 109.5t-55 129.5t-19.5 143.5zM349 1449h75q33 0 62.5 -13t40.5 -29q1 -1 14.5 -22t34 -55t46 -78t51.5 -91l-49 1q-32 1 -54 12t-36 26z" unicode="ò"/>
<glyph glyph-name="oacute" d="M200 525q0 -87 32 -162t88 -131t131.5 -88t161.5 -32q87 0 162 32t131 88t88 131t32 162t-32 162t-88 131t-131 88t-162 32q-86 0 -161.5 -32t-131.5 -88t-88 -131t-32 -162zM72 525q0 74 19.5 143.5t55 129.5t85 109.5t109.5 84.5t129 54.5t143 19.5q112 0 210.5 -42.5 t172 -116t116 -172t42.5 -210.5t-42.5 -210.5t-116 -172t-172 -116t-210.5 -42.5q-74 0 -143 19.5t-129 54.5t-109.5 84.5t-85 109.5t-55 129.5t-19.5 143.5zM713 1200q-14 -15 -36 -26t-54 -12l-44 -1q25 47 51 91t46.5 78t34 55t14.5 22q11 16 38 29t60 13h75z" unicode="ó"/>
<glyph glyph-name="ocircumflex" d="M200 525q0 -87 32 -162t88 -131t131.5 -88t161.5 -32q87 0 162 32t131 88t88 131t32 162t-32 162t-88 131t-131 88t-162 32q-86 0 -161.5 -32t-131.5 -88t-88 -131t-32 -162zM72 525q0 74 19.5 143.5t55 129.5t85 109.5t109.5 84.5t129 54.5t143 19.5q112 0 210.5 -42.5 t172 -116t116 -172t42.5 -210.5t-42.5 -210.5t-116 -172t-172 -116t-210.5 -42.5q-74 0 -143 19.5t-129 54.5t-109.5 84.5t-85 109.5t-55 129.5t-19.5 143.5zM622 1350q-5 6 -6.5 14t-2.5 10q0 -2 -1.5 -9t-8.5 -15l-124 -145q-32 -44 -113 -44h-44q76 117 125 177.5 t54 66.5q17 20 37 32t61 12h27q41 0 61 -12t37 -32q5 -6 54 -66.5t125 -177.5h-44q-83 0 -115 44z" unicode="ô"/>
<glyph glyph-name="otilde" d="M200 525q0 -87 32 -162t88 -131t131.5 -88t161.5 -32q87 0 162 32t131 88t88 131t32 162t-32 162t-88 131t-131 88t-162 32q-86 0 -161.5 -32t-131.5 -88t-88 -131t-32 -162zM72 525q0 74 19.5 143.5t55 129.5t85 109.5t109.5 84.5t129 54.5t143 19.5q112 0 210.5 -42.5 t172 -116t116 -172t42.5 -210.5t-42.5 -210.5t-116 -172t-172 -116t-210.5 -42.5q-74 0 -143 19.5t-129 54.5t-109.5 84.5t-85 109.5t-55 129.5t-19.5 143.5zM753 1227q-42 2 -81 18t-72.5 34.5t-61 33.5t-48.5 17h-7q-23 0 -37 -10t-22 -25t-10 -25.5t-2 -14.5 q-17 -28 -93 -28q0 6 -0.5 11.5t-0.5 11.5q0 30 10.5 60t31.5 55t53 40.5t76 15.5q39 0 75 -16t69 -35.5t63 -35.5t57 -16q21 0 33.5 8t19 21t8 23t1.5 15q22 25 79 25h13v-5q0 -11 -3 -40t-17.5 -60t-43.5 -54.5t-80 -23.5h-10z" unicode="õ"/>
<glyph glyph-name="odieresis" d="M200 525q0 -87 32 -162t88 -131t131.5 -88t161.5 -32q87 0 162 32t131 88t88 131t32 162t-32 162t-88 131t-131 88t-162 32q-86 0 -161.5 -32t-131.5 -88t-88 -131t-32 -162zM72 525q0 74 19.5 143.5t55 129.5t85 109.5t109.5 84.5t129 54.5t143 19.5q112 0 210.5 -42.5 t172 -116t116 -172t42.5 -210.5t-42.5 -210.5t-116 -172t-172 -116t-210.5 -42.5q-74 0 -143 19.5t-129 54.5t-109.5 84.5t-85 109.5t-55 129.5t-19.5 143.5zM663 1284q0 35 24.5 60t59.5 25t60 -25t25 -60t-25 -59.5t-60 -24.5t-59.5 24.5t-24.5 59.5zM394 1284 q0 35 24.5 60t59.5 25t60 -25t25 -60t-25 -59.5t-60 -24.5t-59.5 24.5t-24.5 59.5z" unicode="ö"/>
<glyph glyph-name="divide" horiz-adv-x="1160" unicode="÷" d="M468 976q0 22 8.5 42t23.5 35t35 23.5t42 8.5t42 -8.5t35 -23.5t23.5 -35t8.5 -42t-8.5 -42t-23.5 -35t-35 -23.5t-42 -8.5t-42 8.5t-35 23.5t-23.5 35t-8.5 42zM468 362q0 22 8.5 42t23.5 35t35 23.5t42 8.5t42 -8.5t35 -23.5t23.5 -35t8.5 -42t-8.5 -42t-23.5 -35 t-35 -23.5t-42 -8.5t-42 8.5t-35 23.5t-23.5 35t-8.5 42zM1057 613h-956v114h956v-114z"/>
<glyph glyph-name="oslash" d="M200 525q0 -87 32 -162t88 -131q33 -33 72 -57l328 750q-51 13 -107 13q-86 0 -161.5 -32t-131.5 -88t-88 -131t-32 -162zM72 525q0 74 19.5 143.5t55 129.5t85 109.5t109.5 84.5t129 54.5t143 19.5q83 0 159 -23l22 50q17 38 53.5 58.5t87.5 20.5h28l-80 -178 q63 -36 113 -86q74 -74 116 -172.5t42 -210.5t-42.5 -210.5t-116 -172t-172 -116t-210.5 -42.5q-74 0 -143 20l-26 8l-14 -31q-7 -16 -18.5 -30.5t-26 -26t-31 -18t-34.5 -6.5h-49l69 158q-60 34 -108 84q-50 50 -85.5 110t-55 129.5t-19.5 143.5zM496 128q56 -16 117 -16 q87 0 162 32t131 88t88 131t32 162t-32 162t-88 131q-34 34 -75 59z" unicode="ø"/>
<glyph glyph-name="ugrave" horiz-adv-x="1122" unicode="ù" d="M871 0q-5 10 -9 23.5t-4 44.5v71q-37 -45 -81 -75t-91.5 -48t-96 -25.5t-95.5 -7.5q-86 0 -154.5 32.5t-116.5 93t-74 146t-26 192.5v603h128v-603q0 -161 62.5 -248.5t192.5 -87.5q73 0 136 19t110 52t75 76.5t31 91.5v700h128v-1050h-115zM224 1449h75q33 0 62.5 -13 t40.5 -29q1 -1 14.5 -22t34 -55t46 -78t51.5 -91l-49 1q-32 1 -54 12t-36 26z"/>
<glyph glyph-name="uacute" horiz-adv-x="1122" unicode="ú" d="M871 0q-5 10 -9 23.5t-4 44.5v71q-37 -45 -81 -75t-91.5 -48t-96 -25.5t-95.5 -7.5q-86 0 -154.5 32.5t-116.5 93t-74 146t-26 192.5v603h128v-603q0 -161 62.5 -248.5t192.5 -87.5q73 0 136 19t110 52t75 76.5t31 91.5v700h128v-1050h-115zM529 1200q-14 -15 -36 -26 t-54 -12l-44 -1q25 47 51 91t46.5 78t34 55t14.5 22q11 16 38 29t60 13h75z"/>
<glyph glyph-name="ucircumflex" horiz-adv-x="1122" unicode="û" d="M871 0q-5 10 -9 23.5t-4 44.5v71q-37 -45 -81 -75t-91.5 -48t-96 -25.5t-95.5 -7.5q-86 0 -154.5 32.5t-116.5 93t-74 146t-26 192.5v603h128v-603q0 -161 62.5 -248.5t192.5 -87.5q73 0 136 19t110 52t75 76.5t31 91.5v700h128v-1050h-115zM581 1350q-5 6 -6.5 14 t-2.5 10q0 -2 -1.5 -9t-8.5 -15l-124 -145q-32 -44 -113 -44h-44q76 117 125 177.5t54 66.5q17 20 37 32t61 12h27q41 0 61 -12t37 -32q5 -6 54 -66.5t125 -177.5h-44q-83 0 -115 44z"/>
<glyph glyph-name="udieresis" horiz-adv-x="1122" unicode="ü" d="M871 0q-5 10 -9 23.5t-4 44.5v71q-37 -45 -81 -75t-91.5 -48t-96 -25.5t-95.5 -7.5q-86 0 -154.5 32.5t-116.5 93t-74 146t-26 192.5v603h128v-603q0 -161 62.5 -248.5t192.5 -87.5q73 0 136 19t110 52t75 76.5t31 91.5v700h128v-1050h-115zM619 1284q0 35 24.5 60 t59.5 25t60 -25t25 -60t-25 -59.5t-60 -24.5t-59.5 24.5t-24.5 59.5zM350 1284q0 35 24.5 60t59.5 25t60 -25t25 -60t-25 -59.5t-60 -24.5t-59.5 24.5t-24.5 59.5z"/>
<glyph glyph-name="yacute" horiz-adv-x="1106" unicode="ý" d="M27 1058h56q37 0 70 -19.5t45 -53.5l314 -720q8 -20 12 -38t5 -32q1 -16 0 -30l359 819q15 34 46.5 54t68.5 20h57l-596 -1362q-13 -36 -44.5 -56.5t-69.5 -20.5h-58l182 412zM672 1200q-14 -15 -36 -26t-54 -12l-44 -1q25 47 51 91t46.5 78t34 55t14.5 22q11 16 38 29 t60 13h75z"/>
<glyph glyph-name="thorn" horiz-adv-x="1203" unicode="þ" d="M620 99q87 0 161 33t128 91t84.5 135.5t30.5 166.5q0 87 -30 164t-83.5 135.5t-128 92.5t-162.5 34q-45 0 -94.5 -11.5t-97 -32t-91 -49.5t-77.5 -63v-540q21 -27 63 -54.5t93 -50t105 -37t99 -14.5zM260 1433v-539q3 27 22 50t48.5 42t66.5 34t76 25t77 15t70 5 q111 0 206 -42.5t164.5 -116t108.5 -171.5t39 -210t-39 -210t-108.5 -171.5t-164.5 -116t-206 -42.5q-33 0 -82 8t-100 26t-99 47.5t-79 73.5v-479h-114v1772h114z"/>
<glyph glyph-name="ydieresis" horiz-adv-x="1106" unicode="ÿ" d="M27 1058h56q37 0 70 -19.5t45 -53.5l314 -720q8 -20 12 -38t5 -32q1 -16 0 -30l359 819q15 34 46.5 54t68.5 20h57l-596 -1362q-13 -36 -44.5 -56.5t-69.5 -20.5h-58l182 412zM627 1284q0 35 24.5 60t59.5 25t60 -25t25 -60t-25 -59.5t-60 -24.5t-59.5 24.5t-24.5 59.5z M358 1284q0 35 24.5 60t59.5 25t60 -25t25 -60t-25 -59.5t-60 -24.5t-59.5 24.5t-24.5 59.5z"/>
<glyph glyph-name="Amacron" horiz-adv-x="1288" unicode="Ā" d="M304 464h680l-321 736q-8 19 -12.5 41t-6.5 42q-2 -18 -6.5 -41.5t-12.5 -41.5zM591 1433h106q79 -182 157 -361t156 -356.5t156 -356t157 -359.5h-56q-37 0 -67 19.5t-44 52.5l-117 267h-791l-115 -267q-14 -33 -44.5 -52.5t-67.5 -19.5h-56zM369 1692h554v-114h-554 v114z"/>
<glyph glyph-name="amacron" horiz-adv-x="1025" unicode="ā" d="M398 113q41 0 88.5 9t97.5 25t100.5 38.5t98.5 49.5v229q-6 1 -31 4t-60 5t-75.5 4t-77.5 2q-76 0 -140.5 -9.5t-111 -32t-73 -60t-26.5 -93.5q0 -36 15.5 -67t43.5 -54.5t66.5 -36.5t84.5 -13zM132 897q14 17 30 34q14 14 31 29t35 26q61 36 128 58t155 22 q82 0 143.5 -23t106 -62t73.5 -92t46 -113.5t24 -125t7 -126.5v-524h-108q-6 8 -13.5 24.5t-7.5 43.5v50q-45 -38 -93 -63.5t-96 -41.5t-94 -22.5t-86 -6.5h-14q-68 2 -129 23.5t-108 60.5t-74.5 93.5t-27.5 122.5q0 74 29 134t88 102t148.5 65t211.5 23q36 0 76.5 -3 t75.5 -7t61 -8t33 -5q-9 108 -34 177t-61.5 108.5t-83 54.5t-98.5 15q-57 0 -101.5 -15t-89.5 -44q-16 -10 -33 -20.5t-46 -10.5q-41 0 -80 30zM771 1331v-114h-554v114h554z"/>
<glyph glyph-name="Abreve" horiz-adv-x="1288" unicode="Ă" d="M304 464h680l-321 736q-8 19 -12.5 41t-6.5 42q-2 -18 -6.5 -41.5t-12.5 -41.5zM591 1433h106q79 -182 157 -361t156 -356.5t156 -356t157 -359.5h-56q-37 0 -67 19.5t-44 52.5l-117 267h-791l-115 -267q-14 -33 -44.5 -52.5t-67.5 -19.5h-56zM923 1797q0 -50 -19 -96.5 t-54.5 -82t-85.5 -56.5t-112 -21q-71 0 -124 22t-88.5 58t-53 82t-17.5 94h56q17 0 31 -9t20 -28q9 -29 28.5 -49t44 -32.5t51.5 -18t52 -5.5q24 0 50 7t49 20.5t42 33t28 44.5q7 18 17 27.5t32 9.5h53z"/>
<glyph glyph-name="abreve" horiz-adv-x="1025" unicode="ă" d="M398 113q41 0 88.5 9t97.5 25t100.5 38.5t98.5 49.5v229q-6 1 -31 4t-60 5t-75.5 4t-77.5 2q-76 0 -140.5 -9.5t-111 -32t-73 -60t-26.5 -93.5q0 -36 15.5 -67t43.5 -54.5t66.5 -36.5t84.5 -13zM132 897q14 17 30 34q14 14 31 29t35 26q61 36 128 58t155 22 q82 0 143.5 -23t106 -62t73.5 -92t46 -113.5t24 -125t7 -126.5v-524h-108q-6 8 -13.5 24.5t-7.5 43.5v50q-45 -38 -93 -63.5t-96 -41.5t-94 -22.5t-86 -6.5h-14q-68 2 -129 23.5t-108 60.5t-74.5 93.5t-27.5 122.5q0 74 29 134t88 102t148.5 65t211.5 23q36 0 76.5 -3 t75.5 -7t61 -8t33 -5q-9 108 -34 177t-61.5 108.5t-83 54.5t-98.5 15q-57 0 -101.5 -15t-89.5 -44q-16 -10 -33 -20.5t-46 -10.5q-41 0 -80 30zM771 1421q0 -50 -19 -98t-53.5 -85.5t-84.5 -60.5t-112 -23q-71 0 -124.5 23.5t-89 62t-53.5 86t-18 95.5h56q17 0 31 -9t20 -28 q9 -29 28.5 -51t44.5 -36.5t52.5 -21.5t52.5 -7q24 0 49.5 9t48.5 24.5t41.5 36.5t27.5 46q7 18 17 27.5t32 9.5h53z"/>
<glyph glyph-name="Aogonek" horiz-adv-x="1288" unicode="Ą" d="M304 464h680l-321 736q-8 19 -12.5 41t-6.5 42q-2 -18 -6.5 -41.5t-12.5 -41.5zM591 1433h106q79 -182 157 -361t156 -356.5t156 -356t157 -359.5h-56q-37 0 -67 19.5t-44 52.5l-117 267h-791l-115 -267q-14 -33 -44.5 -52.5t-67.5 -19.5h-56zM1325 6q-21 -12 -45 -30.5 t-44 -38.5t-33.5 -41.5t-13.5 -39.5q0 -34 20.5 -57.5t70.5 -23.5q18 0 40.5 -1.5t42.5 -1.5q21 -1 46 -14.5t34 -35.5l16 -39q-18 -8 -41 -13q-20 -5 -46 -9t-58 -4q-105 0 -164.5 42.5t-59.5 112.5q0 28 12.5 55.5t34.5 52.5t51 48t62 43z"/>
<glyph glyph-name="aogonek" horiz-adv-x="1158" unicode="ą" d="M398 113q41 0 88.5 9t97.5 25t100.5 38.5t98.5 49.5v229q-6 1 -31 4t-60 5t-75.5 4t-77.5 2q-76 0 -140.5 -9.5t-111 -32t-73 -60t-26.5 -93.5q0 -36 15.5 -67t43.5 -54.5t66.5 -36.5t84.5 -13zM132 897q14 17 30 34q14 14 31 29t35 26q61 36 128 58t155 22 q82 0 143.5 -23t106 -62t73.5 -92t46 -113.5t24 -125t7 -126.5v-524h-108q-6 8 -13.5 24.5t-7.5 43.5v50q-45 -38 -93 -63.5t-96 -41.5t-94 -22.5t-86 -6.5h-14q-68 2 -129 23.5t-108 60.5t-74.5 93.5t-27.5 122.5q0 74 29 134t88 102t148.5 65t211.5 23q36 0 76.5 -3 t75.5 -7t61 -8t33 -5q-9 108 -34 177t-61.5 108.5t-83 54.5t-98.5 15q-57 0 -101.5 -15t-89.5 -44q-16 -10 -33 -20.5t-46 -10.5q-41 0 -80 30zM910 6q-21 -12 -45 -30.5t-44 -38.5t-33.5 -41.5t-13.5 -39.5q0 -34 20.5 -57.5t70.5 -23.5q18 0 40.5 -1.5t42.5 -1.5 q21 -1 46 -14.5t34 -35.5l16 -39q-18 -8 -41 -13q-20 -5 -46 -9t-58 -4q-105 0 -164.5 42.5t-59.5 112.5q0 28 12.5 55.5t34.5 52.5t51 48t62 43z"/>
<glyph glyph-name="Cacute" horiz-adv-x="1415" unicode="Ć" d="M214 717q0 -84 22 -161.5t61.5 -145.5t95 -123t123 -95t145 -61.5t161.5 -21.5q97 0 184 28.5t162 79.5q28 19 64 19q29 0 50.5 -10t38.5 -27l10 -10q-100 -97 -229.5 -151t-279.5 -54q-152 0 -285 57.5t-232.5 157t-157 233t-57.5 285.5t57.5 285.5t157 233t232.5 157 t285 57.5t280.5 -54.5t228.5 -151.5l-10 -9q-20 -17 -40.5 -27.5t-48.5 -10.5q-35 0 -64 20q-75 51 -161 79.5t-185 28.5q-84 0 -161.5 -21.5t-145 -61.5t-123 -95t-95 -123t-61.5 -145.5t-22 -161.5zM906 1583q-14 -15 -36 -27t-54 -12h-44q25 47 47.5 83t39.5 60.5 t27.5 38t11.5 14.5q11 16 38 29t60 13h75z"/>
<glyph glyph-name="cacute" horiz-adv-x="1001" unicode="ć" d="M616 938q-87 0 -162.5 -32t-131.5 -88t-88 -131t-32 -162t32 -162t88 -131t131.5 -88t162.5 -32q53 0 106.5 15.5t98.5 39.5q15 8 32 13.5t33 5.5q26 0 47.5 -13t38.5 -30l11 -11q-29 -29 -68.5 -55.5t-87 -47t-101 -33t-110.5 -12.5q-75 0 -144 19.5t-129 54.5 t-109.5 84.5t-85 109.5t-55 129.5t-19.5 143.5t19.5 143.5t55 129.5t85 109.5t109.5 84.5t129 54.5t144 19.5q56 0 108.5 -11.5t99 -31.5t87 -47t72.5 -58l-11 -11q-20 -20 -41.5 -31.5t-50.5 -11.5q-17 0 -31 5t-28 13q-47 27 -99 40.5t-106 15.5zM716 1200 q-14 -15 -36 -26t-54 -12l-44 -1q25 47 51 91t46.5 78t34 55t14.5 22q11 16 38 29t60 13h75z"/>
<glyph glyph-name="Ccircumflex" horiz-adv-x="1415" unicode="Ĉ" d="M214 717q0 -84 22 -161.5t61.5 -145.5t95 -123t123 -95t145 -61.5t161.5 -21.5q97 0 184 28.5t162 79.5q28 19 64 19q29 0 50.5 -10t38.5 -27l10 -10q-100 -97 -229.5 -151t-279.5 -54q-152 0 -285 57.5t-232.5 157t-157 233t-57.5 285.5t57.5 285.5t157 233t232.5 157 t285 57.5t280.5 -54.5t228.5 -151.5l-10 -9q-20 -17 -40.5 -27.5t-48.5 -10.5q-35 0 -64 20q-75 51 -161 79.5t-185 28.5q-84 0 -161.5 -21.5t-145 -61.5t-123 -95t-95 -123t-61.5 -145.5t-22 -161.5zM822 1688q-5 6 -6.5 14t-2.5 10q-1 -2 -2 -9t-8 -15l-89 -105 q-32 -44 -113 -44h-44q38 58 64.5 96t43.5 61t25.5 33.5t10.5 13.5q17 20 37 32t61 12h27q41 0 61 -12t37 -32q2 -3 11 -13.5t26.5 -33.5t44 -61t64.5 -96h-44q-83 0 -115 44z"/>
<glyph glyph-name="ccircumflex" horiz-adv-x="1001" unicode="ĉ" d="M616 938q-87 0 -162.5 -32t-131.5 -88t-88 -131t-32 -162t32 -162t88 -131t131.5 -88t162.5 -32q53 0 106.5 15.5t98.5 39.5q15 8 32 13.5t33 5.5q26 0 47.5 -13t38.5 -30l11 -11q-29 -29 -68.5 -55.5t-87 -47t-101 -33t-110.5 -12.5q-75 0 -144 19.5t-129 54.5 t-109.5 84.5t-85 109.5t-55 129.5t-19.5 143.5t19.5 143.5t55 129.5t85 109.5t109.5 84.5t129 54.5t144 19.5q56 0 108.5 -11.5t99 -31.5t87 -47t72.5 -58l-11 -11q-20 -20 -41.5 -31.5t-50.5 -11.5q-17 0 -31 5t-28 13q-47 27 -99 40.5t-106 15.5zM611 1350q-5 6 -6.5 14 t-2.5 10q0 -2 -1.5 -9t-8.5 -15l-124 -145q-32 -44 -113 -44h-44q76 117 125 177.5t54 66.5q17 20 37 32t61 12h27q41 0 61 -12t37 -32q5 -6 54 -66.5t125 -177.5h-44q-83 0 -115 44z"/>
<glyph glyph-name="Cdotaccent" horiz-adv-x="1415" unicode="Ċ" d="M214 717q0 -84 22 -161.5t61.5 -145.5t95 -123t123 -95t145 -61.5t161.5 -21.5q97 0 184 28.5t162 79.5q28 19 64 19q29 0 50.5 -10t38.5 -27l10 -10q-100 -97 -229.5 -151t-279.5 -54q-152 0 -285 57.5t-232.5 157t-157 233t-57.5 285.5t57.5 285.5t157 233t232.5 157 t285 57.5t280.5 -54.5t228.5 -151.5l-10 -9q-20 -17 -40.5 -27.5t-48.5 -10.5q-35 0 -64 20q-75 51 -161 79.5t-185 28.5q-84 0 -161.5 -21.5t-145 -61.5t-123 -95t-95 -123t-61.5 -145.5t-22 -161.5zM719 1667q0 43 29.5 72.5t72.5 29.5q21 0 39.5 -8t32 -21.5t21.5 -32.5 t8 -40t-8 -39.5t-21.5 -32t-32 -21.5t-39.5 -8t-40 8t-32.5 21.5t-21.5 32t-8 39.5z"/>
<glyph glyph-name="cdotaccent" horiz-adv-x="1001" unicode="ċ" d="M616 938q-87 0 -162.5 -32t-131.5 -88t-88 -131t-32 -162t32 -162t88 -131t131.5 -88t162.5 -32q53 0 106.5 15.5t98.5 39.5q15 8 32 13.5t33 5.5q26 0 47.5 -13t38.5 -30l11 -11q-29 -29 -68.5 -55.5t-87 -47t-101 -33t-110.5 -12.5q-75 0 -144 19.5t-129 54.5 t-109.5 84.5t-85 109.5t-55 129.5t-19.5 143.5t19.5 143.5t55 129.5t85 109.5t109.5 84.5t129 54.5t144 19.5q56 0 108.5 -11.5t99 -31.5t87 -47t72.5 -58l-11 -11q-20 -20 -41.5 -31.5t-50.5 -11.5q-17 0 -31 5t-28 13q-47 27 -99 40.5t-106 15.5zM524 1284q0 42 29 70.5 t71 28.5t71 -28.5t29 -70.5t-29 -71t-71 -29t-71 29t-29 71z"/>
<glyph glyph-name="Ccaron" horiz-adv-x="1415" unicode="Č" d="M214 717q0 -84 22 -161.5t61.5 -145.5t95 -123t123 -95t145 -61.5t161.5 -21.5q97 0 184 28.5t162 79.5q28 19 64 19q29 0 50.5 -10t38.5 -27l10 -10q-100 -97 -229.5 -151t-279.5 -54q-152 0 -285 57.5t-232.5 157t-157 233t-57.5 285.5t57.5 285.5t157 233t232.5 157 t285 57.5t280.5 -54.5t228.5 -151.5l-10 -9q-20 -17 -40.5 -27.5t-48.5 -10.5q-35 0 -64 20q-75 51 -161 79.5t-185 28.5q-84 0 -161.5 -21.5t-145 -61.5t-123 -95t-95 -123t-61.5 -145.5t-22 -161.5zM792 1643q5 -6 6.5 -14t2.5 -10q0 2 1.5 9t8.5 15l124 145q32 44 113 44 h44q-76 -117 -125 -177.5t-54 -66.5q-17 -20 -37 -32t-61 -12h-27q-41 0 -61 12t-37 32q-5 6 -54 66.5t-125 177.5h44q83 0 115 -44z"/>
<glyph glyph-name="ccaron" horiz-adv-x="1001" unicode="č" d="M616 938q-87 0 -162.5 -32t-131.5 -88t-88 -131t-32 -162t32 -162t88 -131t131.5 -88t162.5 -32q53 0 106.5 15.5t98.5 39.5q15 8 32 13.5t33 5.5q26 0 47.5 -13t38.5 -30l11 -11q-29 -29 -68.5 -55.5t-87 -47t-101 -33t-110.5 -12.5q-75 0 -144 19.5t-129 54.5 t-109.5 84.5t-85 109.5t-55 129.5t-19.5 143.5t19.5 143.5t55 129.5t85 109.5t109.5 84.5t129 54.5t144 19.5q56 0 108.5 -11.5t99 -31.5t87 -47t72.5 -58l-11 -11q-20 -20 -41.5 -31.5t-50.5 -11.5q-17 0 -31 5t-28 13q-47 27 -99 40.5t-106 15.5zM554 1260q5 -6 6.5 -14 t2.5 -10q0 2 1.5 9t8.5 15l124 145q32 44 113 44h44q-76 -117 -125 -177.5t-54 -66.5q-17 -20 -37 -32t-61 -12h-27q-41 0 -61 12t-37 32q-5 6 -54 66.5t-125 177.5h44q83 0 115 -44z"/>
<glyph glyph-name="Dcaron" horiz-adv-x="1508" unicode="Ď" d="M701 125q123 0 230.5 46.5t188 126.5t127 188t46.5 230t-46.5 230t-127 188.5t-188 127t-230.5 46.5h-402v-1183h402zM174 0v1433h527q99 0 190.5 -25.5t171 -72.5t145 -112.5t112.5 -145t72.5 -171t25.5 -190.5t-25.5 -190.5t-72.5 -171t-112.5 -145t-145 -112t-171 -72 t-190.5 -25.5h-527zM666 1643q5 -6 6.5 -14t2.5 -10q0 2 1.5 9t8.5 15l124 145q32 44 113 44h44q-76 -117 -125 -177.5t-54 -66.5q-17 -20 -37 -32t-61 -12h-27q-41 0 -61 12t-37 32q-5 6 -54 66.5t-125 177.5h44q83 0 115 -44z"/>
<glyph glyph-name="dcaron" horiz-adv-x="1214" unicode="ď" d="M591 937q-87 0 -158.5 -34.5t-123.5 -92t-80.5 -132t-28.5 -154.5q0 -83 28.5 -157.5t80.5 -131.5t123.5 -90.5t158.5 -33.5q92 0 181.5 40t158.5 109v527q-69 69 -158.5 109.5t-181.5 40.5zM954 0q-7 7 -12 18q-5 10 -8 24.5t-3 35.5v42q-53 -48 -100 -75t-89 -41 t-79.5 -17.5t-71.5 -3.5q-111 0 -206 42.5t-164.5 116t-109 172t-39.5 210.5t39.5 210.5t109 172t164.5 116t206 42.5q34 0 71.5 -3.5t79.5 -17.5t89 -41t100 -73v503h128v-1433h-105zM1188 1434h53q34 0 44 -14.5t10 -34.5q0 -14 -4.5 -44t-9.5 -61q-6 -36 -13 -77 q-2 -10 -5 -19.5t-10.5 -17t-21.5 -12t-36 -4.5h-7v284z"/>
<glyph glyph-name="Dcroat" horiz-adv-x="1519" unicode="Đ" d="M701 125q123 0 230.5 46.5t188 126.5t127 188t46.5 230t-46.5 230t-127 188.5t-188 127t-230.5 46.5h-402v-1183h402zM174 0v1433h527q99 0 190.5 -25.5t171 -72.5t145 -112.5t112.5 -145t72.5 -171t25.5 -190.5t-25.5 -190.5t-72.5 -171t-112.5 -145t-145 -112t-171 -72 t-190.5 -25.5h-527zM654 771v-114h-554v114h554z"/>
<glyph glyph-name="dcroat" horiz-adv-x="1214" unicode="đ" d="M591 937q-87 0 -158.5 -34.5t-123.5 -92t-80.5 -132t-28.5 -154.5q0 -83 28.5 -157.5t80.5 -131.5t123.5 -90.5t158.5 -33.5q92 0 181.5 40t158.5 109v527q-69 69 -158.5 109.5t-181.5 40.5zM954 0q-7 7 -12 18q-5 10 -8 24.5t-3 35.5v42q-53 -48 -100 -75t-89 -41 t-79.5 -17.5t-71.5 -3.5q-111 0 -206 42.5t-164.5 116t-109 172t-39.5 210.5t39.5 210.5t109 172t164.5 116t206 42.5q34 0 71.5 -3.5t79.5 -17.5t89 -41t100 -73v240h-274v114h274v149h128v-149h104v-114h-104v-1170h-105z"/>
<glyph glyph-name="Emacron" horiz-adv-x="1133" unicode="Ē" d="M1028 0h-854v1433h854v-125h-729v-522h590v-125h-590v-536h729v-125zM329 1692h554v-114h-554v114z"/>
<glyph glyph-name="emacron" horiz-adv-x="1204" unicode="ē" d="M615 938q-80 0 -150 -27t-124.5 -74.5t-90 -112.5t-45.5 -141q5 13 17.5 29t35.5 16h752q-18 74 -56.5 131.5t-91.5 97.5t-116.5 60.5t-130.5 20.5zM614 1066q94 0 178.5 -30.5t152.5 -84.5t116.5 -128.5t72.5 -162.5q5 -20 5 -35q0 -26 -9.5 -48.5t-25.5 -40t-38 -27.5 t-47 -10h-817q4 -83 38 -154t89 -122.5t128 -81t157 -29.5q26 0 56.5 6t61 16.5t60 24.5t54.5 30q14 9 31.5 13t33.5 4t28.5 -3.5t23.5 -10t21.5 -15.5t23.5 -19q-37 -37 -82 -68.5t-96 -55t-105.5 -37t-110.5 -13.5q-75 0 -144 19.5t-129 54.5t-109.5 84.5t-85 109.5 t-55 129.5t-19.5 143.5q0 112 43 210.5t117 172t172.5 116t209.5 42.5zM882 1331v-114h-554v114h554z"/>
<glyph glyph-name="Ebreve" horiz-adv-x="1133" unicode="Ĕ" d="M1028 0h-854v1433h854v-125h-729v-522h590v-125h-590v-536h729v-125zM870 1781q0 -50 -19 -96.5t-54.5 -82t-85.5 -56.5t-112 -21q-71 0 -124 22t-88.5 58t-53 82t-17.5 94h56q17 0 31 -9t20 -28q9 -29 28.5 -49t44 -32.5t51.5 -18t52 -5.5q24 0 50 7t49 20.5t42 33 t28 44.5q7 18 17 27.5t32 9.5h53z"/>
<glyph glyph-name="ebreve" horiz-adv-x="1204" unicode="ĕ" d="M615 938q-80 0 -150 -27t-124.5 -74.5t-90 -112.5t-45.5 -141q5 13 17.5 29t35.5 16h752q-18 74 -56.5 131.5t-91.5 97.5t-116.5 60.5t-130.5 20.5zM614 1066q94 0 178.5 -30.5t152.5 -84.5t116.5 -128.5t72.5 -162.5q5 -20 5 -35q0 -26 -9.5 -48.5t-25.5 -40t-38 -27.5 t-47 -10h-817q4 -83 38 -154t89 -122.5t128 -81t157 -29.5q26 0 56.5 6t61 16.5t60 24.5t54.5 30q14 9 31.5 13t33.5 4t28.5 -3.5t23.5 -10t21.5 -15.5t23.5 -19q-37 -37 -82 -68.5t-96 -55t-105.5 -37t-110.5 -13.5q-75 0 -144 19.5t-129 54.5t-109.5 84.5t-85 109.5 t-55 129.5t-19.5 143.5q0 112 43 210.5t117 172t172.5 116t209.5 42.5zM879 1421q0 -50 -19 -98t-53.5 -85.5t-84.5 -60.5t-112 -23q-71 0 -124.5 23.5t-89 62t-53.5 86t-18 95.5h56q17 0 31 -9t20 -28q9 -29 28.5 -51t44.5 -36.5t52.5 -21.5t52.5 -7q24 0 49.5 9t48.5 24.5 t41.5 36.5t27.5 46q7 18 17 27.5t32 9.5h53z"/>
<glyph glyph-name="Edotaccent" horiz-adv-x="1133" unicode="Ė" d="M1028 0h-854v1433h854v-125h-729v-522h590v-125h-590v-536h729v-125zM514 1667q0 43 29.5 72.5t72.5 29.5q21 0 39.5 -8t32 -21.5t21.5 -32.5t8 -40t-8 -39.5t-21.5 -32t-32 -21.5t-39.5 -8t-40 8t-32.5 21.5t-21.5 32t-8 39.5z"/>
<glyph glyph-name="edotaccent" horiz-adv-x="1204" unicode="ė" d="M615 938q-80 0 -150 -27t-124.5 -74.5t-90 -112.5t-45.5 -141q5 13 17.5 29t35.5 16h752q-18 74 -56.5 131.5t-91.5 97.5t-116.5 60.5t-130.5 20.5zM614 1066q94 0 178.5 -30.5t152.5 -84.5t116.5 -128.5t72.5 -162.5q5 -20 5 -35q0 -26 -9.5 -48.5t-25.5 -40t-38 -27.5 t-47 -10h-817q4 -83 38 -154t89 -122.5t128 -81t157 -29.5q26 0 56.5 6t61 16.5t60 24.5t54.5 30q14 9 31.5 13t33.5 4t28.5 -3.5t23.5 -10t21.5 -15.5t23.5 -19q-37 -37 -82 -68.5t-96 -55t-105.5 -37t-110.5 -13.5q-75 0 -144 19.5t-129 54.5t-109.5 84.5t-85 109.5 t-55 129.5t-19.5 143.5q0 112 43 210.5t117 172t172.5 116t209.5 42.5zM539 1284q0 42 29 70.5t71 28.5t71 -28.5t29 -70.5t-29 -71t-71 -29t-71 29t-29 71z"/>
<glyph glyph-name="Eogonek" horiz-adv-x="1133" unicode="Ę" d="M1028 0h-854v1433h854v-125h-729v-522h590v-125h-590v-536h729v-125zM890 6q-21 -12 -45 -30.5t-44 -38.5t-33.5 -41.5t-13.5 -39.5q0 -34 20.5 -57.5t70.5 -23.5q18 0 40.5 -1.5t42.5 -1.5q21 -1 46 -14.5t34 -35.5l16 -39q-18 -8 -41 -13q-20 -5 -46 -9t-58 -4 q-105 0 -164.5 42.5t-59.5 112.5q0 28 12.5 55.5t34.5 52.5t51 48t62 43z"/>
<glyph glyph-name="eogonek" horiz-adv-x="1204" unicode="ę" d="M615 938q-80 0 -150 -27t-124.5 -74.5t-90 -112.5t-45.5 -141q5 13 17.5 29t35.5 16h752q-18 74 -56.5 131.5t-91.5 97.5t-116.5 60.5t-130.5 20.5zM614 1066q94 0 178.5 -30.5t152.5 -84.5t116.5 -128.5t72.5 -162.5q5 -20 5 -35q0 -26 -9.5 -48.5t-25.5 -40t-38 -27.5 t-47 -10h-817q4 -83 38 -154t89 -122.5t128 -81t157 -29.5q26 0 56.5 6t61 16.5t60 24.5t54.5 30q14 9 31.5 13t33.5 4t28.5 -3.5t23.5 -10t21.5 -15.5t23.5 -19q-37 -37 -82 -68.5t-96 -55t-105.5 -37t-110.5 -13.5q-75 0 -144 19.5t-129 54.5t-109.5 84.5t-85 109.5 t-55 129.5t-19.5 143.5q0 112 43 210.5t117 172t172.5 116t209.5 42.5zM662 6q-21 -12 -45 -30.5t-44 -38.5t-33.5 -41.5t-13.5 -39.5q0 -34 20.5 -57.5t70.5 -23.5q18 0 40.5 -1.5t42.5 -1.5q21 -1 46 -14.5t34 -35.5l16 -39q-18 -8 -41 -13q-20 -5 -46 -9t-58 -4 q-105 0 -164.5 42.5t-59.5 112.5q0 28 12.5 55.5t34.5 52.5t51 48t62 43z"/>
<glyph glyph-name="Ecaron" horiz-adv-x="1133" unicode="Ě" d="M1028 0h-854v1433h854v-125h-729v-522h590v-125h-590v-536h729v-125zM619 1643q5 -6 6.5 -14t2.5 -10q0 2 1.5 9t8.5 15l124 145q32 44 113 44h44q-76 -117 -125 -177.5t-54 -66.5q-17 -20 -37 -32t-61 -12h-27q-41 0 -61 12t-37 32q-5 6 -54 66.5t-125 177.5h44 q83 0 115 -44z"/>
<glyph glyph-name="ecaron" horiz-adv-x="1204" unicode="ě" d="M615 938q-80 0 -150 -27t-124.5 -74.5t-90 -112.5t-45.5 -141q5 13 17.5 29t35.5 16h752q-18 74 -56.5 131.5t-91.5 97.5t-116.5 60.5t-130.5 20.5zM614 1066q94 0 178.5 -30.5t152.5 -84.5t116.5 -128.5t72.5 -162.5q5 -20 5 -35q0 -26 -9.5 -48.5t-25.5 -40t-38 -27.5 t-47 -10h-817q4 -83 38 -154t89 -122.5t128 -81t157 -29.5q26 0 56.5 6t61 16.5t60 24.5t54.5 30q14 9 31.5 13t33.5 4t28.5 -3.5t23.5 -10t21.5 -15.5t23.5 -19q-37 -37 -82 -68.5t-96 -55t-105.5 -37t-110.5 -13.5q-75 0 -144 19.5t-129 54.5t-109.5 84.5t-85 109.5 t-55 129.5t-19.5 143.5q0 112 43 210.5t117 172t172.5 116t209.5 42.5zM628 1260q5 -6 6.5 -14t2.5 -10q0 2 1.5 9t8.5 15l124 145q32 44 113 44h44q-76 -117 -125 -177.5t-54 -66.5q-17 -20 -37 -32t-61 -12h-27q-41 0 -61 12t-37 32q-5 6 -54 66.5t-125 177.5h44 q83 0 115 -44z"/>
<glyph glyph-name="Gcircumflex" horiz-adv-x="1481" unicode="Ĝ" d="M1343 688v-552q-49 -45 -108.5 -74.5t-126 -46.5t-138.5 -24t-146 -7q-152 0 -285 57.5t-233 157t-157.5 233t-57.5 285.5t57.5 285.5t157.5 233t233 157t285 57.5q151 0 280 -54.5t229 -151.5l-10 -9q-20 -18 -40.5 -28t-48.5 -10q-35 0 -64 20q-75 51 -161 79.5 t-185 28.5q-84 0 -161.5 -21.5t-145 -61.5t-123 -95t-95 -123t-61.5 -145.5t-22 -161.5t22.5 -161.5t63.5 -145.5t97.5 -123t125.5 -95t147.5 -61.5t162.5 -21.5q210 0 385 110v344h-127q-28 0 -50 10t-37.5 26.5t-24 38.5t-8.5 46v4h370zM829 1688q-5 6 -6.5 14t-2.5 10 q-1 -2 -2 -9t-8 -15l-89 -105q-32 -44 -113 -44h-44q38 58 64.5 96t43.5 61t25.5 33.5t10.5 13.5q17 20 37 32t61 12h27q41 0 61 -12t37 -32q2 -3 11 -13.5t26.5 -33.5t44 -61t64.5 -96h-44q-83 0 -115 44z"/>
<glyph glyph-name="gcircumflex" horiz-adv-x="987" unicode="ĝ" d="M232 685q0 -54 19.5 -100.5t53 -80t80 -53t100.5 -19.5t100.5 19.5t80 53t53 80t19.5 100.5t-19.5 100.5t-53 80t-80 53t-100.5 19.5t-100.5 -19.5t-80 -53t-53 -80t-19.5 -100.5zM990 955q-12 -29 -55 -45t-132 -16q15 -21 27 -49t20 -56.5t12 -56t4 -47.5 q0 -79 -30 -148.5t-82 -121t-121 -81.5t-148 -30q-91 0 -171 40l-7 -4q-41 -23 -70.5 -45t-29.5 -53q0 -12 5 -21q15 -18 42.5 -29.5t63 -18t75.5 -9.5t80 -3q69 0 140 -6t131 -26q77 -26 117 -80.5t40 -130.5q0 -59 -24 -106t-70 -80t-113 -50.5t-152 -17.5q-68 0 -133 9.5 t-126.5 25.5t-119.5 35.5t-110 39.5l12 33q8 25 36 45t62 20q23 0 45 -6t42 -14q11 -5 38 -15t65 -19.5t86.5 -17t103.5 -7.5q30 0 69.5 3t75 15.5t60.5 37.5t25 68v4q0 7 -1.5 18.5t-8 23.5t-20 23.5t-37.5 19.5q-60 19 -123.5 23t-122.5 4q-63 0 -127 10.5t-116.5 34 t-87 60t-39.5 89.5v8q0 10 4 24.5t19 34t45.5 43.5t83.5 54q-50 40 -77.5 86t-41 87.5t-16.5 73t-3 42.5v5q0 79 30 148t81.5 121t121 82t148.5 30q63 0 126 -23.5t122 -67.5q26 17 63.5 31.5t84.5 14.5q25 0 57 -6.5t64 -16.5zM503 1350q-5 6 -6.5 14t-2.5 10q0 -2 -1.5 -9 t-8.5 -15l-124 -145q-32 -44 -113 -44h-44q76 117 125 177.5t54 66.5q17 20 37 32t61 12h27q41 0 61 -12t37 -32q5 -6 54 -66.5t125 -177.5h-44q-83 0 -115 44z"/>
<glyph glyph-name="Gbreve" horiz-adv-x="1481" unicode="Ğ" d="M1343 688v-552q-49 -45 -108.5 -74.5t-126 -46.5t-138.5 -24t-146 -7q-152 0 -285 57.5t-233 157t-157.5 233t-57.5 285.5t57.5 285.5t157.5 233t233 157t285 57.5q151 0 280 -54.5t229 -151.5l-10 -9q-20 -18 -40.5 -28t-48.5 -10q-35 0 -64 20q-75 51 -161 79.5 t-185 28.5q-84 0 -161.5 -21.5t-145 -61.5t-123 -95t-95 -123t-61.5 -145.5t-22 -161.5t22.5 -161.5t63.5 -145.5t97.5 -123t125.5 -95t147.5 -61.5t162.5 -21.5q210 0 385 110v344h-127q-28 0 -50 10t-37.5 26.5t-24 38.5t-8.5 46v4h370zM1100 1781q0 -50 -19 -96.5 t-54.5 -82t-85.5 -56.5t-112 -21q-71 0 -124 22t-88.5 58t-53 82t-17.5 94h56q17 0 31 -9t20 -28q9 -29 28.5 -49t44 -32.5t51.5 -18t52 -5.5q24 0 50 7t49 20.5t42 33t28 44.5q7 18 17 27.5t32 9.5h53z"/>
<glyph glyph-name="gbreve" horiz-adv-x="987" unicode="ğ" d="M232 685q0 -54 19.5 -100.5t53 -80t80 -53t100.5 -19.5t100.5 19.5t80 53t53 80t19.5 100.5t-19.5 100.5t-53 80t-80 53t-100.5 19.5t-100.5 -19.5t-80 -53t-53 -80t-19.5 -100.5zM990 955q-12 -29 -55 -45t-132 -16q15 -21 27 -49t20 -56.5t12 -56t4 -47.5 q0 -79 -30 -148.5t-82 -121t-121 -81.5t-148 -30q-91 0 -171 40l-7 -4q-41 -23 -70.5 -45t-29.5 -53q0 -12 5 -21q15 -18 42.5 -29.5t63 -18t75.5 -9.5t80 -3q69 0 140 -6t131 -26q77 -26 117 -80.5t40 -130.5q0 -59 -24 -106t-70 -80t-113 -50.5t-152 -17.5q-68 0 -133 9.5 t-126.5 25.5t-119.5 35.5t-110 39.5l12 33q8 25 36 45t62 20q23 0 45 -6t42 -14q11 -5 38 -15t65 -19.5t86.5 -17t103.5 -7.5q30 0 69.5 3t75 15.5t60.5 37.5t25 68v4q0 7 -1.5 18.5t-8 23.5t-20 23.5t-37.5 19.5q-60 19 -123.5 23t-122.5 4q-63 0 -127 10.5t-116.5 34 t-87 60t-39.5 89.5v8q0 10 4 24.5t19 34t45.5 43.5t83.5 54q-50 40 -77.5 86t-41 87.5t-16.5 73t-3 42.5v5q0 79 30 148t81.5 121t121 82t148.5 30q63 0 126 -23.5t122 -67.5q26 17 63.5 31.5t84.5 14.5q25 0 57 -6.5t64 -16.5zM770 1421q0 -50 -19 -98t-53.5 -85.5 t-84.5 -60.5t-112 -23q-71 0 -124.5 23.5t-89 62t-53.5 86t-18 95.5h56q17 0 31 -9t20 -28q9 -29 28.5 -51t44.5 -36.5t52.5 -21.5t52.5 -7q24 0 49.5 9t48.5 24.5t41.5 36.5t27.5 46q7 18 17 27.5t32 9.5h53z"/>
<glyph glyph-name="Gdotaccent" horiz-adv-x="1481" unicode="Ġ" d="M1343 688v-552q-49 -45 -108.5 -74.5t-126 -46.5t-138.5 -24t-146 -7q-152 0 -285 57.5t-233 157t-157.5 233t-57.5 285.5t57.5 285.5t157.5 233t233 157t285 57.5q151 0 280 -54.5t229 -151.5l-10 -9q-20 -18 -40.5 -28t-48.5 -10q-35 0 -64 20q-75 51 -161 79.5 t-185 28.5q-84 0 -161.5 -21.5t-145 -61.5t-123 -95t-95 -123t-61.5 -145.5t-22 -161.5t22.5 -161.5t63.5 -145.5t97.5 -123t125.5 -95t147.5 -61.5t162.5 -21.5q210 0 385 110v344h-127q-28 0 -50 10t-37.5 26.5t-24 38.5t-8.5 46v4h370zM729 1667q0 43 29.5 72.5 t72.5 29.5q21 0 39.5 -8t32 -21.5t21.5 -32.5t8 -40t-8 -39.5t-21.5 -32t-32 -21.5t-39.5 -8t-40 8t-32.5 21.5t-21.5 32t-8 39.5z"/>
<glyph glyph-name="gdotaccent" horiz-adv-x="987" unicode="ġ" d="M232 685q0 -54 19.5 -100.5t53 -80t80 -53t100.5 -19.5t100.5 19.5t80 53t53 80t19.5 100.5t-19.5 100.5t-53 80t-80 53t-100.5 19.5t-100.5 -19.5t-80 -53t-53 -80t-19.5 -100.5zM990 955q-12 -29 -55 -45t-132 -16q15 -21 27 -49t20 -56.5t12 -56t4 -47.5 q0 -79 -30 -148.5t-82 -121t-121 -81.5t-148 -30q-91 0 -171 40l-7 -4q-41 -23 -70.5 -45t-29.5 -53q0 -12 5 -21q15 -18 42.5 -29.5t63 -18t75.5 -9.5t80 -3q69 0 140 -6t131 -26q77 -26 117 -80.5t40 -130.5q0 -59 -24 -106t-70 -80t-113 -50.5t-152 -17.5q-68 0 -133 9.5 t-126.5 25.5t-119.5 35.5t-110 39.5l12 33q8 25 36 45t62 20q23 0 45 -6t42 -14q11 -5 38 -15t65 -19.5t86.5 -17t103.5 -7.5q30 0 69.5 3t75 15.5t60.5 37.5t25 68v4q0 7 -1.5 18.5t-8 23.5t-20 23.5t-37.5 19.5q-60 19 -123.5 23t-122.5 4q-63 0 -127 10.5t-116.5 34 t-87 60t-39.5 89.5v8q0 10 4 24.5t19 34t45.5 43.5t83.5 54q-50 40 -77.5 86t-41 87.5t-16.5 73t-3 42.5v5q0 79 30 148t81.5 121t121 82t148.5 30q63 0 126 -23.5t122 -67.5q26 17 63.5 31.5t84.5 14.5q25 0 57 -6.5t64 -16.5zM393 1284q0 42 29 70.5t71 28.5t71 -28.5 t29 -70.5t-29 -71t-71 -29t-71 29t-29 71z"/>
<glyph glyph-name="uni0122" horiz-adv-x="1481" unicode="Ģ" d="M1343 688v-552q-49 -45 -108.5 -74.5t-126 -46.5t-138.5 -24t-146 -7q-152 0 -285 57.5t-233 157t-157.5 233t-57.5 285.5t57.5 285.5t157.5 233t233 157t285 57.5q151 0 280 -54.5t229 -151.5l-10 -9q-20 -18 -40.5 -28t-48.5 -10q-35 0 -64 20q-75 51 -161 79.5 t-185 28.5q-84 0 -161.5 -21.5t-145 -61.5t-123 -95t-95 -123t-61.5 -145.5t-22 -161.5t22.5 -161.5t63.5 -145.5t97.5 -123t125.5 -95t147.5 -61.5t162.5 -21.5q210 0 385 110v344h-127q-28 0 -50 10t-37.5 26.5t-24 38.5t-8.5 46v4h370zM792 -160h53q34 0 44 -14.5 t10 -34.5q0 -14 -4.5 -44t-9.5 -61q-6 -36 -13 -77q-2 -10 -5 -19.5t-10.5 -17t-21.5 -12t-36 -4.5h-7v284z"/>
<glyph glyph-name="uni0123" horiz-adv-x="987" unicode="ģ" d="M232 685q0 -54 19.5 -100.5t53 -80t80 -53t100.5 -19.5t100.5 19.5t80 53t53 80t19.5 100.5t-19.5 100.5t-53 80t-80 53t-100.5 19.5t-100.5 -19.5t-80 -53t-53 -80t-19.5 -100.5zM990 955q-12 -29 -55 -45t-132 -16q15 -21 27 -49t20 -56.5t12 -56t4 -47.5 q0 -79 -30 -148.5t-82 -121t-121 -81.5t-148 -30q-91 0 -171 40l-7 -4q-41 -23 -70.5 -45t-29.5 -53q0 -12 5 -21q15 -18 42.5 -29.5t63 -18t75.5 -9.5t80 -3q69 0 140 -6t131 -26q77 -26 117 -80.5t40 -130.5q0 -59 -24 -106t-70 -80t-113 -50.5t-152 -17.5q-68 0 -133 9.5 t-126.5 25.5t-119.5 35.5t-110 39.5l12 33q8 25 36 45t62 20q23 0 45 -6t42 -14q11 -5 38 -15t65 -19.5t86.5 -17t103.5 -7.5q30 0 69.5 3t75 15.5t60.5 37.5t25 68v4q0 7 -1.5 18.5t-8 23.5t-20 23.5t-37.5 19.5q-60 19 -123.5 23t-122.5 4q-63 0 -127 10.5t-116.5 34 t-87 60t-39.5 89.5v8q0 10 4 24.5t19 34t45.5 43.5t83.5 54q-50 40 -77.5 86t-41 87.5t-16.5 73t-3 42.5v5q0 79 30 148t81.5 121t121 82t148.5 30q63 0 126 -23.5t122 -67.5q26 17 63.5 31.5t84.5 14.5q25 0 57 -6.5t64 -16.5zM444 1458h53q34 0 44 -14.5t10 -34.5 q0 -14 -4.5 -44t-9.5 -61q-6 -36 -13 -77q-2 -10 -5 -19.5t-10.5 -17t-21.5 -12t-36 -4.5h-7v284z"/>
<glyph glyph-name="Hcircumflex" horiz-adv-x="1487" unicode="Ĥ" d="M1269 1h-124v659h-844v-659h-125v1433h125v-649h844v649h124v-1433zM731 1688q-5 6 -6.5 14t-2.5 10q-1 -2 -2 -9t-8 -15l-89 -105q-32 -44 -113 -44h-44q38 58 64.5 96t43.5 61t25.5 33.5t10.5 13.5q17 20 37 32t61 12h27q41 0 61 -12t37 -32q2 -3 11 -13.5t26.5 -33.5 t44 -61t64.5 -96h-44q-83 0 -115 44z"/>
<glyph glyph-name="hcircumflex" horiz-adv-x="1162" unicode="ĥ" d="M250 1435q7 -5 12 -13q5 -7 8.5 -18t3.5 -27v-488q9 24 35.5 54.5t70.5 58t105.5 46.5t140.5 19q99 0 171 -33.5t119 -94.5t70 -146.5t23 -189.5v-603h-128v603q0 81 -14 143t-44.5 104.5t-79 65t-117.5 24.5h-11q-80 0 -143 -25t-107 -62t-67.5 -78t-23.5 -74v-701h-128 v1435h104zM639 1616q-5 6 -6.5 14t-2.5 10q0 -2 -1.5 -9t-8.5 -15l-124 -145q-32 -44 -113 -44h-44q76 117 125 177.5t54 66.5q17 20 37 32t61 12h27q41 0 61 -12t37 -32q5 -6 54 -66.5t125 -177.5h-44q-83 0 -115 44z"/>
<glyph glyph-name="Hbar" horiz-adv-x="1444" unicode="Ħ" d="M1267 24h-124v659h-844v-659h-125v1433h125v-292h-42v-114h42v-243h844v243h41v114h-41v292h124v-1433zM299 1051h844v114h-844v-114z"/>
<glyph glyph-name="hbar" horiz-adv-x="1162" unicode="ħ" d="M250 1435q7 -5 12 -13q5 -7 8.5 -18t3.5 -27v-488q9 24 35.5 54.5t70.5 58t105.5 46.5t140.5 19q99 0 171 -33.5t119 -94.5t70 -146.5t23 -189.5v-603h-128v603q0 81 -14 143t-44.5 104.5t-79 65t-117.5 24.5h-11q-80 0 -143 -25t-107 -62t-67.5 -78t-23.5 -74v-701h-128 v1435h104zM523 1263v-114h-554v114h554z"/>
<glyph glyph-name="Itilde" horiz-adv-x="544" unicode="Ĩ" d="M335 0h-125v1433h125v-1433zM413 1543q-42 2 -81 18t-72.5 34.5t-61 33.5t-48.5 17h-7q-23 0 -37 -10t-22 -25t-10 -25.5t-2 -14.5q-17 -28 -93 -28q0 6 -0.5 11.5t-0.5 11.5q0 30 10.5 60t31.5 55t53 40.5t76 15.5q39 0 75 -16t69 -35.5t63 -35.5t57 -16q21 0 33.5 8 t19 21t8 23t1.5 15q22 25 79 25h13v-5q0 -11 -3 -40t-17.5 -60t-43.5 -54.5t-80 -23.5h-10z"/>
<glyph glyph-name="itilde" horiz-adv-x="462" unicode="ĩ" d="M294 1013v-1013h-128v1013h128zM372 1227q-42 2 -81 18t-72.5 34.5t-61 33.5t-48.5 17h-7q-23 0 -37 -10t-22 -25t-10 -25.5t-2 -14.5q-17 -28 -93 -28q0 6 -0.5 11.5t-0.5 11.5q0 30 10.5 60t31.5 55t53 40.5t76 15.5q39 0 75 -16t69 -35.5t63 -35.5t57 -16q21 0 33.5 8 t19 21t8 23t1.5 15q22 25 79 25h13v-5q0 -11 -3 -40t-17.5 -60t-43.5 -54.5t-80 -23.5h-10z"/>
<glyph glyph-name="Imacron" horiz-adv-x="544" unicode="Ī" d="M335 0h-125v1433h125v-1433zM549 1714v-114h-554v114h554z"/>
<glyph glyph-name="imacron" horiz-adv-x="462" unicode="ī" d="M294 1013v-1013h-128v1013h128zM508 1331v-114h-554v114h554z"/>
<glyph glyph-name="Ibreve" horiz-adv-x="544" unicode="Ĭ" d="M335 0h-125v1433h125v-1433zM549 1781q0 -50 -19 -96.5t-54.5 -82t-85.5 -56.5t-112 -21q-71 0 -124 22t-88.5 58t-53 82t-17.5 94h56q17 0 31 -9t20 -28q9 -29 28.5 -49t44 -32.5t51.5 -18t52 -5.5q24 0 50 7t49 20.5t42 33t28 44.5q7 18 17 27.5t32 9.5h53z"/>
<glyph glyph-name="ibreve" horiz-adv-x="462" unicode="ĭ" d="M294 1013v-1013h-128v1013h128zM508 1421q0 -50 -19 -98t-53.5 -85.5t-84.5 -60.5t-112 -23q-71 0 -124.5 23.5t-89 62t-53.5 86t-18 95.5h56q17 0 31 -9t20 -28q9 -29 28.5 -51t44.5 -36.5t52.5 -21.5t52.5 -7q24 0 49.5 9t48.5 24.5t41.5 36.5t27.5 46q7 18 17 27.5 t32 9.5h53z"/>
<glyph glyph-name="Iogonek" horiz-adv-x="544" unicode="Į" d="M335 0h-125v1433h125v-1433zM328 6q-21 -12 -45 -30.5t-44 -38.5t-33.5 -41.5t-13.5 -39.5q0 -34 20.5 -57.5t70.5 -23.5q18 0 40.5 -1.5t42.5 -1.5q21 -1 46 -14.5t34 -35.5l16 -39q-18 -8 -41 -13q-20 -5 -46 -9t-58 -4q-105 0 -164.5 42.5t-59.5 112.5q0 28 12.5 55.5 t34.5 52.5t51 48t62 43z"/>
<glyph glyph-name="iogonek" horiz-adv-x="462" unicode="į" d="M128 1346q0 21 8 40t22 33t33 22t40 8t40 -8t33 -22t22 -33t8 -40t-8 -40t-22 -33t-33 -22t-40 -8t-40 8t-33 22t-22 33t-8 40zM294 1050v-1050h-128v1050h128zM282 6q-21 -12 -45 -30.5t-44 -38.5t-33.5 -41.5t-13.5 -39.5q0 -34 20.5 -57.5t70.5 -23.5q18 0 40.5 -1.5 t42.5 -1.5q21 -1 46 -14.5t34 -35.5l16 -39q-18 -8 -41 -13q-20 -5 -46 -9t-58 -4q-105 0 -164.5 42.5t-59.5 112.5q0 28 12.5 55.5t34.5 52.5t51 48t62 43z"/>
<glyph glyph-name="Idotaccent" horiz-adv-x="544" unicode="İ" d="M335 0h-125v1433h125v-1433zM171 1667q0 43 29.5 72.5t72.5 29.5q21 0 39.5 -8t32 -21.5t21.5 -32.5t8 -40t-8 -39.5t-21.5 -32t-32 -21.5t-39.5 -8t-40 8t-32.5 21.5t-21.5 32t-8 39.5z"/>
<glyph glyph-name="dotlessi" horiz-adv-x="462" unicode="ı" d="M294 1013v-1013h-128v1013h128z"/>
<glyph glyph-name="IJ" horiz-adv-x="1371" unicode="Ĳ" d="M335 0h-125v1433h125v-1433zM1030 1433h125v-1243q0 -111 -30 -191.5t-82 -133t-122.5 -77.5t-150.5 -25q-81 0 -148.5 31t-124.5 79l26 27q18 19 35 23.5t40 4.5q19 0 36 -6.5t36 -14t43 -13.5t57 -6q50 0 97 14t83 47.5t58 89.5t22 141v1253z"/>
<glyph glyph-name="ij" horiz-adv-x="989" unicode="ĳ" d="M128 1346q0 21 8 40t22 33t33 22t40 8t40 -8t33 -22t22 -33t8 -40t-8 -40t-22 -33t-33 -22t-40 -8t-40 8t-33 22t-22 33t-8 40zM294 1050v-1050h-128v1050h128zM589 1346q0 21 8 40t22 33t32.5 22t40.5 8q21 0 40 -8t33 -22t22 -33t8 -40t-8 -40t-22 -33t-33 -22t-40 -8 q-22 0 -40.5 8t-32.5 22t-22 33t-8 40zM756 14q-6 -81 -33 -146.5t-66.5 -115t-87 -83.5t-92.5 -52l-11 25q-5 10 -8.5 25.5t-3.5 24.5q0 28 15 43.5t35 36.5q43 45 68 85.5t37.5 75t15.5 61.5t3 45v1011h128v-1036z"/>
<glyph glyph-name="Jcircumflex" horiz-adv-x="682" unicode="Ĵ" d="M349 1433h125v-1243q0 -111 -30 -191.5t-82 -133t-122.5 -77.5t-150.5 -25q-81 0 -148.5 31t-124.5 79l26 27q18 19 35 23.5t40 4.5q19 0 36 -6.5t36 -14t43 -13.5t57 -6q50 0 97 14t83 47.5t58 89.5t22 141v1253zM423 1688q-5 6 -6.5 14t-2.5 10q-1 -2 -2 -9t-8 -15 l-89 -105q-32 -44 -113 -44h-44q38 58 64.5 96t43.5 61t25.5 33.5t10.5 13.5q17 20 37 32t61 12h27q41 0 61 -12t37 -32q2 -3 11 -13.5t26.5 -33.5t44 -61t64.5 -96h-44q-83 0 -115 44z"/>
<glyph glyph-name="jcircumflex" horiz-adv-x="462" unicode="ĵ" d="M241 1350q-5 6 -6.5 14t-2.5 10q0 -2 -1.5 -9t-8.5 -15l-124 -145q-32 -44 -113 -44h-44q76 117 125 177.5t54 66.5q17 20 37 32t61 12h27q41 0 61 -12t37 -32q5 -6 54 -66.5t125 -177.5h-44q-83 0 -115 44zM299 14q-6 -81 -33 -146.5t-66.5 -115t-87 -83.5t-92.5 -52 l-11 25q-5 10 -8.5 25.5t-3.5 24.5q0 28 15 43.5t35 36.5q43 45 68 85.5t37.5 75t15.5 61.5t3 45v1011h128v-1036z"/>
<glyph glyph-name="uni0136" horiz-adv-x="1162" unicode="Ķ" d="M317 0h-125v1433h125v-1433zM971 1356q31 35 66 56t85 21h82l-585 -660q-11 -12 -19 -19t-13 -11q-6 -4 -10 -5q4 -2 10 -6q5 -4 13 -10.5t19 -18.5l627 -703h-89q-50 0 -85.5 20.5t-65.5 55.5l-556 632q-9 11 -16.5 16.5t-12.5 8.5q-6 4 -11 5q5 1 11 5q5 3 12.5 9.5 t17.5 17.5zM563 -165h53q34 0 44 -14.5t10 -34.5q0 -14 -4.5 -44t-9.5 -61q-6 -36 -13 -77q-2 -10 -5 -19.5t-10.5 -17t-21.5 -12t-36 -4.5h-7v284z"/>
<glyph glyph-name="uni0137" horiz-adv-x="986" unicode="ķ" d="M756 971q31 36 67 57.5t88 21.5h85q-91 -102 -174 -194q-35 -39 -72 -79.5t-70.5 -77.5t-62.5 -69t-48 -53q-11 -12 -20 -19t-14 -11q-7 -4 -11 -5q8 -4 16 -9q7 -5 14.5 -11t15.5 -15q44 -56 103 -119.5t120.5 -130t120 -132.5t102.5 -125h-78q-51 0 -87 21.5t-68 56.5 l-394 434q-8 8 -16 13.5t-15 9.5q-8 4 -16 7q8 2 16 6q7 3 15 9t16 14zM280 0h-128v1433h128v-1433zM506 -171h53q34 0 44 -14.5t10 -34.5q0 -14 -4.5 -44t-9.5 -61q-6 -36 -13 -77q-2 -10 -5 -19.5t-10.5 -17t-21.5 -12t-36 -4.5h-7v284z"/>
<glyph glyph-name="kgreenlandic" horiz-adv-x="986" unicode="ĸ" d="M756 971q31 36 67 57.5t88 21.5h85q-91 -102 -174 -194q-35 -39 -72 -79.5t-70.5 -77.5t-62.5 -69t-48 -53q-11 -12 -20 -19t-14 -11q-7 -4 -11 -5q8 -4 16 -9q7 -5 14.5 -11t15.5 -15q44 -56 103 -119.5t120.5 -130t120 -132.5t102.5 -125h-78q-51 0 -87 21.5t-68 56.5 l-394 434q-8 8 -16 13.5t-15 9.5q-8 4 -16 7q8 2 16 6q7 3 15 9t16 14zM280 0h-128v1048h128v-1048z"/>
<glyph glyph-name="Lacute" horiz-adv-x="996" unicode="Ĺ" d="M174 0v1433h125v-1308h656v-125h-781zM483 1583q-14 -15 -36 -27t-54 -12h-44q25 47 47.5 83t39.5 60.5t27.5 38t11.5 14.5q11 16 38 29t60 13h75z"/>
<glyph glyph-name="lacute" horiz-adv-x="462" unicode="ĺ" d="M294 1433v-1433h-128v1433h128zM315 1576q-14 -15 -36 -26t-54 -12l-44 -1q25 47 51 91t46.5 78t34 55t14.5 22q11 16 38 29t60 13h75z"/>
<glyph glyph-name="uni013B" horiz-adv-x="996" unicode="Ļ" d="M174 0v1433h125v-1308h656v-125h-781zM500 -166h53q34 0 44 -14.5t10 -34.5q0 -14 -4.5 -44t-9.5 -61q-6 -36 -13 -77q-2 -10 -5 -19.5t-10.5 -17t-21.5 -12t-36 -4.5h-7v284z"/>
<glyph glyph-name="uni013C" horiz-adv-x="462" unicode="ļ" d="M294 1433v-1433h-128v1433h128zM178 -151h53q34 0 44 -14.5t10 -34.5q0 -14 -4.5 -44t-9.5 -61q-6 -36 -13 -77q-2 -10 -5 -19.5t-10.5 -17t-21.5 -12t-36 -4.5h-7v284z"/>
<glyph glyph-name="Lcaron" horiz-adv-x="996" unicode="Ľ" d="M174 0v1433h125v-1308h656v-125h-781zM420 1458h53q34 0 44 -14.5t10 -34.5q0 -14 -4.5 -44t-9.5 -61q-6 -36 -13 -77q-2 -10 -5 -19.5t-10.5 -17t-21.5 -12t-36 -4.5h-7v284z"/>
<glyph glyph-name="lcaron" horiz-adv-x="539" unicode="ľ" d="M294 1433v-1433h-128v1433h128zM414 1425h53q34 0 44 -14.5t10 -34.5q0 -14 -4.5 -44t-9.5 -61q-6 -36 -13 -77q-2 -10 -5 -19.5t-10.5 -17t-21.5 -12t-36 -4.5h-7v284z"/>
<glyph glyph-name="Ldot" horiz-adv-x="996" unicode="Ŀ" d="M174 0v1433h125v-1308h656v-125h-781zM631 671q0 21 8 39t21.5 31.5t32 21.5t39.5 8t39.5 -8t32 -21.5t21.5 -31.5t8 -39t-8 -39.5t-21.5 -32t-32 -21.5t-39.5 -8t-39.5 8t-32 21.5t-21.5 32t-8 39.5z"/>
<glyph glyph-name="ldot" horiz-adv-x="686" unicode="ŀ" d="M294 1433v-1433h-128v1433h128zM467 671q0 21 8 39t21.5 31.5t32 21.5t39.5 8t39.5 -8t32 -21.5t21.5 -31.5t8 -39t-8 -39.5t-21.5 -32t-32 -21.5t-39.5 -8t-39.5 8t-32 21.5t-21.5 32t-8 39.5z"/>
<glyph glyph-name="Lslash" horiz-adv-x="996" unicode="Ł" d="M174 731v702h125v-649l219 93l35 -82l-254 -108v-562h656v-125h-781v634l-200 -85l-35 83z"/>
<glyph glyph-name="lslash" horiz-adv-x="462" unicode="ł" d="M-46 559q-1 1 -1 4q-1 2 -1 11q0 14 7 39.5t32 59.5l175 74v686h128v-632l204 86q7 -18 7 -36q0 -16 -7.5 -35.5t-29.5 -38.5l-174 -74v-703h-128v649z"/>
<glyph glyph-name="Nacute" horiz-adv-x="1487" unicode="Ń" d="M1310 0h-124l-865 1238q-5 6 -8 14l-6 16q-4 9 -6 18v-1286h-125v1433h87q40 0 63.5 -10t39.5 -32l792 -1134q7 -11 12 -22.5t9 -21.5q4 -11 7 -23v1243h124v-1433zM728 1583q-14 -15 -36 -27t-54 -12h-44q25 47 47.5 83t39.5 60.5t27.5 38t11.5 14.5q11 16 38 29t60 13 h75z"/>
<glyph glyph-name="nacute" horiz-adv-x="1162" unicode="ń" d="M261 1050q5 -10 9 -23.5t4 -44.5v-91q37 45 81 78t91 54.5t96 32.5t96 11q86 0 154.5 -32.5t116.5 -93t74 -146.5t26 -192v-603h-128v603q0 161 -62.5 248.5t-192.5 87.5q-73 0 -136 -19t-110 -52t-75 -76.5t-31 -91.5v-700h-128v1050h115zM689 1200q-14 -15 -36 -26 t-54 -12l-44 -1q25 47 51 91t46.5 78t34 55t14.5 22q11 16 38 29t60 13h75z"/>
<glyph glyph-name="uni0145" horiz-adv-x="1487" unicode="Ņ" d="M1310 0h-124l-865 1238q-5 6 -8 14l-6 16q-4 9 -6 18v-1286h-125v1433h87q40 0 63.5 -10t39.5 -32l792 -1134q7 -11 12 -22.5t9 -21.5q4 -11 7 -23v1243h124v-1433zM679 -160h53q34 0 44 -14.5t10 -34.5q0 -14 -4.5 -44t-9.5 -61q-6 -36 -13 -77q-2 -10 -5 -19.5 t-10.5 -17t-21.5 -12t-36 -4.5h-7v284z"/>
<glyph glyph-name="uni0146" horiz-adv-x="1162" unicode="ņ" d="M261 1050q5 -10 9 -23.5t4 -44.5v-91q37 45 81 78t91 54.5t96 32.5t96 11q86 0 154.5 -32.5t116.5 -93t74 -146.5t26 -192v-603h-128v603q0 161 -62.5 248.5t-192.5 87.5q-73 0 -136 -19t-110 -52t-75 -76.5t-31 -91.5v-700h-128v1050h115zM591 -162h53q34 0 44 -14.5 t10 -34.5q0 -14 -4.5 -44t-9.5 -61q-6 -36 -13 -77q-2 -10 -5 -19.5t-10.5 -17t-21.5 -12t-36 -4.5h-7v284z"/>
<glyph glyph-name="Ncaron" horiz-adv-x="1487" unicode="Ň" d="M1310 0h-124l-865 1238q-5 6 -8 14l-6 16q-4 9 -6 18v-1286h-125v1433h87q40 0 63.5 -10t39.5 -32l792 -1134q7 -11 12 -22.5t9 -21.5q4 -11 7 -23v1243h124v-1433zM734 1643q5 -6 6.5 -14t2.5 -10q0 2 1.5 9t8.5 15l124 145q32 44 113 44h44q-76 -117 -125 -177.5 t-54 -66.5q-17 -20 -37 -32t-61 -12h-27q-41 0 -61 12t-37 32q-5 6 -54 66.5t-125 177.5h44q83 0 115 -44z"/>
<glyph glyph-name="ncaron" horiz-adv-x="1162" unicode="ň" d="M261 1050q5 -10 9 -23.5t4 -44.5v-91q37 45 81 78t91 54.5t96 32.5t96 11q86 0 154.5 -32.5t116.5 -93t74 -146.5t26 -192v-603h-128v603q0 161 -62.5 248.5t-192.5 87.5q-73 0 -136 -19t-110 -52t-75 -76.5t-31 -91.5v-700h-128v1050h115zM599 1260q5 -6 6.5 -14 t2.5 -10q0 2 1.5 9t8.5 15l124 145q32 44 113 44h44q-76 -117 -125 -177.5t-54 -66.5q-17 -20 -37 -32t-61 -12h-27q-41 0 -61 12t-37 32q-5 6 -54 66.5t-125 177.5h44q83 0 115 -44z"/>
<glyph glyph-name="napostrophe" horiz-adv-x="1081" unicode="ŉ" d="M261 1050q5 -10 9 -23.5t4 -44.5v-91q37 45 81 78t91 54.5t96 32.5t96 11q86 0 154.5 -32.5t116.5 -93t74 -146.5t26 -192v-603h-128v603q0 161 -62.5 248.5t-192.5 87.5q-73 0 -136 -19t-110 -52t-75 -76.5t-31 -91.5v-700h-128v1050h115zM149 1433h53q34 0 44 -14.5 t10 -34.5q0 -14 -4.5 -44t-9.5 -61q-6 -36 -13 -77q-2 -10 -5 -19.5t-10.5 -17t-21.5 -12t-36 -4.5h-7v284z"/>
<glyph glyph-name="Eng" horiz-adv-x="1487" unicode="Ŋ" d="M1185 1433h125v-1243q0 -111 -30 -191.5t-82 -133t-122.5 -77.5t-150.5 -25t-148 31t-125 79l26 27q19 19 35.5 23.5t39.5 4.5q19 0 36 -6.5t36 -14t43 -13.5t57 -6q37 0 72.5 7.5t66.5 24.5t56 45.5t41 69.5l-840 1203q-4 6 -7.5 13.5t-6.5 15t-5 13.5l-1 5v-1285h-125 v1433h87q40 0 63.5 -10t39.5 -32l792 -1134q11 -17 18 -36t9 -27v1239z"/>
<glyph glyph-name="eng" horiz-adv-x="1162" unicode="ŋ" d="M261 1050q5 -10 9 -23.5t4 -44.5v-91q37 45 81 78t91 54.5t96 32.5t96 11q86 0 154.5 -32.5t116.5 -93t74 -146.5t26 -192v-589q-6 -81 -33 -146.5t-66.5 -115t-87 -83.5t-92.5 -52l-11 25q-5 10 -8.5 25.5t-3.5 24.5q0 28 15 43.5t35 36.5q40 41 64 79t37 70.5 t17.5 59.5t5.5 46v576q0 161 -62.5 248.5t-192.5 87.5q-73 0 -136 -19t-110 -52t-75 -76.5t-31 -91.5v-700h-128v1050h115z"/>
<glyph glyph-name="Omacron" horiz-adv-x="1650" unicode="Ō" d="M217 717q0 -84 22 -161.5t61.5 -145.5t95 -123t123 -95t145 -61.5t161.5 -21.5t161.5 21.5t145.5 61.5t123 95t95 123t61.5 145.5t21.5 161.5q0 126 -48 236.5t-130.5 193t-193 130.5t-236.5 48q-84 0 -161.5 -21.5t-145 -61.5t-123 -95t-95 -123t-61.5 -145.5 t-22 -161.5zM92 717q0 152 57.5 285.5t157.5 233t233 157t285 57.5t285.5 -57.5t233 -157t157 -233t57.5 -285.5t-57.5 -285.5t-157 -233t-233 -157t-285.5 -57.5t-285 57.5t-233 157t-157.5 233t-57.5 285.5zM548 1692h554v-114h-554v114z"/>
<glyph glyph-name="omacron" d="M200 525q0 -87 32 -162t88 -131t131.5 -88t161.5 -32q87 0 162 32t131 88t88 131t32 162t-32 162t-88 131t-131 88t-162 32q-86 0 -161.5 -32t-131.5 -88t-88 -131t-32 -162zM72 525q0 74 19.5 143.5t55 129.5t85 109.5t109.5 84.5t129 54.5t143 19.5q112 0 210.5 -42.5 t172 -116t116 -172t42.5 -210.5t-42.5 -210.5t-116 -172t-172 -116t-210.5 -42.5q-74 0 -143 19.5t-129 54.5t-109.5 84.5t-85 109.5t-55 129.5t-19.5 143.5zM890 1331v-114h-554v114h554z" unicode="ō"/>
<glyph glyph-name="Obreve" horiz-adv-x="1650" unicode="Ŏ" d="M217 717q0 -84 22 -161.5t61.5 -145.5t95 -123t123 -95t145 -61.5t161.5 -21.5t161.5 21.5t145.5 61.5t123 95t95 123t61.5 145.5t21.5 161.5q0 126 -48 236.5t-130.5 193t-193 130.5t-236.5 48q-84 0 -161.5 -21.5t-145 -61.5t-123 -95t-95 -123t-61.5 -145.5 t-22 -161.5zM92 717q0 152 57.5 285.5t157.5 233t233 157t285 57.5t285.5 -57.5t233 -157t157 -233t57.5 -285.5t-57.5 -285.5t-157 -233t-233 -157t-285.5 -57.5t-285 57.5t-233 157t-157.5 233t-57.5 285.5zM1102 1781q0 -50 -19 -96.5t-54.5 -82t-85.5 -56.5t-112 -21 q-71 0 -124 22t-88.5 58t-53 82t-17.5 94h56q17 0 31 -9t20 -28q9 -29 28.5 -49t44 -32.5t51.5 -18t52 -5.5q24 0 50 7t49 20.5t42 33t28 44.5q7 18 17 27.5t32 9.5h53z"/>
<glyph glyph-name="obreve" d="M200 525q0 -87 32 -162t88 -131t131.5 -88t161.5 -32q87 0 162 32t131 88t88 131t32 162t-32 162t-88 131t-131 88t-162 32q-86 0 -161.5 -32t-131.5 -88t-88 -131t-32 -162zM72 525q0 74 19.5 143.5t55 129.5t85 109.5t109.5 84.5t129 54.5t143 19.5q112 0 210.5 -42.5 t172 -116t116 -172t42.5 -210.5t-42.5 -210.5t-116 -172t-172 -116t-210.5 -42.5q-74 0 -143 19.5t-129 54.5t-109.5 84.5t-85 109.5t-55 129.5t-19.5 143.5zM890 1421q0 -50 -19 -98t-53.5 -85.5t-84.5 -60.5t-112 -23q-71 0 -124.5 23.5t-89 62t-53.5 86t-18 95.5h56 q17 0 31 -9t20 -28q9 -29 28.5 -51t44.5 -36.5t52.5 -21.5t52.5 -7q24 0 49.5 9t48.5 24.5t41.5 36.5t27.5 46q7 18 17 27.5t32 9.5h53z" unicode="ŏ"/>
<glyph glyph-name="Ohungarumlaut" horiz-adv-x="1650" unicode="Ő" d="M217 717q0 -84 22 -161.5t61.5 -145.5t95 -123t123 -95t145 -61.5t161.5 -21.5t161.5 21.5t145.5 61.5t123 95t95 123t61.5 145.5t21.5 161.5q0 126 -48 236.5t-130.5 193t-193 130.5t-236.5 48q-84 0 -161.5 -21.5t-145 -61.5t-123 -95t-95 -123t-61.5 -145.5 t-22 -161.5zM92 717q0 152 57.5 285.5t157.5 233t233 157t285 57.5t285.5 -57.5t233 -157t157 -233t57.5 -285.5t-57.5 -285.5t-157 -233t-233 -157t-285.5 -57.5t-285 57.5t-233 157t-157.5 233t-57.5 285.5zM1039 1575q-15 -20 -42.5 -25.5t-65.5 -5.5h-34l172 244 q16 22 49.5 33t75.5 11h60zM831 1577q-16 -21 -43.5 -27t-66.5 -6h-19q130 232 142 244q16 22 49 33t75 11h52z"/>
<glyph glyph-name="ohungarumlaut" d="M200 525q0 -87 32 -162t88 -131t131.5 -88t161.5 -32q87 0 162 32t131 88t88 131t32 162t-32 162t-88 131t-131 88t-162 32q-86 0 -161.5 -32t-131.5 -88t-88 -131t-32 -162zM72 525q0 74 19.5 143.5t55 129.5t85 109.5t109.5 84.5t129 54.5t143 19.5q112 0 210.5 -42.5 t172 -116t116 -172t42.5 -210.5t-42.5 -210.5t-116 -172t-172 -116t-210.5 -42.5q-74 0 -143 19.5t-129 54.5t-109.5 84.5t-85 109.5t-55 129.5t-19.5 143.5zM804 1192q-15 -20 -42.5 -25.5t-65.5 -5.5h-34l172 244q16 22 49.5 33t75.5 11h60zM596 1194q-16 -21 -43.5 -27 t-66.5 -6h-19q130 232 142 244q16 22 49 33t75 11h52z" unicode="ő"/>
<glyph glyph-name="OE" horiz-adv-x="2192" unicode="Œ" d="M217 717q0 -126 47.5 -237t130 -193.5t193 -130t236.5 -47.5q84 0 161.5 21.5t145.5 61.5t123 95t95 123t61.5 145.5t21.5 161.5q0 126 -48 236.5t-130.5 193t-193 130.5t-236.5 48q-84 0 -161.5 -21.5t-145 -61.5t-123 -95t-95 -123t-61 -145.5t-21.5 -161.5zM92 717 q0 152 57.5 285.5t157 233t232.5 157t285 57.5q78 0 158 -17h1107v-125h-819q61 -59 108 -114t81.5 -115.5t57.5 -131.5t37 -161h404v-125h-403q-11 -89 -33.5 -161.5t-57 -136t-83 -121t-112.5 -117.5h820v-125h-1112q-38 -8 -76.5 -12t-76.5 -4q-152 0 -285 57.5 t-232.5 157t-157 233t-57.5 285.5z"/>
<glyph glyph-name="oe" horiz-adv-x="2098" unicode="œ" d="M1529 938q-80 0 -144 -27t-110.5 -74.5t-76 -112.5t-39.5 -141q5 13 17.5 29t35.5 16h682q-18 74 -52 131.5t-81 97.5t-106 60.5t-126 20.5zM200 525q0 -87 32 -162t88 -131t131.5 -88t161.5 -32q87 0 162 32t131 88t88 131t32 162t-32 162t-88 131t-131 88t-162 32 q-86 0 -161.5 -32t-131.5 -88t-88 -131t-32 -162zM1528 1066q94 0 174 -30.5t142 -84.5t106 -128.5t68 -162.5q5 -20 5 -35q0 -26 -9.5 -48.5t-25.5 -40t-38 -27.5t-47 -10h-747q4 -83 31.5 -154t75.5 -122.5t114.5 -81t150.5 -29.5q53 0 102.5 22.5t99.5 54.5q14 9 31.5 13 t33.5 4t28.5 -3.5t23.5 -10t21.5 -15.5t23.5 -19q-37 -37 -77.5 -68.5t-85.5 -55t-95 -37t-106 -13.5q-70 0 -133.5 18t-118.5 51t-100 78t-76 99q-6 10 -8.5 17.5t-4.5 12.5t-2 9q0 -4 -2 -9l-5 -12.5t-9 -17.5q-36 -53 -86 -98t-109.5 -78t-125.5 -51.5t-135 -18.5 q-74 0 -143 19.5t-129 54.5t-109.5 84.5t-85 109.5t-55 129.5t-19.5 143.5t19.5 143.5t55 129.5t85 109.5t109.5 84.5t129 54.5t143 19.5q72 0 139.5 -18t126 -50.5t107 -77.5t83.5 -99q6 -11 9 -19t5 -13q2 -6 2 -11q0 5 2 11q2 5 4.5 13t8.5 19q33 53 76 98t96.5 77.5 t117.5 51t138 18.5z"/>
<glyph glyph-name="Racute" horiz-adv-x="1259" unicode="Ŕ" d="M318 1308v-552h377q57 0 107.5 21.5t88 59t59.5 88t22 107.5t-22 107t-59.5 87.5t-88 59.5t-107.5 22h-377zM318 0h-125v1433h502q84 0 157 -31.5t127.5 -86t86 -127.5t31.5 -156q0 -74 -25 -143t-69 -124t-106 -90.5t-135 -43.5l474 -631h-59q-103 0 -152 76l-417 555 h-290v-631zM653 1583q-14 -15 -36 -27t-54 -12h-44q25 47 47.5 83t39.5 60.5t27.5 38t11.5 14.5q11 16 38 29t60 13h75z"/>
<glyph glyph-name="racute" horiz-adv-x="731" unicode="ŕ" d="M213 1050q5 -10 9 -21.5t4 -26.5v-118q19 39 58 72.5t89 58t108 38t116 13.5q61 0 117 -17l-10 -55q-4 -22 -13 -34t-21.5 -17.5t-28 -6.5t-31.5 -1h-15q-73 0 -138.5 -24t-116 -62t-81 -85.5t-33.5 -94.5v-669h-128v1050h115zM297 1200q-14 -15 -36 -26t-54 -12l-44 -1 q25 47 51 91t46.5 78t34 55t14.5 22q11 16 38 29t60 13h75z"/>
<glyph glyph-name="uni0156" horiz-adv-x="1259" unicode="Ŗ" d="M318 1308v-552h377q57 0 107.5 21.5t88 59t59.5 88t22 107.5t-22 107t-59.5 87.5t-88 59.5t-107.5 22h-377zM318 0h-125v1433h502q84 0 157 -31.5t127.5 -86t86 -127.5t31.5 -156q0 -74 -25 -143t-69 -124t-106 -90.5t-135 -43.5l474 -631h-59q-103 0 -152 76l-417 555 h-290v-631zM576 -154h53q34 0 44 -14.5t10 -34.5q0 -14 -4.5 -44t-9.5 -61q-6 -36 -13 -77q-2 -10 -5 -19.5t-10.5 -17t-21.5 -12t-36 -4.5h-7v284z"/>
<glyph glyph-name="uni0157" horiz-adv-x="731" unicode="ŗ" d="M213 1050q5 -10 9 -21.5t4 -26.5v-118q19 39 58 72.5t89 58t108 38t116 13.5q61 0 117 -17l-10 -55q-4 -22 -13 -34t-21.5 -17.5t-28 -6.5t-31.5 -1h-15q-73 0 -138.5 -24t-116 -62t-81 -85.5t-33.5 -94.5v-669h-128v1050h115zM102 -171h53q34 0 44 -14.5t10 -34.5 q0 -14 -4.5 -44t-9.5 -61q-6 -36 -13 -77q-2 -10 -5 -19.5t-10.5 -17t-21.5 -12t-36 -4.5h-7v284z"/>
<glyph glyph-name="Rcaron" horiz-adv-x="1259" unicode="Ř" d="M318 1308v-552h377q57 0 107.5 21.5t88 59t59.5 88t22 107.5t-22 107t-59.5 87.5t-88 59.5t-107.5 22h-377zM318 0h-125v1433h502q84 0 157 -31.5t127.5 -86t86 -127.5t31.5 -156q0 -74 -25 -143t-69 -124t-106 -90.5t-135 -43.5l474 -631h-59q-103 0 -152 76l-417 555 h-290v-631zM620 1643q5 -6 6.5 -14t2.5 -10q0 2 1.5 9t8.5 15l124 145q32 44 113 44h44q-76 -117 -125 -177.5t-54 -66.5q-17 -20 -37 -32t-61 -12h-27q-41 0 -61 12t-37 32q-5 6 -54 66.5t-125 177.5h44q83 0 115 -44z"/>
<glyph glyph-name="rcaron" horiz-adv-x="731" unicode="ř" d="M279 1050q5 -10 9 -21.5t4 -26.5v-118q19 39 58 72.5t89 58t108 38t116 13.5q61 0 117 -17l-10 -55q-4 -22 -13 -34t-21.5 -17.5t-28 -6.5t-31.5 -1h-15q-73 0 -138.5 -24t-116 -62t-81 -85.5t-33.5 -94.5v-669h-128v1050h115zM379 1260q5 -6 6.5 -14t2.5 -10q0 2 1.5 9 t8.5 15l124 145q32 44 113 44h44q-76 -117 -125 -177.5t-54 -66.5q-17 -20 -37 -32t-61 -12h-27q-41 0 -61 12t-37 32q-5 6 -54 66.5t-125 177.5h44q83 0 115 -44z"/>
<glyph glyph-name="Sacute" horiz-adv-x="998" unicode="Ś" d="M719 1245q-23 16 -40.5 30t-37.5 24t-45.5 16t-65.5 6q-58 0 -110 -19.5t-91.5 -52.5t-62.5 -77t-23 -93q0 -56 14.5 -92t49 -63.5t91 -51t139.5 -52.5q44 -16 82 -30t72 -28.5t63.5 -31t56.5 -37.5q70 -54 98.5 -132t28.5 -171q0 -94 -37 -169t-100 -127.5t-147.5 -80.5 t-179.5 -28q-187 0 -315 111q-35 32 -59.5 63.5t-39.5 57.5l15 9q33 19 63 19q24 0 46 -6.5t39 -23.5q41 -38 74.5 -58.5t63 -30t57 -11.5t56.5 -3h14q52 0 106 14q60 16 109 50t79.5 87t30.5 127q0 82 -24 131.5t-66.5 80.5t-100.5 51.5t-125 46.5q-85 34 -155 63 t-119.5 68.5t-77 97.5t-27.5 150q0 84 37 152t95.5 116.5t132 75t147.5 26.5q63 0 114.5 -16.5t94 -42t77 -57.5t63.5 -63l-31 -22q-12 -9 -27.5 -14.5t-37.5 -5.5q-37 0 -64 17zM586 1583q-14 -15 -36 -27t-54 -12h-44q25 47 47.5 83t39.5 60.5t27.5 38t11.5 14.5 q11 16 38 29t60 13h75z"/>
<glyph glyph-name="sacute" horiz-adv-x="745" unicode="ś" d="M12 148q32 16 50.5 25.5t41.5 9.5q17 0 35 -4t45 -22q30 -21 65.5 -32t73.5 -11q41 0 82 11.5t75 35t55.5 59t23.5 84.5q-2 31 -11.5 57t-33 48.5t-63.5 43.5t-102 43l-21 7q-52 18 -103 38.5t-92 53t-66.5 81.5t-25.5 124q0 61 26.5 108.5t69 80t95.5 49.5t105 19h9 q52 -2 96 -19t78.5 -40t60 -47.5t41.5 -41.5l-19 -16q-16 -14 -34.5 -24.5t-39.5 -10.5q-13 1 -25 6t-24.5 12t-25.5 15t-27 15q-26 14 -50 18t-39 4q-46 -1 -78 -15.5t-52.5 -34.5t-29.5 -41.5t-9 -36.5q0 -41 17.5 -69.5t46.5 -48.5t65.5 -34t74.5 -27l10 -3 q57 -19 112 -45t97.5 -62.5t68.5 -87t26 -119.5q0 -65 -28 -122.5t-77.5 -101.5t-116 -69.5t-142.5 -25.5q-93 0 -175.5 42.5t-135.5 120.5zM360 1200q-14 -15 -36 -26t-54 -12l-44 -1q25 47 51 91t46.5 78t34 55t14.5 22q11 16 38 29t60 13h75z"/>
<glyph glyph-name="Scircumflex" horiz-adv-x="998" unicode="Ŝ" d="M719 1245q-23 16 -40.5 30t-37.5 24t-45.5 16t-65.5 6q-58 0 -110 -19.5t-91.5 -52.5t-62.5 -77t-23 -93q0 -56 14.5 -92t49 -63.5t91 -51t139.5 -52.5q44 -16 82 -30t72 -28.5t63.5 -31t56.5 -37.5q70 -54 98.5 -132t28.5 -171q0 -94 -37 -169t-100 -127.5t-147.5 -80.5 t-179.5 -28q-187 0 -315 111q-35 32 -59.5 63.5t-39.5 57.5l15 9q33 19 63 19q24 0 46 -6.5t39 -23.5q41 -38 74.5 -58.5t63 -30t57 -11.5t56.5 -3h14q52 0 106 14q60 16 109 50t79.5 87t30.5 127q0 82 -24 131.5t-66.5 80.5t-100.5 51.5t-125 46.5q-85 34 -155 63 t-119.5 68.5t-77 97.5t-27.5 150q0 84 37 152t95.5 116.5t132 75t147.5 26.5q63 0 114.5 -16.5t94 -42t77 -57.5t63.5 -63l-31 -22q-12 -9 -27.5 -14.5t-37.5 -5.5q-37 0 -64 17zM507 1688q-5 6 -6.5 14t-2.5 10q-1 -2 -2 -9t-8 -15l-89 -105q-32 -44 -113 -44h-44 q38 58 64.5 96t43.5 61t25.5 33.5t10.5 13.5q17 20 37 32t61 12h27q41 0 61 -12t37 -32q2 -3 11 -13.5t26.5 -33.5t44 -61t64.5 -96h-44q-83 0 -115 44z"/>
<glyph glyph-name="scircumflex" horiz-adv-x="745" unicode="ŝ" d="M12 148q32 16 50.5 25.5t41.5 9.5q17 0 35 -4t45 -22q30 -21 65.5 -32t73.5 -11q41 0 82 11.5t75 35t55.5 59t23.5 84.5q-2 31 -11.5 57t-33 48.5t-63.5 43.5t-102 43l-21 7q-52 18 -103 38.5t-92 53t-66.5 81.5t-25.5 124q0 61 26.5 108.5t69 80t95.5 49.5t105 19h9 q52 -2 96 -19t78.5 -40t60 -47.5t41.5 -41.5l-19 -16q-16 -14 -34.5 -24.5t-39.5 -10.5q-13 1 -25 6t-24.5 12t-25.5 15t-27 15q-26 14 -50 18t-39 4q-46 -1 -78 -15.5t-52.5 -34.5t-29.5 -41.5t-9 -36.5q0 -41 17.5 -69.5t46.5 -48.5t65.5 -34t74.5 -27l10 -3 q57 -19 112 -45t97.5 -62.5t68.5 -87t26 -119.5q0 -65 -28 -122.5t-77.5 -101.5t-116 -69.5t-142.5 -25.5q-93 0 -175.5 42.5t-135.5 120.5zM395 1350q-5 6 -6.5 14t-2.5 10q0 -2 -1.5 -9t-8.5 -15l-124 -145q-32 -44 -113 -44h-44q76 117 125 177.5t54 66.5q17 20 37 32 t61 12h27q41 0 61 -12t37 -32q5 -6 54 -66.5t125 -177.5h-44q-83 0 -115 44z"/>
<glyph glyph-name="Scedilla" horiz-adv-x="998" unicode="Ş" d="M719 1245q-23 16 -40.5 30t-37.5 24t-45.5 16t-65.5 6q-58 0 -110 -19.5t-91.5 -52.5t-62.5 -77t-23 -93q0 -56 14.5 -92t49 -63.5t91 -51t139.5 -52.5q44 -16 82 -30t72 -28.5t63.5 -31t56.5 -37.5q70 -54 98.5 -132t28.5 -171q0 -94 -37 -169t-100 -127.5t-147.5 -80.5 t-179.5 -28q-187 0 -315 111q-35 32 -59.5 63.5t-39.5 57.5l15 9q33 19 63 19q24 0 46 -6.5t39 -23.5q41 -38 74.5 -58.5t63 -30t57 -11.5t56.5 -3h14q52 0 106 14q60 16 109 50t79.5 87t30.5 127q0 82 -24 131.5t-66.5 80.5t-100.5 51.5t-125 46.5q-85 34 -155 63 t-119.5 68.5t-77 97.5t-27.5 150q0 84 37 152t95.5 116.5t132 75t147.5 26.5q63 0 114.5 -16.5t94 -42t77 -57.5t63.5 -63l-31 -22q-12 -9 -27.5 -14.5t-37.5 -5.5q-37 0 -64 17zM466 10h76v-76q40 -3 78 -16t66.5 -33t46 -45.5t17.5 -53.5q-3 -38 -23.5 -65t-50 -44.5 t-63.5 -25.5t-64 -8q-22 0 -44 5t-41 12q-22 8 -43 18v53q13 -7 30 -12q14 -5 32.5 -8t39.5 -3q18 0 38 3t36.5 11.5t27.5 23.5t11 40q0 21 -10.5 37.5t-27 28t-36.5 17.5t-39 6q-8 0 -21.5 -0.5t-21.5 -0.5l-7 4q-8 4 -7 15v117z"/>
<glyph glyph-name="scedilla" horiz-adv-x="745" unicode="ş" d="M12 148q32 16 50.5 25.5t41.5 9.5q17 0 35 -4t45 -22q30 -21 65.5 -32t73.5 -11q41 0 82 11.5t75 35t55.5 59t23.5 84.5q-2 31 -11.5 57t-33 48.5t-63.5 43.5t-102 43l-21 7q-52 18 -103 38.5t-92 53t-66.5 81.5t-25.5 124q0 61 26.5 108.5t69 80t95.5 49.5t105 19h9 q52 -2 96 -19t78.5 -40t60 -47.5t41.5 -41.5l-19 -16q-16 -14 -34.5 -24.5t-39.5 -10.5q-13 1 -25 6t-24.5 12t-25.5 15t-27 15q-26 14 -50 18t-39 4q-46 -1 -78 -15.5t-52.5 -34.5t-29.5 -41.5t-9 -36.5q0 -41 17.5 -69.5t46.5 -48.5t65.5 -34t74.5 -27l10 -3 q57 -19 112 -45t97.5 -62.5t68.5 -87t26 -119.5q0 -65 -28 -122.5t-77.5 -101.5t-116 -69.5t-142.5 -25.5q-93 0 -175.5 42.5t-135.5 120.5zM274 10h76v-76q40 -3 78 -16t66.5 -33t46 -45.5t17.5 -53.5q-3 -38 -23.5 -65t-50 -44.5t-63.5 -25.5t-64 -8q-22 0 -44 5t-41 12 q-22 8 -43 18v53q13 -7 30 -12q14 -5 32.5 -8t39.5 -3q18 0 38 3t36.5 11.5t27.5 23.5t11 40q0 21 -10.5 37.5t-27 28t-36.5 17.5t-39 6q-8 0 -21.5 -0.5t-21.5 -0.5l-7 4q-8 4 -7 15v117z"/>
<glyph glyph-name="Scaron" horiz-adv-x="998" unicode="Š" d="M719 1245q-23 16 -40.5 30t-37.5 24t-45.5 16t-65.5 6q-58 0 -110 -19.5t-91.5 -52.5t-62.5 -77t-23 -93q0 -56 14.5 -92t49 -63.5t91 -51t139.5 -52.5q44 -16 82 -30t72 -28.5t63.5 -31t56.5 -37.5q70 -54 98.5 -132t28.5 -171q0 -94 -37 -169t-100 -127.5t-147.5 -80.5 t-179.5 -28q-187 0 -315 111q-35 32 -59.5 63.5t-39.5 57.5l15 9q33 19 63 19q24 0 46 -6.5t39 -23.5q41 -38 74.5 -58.5t63 -30t57 -11.5t56.5 -3h14q52 0 106 14q60 16 109 50t79.5 87t30.5 127q0 82 -24 131.5t-66.5 80.5t-100.5 51.5t-125 46.5q-85 34 -155 63 t-119.5 68.5t-77 97.5t-27.5 150q0 84 37 152t95.5 116.5t132 75t147.5 26.5q63 0 114.5 -16.5t94 -42t77 -57.5t63.5 -63l-31 -22q-12 -9 -27.5 -14.5t-37.5 -5.5q-37 0 -64 17zM489 1643q5 -6 6.5 -14t2.5 -10q0 2 1.5 9t8.5 15l124 145q32 44 113 44h44 q-76 -117 -125 -177.5t-54 -66.5q-17 -20 -37 -32t-61 -12h-27q-41 0 -61 12t-37 32q-5 6 -54 66.5t-125 177.5h44q83 0 115 -44z"/>
<glyph glyph-name="scaron" horiz-adv-x="745" unicode="š" d="M12 148q32 16 50.5 25.5t41.5 9.5q17 0 35 -4t45 -22q30 -21 65.5 -32t73.5 -11q41 0 82 11.5t75 35t55.5 59t23.5 84.5q-2 31 -11.5 57t-33 48.5t-63.5 43.5t-102 43l-21 7q-52 18 -103 38.5t-92 53t-66.5 81.5t-25.5 124q0 61 26.5 108.5t69 80t95.5 49.5t105 19h9 q52 -2 96 -19t78.5 -40t60 -47.5t41.5 -41.5l-19 -16q-16 -14 -34.5 -24.5t-39.5 -10.5q-13 1 -25 6t-24.5 12t-25.5 15t-27 15q-26 14 -50 18t-39 4q-46 -1 -78 -15.5t-52.5 -34.5t-29.5 -41.5t-9 -36.5q0 -41 17.5 -69.5t46.5 -48.5t65.5 -34t74.5 -27l10 -3 q57 -19 112 -45t97.5 -62.5t68.5 -87t26 -119.5q0 -65 -28 -122.5t-77.5 -101.5t-116 -69.5t-142.5 -25.5q-93 0 -175.5 42.5t-135.5 120.5zM376 1260q5 -6 6.5 -14t2.5 -10q0 2 1.5 9t8.5 15l124 145q32 44 113 44h44q-76 -117 -125 -177.5t-54 -66.5q-17 -20 -37 -32 t-61 -12h-27q-41 0 -61 12t-37 32q-5 6 -54 66.5t-125 177.5h44q83 0 115 -44z"/>
<glyph glyph-name="uni0162" horiz-adv-x="1125" unicode="Ţ" d="M28 1308v126h1069v-126h-472v-1308h-125v1308h-472zM509 -142h53q34 0 44 -14.5t10 -34.5q0 -14 -4.5 -44t-9.5 -61q-6 -36 -13 -77q-2 -10 -5 -19.5t-10.5 -17t-21.5 -12t-36 -4.5h-7v284z"/>
<glyph glyph-name="uni0163" horiz-adv-x="715" unicode="ţ" d="M346 244q0 -24 8.5 -49.5t24.5 -46.5t39.5 -34t54.5 -13l31 4q43 12 71 12q31 0 55.5 -18t43.5 -44l3 -4q-21 -14 -48 -26t-55.5 -21t-56 -14.5t-49.5 -5.5q-58 0 -104 19t-78.5 53.5t-50 82.5t-17.5 105v688h-190v74q0 46 123 46h67v237q0 45 11.5 75t20.5 45h96v-358 h315v-119h-315v-688zM399 -134h53q34 0 44 -14.5t10 -34.5q0 -14 -4.5 -44t-9.5 -61q-6 -36 -13 -77q-2 -10 -5 -19.5t-10.5 -17t-21.5 -12t-36 -4.5h-7v284z"/>
<glyph glyph-name="Tcaron" horiz-adv-x="1125" unicode="Ť" d="M28 1308v126h1069v-126h-472v-1308h-125v1308h-472zM553 1643q5 -6 6.5 -14t2.5 -10q0 2 1.5 9t8.5 15l124 145q32 44 113 44h44q-76 -117 -125 -177.5t-54 -66.5q-17 -20 -37 -32t-61 -12h-27q-41 0 -61 12t-37 32q-5 6 -54 66.5t-125 177.5h44q83 0 115 -44z"/>
<glyph glyph-name="tcaron" horiz-adv-x="715" unicode="ť" d="M346 244q0 -24 8.5 -49.5t24.5 -46.5t39.5 -34t54.5 -13l31 4q43 12 71 12q31 0 55.5 -18t43.5 -44l3 -4q-21 -14 -48 -26t-55.5 -21t-56 -14.5t-49.5 -5.5q-58 0 -104 19t-78.5 53.5t-50 82.5t-17.5 105v688h-190v74q0 46 123 46h67v237q0 45 11.5 75t20.5 45h96v-358 h315v-119h-315v-688zM574 1458h53q34 0 44 -14.5t10 -34.5q0 -14 -4.5 -44t-9.5 -61q-6 -36 -13 -77q-2 -10 -5 -19.5t-10.5 -17t-21.5 -12t-36 -4.5h-7v284z"/>
<glyph glyph-name="Tbar" horiz-adv-x="1125" unicode="Ŧ" d="M28 1308v126h1069v-126h-472v-1308h-125v1308h-472zM849 783v-114h-554v114h554z"/>
<glyph glyph-name="tbar" horiz-adv-x="715" unicode="ŧ" d="M346 244q0 -24 8.5 -49.5t24.5 -46.5t39.5 -34t54.5 -13l31 4q43 12 71 12q31 0 55.5 -18t43.5 -44l3 -4q-21 -14 -48 -26t-55.5 -21t-56 -14.5t-49.5 -5.5q-58 0 -104 19t-78.5 53.5t-50 82.5t-17.5 105v305h-149v114h149v269h-190v74q0 46 123 46h67v237q0 45 11.5 75 t20.5 45h96v-358h315v-119h-315v-269h217v-114h-217v-305z"/>
<glyph glyph-name="Utilde" horiz-adv-x="1437" unicode="Ũ" d="M280 551q0 -92 35 -172.5t95 -140.5t140.5 -95t172.5 -35q91 0 171.5 35t140.5 95t95 140.5t35 172.5v882h126v-882q0 -118 -44.5 -221.5t-121.5 -180.5t-180.5 -121.5t-221.5 -44.5q-117 0 -220.5 44.5t-181 121.5t-122 180.5t-44.5 221.5v882h125v-882zM859 1543 q-42 2 -81 18t-72.5 34.5t-61 33.5t-48.5 17h-7q-23 0 -37 -10t-22 -25t-10 -25.5t-2 -14.5q-17 -28 -93 -28q0 6 -0.5 11.5t-0.5 11.5q0 30 10.5 60t31.5 55t53 40.5t76 15.5q39 0 75 -16t69 -35.5t63 -35.5t57 -16q21 0 33.5 8t19 21t8 23t1.5 15q22 25 79 25h13v-5 q0 -11 -3 -40t-17.5 -60t-43.5 -54.5t-80 -23.5h-10z"/>
<glyph glyph-name="utilde" horiz-adv-x="1122" unicode="ũ" d="M871 0q-5 10 -9 23.5t-4 44.5v71q-37 -45 -81 -75t-91.5 -48t-96 -25.5t-95.5 -7.5q-86 0 -154.5 32.5t-116.5 93t-74 146t-26 192.5v603h128v-603q0 -161 62.5 -248.5t192.5 -87.5q73 0 136 19t110 52t75 76.5t31 91.5v700h128v-1050h-115zM716 1227q-42 2 -81 18 t-72.5 34.5t-61 33.5t-48.5 17h-7q-23 0 -37 -10t-22 -25t-10 -25.5t-2 -14.5q-17 -28 -93 -28q0 6 -0.5 11.5t-0.5 11.5q0 30 10.5 60t31.5 55t53 40.5t76 15.5q39 0 75 -16t69 -35.5t63 -35.5t57 -16q21 0 33.5 8t19 21t8 23t1.5 15q22 25 79 25h13v-5q0 -11 -3 -40 t-17.5 -60t-43.5 -54.5t-80 -23.5h-10z"/>
<glyph glyph-name="Umacron" horiz-adv-x="1437" unicode="Ū" d="M280 551q0 -92 35 -172.5t95 -140.5t140.5 -95t172.5 -35q91 0 171.5 35t140.5 95t95 140.5t35 172.5v882h126v-882q0 -118 -44.5 -221.5t-121.5 -180.5t-180.5 -121.5t-221.5 -44.5q-117 0 -220.5 44.5t-181 121.5t-122 180.5t-44.5 221.5v882h125v-882zM441 1692h554 v-114h-554v114z"/>
<glyph glyph-name="umacron" horiz-adv-x="1122" unicode="ū" d="M871 0q-5 10 -9 23.5t-4 44.5v71q-37 -45 -81 -75t-91.5 -48t-96 -25.5t-95.5 -7.5q-86 0 -154.5 32.5t-116.5 93t-74 146t-26 192.5v603h128v-603q0 -161 62.5 -248.5t192.5 -87.5q73 0 136 19t110 52t75 76.5t31 91.5v700h128v-1050h-115zM859 1331v-114h-554v114h554z "/>
<glyph glyph-name="Ubreve" horiz-adv-x="1437" unicode="Ŭ" d="M280 551q0 -92 35 -172.5t95 -140.5t140.5 -95t172.5 -35q91 0 171.5 35t140.5 95t95 140.5t35 172.5v882h126v-882q0 -118 -44.5 -221.5t-121.5 -180.5t-180.5 -121.5t-221.5 -44.5q-117 0 -220.5 44.5t-181 121.5t-122 180.5t-44.5 221.5v882h125v-882zM995 1781 q0 -50 -19 -96.5t-54.5 -82t-85.5 -56.5t-112 -21q-71 0 -124 22t-88.5 58t-53 82t-17.5 94h56q17 0 31 -9t20 -28q9 -29 28.5 -49t44 -32.5t51.5 -18t52 -5.5q24 0 50 7t49 20.5t42 33t28 44.5q7 18 17 27.5t32 9.5h53z"/>
<glyph glyph-name="ubreve" horiz-adv-x="1122" unicode="ŭ" d="M871 0q-5 10 -9 23.5t-4 44.5v71q-37 -45 -81 -75t-91.5 -48t-96 -25.5t-95.5 -7.5q-86 0 -154.5 32.5t-116.5 93t-74 146t-26 192.5v603h128v-603q0 -161 62.5 -248.5t192.5 -87.5q73 0 136 19t110 52t75 76.5t31 91.5v700h128v-1050h-115zM843 1421q0 -50 -19 -98 t-53.5 -85.5t-84.5 -60.5t-112 -23q-71 0 -124.5 23.5t-89 62t-53.5 86t-18 95.5h56q17 0 31 -9t20 -28q9 -29 28.5 -51t44.5 -36.5t52.5 -21.5t52.5 -7q24 0 49.5 9t48.5 24.5t41.5 36.5t27.5 46q7 18 17 27.5t32 9.5h53z"/>
<glyph glyph-name="Uring" horiz-adv-x="1437" unicode="Ů" d="M280 551q0 -92 35 -172.5t95 -140.5t140.5 -95t172.5 -35q91 0 171.5 35t140.5 95t95 140.5t35 172.5v882h126v-882q0 -118 -44.5 -221.5t-121.5 -180.5t-180.5 -121.5t-221.5 -44.5q-117 0 -220.5 44.5t-181 121.5t-122 180.5t-44.5 221.5v882h125v-882zM624 1699 q0 -17 7 -34t19 -30t29 -21t38 -8t38 8t30 21t20 30t7 34q0 18 -7 35t-19.5 30.5t-30 21.5t-38.5 8q-20 0 -37 -8t-29.5 -21.5t-19.5 -30.5t-7 -35zM532 1700q0 39 14.5 72.5t40 59t59 40t72.5 14.5t72.5 -14.5t59 -40t40 -59t14.5 -72.5t-14.5 -72.5t-40 -59t-59 -40 t-72.5 -14.5t-72.5 14.5t-59 40t-40 59t-14.5 72.5z"/>
<glyph glyph-name="uring" horiz-adv-x="1122" unicode="ů" d="M871 0q-5 10 -9 23.5t-4 44.5v71q-37 -45 -81 -75t-91.5 -48t-96 -25.5t-95.5 -7.5q-86 0 -154.5 32.5t-116.5 93t-74 146t-26 192.5v603h128v-603q0 -161 62.5 -248.5t192.5 -87.5q73 0 136 19t110 52t75 76.5t31 91.5v700h128v-1050h-115zM488 1316q0 -17 7 -34t19 -30 t29 -21t38 -8t38 8t30 21t20 30t7 34q0 18 -7 35t-19.5 30.5t-30 21.5t-38.5 8q-20 0 -37 -8t-29.5 -21.5t-19.5 -30.5t-7 -35zM396 1317q0 39 14.5 72.5t40 59t59 40t72.5 14.5t72.5 -14.5t59 -40t40 -59t14.5 -72.5t-14.5 -72.5t-40 -59t-59 -40t-72.5 -14.5t-72.5 14.5 t-59 40t-40 59t-14.5 72.5z"/>
<glyph glyph-name="Uhungarumlaut" horiz-adv-x="1437" unicode="Ű" d="M280 551q0 -92 35 -172.5t95 -140.5t140.5 -95t172.5 -35q91 0 171.5 35t140.5 95t95 140.5t35 172.5v882h126v-882q0 -118 -44.5 -221.5t-121.5 -180.5t-180.5 -121.5t-221.5 -44.5q-117 0 -220.5 44.5t-181 121.5t-122 180.5t-44.5 221.5v882h125v-882zM883 1575 q-15 -20 -42.5 -25.5t-65.5 -5.5h-34l172 244q16 22 49.5 33t75.5 11h60zM675 1577q-16 -21 -43.5 -27t-66.5 -6h-19q130 232 142 244q16 22 49 33t75 11h52z"/>
<glyph glyph-name="uhungarumlaut" horiz-adv-x="1122" unicode="ű" d="M871 0q-5 10 -9 23.5t-4 44.5v71q-37 -45 -81 -75t-91.5 -48t-96 -25.5t-95.5 -7.5q-86 0 -154.5 32.5t-116.5 93t-74 146t-26 192.5v603h128v-603q0 -161 62.5 -248.5t192.5 -87.5q73 0 136 19t110 52t75 76.5t31 91.5v700h128v-1050h-115zM708 1192 q-15 -20 -42.5 -25.5t-65.5 -5.5h-34l172 244q16 22 49.5 33t75.5 11h60zM500 1194q-16 -21 -43.5 -27t-66.5 -6h-19q130 232 142 244q16 22 49 33t75 11h52z"/>
<glyph glyph-name="Uogonek" horiz-adv-x="1437" unicode="Ų" d="M280 551q0 -92 35 -172.5t95 -140.5t140.5 -95t172.5 -35q91 0 171.5 35t140.5 95t95 140.5t35 172.5v882h126v-882q0 -118 -44.5 -221.5t-121.5 -180.5t-180.5 -121.5t-221.5 -44.5q-117 0 -220.5 44.5t-181 121.5t-122 180.5t-44.5 221.5v882h125v-882zM809 6 q-21 -12 -45 -30.5t-44 -38.5t-33.5 -41.5t-13.5 -39.5q0 -34 20.5 -57.5t70.5 -23.5q18 0 40.5 -1.5t42.5 -1.5q21 -1 46 -14.5t34 -35.5l16 -39q-18 -8 -41 -13q-20 -5 -46 -9t-58 -4q-105 0 -164.5 42.5t-59.5 112.5q0 28 12.5 55.5t34.5 52.5t51 48t62 43z"/>
<glyph glyph-name="uogonek" horiz-adv-x="1164" unicode="ų" d="M871 0q-5 10 -9 23.5t-4 44.5v71q-37 -45 -81 -75t-91.5 -48t-96 -25.5t-95.5 -7.5q-86 0 -154.5 32.5t-116.5 93t-74 146t-26 192.5v603h128v-603q0 -161 62.5 -248.5t192.5 -87.5q73 0 136 19t110 52t75 76.5t31 91.5v700h128v-1050h-115zM998 6q-21 -12 -45 -30.5 t-44 -38.5t-33.5 -41.5t-13.5 -39.5q0 -34 20.5 -57.5t70.5 -23.5q18 0 40.5 -1.5t42.5 -1.5q21 -1 46 -14.5t34 -35.5l16 -39q-18 -8 -41 -13q-20 -5 -46 -9t-58 -4q-105 0 -164.5 42.5t-59.5 112.5q0 28 12.5 55.5t34.5 52.5t51 48t62 43z"/>
<glyph glyph-name="Wcircumflex" horiz-adv-x="1905" unicode="Ŵ" d="M632 233q5 -11 8.5 -25.5t5.5 -27.5q3 -15 5 -30q1 15 4 30q2 13 6 27t9 26l493 1128q14 33 44 52.5t67 19.5h56l-284 -650l250 -550q5 -11 8.5 -25.5t5.5 -27.5q3 -15 5 -30q1 15 4 30q2 13 6 27t9 26l493 1128q14 33 44 52.5t67 19.5h56l-626 -1433h-106l-250 549 q-11 26 -15 47t-4 38q0 14 1 23t3 15l-293 -672h-106l-656 1433h56q37 0 67.5 -20t44.5 -52zM961 1688q-5 6 -6.5 14t-2.5 10q-1 -2 -2 -9t-8 -15l-89 -105q-32 -44 -113 -44h-44q38 58 64.5 96t43.5 61t25.5 33.5t10.5 13.5q17 20 37 32t61 12h27q41 0 61 -12t37 -32 q2 -3 11 -13.5t26.5 -33.5t44 -61t64.5 -96h-44q-83 0 -115 44z"/>
<glyph glyph-name="wcircumflex" horiz-adv-x="1679" unicode="ŵ" d="M-26 1050h56q38 0 70.5 -20t46.5 -53l342 -786q10 -23 13 -42t4 -24q2 21 5.5 35t11.5 31l347 786q15 34 46 54t68 20h57q-34 -78 -66.5 -152.5t-64.5 -147.5l244 -560q10 -23 13 -42t4 -24q2 21 5.5 35t11.5 31l347 786q15 34 46 54t68 20h57q-60 -139 -117 -269 t-113 -258t-112.5 -257t-116.5 -267h-150l-237 545q-5 11 -7 22t-2 22q0 10 1 18.5t3 14.5q2 7 4 13q-32 -72 -66.5 -151.5t-70.5 -161t-71.5 -163t-68.5 -159.5h-150zM849 1350q-5 6 -6.5 14t-2.5 10q0 -2 -1.5 -9t-8.5 -15l-124 -145q-32 -44 -113 -44h-44 q76 117 125 177.5t54 66.5q17 20 37 32t61 12h27q41 0 61 -12t37 -32q5 -6 54 -66.5t125 -177.5h-44q-83 0 -115 44z"/>
<glyph glyph-name="Ycircumflex" horiz-adv-x="1249" unicode="Ŷ" d="M688 0h-125v599q0 28 -5 49.5t-14 41t-22 38.5t-30 42l-489 663h60q103 0 152 -77l390 -525q15 -26 18 -38l2 -10q0 4 2 10q3 12 18 38l392 525q49 77 151 77h61l-490 -662q-29 -39 -50 -79.5t-21 -92.5v-599zM633 1688q-5 6 -6.5 14t-2.5 10q-1 -2 -2 -9t-8 -15 l-89 -105q-32 -44 -113 -44h-44q38 58 64.5 96t43.5 61t25.5 33.5t10.5 13.5q17 20 37 32t61 12h27q41 0 61 -12t37 -32q2 -3 11 -13.5t26.5 -33.5t44 -61t64.5 -96h-44q-83 0 -115 44z"/>
<glyph glyph-name="ycircumflex" horiz-adv-x="1106" unicode="ŷ" d="M27 1058h56q37 0 70 -19.5t45 -53.5l314 -720q8 -20 12 -38t5 -32q1 -16 0 -30l359 819q15 34 46.5 54t68.5 20h57l-596 -1362q-13 -36 -44.5 -56.5t-69.5 -20.5h-58l182 412zM586 1350q-5 6 -6.5 14t-2.5 10q0 -2 -1.5 -9t-8.5 -15l-124 -145q-32 -44 -113 -44h-44 q76 117 125 177.5t54 66.5q17 20 37 32t61 12h27q41 0 61 -12t37 -32q5 -6 54 -66.5t125 -177.5h-44q-83 0 -115 44z"/>
<glyph glyph-name="Ydieresis" horiz-adv-x="1249" unicode="Ÿ" d="M688 0h-125v599q0 28 -5 49.5t-14 41t-22 38.5t-30 42l-489 663h60q103 0 152 -77l390 -525q15 -26 18 -38l2 -10q0 4 2 10q3 12 18 38l392 525q49 77 151 77h61l-490 -662q-29 -39 -50 -79.5t-21 -92.5v-599zM674 1655q0 36 25 61.5t61 25.5q18 0 33.5 -7t27 -18.5 t18.5 -27.5t7 -34t-7 -33.5t-18.5 -27t-27 -18t-33.5 -6.5q-36 0 -61 25t-25 60zM402 1655q0 36 25 61.5t61 25.5q18 0 33.5 -7t27 -18.5t18.5 -27.5t7 -34t-7 -33.5t-18.5 -27t-27 -18t-33.5 -6.5q-36 0 -61 25t-25 60z"/>
<glyph glyph-name="Zacute" d="M1136 126v-126h-1052v44q0 64 39 111l823 1153h-842v126h1015v-44q0 -60 -30 -100l-842 -1177q4 3 10 6q5 2 14 4.5t21 2.5h844zM672 1583q-14 -15 -36 -27t-54 -12h-44q25 47 47.5 83t39.5 60.5t27.5 38t11.5 14.5q11 16 38 29t60 13h75z" unicode="Ź"/>
<glyph glyph-name="zacute" horiz-adv-x="932" unicode="ź" d="M842 126v-128h-772v46q0 64 39 111l555 767h-552v128h731v-44q0 -60 -30 -100l-572 -793q4 3 10 6q5 2 14 4.5t21 2.5h556zM561 1200q-14 -15 -36 -26t-54 -12l-44 -1q25 47 51 91t46.5 78t34 55t14.5 22q11 16 38 29t60 13h75z"/>
<glyph glyph-name="Zdotaccent" d="M1136 126v-126h-1052v44q0 64 39 111l823 1153h-842v126h1015v-44q0 -60 -30 -100l-842 -1177q4 3 10 6q5 2 14 4.5t21 2.5h844zM511 1667q0 43 29.5 72.5t72.5 29.5q21 0 39.5 -8t32 -21.5t21.5 -32.5t8 -40t-8 -39.5t-21.5 -32t-32 -21.5t-39.5 -8t-40 8t-32.5 21.5 t-21.5 32t-8 39.5z" unicode="Ż"/>
<glyph glyph-name="zdotaccent" horiz-adv-x="932" unicode="ż" d="M842 126v-128h-772v46q0 64 39 111l555 767h-552v128h731v-44q0 -60 -30 -100l-572 -793q4 3 10 6q5 2 14 4.5t21 2.5h556zM366 1284q0 42 29 70.5t71 28.5t71 -28.5t29 -70.5t-29 -71t-71 -29t-71 29t-29 71z"/>
<glyph glyph-name="Zcaron" d="M1136 126v-126h-1052v44q0 64 39 111l823 1153h-842v126h1015v-44q0 -60 -30 -100l-842 -1177q4 3 10 6q5 2 14 4.5t21 2.5h844zM603 1643q5 -6 6.5 -14t2.5 -10q0 2 1.5 9t8.5 15l124 145q32 44 113 44h44q-76 -117 -125 -177.5t-54 -66.5q-17 -20 -37 -32t-61 -12h-27 q-41 0 -61 12t-37 32q-5 6 -54 66.5t-125 177.5h44q83 0 115 -44z" unicode="Ž"/>
<glyph glyph-name="zcaron" horiz-adv-x="932" unicode="ž" d="M842 126v-128h-772v46q0 64 39 111l555 767h-552v128h731v-44q0 -60 -30 -100l-572 -793q4 3 10 6q5 2 14 4.5t21 2.5h556zM456 1260q5 -6 6.5 -14t2.5 -10q0 2 1.5 9t8.5 15l124 145q32 44 113 44h44q-76 -117 -125 -177.5t-54 -66.5q-17 -20 -37 -32t-61 -12h-27 q-41 0 -61 12t-37 32q-5 6 -54 66.5t-125 177.5h44q83 0 115 -44z"/>
<glyph glyph-name="longs" horiz-adv-x="655" unicode="ſ" d="M200 0v865h-189v74q0 46 122 46h67v195q0 57 17.5 104.5t50 82t79 54t103.5 19.5q23 0 51 -5t56 -14t54.5 -21.5t47.5 -26.5l-21 -30q-17 -22 -34 -29t-47 -7q-26 0 -69 12q-5 1 -11 2q-5 1 -12 1.5t-15 0.5q-30 0 -52.5 -13t-38 -34t-23.5 -46.5t-8 -49.5v-1180h-128z "/>
<glyph glyph-name="florin" horiz-adv-x="686" unicode="ƒ" d="M200 932h-190v74q0 46 123 46h67v127q0 57 17.5 104.5t50 82t78.5 54t104 19.5q23 0 51 -5t56 -14t54.5 -21.5t47.5 -26.5l-4 -4t-2 -5l2 1q-17 -26 -42.5 -42t-55.5 -16q-26 0 -69 12q-5 1 -11 2q-5 1 -12 1.5t-15 0.5q-30 0 -52.5 -13t-38 -34t-23.5 -46.5t-8 -49.5 v-129h293v-118h-293v-1011q0 -57 -17.5 -105t-50 -82.5t-79 -53.5t-103.5 -19q-23 0 -51 5t-56 14t-54.5 21.5t-47.5 26.5q2 2 3.5 4t1.5 5q17 25 41 41q25 16 55 16q28 0 70 -12q5 -1 11 -2q5 -1 12 -1.5t15 -0.5q30 0 52.5 13t38 34t23.5 46.5t8 49.5v1011z"/>
<glyph glyph-name="Ohorn" horiz-adv-x="1650" unicode="Ơ" d="M217 717q0 -84 22 -161.5t61.5 -145.5t95 -123t123 -95t144.5 -62q78 -21 162 -21t161.5 21.5t145.5 61.5t123 95t95 123t61 145q22 78 22 162q0 126 -48 236.5t-130.5 193t-193.5 130.5q-110 48 -236 48q-84 0 -161.5 -21.5t-145 -61.5t-123 -95t-95 -123t-61.5 -145.5 t-22 -161.5zM92 717q0 152 57.5 285.5t157.5 233t233 156.5q133 58 285 58t285 -58q134 -57 233 -157q12 -11 23 -23q22 8 41 23q21 16 34 39.5t13 54.5l-4 31q-12 43 -12 71q0 31 18 55.5t44 43.5l4 3q14 -21 26 -48t21 -55.5t14.5 -56t5.5 -49.5q0 -58 -19 -104t-54 -79 q-22 -21 -51 -37q30 -48 53 -102q58 -133 58 -285t-57.5 -285.5t-157 -233t-233.5 -157.5q-133 -57 -285 -57t-285 57.5t-233 157t-157.5 233t-57.5 285.5z"/>
<glyph glyph-name="ohorn" d="M200 525q0 -87 32 -162t88 -131t131 -88q76 -32 162 -32q87 0 162 32t131 88t88 131t32 162t-32 162t-88 131t-131 88t-162 32q-86 0 -161.5 -32t-131.5 -88t-88 -131t-32 -162zM72 525q0 74 19.5 143.5t55 129.5t85 109.5t109.5 84.5t129 54q69 20 143 20q112 0 210 -43 q99 -42 172 -116q29 -28 52 -60q14 7 26 16q21 16 34 39.5t13 54.5l-4 31q-12 43 -12 71q0 31 18 55.5t44 43.5l4 3q14 -21 26 -48t21 -55.5t14.5 -56t5.5 -49.5q0 -58 -19 -104t-54 -79q-23 -21 -52 -37q42 -97 42 -207q0 -112 -42.5 -210.5t-116 -172t-172.5 -116.5 q-98 -42 -210 -42q-74 0 -143 19.5t-129 54.5t-109.5 84.5t-85 109.5t-55 129.5t-19.5 143.5z" unicode="ơ"/>
<glyph glyph-name="Uhorn" horiz-adv-x="1504" unicode="Ư" d="M280 551q0 -92 35 -172.5t95 -140.5t140 -95q81 -35 173 -35q91 0 171.5 35t140.5 95t95 140q35 81 35 173v882h126v-230q15 2 30 7q26 9 47 25t34 39.5t13 54.5l-4 31q-12 43 -12 71q0 31 18 55.5t44 43.5l4 3q14 -21 26 -48t21 -55.5t14.5 -56t5.5 -49.5 q0 -58 -19 -104t-53.5 -78.5t-82.5 -50.5q-40 -14 -86 -17v-523q0 -118 -44.5 -221.5t-121.5 -180.5t-181 -122q-103 -44 -221 -44q-117 0 -220.5 44.5t-181 121.5t-122.5 180q-44 104 -44 222v882h125v-882z"/>
<glyph glyph-name="uhorn" horiz-adv-x="1196" unicode="ư" d="M871 0q-5 10 -9 23q-4 14 -4 45v71q-37 -45 -81 -75t-91.5 -48t-96.5 -25q-48 -8 -95 -8q-86 0 -154.5 32.5t-116.5 93t-74 145.5q-26 86 -26 193v603h128v-603q0 -161 62 -249q63 -87 193 -87q73 0 136 19t110 52t75 76q28 44 31 92v700h128v-220q16 3 33 8q26 9 47 25 t34 39.5t13 54.5l-4 31q-12 43 -12 71q0 31 18 55.5t44 43.5l4 3q14 -21 26 -48t21 -55.5t14.5 -56t5.5 -49.5q0 -58 -19 -104t-53.5 -78.5t-82.5 -50.5q-41 -15 -89 -17v-702h-115z"/>
<glyph glyph-name="AEacute" horiz-adv-x="1879" unicode="Ǽ" d="M389 464h701l-263 767q-4 9 -5.5 20.5t-2.5 21.5q-1 11 -2 24q-2 -12 -6 -24q-3 -11 -8 -22.5t-10 -22.5zM1775 0h-449q-35 0 -62.5 18.5t-38.5 50.5l-93 270h-811l-139 -264q-9 -15 -23 -28.5t-30.5 -24t-34.5 -16.5t-35 -6h-53l760 1433h1009v-125h-836l179 -522h518 v-125h-475l183 -536h431v-125zM924 1583q-14 -15 -36 -27t-54 -12h-44q25 47 47.5 83t39.5 60.5t27.5 38t11.5 14.5q11 16 38 29t60 13h75z"/>
<glyph glyph-name="aeacute" horiz-adv-x="1875" unicode="ǽ" d="M1320 938q-80 0 -144 -27t-110.5 -74.5t-76 -112.5t-39.5 -141q5 13 17.5 29t35.5 16h672q-36 149 -127.5 229.5t-227.5 80.5zM435 117q76 0 135.5 9t110.5 25t97.5 38.5t98.5 49.5q-19 42 -30 81.5t-17 70.5q-7 36 -10 67q-1 2 -1 6q-6 1 -31 4t-60 5t-75.5 4t-76.5 2 q-76 0 -140.5 -9.5t-111 -32t-73 -60t-26.5 -93.5q0 -35 15 -65.5t41.5 -53t63 -35.5t80.5 -13h10zM1319 1066q94 0 172 -30.5t138.5 -84.5t103 -128.5t66.5 -162.5q5 -20 5 -35q0 -26 -9.5 -48.5t-25.5 -40t-38 -27.5t-47 -10h-696q-27 0 -33.5 -10t-6.5 -14 q7 -85 34 -152.5t71.5 -114t106.5 -71.5t139 -25q72 0 134 20t112 52q14 9 31.5 13t33.5 4t27.5 -3t21.5 -8t19.5 -13.5t22.5 -18.5q-37 -37 -75 -68.5t-85 -55t-105.5 -37t-136.5 -13.5q-53 0 -107 10.5t-104.5 33t-95 58.5t-79.5 87l2 -10t1.5 -10t0.5 -10q0 -6 -1 -8 q-7 -16 -31 -33t-60 -34t-81 -32t-94.5 -26.5t-101 -18.5t-98.5 -7h-14q-68 2 -129 23.5t-108 60.5t-74.5 93.5t-27.5 122.5q0 74 29 134t88 102t148.5 65t211.5 23q36 0 76.5 -3t75.5 -7t61 -8t33 -5q1 9 1 17.5v16.5q0 94 -22 155.5t-58.5 97.5t-83.5 50.5t-97 14.5 q-57 0 -110 -13.5t-98 -42.5q-16 -10 -33 -20.5t-46 -10.5q-41 0 -80 30l-24 17q14 17 30 34q14 14 31 29t35 26q61 36 128 58t155 22q66 0 121 -14.5t98.5 -40.5t76 -62t53.5 -80q2 -3 2 -11q0 -7 -2 -15q-1 -4 -1 -7q30 52 74.5 94.5t99 72.5t118 46.5t131.5 16.5z M1032 1200q-14 -15 -36 -26t-54 -12l-44 -1q25 47 51 91t46.5 78t34 55t14.5 22q11 16 38 29t60 13h75z"/>
<glyph glyph-name="Oslashacute" horiz-adv-x="1650" unicode="Ǿ" d="M217 717q0 -84 22 -161.5t61.5 -145.5t95 -123t123 -95t145 -61.5t161.5 -21.5t161.5 21.5t145.5 61.5t123 95t95 123t61.5 145.5t21.5 161.5q0 126 -48 236.5t-130.5 193t-193 130.5t-236.5 48q-84 0 -161.5 -21.5t-145 -61.5t-123 -95t-95 -123t-61.5 -145.5 t-22 -161.5zM92 717q0 152 57.5 285.5t157.5 233t233 157t285 57.5t285.5 -57.5t233 -157t157 -233t57.5 -285.5t-57.5 -285.5t-157 -233t-233 -157t-285.5 -57.5t-285 57.5t-233 157t-157.5 233t-57.5 285.5zM1064 1393q17 38 53.5 58.5t87.5 20.5h28l-657 -1481 q-7 -16 -18.5 -30.5t-26 -26t-31 -18t-34.5 -6.5h-49zM941 1583q-14 -15 -36 -27t-54 -12h-44q25 47 47.5 83t39.5 60.5t27.5 38t11.5 14.5q11 16 38 29t60 13h75z"/>
<glyph glyph-name="oslashacute" d="M678 1200q-14 -15 -36 -26t-54 -12l-44 -1q25 47 51 91t46.5 78t34 55t14.5 22q11 16 38 29t60 13h75zM200 525q0 -87 32 -162t88 -131q33 -33 72 -57l328 750q-51 13 -107 13q-86 0 -161.5 -32t-131.5 -88t-88 -131t-32 -162zM72 525q0 74 19.5 143.5t55 129.5t85 109.5 t109.5 84.5t129 54.5t143 19.5q83 0 159 -23l22 50q17 38 53.5 58.5t87.5 20.5h28l-80 -178q63 -36 113 -86q74 -74 116 -172.5t42 -210.5t-42.5 -210.5t-116 -172t-172 -116t-210.5 -42.5q-74 0 -143 20l-26 8l-14 -31q-7 -16 -18.5 -30.5t-26 -26t-31 -18t-34.5 -6.5h-49 l69 158q-60 34 -108 84q-50 50 -85.5 110t-55 129.5t-19.5 143.5zM496 128q56 -16 117 -16q87 0 162 32t131 88t88 131t32 162t-32 162t-88 131q-34 34 -75 59z" unicode="ǿ"/>
<glyph glyph-name="uni0218" horiz-adv-x="998" unicode="Ș" d="M719 1245q-23 16 -40.5 30t-37.5 24t-45.5 16t-65.5 6q-58 0 -110 -19.5t-91.5 -52.5t-62.5 -77t-23 -93q0 -56 14.5 -92t49 -63.5t91 -51t139.5 -52.5q44 -16 82 -30t72 -28.5t63.5 -31t56.5 -37.5q70 -54 98.5 -132t28.5 -171q0 -94 -37 -169t-100 -127.5t-147.5 -80.5 t-179.5 -28q-187 0 -315 111q-35 32 -59.5 63.5t-39.5 57.5l15 9q33 19 63 19q24 0 46 -6.5t39 -23.5q41 -38 74.5 -58.5t63 -30t57 -11.5t56.5 -3h14q52 0 106 14q60 16 109 50t79.5 87t30.5 127q0 82 -24 131.5t-66.5 80.5t-100.5 51.5t-125 46.5q-85 34 -155 63 t-119.5 68.5t-77 97.5t-27.5 150q0 84 37 152t95.5 116.5t132 75t147.5 26.5q63 0 114.5 -16.5t94 -42t77 -57.5t63.5 -63l-31 -22q-12 -9 -27.5 -14.5t-37.5 -5.5q-37 0 -64 17zM476 -154h53q34 0 44 -14.5t10 -34.5q0 -14 -4.5 -44t-9.5 -61q-6 -36 -13 -77 q-2 -10 -5 -19.5t-10.5 -17t-21.5 -12t-36 -4.5h-7v284z"/>
<glyph glyph-name="uni0219" horiz-adv-x="745" unicode="ș" d="M12 148q32 16 50.5 25.5t41.5 9.5q17 0 35 -4t45 -22q30 -21 65.5 -32t73.5 -11q41 0 82 11.5t75 35t55.5 59t23.5 84.5q-2 31 -11.5 57t-33 48.5t-63.5 43.5t-102 43l-21 7q-52 18 -103 38.5t-92 53t-66.5 81.5t-25.5 124q0 61 26.5 108.5t69 80t95.5 49.5t105 19h9 q52 -2 96 -19t78.5 -40t60 -47.5t41.5 -41.5l-19 -16q-16 -14 -34.5 -24.5t-39.5 -10.5q-13 1 -25 6t-24.5 12t-25.5 15t-27 15q-26 14 -50 18t-39 4q-46 -1 -78 -15.5t-52.5 -34.5t-29.5 -41.5t-9 -36.5q0 -41 17.5 -69.5t46.5 -48.5t65.5 -34t74.5 -27l10 -3 q57 -19 112 -45t97.5 -62.5t68.5 -87t26 -119.5q0 -65 -28 -122.5t-77.5 -101.5t-116 -69.5t-142.5 -25.5q-93 0 -175.5 42.5t-135.5 120.5zM268 -127h53q34 0 44 -14.5t10 -34.5q0 -14 -4.5 -44t-9.5 -61q-6 -36 -13 -77q-2 -10 -5 -19.5t-10.5 -17t-21.5 -12t-36 -4.5h-7 v284z"/>
<glyph glyph-name="circumflex" horiz-adv-x="554" unicode="ˆ" d="M310 1350q-5 6 -6.5 14t-2.5 10q0 -2 -1.5 -9t-8.5 -15l-124 -145q-32 -44 -113 -44h-44q76 117 125 177.5t54 66.5q17 20 37 32t61 12h27q41 0 61 -12t37 -32q5 -6 54 -66.5t125 -177.5h-44q-83 0 -115 44z"/>
<glyph glyph-name="caron" horiz-adv-x="554" unicode="ˇ" d="M292 1260q5 -6 6.5 -14t2.5 -10q0 2 1.5 9t8.5 15l124 145q32 44 113 44h44q-76 -117 -125 -177.5t-54 -66.5q-17 -20 -37 -32t-61 -12h-27q-41 0 -61 12t-37 32q-5 6 -54 66.5t-125 177.5h44q83 0 115 -44z"/>
<glyph glyph-name="uni02C9" horiz-adv-x="614" unicode="ˉ" d="M584 1331v-114h-554v114h554z"/>
<glyph glyph-name="breve" horiz-adv-x="587" unicode="˘" d="M583 1421q0 -50 -19 -98t-53.5 -85.5t-84.5 -60.5t-112 -23q-71 0 -124.5 23.5t-89 62t-53.5 86t-18 95.5h56q17 0 31 -9t20 -28q9 -29 28.5 -51t44.5 -36.5t52.5 -21.5t52.5 -7q24 0 49.5 9t48.5 24.5t41.5 36.5t27.5 46q7 18 17 27.5t32 9.5h53z"/>
<glyph glyph-name="dotaccent" horiz-adv-x="547" unicode="˙" d="M171 1284q0 42 29 70.5t71 28.5t71 -28.5t29 -70.5t-29 -71t-71 -29t-71 29t-29 71z"/>
<glyph glyph-name="ring" horiz-adv-x="614" unicode="˚" d="M213 1316q0 -17 7 -34t19 -30t29 -21t38 -8t38 8t30 21t20 30t7 34q0 18 -7 35t-19.5 30.5t-30 21.5t-38.5 8q-20 0 -37 -8t-29.5 -21.5t-19.5 -30.5t-7 -35zM121 1317q0 39 14.5 72.5t40 59t59 40t72.5 14.5t72.5 -14.5t59 -40t40 -59t14.5 -72.5t-14.5 -72.5t-40 -59 t-59 -40t-72.5 -14.5t-72.5 14.5t-59 40t-40 59t-14.5 72.5z"/>
<glyph glyph-name="ogonek" horiz-adv-x="554" unicode="˛" d="M341 6q-21 -12 -45 -30.5t-44 -38.5t-33.5 -41.5t-13.5 -39.5q0 -34 20.5 -57.5t70.5 -23.5q18 0 40.5 -1.5t42.5 -1.5q21 -1 46 -14.5t34 -35.5l16 -39q-18 -8 -41 -13q-20 -5 -46 -9t-58 -4q-105 0 -164.5 42.5t-59.5 112.5q0 28 12.5 55.5t34.5 52.5t51 48t62 43z"/>
<glyph glyph-name="tilde" horiz-adv-x="597" unicode="˜" d="M441 1227q-42 2 -81 18t-72.5 34.5t-61 33.5t-48.5 17h-7q-23 0 -37 -10t-22 -25t-10 -25.5t-2 -14.5q-17 -28 -93 -28q0 6 -0.5 11.5t-0.5 11.5q0 30 10.5 60t31.5 55t53 40.5t76 15.5q39 0 75 -16t69 -35.5t63 -35.5t57 -16q21 0 33.5 8t19 21t8 23t1.5 15q22 25 79 25 h13v-5q0 -11 -3 -40t-17.5 -60t-43.5 -54.5t-80 -23.5h-10z"/>
<glyph glyph-name="hungarumlaut" horiz-adv-x="514" unicode="˝" d="M431 1192q-15 -20 -42.5 -25.5t-65.5 -5.5h-34l172 244q16 22 49.5 33t75.5 11h60zM223 1194q-16 -21 -43.5 -27t-66.5 -6h-19q130 232 142 244q16 22 49 33t75 11h52z"/>
<glyph glyph-name="gravecomb" horiz-adv-x="614" unicode="̀" d="M86 1449h75q33 0 62.5 -13t40.5 -29q1 -1 14.5 -22t34 -55t46 -78t51.5 -91l-49 1q-32 1 -54 12t-36 26z"/>
<glyph glyph-name="acutecomb" horiz-adv-x="552" unicode="́" d="M220 1200q-14 -15 -36 -26t-54 -12l-44 -1q25 47 51 91t46.5 78t34 55t14.5 22q11 16 38 29t60 13h75z"/>
<glyph glyph-name="uni0302" horiz-adv-x="554" unicode="̂" d="M310 1350q-5 6 -6.5 14t-2.5 10q0 -2 -1.5 -9t-8.5 -15l-124 -145q-32 -44 -113 -44h-44q76 117 125 177.5t54 66.5q17 20 37 32t61 12h27q41 0 61 -12t37 -32q5 -6 54 -66.5t125 -177.5h-44q-83 0 -115 44z"/>
<glyph glyph-name="tildecomb" horiz-adv-x="597" unicode="̃" d="M441 1227q-42 2 -81 18t-72.5 34.5t-61 33.5t-48.5 17h-7q-23 0 -37 -10t-22 -25t-10 -25.5t-2 -14.5q-17 -28 -93 -28q0 6 -0.5 11.5t-0.5 11.5q0 30 10.5 60t31.5 55t53 40.5t76 15.5q39 0 75 -16t69 -35.5t63 -35.5t57 -16q21 0 33.5 8t19 21t8 23t1.5 15q22 25 79 25 h13v-5q0 -11 -3 -40t-17.5 -60t-43.5 -54.5t-80 -23.5h-10z"/>
<glyph glyph-name="uni0306" horiz-adv-x="587" unicode="̆" d="M583 1421q0 -50 -19 -98t-53.5 -85.5t-84.5 -60.5t-112 -23q-71 0 -124.5 23.5t-89 62t-53.5 86t-18 95.5h56q17 0 31 -9t20 -28q9 -29 28.5 -51t44.5 -36.5t52.5 -21.5t52.5 -7q24 0 49.5 9t48.5 24.5t41.5 36.5t27.5 46q7 18 17 27.5t32 9.5h53z"/>
<glyph glyph-name="hookabovecomb" horiz-adv-x="467" unicode="̉" d="M34 1423q0 171 195 171q37 0 69 -10t55.5 -29.5t37 -49.5t14.5 -69q0 -35 -9.5 -58.5t-24.5 -38t-32.5 -23t-33.5 -13.5q-13 -4 -21.5 -7.5t-14 -10t-7.5 -17.5t-3 -30q0 -3 -4.5 -7.5t-16.5 -8.5q-10 -4 -30 -6q-10 -1 -22 -1t-27 1q0 40 5 67t17.5 44.5t32.5 28.5 t50 20q16 5 27 19.5t11 40.5q0 37 -24.5 53t-62.5 16q-26 0 -49 -9.5t-32 -41.5q-1 -3 -9 -9t-21.5 -11t-31.5 -9t-38 -2z"/>
<glyph glyph-name="dotbelowcomb" horiz-adv-x="547" unicode="̣" d="M175 -238q0 42 29 70.5t71 28.5t71 -28.5t29 -70.5t-29 -71t-71 -29t-71 29t-29 71z"/>
<glyph glyph-name="pi" horiz-adv-x="1310" unicode="π" d="M57 937v114h1086v-114h-256q-5 -38 -12 -90t-14 -112t-14 -125.5t-12.5 -130t-9 -125t-3.5 -110.5q0 -33 5.5 -60t18.5 -46t35 -29.5t55 -10.5l14 1q23 6 44.5 11.5t35.5 5.5q54 0 85 -38q-1 -3 -3 -13t-2 -11q-35 -34 -79 -52t-95 -18q-57 0 -100 19t-71.5 53.5 t-42.5 82.5t-14 105q0 44 3 101.5t8.5 121.5t12 131t13.5 129t13 116.5t11 93.5h-350v-937h-114v937h-248z"/>
<glyph glyph-name="Wgrave" horiz-adv-x="1905" unicode="Ẁ" d="M632 233q5 -11 8.5 -25.5t5.5 -27.5q3 -15 5 -30q1 15 4 30q2 13 6 27t9 26l493 1128q14 33 44 52.5t67 19.5h56l-284 -650l250 -550q5 -11 8.5 -25.5t5.5 -27.5q3 -15 5 -30q1 15 4 30q2 13 6 27t9 26l493 1128q14 33 44 52.5t67 19.5h56l-626 -1433h-106l-250 549 q-11 26 -15 47t-4 38q0 14 1 23t3 15l-293 -672h-106l-656 1433h56q37 0 67.5 -20t44.5 -52zM638 1782h75q33 0 60 -13t38 -29q1 -1 11.5 -14.5t27.5 -38t39 -60.5t48 -83h-44q-32 0 -54 12t-36 27z"/>
<glyph glyph-name="wgrave" horiz-adv-x="1679" unicode="ẁ" d="M-26 1050h56q38 0 70.5 -20t46.5 -53l342 -786q10 -23 13 -42t4 -24q2 21 5.5 35t11.5 31l347 786q15 34 46 54t68 20h57q-34 -78 -66.5 -152.5t-64.5 -147.5l244 -560q10 -23 13 -42t4 -24q2 21 5.5 35t11.5 31l347 786q15 34 46 54t68 20h57q-60 -139 -117 -269 t-113 -258t-112.5 -257t-116.5 -267h-150l-237 545q-5 11 -7 22t-2 22q0 10 1 18.5t3 14.5q2 7 4 13q-32 -72 -66.5 -151.5t-70.5 -161t-71.5 -163t-68.5 -159.5h-150zM680 1449h75q33 0 62.5 -13t40.5 -29q1 -1 14.5 -22t34 -55t46 -78t51.5 -91l-49 1q-32 1 -54 12t-36 26 z"/>
<glyph glyph-name="Wacute" horiz-adv-x="1905" unicode="Ẃ" d="M632 233q5 -11 8.5 -25.5t5.5 -27.5q3 -15 5 -30q1 15 4 30q2 13 6 27t9 26l493 1128q14 33 44 52.5t67 19.5h56l-284 -650l250 -550q5 -11 8.5 -25.5t5.5 -27.5q3 -15 5 -30q1 15 4 30q2 13 6 27t9 26l493 1128q14 33 44 52.5t67 19.5h56l-626 -1433h-106l-250 549 q-11 26 -15 47t-4 38q0 14 1 23t3 15l-293 -672h-106l-656 1433h56q37 0 67.5 -20t44.5 -52zM937 1583q-14 -15 -36 -27t-54 -12h-44q25 47 47.5 83t39.5 60.5t27.5 38t11.5 14.5q11 16 38 29t60 13h75z"/>
<glyph glyph-name="wacute" horiz-adv-x="1679" unicode="ẃ" d="M-26 1050h56q38 0 70.5 -20t46.5 -53l342 -786q10 -23 13 -42t4 -24q2 21 5.5 35t11.5 31l347 786q15 34 46 54t68 20h57q-34 -78 -66.5 -152.5t-64.5 -147.5l244 -560q10 -23 13 -42t4 -24q2 21 5.5 35t11.5 31l347 786q15 34 46 54t68 20h57q-60 -139 -117 -269 t-113 -258t-112.5 -257t-116.5 -267h-150l-237 545q-5 11 -7 22t-2 22q0 10 1 18.5t3 14.5q2 7 4 13q-32 -72 -66.5 -151.5t-70.5 -161t-71.5 -163t-68.5 -159.5h-150zM939 1200q-14 -15 -36 -26t-54 -12l-44 -1q25 47 51 91t46.5 78t34 55t14.5 22q11 16 38 29t60 13h75z "/>
<glyph glyph-name="Wdieresis" horiz-adv-x="1905" unicode="Ẅ" d="M632 233q5 -11 8.5 -25.5t5.5 -27.5q3 -15 5 -30q1 15 4 30q2 13 6 27t9 26l493 1128q14 33 44 52.5t67 19.5h56l-284 -650l250 -550q5 -11 8.5 -25.5t5.5 -27.5q3 -15 5 -30q1 15 4 30q2 13 6 27t9 26l493 1128q14 33 44 52.5t67 19.5h56l-626 -1433h-106l-250 549 q-11 26 -15 47t-4 38q0 14 1 23t3 15l-293 -672h-106l-656 1433h56q37 0 67.5 -20t44.5 -52zM1002 1655q0 36 25 61.5t61 25.5q18 0 33.5 -7t27 -18.5t18.5 -27.5t7 -34t-7 -33.5t-18.5 -27t-27 -18t-33.5 -6.5q-36 0 -61 25t-25 60zM730 1655q0 36 25 61.5t61 25.5 q18 0 33.5 -7t27 -18.5t18.5 -27.5t7 -34t-7 -33.5t-18.5 -27t-27 -18t-33.5 -6.5q-36 0 -61 25t-25 60z"/>
<glyph glyph-name="wdieresis" horiz-adv-x="1679" unicode="ẅ" d="M-26 1050h56q38 0 70.5 -20t46.5 -53l342 -786q10 -23 13 -42t4 -24q2 21 5.5 35t11.5 31l347 786q15 34 46 54t68 20h57q-34 -78 -66.5 -152.5t-64.5 -147.5l244 -560q10 -23 13 -42t4 -24q2 21 5.5 35t11.5 31l347 786q15 34 46 54t68 20h57q-60 -139 -117 -269 t-113 -258t-112.5 -257t-116.5 -267h-150l-237 545q-5 11 -7 22t-2 22q0 10 1 18.5t3 14.5q2 7 4 13q-32 -72 -66.5 -151.5t-70.5 -161t-71.5 -163t-68.5 -159.5h-150zM889 1284q0 35 24.5 60t59.5 25t60 -25t25 -60t-25 -59.5t-60 -24.5t-59.5 24.5t-24.5 59.5zM620 1284 q0 35 24.5 60t59.5 25t60 -25t25 -60t-25 -59.5t-60 -24.5t-59.5 24.5t-24.5 59.5z"/>
<glyph glyph-name="uni1EA0" horiz-adv-x="1288" unicode="Ạ" d="M304 464h680l-321 736q-8 19 -12.5 41t-6.5 42q-2 -18 -6.5 -41.5t-12.5 -41.5zM591 1433h106q79 -182 157 -361t156 -356.5t156 -356t157 -359.5h-56q-37 0 -67 19.5t-44 52.5l-117 267h-791l-115 -267q-14 -33 -44.5 -52.5t-67.5 -19.5h-56zM546 -238q0 42 29 70.5 t71 28.5t71 -28.5t29 -70.5t-29 -71t-71 -29t-71 29t-29 71z"/>
<glyph glyph-name="uni1EA1" horiz-adv-x="1025" unicode="ạ" d="M398 113q41 0 88.5 9t97.5 25t100.5 38.5t98.5 49.5v229q-6 1 -31 4t-60 5t-75.5 4t-77.5 2q-76 0 -140.5 -9.5t-111 -32t-73 -60t-26.5 -93.5q0 -36 15.5 -67t43.5 -54.5t66.5 -36.5t84.5 -13zM132 897q14 17 30 34q14 14 31 29t35 26q61 36 128 58t155 22 q82 0 143.5 -23t106 -62t73.5 -92t46 -113.5t24 -125t7 -126.5v-524h-108q-6 8 -13.5 24.5t-7.5 43.5v50q-45 -38 -93 -63.5t-96 -41.5t-94 -22.5t-86 -6.5h-14q-68 2 -129 23.5t-108 60.5t-74.5 93.5t-27.5 122.5q0 74 29 134t88 102t148.5 65t211.5 23q36 0 76.5 -3 t75.5 -7t61 -8t33 -5q-9 108 -34 177t-61.5 108.5t-83 54.5t-98.5 15q-57 0 -101.5 -15t-89.5 -44q-16 -10 -33 -20.5t-46 -10.5q-41 0 -80 30zM368 -238q0 42 29 70.5t71 28.5t71 -28.5t29 -70.5t-29 -71t-71 -29t-71 29t-29 71z"/>
<glyph glyph-name="uni1EA2" horiz-adv-x="1288" unicode="Ả" d="M304 464h680l-321 736q-8 19 -12.5 41t-6.5 42q-2 -18 -6.5 -41.5t-12.5 -41.5zM591 1433h106q79 -182 157 -361t156 -356.5t156 -356t157 -359.5h-56q-37 0 -67 19.5t-44 52.5l-117 267h-791l-115 -267q-14 -33 -44.5 -52.5t-67.5 -19.5h-56zM467 1751q0 171 195 171 q37 0 69 -10t55.5 -29.5t37 -49.5t14.5 -69q0 -35 -9.5 -58.5t-24.5 -38t-32.5 -23t-33.5 -13.5q-13 -4 -21.5 -7.5t-14 -10t-7.5 -17.5t-3 -30q0 -3 -4.5 -7.5t-16.5 -8.5q-10 -4 -30 -6q-10 -1 -22 -1t-27 1q0 40 5 67t17.5 44.5t32.5 28.5t50 20q16 5 27 19.5t11 40.5 q0 37 -24.5 53t-62.5 16q-26 0 -49 -9.5t-32 -41.5q-1 -3 -9 -9t-21.5 -11t-31.5 -9t-38 -2z"/>
<glyph glyph-name="uni1EA3" horiz-adv-x="1025" unicode="ả" d="M398 113q41 0 88.5 9t97.5 25t100.5 38.5t98.5 49.5v229q-6 1 -31 4t-60 5t-75.5 4t-77.5 2q-76 0 -140.5 -9.5t-111 -32t-73 -60t-26.5 -93.5q0 -36 15.5 -67t43.5 -54.5t66.5 -36.5t84.5 -13zM132 897q14 17 30 34q14 14 31 29t35 26q61 36 128 58t155 22 q82 0 143.5 -23t106 -62t73.5 -92t46 -113.5t24 -125t7 -126.5v-524h-108q-6 8 -13.5 24.5t-7.5 43.5v50q-45 -38 -93 -63.5t-96 -41.5t-94 -22.5t-86 -6.5h-14q-68 2 -129 23.5t-108 60.5t-74.5 93.5t-27.5 122.5q0 74 29 134t88 102t148.5 65t211.5 23q36 0 76.5 -3 t75.5 -7t61 -8t33 -5q-9 108 -34 177t-61.5 108.5t-83 54.5t-98.5 15q-57 0 -101.5 -15t-89.5 -44q-16 -10 -33 -20.5t-46 -10.5q-41 0 -80 30zM324 1367q0 171 195 171q37 0 69 -10t55.5 -29.5t37 -49.5t14.5 -69q0 -35 -9.5 -58.5t-24.5 -38t-32.5 -23t-33.5 -13.5 q-13 -4 -21.5 -7.5t-14 -10t-7.5 -17.5t-3 -30q0 -3 -4.5 -7.5t-16.5 -8.5q-10 -4 -30 -6q-10 -1 -22 -1t-27 1q0 40 5 67t17.5 44.5t32.5 28.5t50 20q16 5 27 19.5t11 40.5q0 37 -24.5 53t-62.5 16q-26 0 -49 -9.5t-32 -41.5q-1 -3 -9 -9t-21.5 -11t-31.5 -9t-38 -2z"/>
<glyph glyph-name="uni1EA4" horiz-adv-x="1288" unicode="Ấ" d="M304 464h680l-321 736q-8 19 -12.5 41t-6.5 42q-2 -18 -6.5 -41.5t-12.5 -41.5zM591 1433h106q79 -182 157 -361t156 -356.5t156 -356t157 -359.5h-56q-37 0 -67 19.5t-44 52.5l-117 267h-791l-115 -267q-14 -33 -44.5 -52.5t-67.5 -19.5h-56zM652 1692q-5 6 -6.5 14 t-2.5 10q-1 -2 -2 -9t-8 -15l-89 -105q-32 -44 -113 -44h-44q38 58 64.5 96t43.5 61t25.5 33.5t10.5 13.5q17 20 37 32t61 12h27q41 0 61 -12t37 -32q2 -3 11 -13.5t26.5 -33.5t44 -61t64.5 -96h-44q-83 0 -115 44zM913 1829q-14 -15 -36 -27t-54 -12h-44q25 47 47.5 83 t39.5 60.5t27.5 38t11.5 14.5q11 16 38 29t60 13h75z"/>
<glyph glyph-name="uni1EA5" horiz-adv-x="1025" unicode="ấ" d="M398 113q41 0 88.5 9t97.5 25t100.5 38.5t98.5 49.5v229q-6 1 -31 4t-60 5t-75.5 4t-77.5 2q-76 0 -140.5 -9.5t-111 -32t-73 -60t-26.5 -93.5q0 -36 15.5 -67t43.5 -54.5t66.5 -36.5t84.5 -13zM132 897q14 17 30 34q14 14 31 29t35 26q61 36 128 58t155 22 q82 0 143.5 -23t106 -62t73.5 -92t46 -113.5t24 -125t7 -126.5v-524h-108q-6 8 -13.5 24.5t-7.5 43.5v50q-45 -38 -93 -63.5t-96 -41.5t-94 -22.5t-86 -6.5h-14q-68 2 -129 23.5t-108 60.5t-74.5 93.5t-27.5 122.5q0 74 29 134t88 102t148.5 65t211.5 23q36 0 76.5 -3 t75.5 -7t61 -8t33 -5q-9 108 -34 177t-61.5 108.5t-83 54.5t-98.5 15q-57 0 -101.5 -15t-89.5 -44q-16 -10 -33 -20.5t-46 -10.5q-41 0 -80 30zM797 1472q-14 -15 -36 -26t-54 -12l-44 -1q25 47 51 91t46.5 78t34 55t14.5 22q11 16 38 29t60 13h75zM515 1350q-5 6 -6.5 14 t-2.5 10q0 -2 -1.5 -9t-8.5 -15l-124 -145q-32 -44 -113 -44h-44q76 117 125 177.5t54 66.5q17 20 37 32t61 12h27q41 0 61 -12t37 -32q5 -6 54 -66.5t125 -177.5h-44q-83 0 -115 44z"/>
<glyph glyph-name="uni1EA6" horiz-adv-x="1288" unicode="Ầ" d="M304 464h680l-321 736q-8 19 -12.5 41t-6.5 42q-2 -18 -6.5 -41.5t-12.5 -41.5zM591 1433h106q79 -182 157 -361t156 -356.5t156 -356t157 -359.5h-56q-37 0 -67 19.5t-44 52.5l-117 267h-791l-115 -267q-14 -33 -44.5 -52.5t-67.5 -19.5h-56zM650 1690q-5 6 -6.5 14 t-2.5 10q-1 -2 -2 -9t-8 -15l-89 -105q-32 -44 -113 -44h-44q38 58 64.5 96t43.5 61t25.5 33.5t10.5 13.5q17 20 37 32t61 12h27q41 0 61 -12t37 -32q2 -3 11 -13.5t26.5 -33.5t44 -61t64.5 -96h-44q-83 0 -115 44zM621 2029h75q33 0 60 -13t38 -29q1 -1 11.5 -14.5 t27.5 -38t39 -60.5t48 -83h-44q-32 0 -54 12t-36 27z"/>
<glyph glyph-name="uni1EA7" horiz-adv-x="1025" unicode="ầ" d="M398 113q41 0 88.5 9t97.5 25t100.5 38.5t98.5 49.5v229q-6 1 -31 4t-60 5t-75.5 4t-77.5 2q-76 0 -140.5 -9.5t-111 -32t-73 -60t-26.5 -93.5q0 -36 15.5 -67t43.5 -54.5t66.5 -36.5t84.5 -13zM132 897q14 17 30 34q14 14 31 29t35 26q61 36 128 58t155 22 q82 0 143.5 -23t106 -62t73.5 -92t46 -113.5t24 -125t7 -126.5v-524h-108q-6 8 -13.5 24.5t-7.5 43.5v50q-45 -38 -93 -63.5t-96 -41.5t-94 -22.5t-86 -6.5h-14q-68 2 -129 23.5t-108 60.5t-74.5 93.5t-27.5 122.5q0 74 29 134t88 102t148.5 65t211.5 23q36 0 76.5 -3 t75.5 -7t61 -8t33 -5q-9 108 -34 177t-61.5 108.5t-83 54.5t-98.5 15q-57 0 -101.5 -15t-89.5 -44q-16 -10 -33 -20.5t-46 -10.5q-41 0 -80 30zM483 1719h75q33 0 62.5 -13t40.5 -29q1 -1 14.5 -22t34 -55t46 -78t51.5 -91l-49 1q-32 1 -54 12t-36 26zM509 1350 q-5 6 -6.5 14t-2.5 10q0 -2 -1.5 -9t-8.5 -15l-124 -145q-32 -44 -113 -44h-44q76 117 125 177.5t54 66.5q17 20 37 32t61 12h27q41 0 61 -12t37 -32q5 -6 54 -66.5t125 -177.5h-44q-83 0 -115 44z"/>
<glyph glyph-name="uni1EA8" horiz-adv-x="1288" unicode="Ẩ" d="M304 464h680l-321 736q-8 19 -12.5 41t-6.5 42q-2 -18 -6.5 -41.5t-12.5 -41.5zM591 1433h106q79 -182 157 -361t156 -356.5t156 -356t157 -359.5h-56q-37 0 -67 19.5t-44 52.5l-117 267h-791l-115 -267q-14 -33 -44.5 -52.5t-67.5 -19.5h-56zM649 1690q-5 6 -6.5 14 t-2.5 10q-1 -2 -2 -9t-8 -15l-89 -105q-32 -44 -113 -44h-44q38 58 64.5 96t43.5 61t25.5 33.5t10.5 13.5q17 20 37 32t61 12h27q41 0 61 -12t37 -32q2 -3 11 -13.5t26.5 -33.5t44 -61t64.5 -96h-44q-83 0 -115 44zM695 1991q0 171 195 171q37 0 69 -10t55.5 -29.5t37 -49.5 t14.5 -69q0 -35 -9.5 -58.5t-24.5 -38t-32.5 -23t-33.5 -13.5q-13 -4 -21.5 -7.5t-14 -10t-7.5 -17.5t-3 -30q0 -3 -4.5 -7.5t-16.5 -8.5q-10 -4 -30 -6q-10 -1 -22 -1t-27 1q0 40 5 67t17.5 44.5t32.5 28.5t50 20q16 5 27 19.5t11 40.5q0 37 -24.5 53t-62.5 16 q-26 0 -49 -9.5t-32 -41.5q-1 -3 -9 -9t-21.5 -11t-31.5 -9t-38 -2z"/>
<glyph glyph-name="uni1EA9" horiz-adv-x="1025" unicode="ẩ" d="M398 113q41 0 88.5 9t97.5 25t100.5 38.5t98.5 49.5v229q-6 1 -31 4t-60 5t-75.5 4t-77.5 2q-76 0 -140.5 -9.5t-111 -32t-73 -60t-26.5 -93.5q0 -36 15.5 -67t43.5 -54.5t66.5 -36.5t84.5 -13zM132 897q14 17 30 34q14 14 31 29t35 26q61 36 128 58t155 22 q82 0 143.5 -23t106 -62t73.5 -92t46 -113.5t24 -125t7 -126.5v-524h-108q-6 8 -13.5 24.5t-7.5 43.5v50q-45 -38 -93 -63.5t-96 -41.5t-94 -22.5t-86 -6.5h-14q-68 2 -129 23.5t-108 60.5t-74.5 93.5t-27.5 122.5q0 74 29 134t88 102t148.5 65t211.5 23q36 0 76.5 -3 t75.5 -7t61 -8t33 -5q-9 108 -34 177t-61.5 108.5t-83 54.5t-98.5 15q-57 0 -101.5 -15t-89.5 -44q-16 -10 -33 -20.5t-46 -10.5q-41 0 -80 30zM573 1641q0 171 195 171q37 0 69 -10t55.5 -29.5t37 -49.5t14.5 -69q0 -35 -9.5 -58.5t-24.5 -38t-32.5 -23t-33.5 -13.5 q-13 -4 -21.5 -7.5t-14 -10t-7.5 -17.5t-3 -30q0 -3 -4.5 -7.5t-16.5 -8.5q-10 -4 -30 -6q-10 -1 -22 -1t-27 1q0 40 5 67t17.5 44.5t32.5 28.5t50 20q16 5 27 19.5t11 40.5q0 37 -24.5 53t-62.5 16q-26 0 -49 -9.5t-32 -41.5q-1 -3 -9 -9t-21.5 -11t-31.5 -9t-38 -2z M522 1350q-5 6 -6.5 14t-2.5 10q0 -2 -1.5 -9t-8.5 -15l-124 -145q-32 -44 -113 -44h-44q76 117 125 177.5t54 66.5q17 20 37 32t61 12h27q41 0 61 -12t37 -32q5 -6 54 -66.5t125 -177.5h-44q-83 0 -115 44z"/>
<glyph glyph-name="uni1EAA" horiz-adv-x="1288" unicode="Ẫ" d="M304 464h680l-321 736q-8 19 -12.5 41t-6.5 42q-2 -18 -6.5 -41.5t-12.5 -41.5zM591 1433h106q79 -182 157 -361t156 -356.5t156 -356t157 -359.5h-56q-37 0 -67 19.5t-44 52.5l-117 267h-791l-115 -267q-14 -33 -44.5 -52.5t-67.5 -19.5h-56zM650 1693q-5 6 -6.5 14 t-2.5 10q-1 -2 -2 -9t-8 -15l-89 -105q-32 -44 -113 -44h-44q38 58 64.5 96t43.5 61t25.5 33.5t10.5 13.5q17 20 37 32t61 12h27q41 0 61 -12t37 -32q2 -3 11 -13.5t26.5 -33.5t44 -61t64.5 -96h-44q-83 0 -115 44zM783 1874q-42 2 -81 18t-72.5 34.5t-61 33.5t-48.5 17h-7 q-23 0 -37 -10t-22 -25t-10 -25.5t-2 -14.5q-17 -28 -93 -28q0 6 -0.5 11.5t-0.5 11.5q0 30 10.5 60t31.5 55t53 40.5t76 15.5q39 0 75 -16t69 -35.5t63 -35.5t57 -16q21 0 33.5 8t19 21t8 23t1.5 15q22 25 79 25h13v-5q0 -11 -3 -40t-17.5 -60t-43.5 -54.5t-80 -23.5h-10z "/>
<glyph glyph-name="uni1EAB" horiz-adv-x="1025" unicode="ẫ" d="M398 113q41 0 88.5 9t97.5 25t100.5 38.5t98.5 49.5v229q-6 1 -31 4t-60 5t-75.5 4t-77.5 2q-76 0 -140.5 -9.5t-111 -32t-73 -60t-26.5 -93.5q0 -36 15.5 -67t43.5 -54.5t66.5 -36.5t84.5 -13zM132 897q14 17 30 34q14 14 31 29t35 26q61 36 128 58t155 22 q82 0 143.5 -23t106 -62t73.5 -92t46 -113.5t24 -125t7 -126.5v-524h-108q-6 8 -13.5 24.5t-7.5 43.5v50q-45 -38 -93 -63.5t-96 -41.5t-94 -22.5t-86 -6.5h-14q-68 2 -129 23.5t-108 60.5t-74.5 93.5t-27.5 122.5q0 74 29 134t88 102t148.5 65t211.5 23q36 0 76.5 -3 t75.5 -7t61 -8t33 -5q-9 108 -34 177t-61.5 108.5t-83 54.5t-98.5 15q-57 0 -101.5 -15t-89.5 -44q-16 -10 -33 -20.5t-46 -10.5q-41 0 -80 30zM525 1350q-5 6 -6.5 14t-2.5 10q0 -2 -1.5 -9t-8.5 -15l-124 -145q-32 -44 -113 -44h-44q76 117 125 177.5t54 66.5q17 20 37 32 t61 12h27q41 0 61 -12t37 -32q5 -6 54 -66.5t125 -177.5h-44q-83 0 -115 44zM679 1524q-42 2 -81 18t-72.5 34.5t-61 33.5t-48.5 17h-7q-23 0 -37 -10t-22 -25t-10 -25.5t-2 -14.5q-17 -28 -93 -28q0 6 -0.5 11.5t-0.5 11.5q0 30 10.5 60t31.5 55t53 40.5t76 15.5 q39 0 75 -16t69 -35.5t63 -35.5t57 -16q21 0 33.5 8t19 21t8 23t1.5 15q22 25 79 25h13v-5q0 -11 -3 -40t-17.5 -60t-43.5 -54.5t-80 -23.5h-10z"/>
<glyph glyph-name="uni1EAC" horiz-adv-x="1288" unicode="Ậ" d="M304 464h680l-321 736q-8 19 -12.5 41t-6.5 42q-2 -18 -6.5 -41.5t-12.5 -41.5zM591 1433h106q79 -182 157 -361t156 -356.5t156 -356t157 -359.5h-56q-37 0 -67 19.5t-44 52.5l-117 267h-791l-115 -267q-14 -33 -44.5 -52.5t-67.5 -19.5h-56zM541 -238q0 42 29 70.5 t71 28.5t71 -28.5t29 -70.5t-29 -71t-71 -29t-71 29t-29 71zM654 1688q-5 6 -6.5 14t-2.5 10q-1 -2 -2 -9t-8 -15l-89 -105q-32 -44 -113 -44h-44q38 58 64.5 96t43.5 61t25.5 33.5t10.5 13.5q17 20 37 32t61 12h27q41 0 61 -12t37 -32q2 -3 11 -13.5t26.5 -33.5t44 -61 t64.5 -96h-44q-83 0 -115 44z"/>
<glyph glyph-name="uni1EAD" horiz-adv-x="1025" unicode="ậ" d="M398 113q41 0 88.5 9t97.5 25t100.5 38.5t98.5 49.5v229q-6 1 -31 4t-60 5t-75.5 4t-77.5 2q-76 0 -140.5 -9.5t-111 -32t-73 -60t-26.5 -93.5q0 -36 15.5 -67t43.5 -54.5t66.5 -36.5t84.5 -13zM132 897q14 17 30 34q14 14 31 29t35 26q61 36 128 58t155 22 q82 0 143.5 -23t106 -62t73.5 -92t46 -113.5t24 -125t7 -126.5v-524h-108q-6 8 -13.5 24.5t-7.5 43.5v50q-45 -38 -93 -63.5t-96 -41.5t-94 -22.5t-86 -6.5h-14q-68 2 -129 23.5t-108 60.5t-74.5 93.5t-27.5 122.5q0 74 29 134t88 102t148.5 65t211.5 23q36 0 76.5 -3 t75.5 -7t61 -8t33 -5q-9 108 -34 177t-61.5 108.5t-83 54.5t-98.5 15q-57 0 -101.5 -15t-89.5 -44q-16 -10 -33 -20.5t-46 -10.5q-41 0 -80 30zM526 1349q-5 6 -6.5 14t-2.5 10q0 -2 -1.5 -9t-8.5 -15l-124 -145q-32 -44 -113 -44h-44q76 117 125 177.5t54 66.5q17 20 37 32 t61 12h27q41 0 61 -12t37 -32q5 -6 54 -66.5t125 -177.5h-44q-83 0 -115 44zM344 -238q0 42 29 70.5t71 28.5t71 -28.5t29 -70.5t-29 -71t-71 -29t-71 29t-29 71z"/>
<glyph glyph-name="uni1EAE" horiz-adv-x="1288" unicode="Ắ" d="M304 464h680l-321 736q-8 19 -12.5 41t-6.5 42q-2 -18 -6.5 -41.5t-12.5 -41.5zM591 1433h106q79 -182 157 -361t156 -356.5t156 -356t157 -359.5h-56q-37 0 -67 19.5t-44 52.5l-117 267h-791l-115 -267q-14 -33 -44.5 -52.5t-67.5 -19.5h-56zM929 1801q0 -50 -19 -96.5 t-54.5 -82t-85.5 -56.5t-112 -21q-71 0 -124 22t-88.5 58t-53 82t-17.5 94h56q17 0 31 -9t20 -28q9 -29 28.5 -49t44 -32.5t51.5 -18t52 -5.5q24 0 50 7t49 20.5t42 33t28 44.5q7 18 17 27.5t32 9.5h53zM715 1909q-14 -15 -36 -27t-54 -12h-44q25 47 47.5 83t39.5 60.5 t27.5 38t11.5 14.5q11 16 38 29t60 13h75z"/>
<glyph glyph-name="uni1EAF" horiz-adv-x="1025" unicode="ắ" d="M398 113q41 0 88.5 9t97.5 25t100.5 38.5t98.5 49.5v229q-6 1 -31 4t-60 5t-75.5 4t-77.5 2q-76 0 -140.5 -9.5t-111 -32t-73 -60t-26.5 -93.5q0 -36 15.5 -67t43.5 -54.5t66.5 -36.5t84.5 -13zM132 897q14 17 30 34q14 14 31 29t35 26q61 36 128 58t155 22 q82 0 143.5 -23t106 -62t73.5 -92t46 -113.5t24 -125t7 -126.5v-524h-108q-6 8 -13.5 24.5t-7.5 43.5v50q-45 -38 -93 -63.5t-96 -41.5t-94 -22.5t-86 -6.5h-14q-68 2 -129 23.5t-108 60.5t-74.5 93.5t-27.5 122.5q0 74 29 134t88 102t148.5 65t211.5 23q36 0 76.5 -3 t75.5 -7t61 -8t33 -5q-9 108 -34 177t-61.5 108.5t-83 54.5t-98.5 15q-57 0 -101.5 -15t-89.5 -44q-16 -10 -33 -20.5t-46 -10.5q-41 0 -80 30zM791 1426q0 -50 -19 -98t-53.5 -85.5t-84.5 -60.5t-112 -23q-71 0 -124.5 23.5t-89 62t-53.5 86t-18 95.5h56q17 0 31 -9t20 -28 q9 -29 28.5 -51t44.5 -36.5t52.5 -21.5t52.5 -7q24 0 49.5 9t48.5 24.5t41.5 36.5t27.5 46q7 18 17 27.5t32 9.5h53zM588 1534q-14 -15 -36 -26t-54 -12l-44 -1q25 47 51 91t46.5 78t34 55t14.5 22q11 16 38 29t60 13h75z"/>
<glyph glyph-name="uni1EB0" horiz-adv-x="1288" unicode="Ằ" d="M304 464h680l-321 736q-8 19 -12.5 41t-6.5 42q-2 -18 -6.5 -41.5t-12.5 -41.5zM591 1433h106q79 -182 157 -361t156 -356.5t156 -356t157 -359.5h-56q-37 0 -67 19.5t-44 52.5l-117 267h-791l-115 -267q-14 -33 -44.5 -52.5t-67.5 -19.5h-56zM919 1800q0 -50 -19 -96.5 t-54.5 -82t-85.5 -56.5t-112 -21q-71 0 -124 22t-88.5 58t-53 82t-17.5 94h56q17 0 31 -9t20 -28q9 -29 28.5 -49t44 -32.5t51.5 -18t52 -5.5q24 0 50 7t49 20.5t42 33t28 44.5q7 18 17 27.5t32 9.5h53zM475 2077h75q33 0 60 -13t38 -29q1 -1 11.5 -14.5t27.5 -38t39 -60.5 t48 -83h-44q-32 0 -54 12t-36 27z"/>
<glyph glyph-name="uni1EB1" horiz-adv-x="1025" unicode="ằ" d="M398 113q41 0 88.5 9t97.5 25t100.5 38.5t98.5 49.5v229q-6 1 -31 4t-60 5t-75.5 4t-77.5 2q-76 0 -140.5 -9.5t-111 -32t-73 -60t-26.5 -93.5q0 -36 15.5 -67t43.5 -54.5t66.5 -36.5t84.5 -13zM132 897q14 17 30 34q14 14 31 29t35 26q61 36 128 58t155 22 q82 0 143.5 -23t106 -62t73.5 -92t46 -113.5t24 -125t7 -126.5v-524h-108q-6 8 -13.5 24.5t-7.5 43.5v50q-45 -38 -93 -63.5t-96 -41.5t-94 -22.5t-86 -6.5h-14q-68 2 -129 23.5t-108 60.5t-74.5 93.5t-27.5 122.5q0 74 29 134t88 102t148.5 65t211.5 23q36 0 76.5 -3 t75.5 -7t61 -8t33 -5q-9 108 -34 177t-61.5 108.5t-83 54.5t-98.5 15q-57 0 -101.5 -15t-89.5 -44q-16 -10 -33 -20.5t-46 -10.5q-41 0 -80 30zM795 1426q0 -50 -19 -98t-53.5 -85.5t-84.5 -60.5t-112 -23q-71 0 -124.5 23.5t-89 62t-53.5 86t-18 95.5h56q17 0 31 -9t20 -28 q9 -29 28.5 -51t44.5 -36.5t52.5 -21.5t52.5 -7q24 0 49.5 9t48.5 24.5t41.5 36.5t27.5 46q7 18 17 27.5t32 9.5h53zM314 1783h75q33 0 62.5 -13t40.5 -29q1 -1 14.5 -22t34 -55t46 -78t51.5 -91l-49 1q-32 1 -54 12t-36 26z"/>
<glyph glyph-name="uni1EB2" horiz-adv-x="1288" unicode="Ẳ" d="M304 464h680l-321 736q-8 19 -12.5 41t-6.5 42q-2 -18 -6.5 -41.5t-12.5 -41.5zM591 1433h106q79 -182 157 -361t156 -356.5t156 -356t157 -359.5h-56q-37 0 -67 19.5t-44 52.5l-117 267h-791l-115 -267q-14 -33 -44.5 -52.5t-67.5 -19.5h-56zM924 1797q0 -50 -19 -96.5 t-54.5 -82t-85.5 -56.5t-112 -21q-71 0 -124 22t-88.5 58t-53 82t-17.5 94h56q17 0 31 -9t20 -28q9 -29 28.5 -49t44 -32.5t51.5 -18t52 -5.5q24 0 50 7t49 20.5t42 33t28 44.5q7 18 17 27.5t32 9.5h53zM473 2020q0 171 195 171q37 0 69 -10t55.5 -29.5t37 -49.5t14.5 -69 q0 -35 -9.5 -58.5t-24.5 -38t-32.5 -23t-33.5 -13.5q-13 -4 -21.5 -7.5t-14 -10t-7.5 -17.5t-3 -30q0 -3 -4.5 -7.5t-16.5 -8.5q-10 -4 -30 -6q-10 -1 -22 -1t-27 1q0 40 5 67t17.5 44.5t32.5 28.5t50 20q16 5 27 19.5t11 40.5q0 37 -24.5 53t-62.5 16q-26 0 -49 -9.5 t-32 -41.5q-1 -3 -9 -9t-21.5 -11t-31.5 -9t-38 -2z"/>
<glyph glyph-name="uni1EB3" horiz-adv-x="1025" unicode="ẳ" d="M398 113q41 0 88.5 9t97.5 25t100.5 38.5t98.5 49.5v229q-6 1 -31 4t-60 5t-75.5 4t-77.5 2q-76 0 -140.5 -9.5t-111 -32t-73 -60t-26.5 -93.5q0 -36 15.5 -67t43.5 -54.5t66.5 -36.5t84.5 -13zM132 897q14 17 30 34q14 14 31 29t35 26q61 36 128 58t155 22 q82 0 143.5 -23t106 -62t73.5 -92t46 -113.5t24 -125t7 -126.5v-524h-108q-6 8 -13.5 24.5t-7.5 43.5v50q-45 -38 -93 -63.5t-96 -41.5t-94 -22.5t-86 -6.5h-14q-68 2 -129 23.5t-108 60.5t-74.5 93.5t-27.5 122.5q0 74 29 134t88 102t148.5 65t211.5 23q36 0 76.5 -3 t75.5 -7t61 -8t33 -5q-9 108 -34 177t-61.5 108.5t-83 54.5t-98.5 15q-57 0 -101.5 -15t-89.5 -44q-16 -10 -33 -20.5t-46 -10.5q-41 0 -80 30zM765 1417q0 -50 -19 -96.5t-54.5 -82t-85.5 -56.5t-112 -21q-71 0 -124 22t-88.5 58t-53 82t-17.5 94h56q17 0 31 -9t20 -28 q9 -29 28.5 -49t44 -32.5t51.5 -18t52 -5.5q24 0 50 7t49 20.5t42 33t28 44.5q7 18 17 27.5t32 9.5h53zM314 1640q0 171 195 171q37 0 69 -10t55.5 -29.5t37 -49.5t14.5 -69q0 -35 -9.5 -58.5t-24.5 -38t-32.5 -23t-33.5 -13.5q-13 -4 -21.5 -7.5t-14 -10t-7.5 -17.5t-3 -30 q0 -3 -4.5 -7.5t-16.5 -8.5q-10 -4 -30 -6q-10 -1 -22 -1t-27 1q0 40 5 67t17.5 44.5t32.5 28.5t50 20q16 5 27 19.5t11 40.5q0 37 -24.5 53t-62.5 16q-26 0 -49 -9.5t-32 -41.5q-1 -3 -9 -9t-21.5 -11t-31.5 -9t-38 -2z"/>
<glyph glyph-name="uni1EB4" horiz-adv-x="1288" unicode="Ẵ" d="M304 464h680l-321 736q-8 19 -12.5 41t-6.5 42q-2 -18 -6.5 -41.5t-12.5 -41.5zM591 1433h106q79 -182 157 -361t156 -356.5t156 -356t157 -359.5h-56q-37 0 -67 19.5t-44 52.5l-117 267h-791l-115 -267q-14 -33 -44.5 -52.5t-67.5 -19.5h-56zM919 1795q0 -50 -19 -96.5 t-54.5 -82t-85.5 -56.5t-112 -21q-71 0 -124 22t-88.5 58t-53 82t-17.5 94h56q17 0 31 -9t20 -28q9 -29 28.5 -49t44 -32.5t51.5 -18t52 -5.5q24 0 50 7t49 20.5t42 33t28 44.5q7 18 17 27.5t32 9.5h53zM797 1894q-42 2 -81 18t-72.5 34.5t-61 33.5t-48.5 17h-7 q-23 0 -37 -10t-22 -25t-10 -25.5t-2 -14.5q-17 -28 -93 -28q0 6 -0.5 11.5t-0.5 11.5q0 30 10.5 60t31.5 55t53 40.5t76 15.5q39 0 75 -16t69 -35.5t63 -35.5t57 -16q21 0 33.5 8t19 21t8 23t1.5 15q22 25 79 25h13v-5q0 -11 -3 -40t-17.5 -60t-43.5 -54.5t-80 -23.5h-10z "/>
<glyph glyph-name="uni1EB5" horiz-adv-x="1025" unicode="ẵ" d="M398 113q41 0 88.5 9t97.5 25t100.5 38.5t98.5 49.5v229q-6 1 -31 4t-60 5t-75.5 4t-77.5 2q-76 0 -140.5 -9.5t-111 -32t-73 -60t-26.5 -93.5q0 -36 15.5 -67t43.5 -54.5t66.5 -36.5t84.5 -13zM132 897q14 17 30 34q14 14 31 29t35 26q61 36 128 58t155 22 q82 0 143.5 -23t106 -62t73.5 -92t46 -113.5t24 -125t7 -126.5v-524h-108q-6 8 -13.5 24.5t-7.5 43.5v50q-45 -38 -93 -63.5t-96 -41.5t-94 -22.5t-86 -6.5h-14q-68 2 -129 23.5t-108 60.5t-74.5 93.5t-27.5 122.5q0 74 29 134t88 102t148.5 65t211.5 23q36 0 76.5 -3 t75.5 -7t61 -8t33 -5q-9 108 -34 177t-61.5 108.5t-83 54.5t-98.5 15q-57 0 -101.5 -15t-89.5 -44q-16 -10 -33 -20.5t-46 -10.5q-41 0 -80 30zM764 1426q0 -50 -19 -98t-53.5 -85.5t-84.5 -60.5t-112 -23q-71 0 -124.5 23.5t-89 62t-53.5 86t-18 95.5h56q17 0 31 -9t20 -28 q9 -29 28.5 -51t44.5 -36.5t52.5 -21.5t52.5 -7q24 0 49.5 9t48.5 24.5t41.5 36.5t27.5 46q7 18 17 27.5t32 9.5h53zM646 1519q-42 2 -81 18t-72.5 34.5t-61 33.5t-48.5 17h-7q-23 0 -37 -10t-22 -25t-10 -25.5t-2 -14.5q-17 -28 -93 -28q0 6 -0.5 11.5t-0.5 11.5 q0 30 10.5 60t31.5 55t53 40.5t76 15.5q39 0 75 -16t69 -35.5t63 -35.5t57 -16q21 0 33.5 8t19 21t8 23t1.5 15q22 25 79 25h13v-5q0 -11 -3 -40t-17.5 -60t-43.5 -54.5t-80 -23.5h-10z"/>
<glyph glyph-name="uni1EB6" horiz-adv-x="1288" unicode="Ặ" d="M304 464h680l-321 736q-8 19 -12.5 41t-6.5 42q-2 -18 -6.5 -41.5t-12.5 -41.5zM591 1433h106q79 -182 157 -361t156 -356.5t156 -356t157 -359.5h-56q-37 0 -67 19.5t-44 52.5l-117 267h-791l-115 -267q-14 -33 -44.5 -52.5t-67.5 -19.5h-56zM543 -238q0 42 29 70.5 t71 28.5t71 -28.5t29 -70.5t-29 -71t-71 -29t-71 29t-29 71zM923 1797q0 -50 -19 -96.5t-54.5 -82t-85.5 -56.5t-112 -21q-71 0 -124 22t-88.5 58t-53 82t-17.5 94h56q17 0 31 -9t20 -28q9 -29 28.5 -49t44 -32.5t51.5 -18t52 -5.5q24 0 50 7t49 20.5t42 33t28 44.5 q7 18 17 27.5t32 9.5h53z"/>
<glyph glyph-name="uni1EB7" horiz-adv-x="1025" unicode="ặ" d="M398 113q41 0 88.5 9t97.5 25t100.5 38.5t98.5 49.5v229q-6 1 -31 4t-60 5t-75.5 4t-77.5 2q-76 0 -140.5 -9.5t-111 -32t-73 -60t-26.5 -93.5q0 -36 15.5 -67t43.5 -54.5t66.5 -36.5t84.5 -13zM132 897q14 17 30 34q14 14 31 29t35 26q61 36 128 58t155 22 q82 0 143.5 -23t106 -62t73.5 -92t46 -113.5t24 -125t7 -126.5v-524h-108q-6 8 -13.5 24.5t-7.5 43.5v50q-45 -38 -93 -63.5t-96 -41.5t-94 -22.5t-86 -6.5h-14q-68 2 -129 23.5t-108 60.5t-74.5 93.5t-27.5 122.5q0 74 29 134t88 102t148.5 65t211.5 23q36 0 76.5 -3 t75.5 -7t61 -8t33 -5q-9 108 -34 177t-61.5 108.5t-83 54.5t-98.5 15q-57 0 -101.5 -15t-89.5 -44q-16 -10 -33 -20.5t-46 -10.5q-41 0 -80 30zM385 -238q0 42 29 70.5t71 28.5t71 -28.5t29 -70.5t-29 -71t-71 -29t-71 29t-29 71zM771 1428q0 -50 -19 -98t-53.5 -85.5 t-84.5 -60.5t-112 -23q-71 0 -124.5 23.5t-89 62t-53.5 86t-18 95.5h56q17 0 31 -9t20 -28q9 -29 28.5 -51t44.5 -36.5t52.5 -21.5t52.5 -7q24 0 49.5 9t48.5 24.5t41.5 36.5t27.5 46q7 18 17 27.5t32 9.5h53z"/>
<glyph glyph-name="uni1EB8" horiz-adv-x="1133" unicode="Ẹ" d="M1028 0h-854v1433h854v-125h-729v-522h590v-125h-590v-536h729v-125zM489 -238q0 42 29 70.5t71 28.5t71 -28.5t29 -70.5t-29 -71t-71 -29t-71 29t-29 71z"/>
<glyph glyph-name="uni1EB9" horiz-adv-x="1204" unicode="ẹ" d="M615 938q-80 0 -150 -27t-124.5 -74.5t-90 -112.5t-45.5 -141q5 13 17.5 29t35.5 16h752q-18 74 -56.5 131.5t-91.5 97.5t-116.5 60.5t-130.5 20.5zM614 1066q94 0 178.5 -30.5t152.5 -84.5t116.5 -128.5t72.5 -162.5q5 -20 5 -35q0 -26 -9.5 -48.5t-25.5 -40t-38 -27.5 t-47 -10h-817q4 -83 38 -154t89 -122.5t128 -81t157 -29.5q26 0 56.5 6t61 16.5t60 24.5t54.5 30q14 9 31.5 13t33.5 4t28.5 -3.5t23.5 -10t21.5 -15.5t23.5 -19q-37 -37 -82 -68.5t-96 -55t-105.5 -37t-110.5 -13.5q-75 0 -144 19.5t-129 54.5t-109.5 84.5t-85 109.5 t-55 129.5t-19.5 143.5q0 112 43 210.5t117 172t172.5 116t209.5 42.5zM506 -238q0 42 29 70.5t71 28.5t71 -28.5t29 -70.5t-29 -71t-71 -29t-71 29t-29 71z"/>
<glyph glyph-name="uni1EBA" horiz-adv-x="1133" unicode="Ẻ" d="M1028 0h-854v1433h854v-125h-729v-522h590v-125h-590v-536h729v-125zM427 1751q0 171 195 171q37 0 69 -10t55.5 -29.5t37 -49.5t14.5 -69q0 -35 -9.5 -58.5t-24.5 -38t-32.5 -23t-33.5 -13.5q-13 -4 -21.5 -7.5t-14 -10t-7.5 -17.5t-3 -30q0 -3 -4.5 -7.5t-16.5 -8.5 q-10 -4 -30 -6q-10 -1 -22 -1t-27 1q0 40 5 67t17.5 44.5t32.5 28.5t50 20q16 5 27 19.5t11 40.5q0 37 -24.5 53t-62.5 16q-26 0 -49 -9.5t-32 -41.5q-1 -3 -9 -9t-21.5 -11t-31.5 -9t-38 -2z"/>
<glyph glyph-name="uni1EBB" horiz-adv-x="1204" unicode="ẻ" d="M615 938q-80 0 -150 -27t-124.5 -74.5t-90 -112.5t-45.5 -141q5 13 17.5 29t35.5 16h752q-18 74 -56.5 131.5t-91.5 97.5t-116.5 60.5t-130.5 20.5zM614 1066q94 0 178.5 -30.5t152.5 -84.5t116.5 -128.5t72.5 -162.5q5 -20 5 -35q0 -26 -9.5 -48.5t-25.5 -40t-38 -27.5 t-47 -10h-817q4 -83 38 -154t89 -122.5t128 -81t157 -29.5q26 0 56.5 6t61 16.5t60 24.5t54.5 30q14 9 31.5 13t33.5 4t28.5 -3.5t23.5 -10t21.5 -15.5t23.5 -19q-37 -37 -82 -68.5t-96 -55t-105.5 -37t-110.5 -13.5q-75 0 -144 19.5t-129 54.5t-109.5 84.5t-85 109.5 t-55 129.5t-19.5 143.5q0 112 43 210.5t117 172t172.5 116t209.5 42.5zM439 1368q0 171 195 171q37 0 69 -10t55.5 -29.5t37 -49.5t14.5 -69q0 -35 -9.5 -58.5t-24.5 -38t-32.5 -23t-33.5 -13.5q-13 -4 -21.5 -7.5t-14 -10t-7.5 -17.5t-3 -30q0 -3 -4.5 -7.5t-16.5 -8.5 q-10 -4 -30 -6q-10 -1 -22 -1t-27 1q0 40 5 67t17.5 44.5t32.5 28.5t50 20q16 5 27 19.5t11 40.5q0 37 -24.5 53t-62.5 16q-26 0 -49 -9.5t-32 -41.5q-1 -3 -9 -9t-21.5 -11t-31.5 -9t-38 -2z"/>
<glyph glyph-name="uni1EBC" horiz-adv-x="1133" unicode="Ẽ" d="M1070 0h-854v1433h854v-125h-729v-522h590v-125h-590v-536h729v-125zM747 1552q-42 2 -81 18t-72.5 34.5t-61 33.5t-48.5 17h-7q-23 0 -37 -10t-22 -25t-10 -25.5t-2 -14.5q-17 -28 -93 -28q0 6 -0.5 11.5t-0.5 11.5q0 30 10.5 60t31.5 55t53 40.5t76 15.5q39 0 75 -16 t69 -35.5t63 -35.5t57 -16q21 0 33.5 8t19 21t8 23t1.5 15q22 25 79 25h13v-5q0 -11 -3 -40t-17.5 -60t-43.5 -54.5t-80 -23.5h-10z"/>
<glyph glyph-name="uni1EBD" horiz-adv-x="1204" unicode="ẽ" d="M615 938q-80 0 -150 -27t-124.5 -74.5t-90 -112.5t-45.5 -141q5 13 17.5 29t35.5 16h752q-18 74 -56.5 131.5t-91.5 97.5t-116.5 60.5t-130.5 20.5zM614 1066q94 0 178.5 -30.5t152.5 -84.5t116.5 -128.5t72.5 -162.5q5 -20 5 -35q0 -26 -9.5 -48.5t-25.5 -40t-38 -27.5 t-47 -10h-817q4 -83 38 -154t89 -122.5t128 -81t157 -29.5q26 0 56.5 6t61 16.5t60 24.5t54.5 30q14 9 31.5 13t33.5 4t28.5 -3.5t23.5 -10t21.5 -15.5t23.5 -19q-37 -37 -82 -68.5t-96 -55t-105.5 -37t-110.5 -13.5q-75 0 -144 19.5t-129 54.5t-109.5 84.5t-85 109.5 t-55 129.5t-19.5 143.5q0 112 43 210.5t117 172t172.5 116t209.5 42.5zM754 1227q-42 2 -81 18t-72.5 34.5t-61 33.5t-48.5 17h-7q-23 0 -37 -10t-22 -25t-10 -25.5t-2 -14.5q-17 -28 -93 -28q0 6 -0.5 11.5t-0.5 11.5q0 30 10.5 60t31.5 55t53 40.5t76 15.5q39 0 75 -16 t69 -35.5t63 -35.5t57 -16q21 0 33.5 8t19 21t8 23t1.5 15q22 25 79 25h13v-5q0 -11 -3 -40t-17.5 -60t-43.5 -54.5t-80 -23.5h-10z"/>
<glyph glyph-name="uni1EBE" horiz-adv-x="1133" unicode="Ế" d="M1028 0h-854v1433h854v-125h-729v-522h590v-125h-590v-536h729v-125zM614 1692q-5 6 -6.5 14t-2.5 10q-1 -2 -2 -9t-8 -15l-89 -105q-32 -44 -113 -44h-44q38 58 64.5 96t43.5 61t25.5 33.5t10.5 13.5q17 20 37 32t61 12h27q41 0 61 -12t37 -32q2 -3 11 -13.5t26.5 -33.5 t44 -61t64.5 -96h-44q-83 0 -115 44zM875 1829q-14 -15 -36 -27t-54 -12h-44q25 47 47.5 83t39.5 60.5t27.5 38t11.5 14.5q11 16 38 29t60 13h75z"/>
<glyph glyph-name="uni1EBF" horiz-adv-x="1204" unicode="ế" d="M615 938q-80 0 -150 -27t-124.5 -74.5t-90 -112.5t-45.5 -141q5 13 17.5 29t35.5 16h752q-18 74 -56.5 131.5t-91.5 97.5t-116.5 60.5t-130.5 20.5zM614 1066q94 0 178.5 -30.5t152.5 -84.5t116.5 -128.5t72.5 -162.5q5 -20 5 -35q0 -26 -9.5 -48.5t-25.5 -40t-38 -27.5 t-47 -10h-817q4 -83 38 -154t89 -122.5t128 -81t157 -29.5q26 0 56.5 6t61 16.5t60 24.5t54.5 30q14 9 31.5 13t33.5 4t28.5 -3.5t23.5 -10t21.5 -15.5t23.5 -19q-37 -37 -82 -68.5t-96 -55t-105.5 -37t-110.5 -13.5q-75 0 -144 19.5t-129 54.5t-109.5 84.5t-85 109.5 t-55 129.5t-19.5 143.5q0 112 43 210.5t117 172t172.5 116t209.5 42.5zM911 1472q-14 -15 -36 -26t-54 -12l-44 -1q25 47 51 91t46.5 78t34 55t14.5 22q11 16 38 29t60 13h75zM629 1350q-5 6 -6.5 14t-2.5 10q0 -2 -1.5 -9t-8.5 -15l-124 -145q-32 -44 -113 -44h-44 q76 117 125 177.5t54 66.5q17 20 37 32t61 12h27q41 0 61 -12t37 -32q5 -6 54 -66.5t125 -177.5h-44q-83 0 -115 44z"/>
<glyph glyph-name="uni1EC0" horiz-adv-x="1133" unicode="Ề" d="M1028 0h-854v1433h854v-125h-729v-522h590v-125h-590v-536h729v-125zM609 1690q-5 6 -6.5 14t-2.5 10q-1 -2 -2 -9t-8 -15l-89 -105q-32 -44 -113 -44h-44q38 58 64.5 96t43.5 61t25.5 33.5t10.5 13.5q17 20 37 32t61 12h27q41 0 61 -12t37 -32q2 -3 11 -13.5t26.5 -33.5 t44 -61t64.5 -96h-44q-83 0 -115 44zM580 2029h75q33 0 60 -13t38 -29q1 -1 11.5 -14.5t27.5 -38t39 -60.5t48 -83h-44q-32 0 -54 12t-36 27z"/>
<glyph glyph-name="uni1EC1" horiz-adv-x="1204" unicode="ề" d="M615 938q-80 0 -150 -27t-124.5 -74.5t-90 -112.5t-45.5 -141q5 13 17.5 29t35.5 16h752q-18 74 -56.5 131.5t-91.5 97.5t-116.5 60.5t-130.5 20.5zM614 1066q94 0 178.5 -30.5t152.5 -84.5t116.5 -128.5t72.5 -162.5q5 -20 5 -35q0 -26 -9.5 -48.5t-25.5 -40t-38 -27.5 t-47 -10h-817q4 -83 38 -154t89 -122.5t128 -81t157 -29.5q26 0 56.5 6t61 16.5t60 24.5t54.5 30q14 9 31.5 13t33.5 4t28.5 -3.5t23.5 -10t21.5 -15.5t23.5 -19q-37 -37 -82 -68.5t-96 -55t-105.5 -37t-110.5 -13.5q-75 0 -144 19.5t-129 54.5t-109.5 84.5t-85 109.5 t-55 129.5t-19.5 143.5q0 112 43 210.5t117 172t172.5 116t209.5 42.5zM590 1719h75q33 0 62.5 -13t40.5 -29q1 -1 14.5 -22t34 -55t46 -78t51.5 -91l-49 1q-32 1 -54 12t-36 26zM616 1350q-5 6 -6.5 14t-2.5 10q0 -2 -1.5 -9t-8.5 -15l-124 -145q-32 -44 -113 -44h-44 q76 117 125 177.5t54 66.5q17 20 37 32t61 12h27q41 0 61 -12t37 -32q5 -6 54 -66.5t125 -177.5h-44q-83 0 -115 44z"/>
<glyph glyph-name="uni1EC2" horiz-adv-x="1133" unicode="Ể" d="M1028 0h-854v1433h854v-125h-729v-522h590v-125h-590v-536h729v-125zM617 1690q-5 6 -6.5 14t-2.5 10q-1 -2 -2 -9t-8 -15l-89 -105q-32 -44 -113 -44h-44q38 58 64.5 96t43.5 61t25.5 33.5t10.5 13.5q17 20 37 32t61 12h27q41 0 61 -12t37 -32q2 -3 11 -13.5t26.5 -33.5 t44 -61t64.5 -96h-44q-83 0 -115 44zM663 1991q0 171 195 171q37 0 69 -10t55.5 -29.5t37 -49.5t14.5 -69q0 -35 -9.5 -58.5t-24.5 -38t-32.5 -23t-33.5 -13.5q-13 -4 -21.5 -7.5t-14 -10t-7.5 -17.5t-3 -30q0 -3 -4.5 -7.5t-16.5 -8.5q-10 -4 -30 -6q-10 -1 -22 -1t-27 1 q0 40 5 67t17.5 44.5t32.5 28.5t50 20q16 5 27 19.5t11 40.5q0 37 -24.5 53t-62.5 16q-26 0 -49 -9.5t-32 -41.5q-1 -3 -9 -9t-21.5 -11t-31.5 -9t-38 -2z"/>
<glyph glyph-name="uni1EC3" horiz-adv-x="1204" unicode="ể" d="M615 938q-80 0 -150 -27t-124.5 -74.5t-90 -112.5t-45.5 -141q5 13 17.5 29t35.5 16h752q-18 74 -56.5 131.5t-91.5 97.5t-116.5 60.5t-130.5 20.5zM614 1066q94 0 178.5 -30.5t152.5 -84.5t116.5 -128.5t72.5 -162.5q5 -20 5 -35q0 -26 -9.5 -48.5t-25.5 -40t-38 -27.5 t-47 -10h-817q4 -83 38 -154t89 -122.5t128 -81t157 -29.5q26 0 56.5 6t61 16.5t60 24.5t54.5 30q14 9 31.5 13t33.5 4t28.5 -3.5t23.5 -10t21.5 -15.5t23.5 -19q-37 -37 -82 -68.5t-96 -55t-105.5 -37t-110.5 -13.5q-75 0 -144 19.5t-129 54.5t-109.5 84.5t-85 109.5 t-55 129.5t-19.5 143.5q0 112 43 210.5t117 172t172.5 116t209.5 42.5zM686 1641q0 171 195 171q37 0 69 -10t55.5 -29.5t37 -49.5t14.5 -69q0 -35 -9.5 -58.5t-24.5 -38t-32.5 -23t-33.5 -13.5q-13 -4 -21.5 -7.5t-14 -10t-7.5 -17.5t-3 -30q0 -3 -4.5 -7.5t-16.5 -8.5 q-10 -4 -30 -6q-10 -1 -22 -1t-27 1q0 40 5 67t17.5 44.5t32.5 28.5t50 20q16 5 27 19.5t11 40.5q0 37 -24.5 53t-62.5 16q-26 0 -49 -9.5t-32 -41.5q-1 -3 -9 -9t-21.5 -11t-31.5 -9t-38 -2zM635 1350q-5 6 -6.5 14t-2.5 10q0 -2 -1.5 -9t-8.5 -15l-124 -145 q-32 -44 -113 -44h-44q76 117 125 177.5t54 66.5q17 20 37 32t61 12h27q41 0 61 -12t37 -32q5 -6 54 -66.5t125 -177.5h-44q-83 0 -115 44z"/>
<glyph glyph-name="uni1EC4" horiz-adv-x="1133" unicode="Ễ" d="M1028 0h-854v1433h854v-125h-729v-522h590v-125h-590v-536h729v-125zM600 1693q-5 6 -6.5 14t-2.5 10q-1 -2 -2 -9t-8 -15l-89 -105q-32 -44 -113 -44h-44q38 58 64.5 96t43.5 61t25.5 33.5t10.5 13.5q17 20 37 32t61 12h27q41 0 61 -12t37 -32q2 -3 11 -13.5t26.5 -33.5 t44 -61t64.5 -96h-44q-83 0 -115 44zM733 1874q-42 2 -81 18t-72.5 34.5t-61 33.5t-48.5 17h-7q-23 0 -37 -10t-22 -25t-10 -25.5t-2 -14.5q-17 -28 -93 -28q0 6 -0.5 11.5t-0.5 11.5q0 30 10.5 60t31.5 55t53 40.5t76 15.5q39 0 75 -16t69 -35.5t63 -35.5t57 -16 q21 0 33.5 8t19 21t8 23t1.5 15q22 25 79 25h13v-5q0 -11 -3 -40t-17.5 -60t-43.5 -54.5t-80 -23.5h-10z"/>
<glyph glyph-name="uni1EC5" horiz-adv-x="1204" unicode="ễ" d="M615 938q-80 0 -150 -27t-124.5 -74.5t-90 -112.5t-45.5 -141q5 13 17.5 29t35.5 16h752q-18 74 -56.5 131.5t-91.5 97.5t-116.5 60.5t-130.5 20.5zM614 1066q94 0 178.5 -30.5t152.5 -84.5t116.5 -128.5t72.5 -162.5q5 -20 5 -35q0 -26 -9.5 -48.5t-25.5 -40t-38 -27.5 t-47 -10h-817q4 -83 38 -154t89 -122.5t128 -81t157 -29.5q26 0 56.5 6t61 16.5t60 24.5t54.5 30q14 9 31.5 13t33.5 4t28.5 -3.5t23.5 -10t21.5 -15.5t23.5 -19q-37 -37 -82 -68.5t-96 -55t-105.5 -37t-110.5 -13.5q-75 0 -144 19.5t-129 54.5t-109.5 84.5t-85 109.5 t-55 129.5t-19.5 143.5q0 112 43 210.5t117 172t172.5 116t209.5 42.5zM784 1524q-42 2 -81 18t-72.5 34.5t-61 33.5t-48.5 17h-7q-23 0 -37 -10t-22 -25t-10 -25.5t-2 -14.5q-17 -28 -93 -28q0 6 -0.5 11.5t-0.5 11.5q0 30 10.5 60t31.5 55t53 40.5t76 15.5q39 0 75 -16 t69 -35.5t63 -35.5t57 -16q21 0 33.5 8t19 21t8 23t1.5 15q22 25 79 25h13v-5q0 -11 -3 -40t-17.5 -60t-43.5 -54.5t-80 -23.5h-10zM630 1350q-5 6 -6.5 14t-2.5 10q0 -2 -1.5 -9t-8.5 -15l-124 -145q-32 -44 -113 -44h-44q76 117 125 177.5t54 66.5q17 20 37 32t61 12h27 q41 0 61 -12t37 -32q5 -6 54 -66.5t125 -177.5h-44q-83 0 -115 44z"/>
</font>
</defs>
</svg>
